<?xml version="1.0" encoding="utf-8" standalone="no"?>
<!DOCTYPE svg PUBLIC "-//W3C//DTD SVG 1.1//EN"
  "http://www.w3.org/Graphics/SVG/1.1/DTD/svg11.dtd">
<svg xmlns:xlink="http://www.w3.org/1999/xlink" width="720pt" height="144pt" viewBox="0 0 720 144" xmlns="http://www.w3.org/2000/svg" version="1.1">
 <metadata>
  <rdf:RDF xmlns:dc="http://purl.org/dc/elements/1.1/" xmlns:cc="http://creativecommons.org/ns#" xmlns:rdf="http://www.w3.org/1999/02/22-rdf-syntax-ns#">
   <cc:Work>
    <dc:type rdf:resource="http://purl.org/dc/dcmitype/StillImage"/>
    <dc:date>2026-03-16T20:50:15.541753</dc:date>
    <dc:format>image/svg+xml</dc:format>
    <dc:creator>
     <cc:Agent>
      <dc:title>Matplotlib v3.10.8, https://matplotlib.org/</dc:title>
     </cc:Agent>
    </dc:creator>
   </cc:Work>
  </rdf:RDF>
 </metadata>
 <defs>
  <style type="text/css">*{stroke-linejoin: round; stroke-linecap: butt}</style>
 </defs>
 <g id="figure_1">
  <g id="patch_1">
   <path d="M 0 144 
L 720 144 
L 720 0 
L 0 0 
L 0 144 
z
" style="fill: none"/>
  </g>
  <g id="axes_1">
   <g id="FillBetweenPolyCollection_1">
    <path d="M 0 144 
L 0 16.457143 
L 0.025334 16.457143 
L 0.120082 16.457143 
L 0.217517 16.457143 
L 0.329968 16.457143 
L 0.933053 16.457143 
L 3.219264 16.457143 
L 8.104066 16.457143 
L 8.713629 16.457143 
L 9.330704 16.457143 
L 9.475591 16.457143 
L 9.855344 16.457143 
L 11.897768 16.457143 
L 14.219008 18.102857 
L 15.609587 19.337143 
L 16.673364 20.16 
L 18.478231 22.217143 
L 18.894302 22.628571 
L 20.331177 24.274286 
L 20.691022 24.685714 
L 21.550587 28.8 
L 21.995007 28.8 
L 23.168857 28.8 
L 25.025319 28.8 
L 25.555749 28.8 
L 26.618066 26.331429 
L 29.24108 20.571429 
L 31.233392 17.28 
L 33.72272 10.697143 
L 36.84787 4.114286 
L 39.625038 1.234286 
L 41.838174 0 
L 43.189759 0 
L 43.777251 0 
L 44.345377 0 
L 44.876934 0 
L 45.277322 0 
L 45.543131 0 
L 45.93157 0 
L 47.098469 0 
L 47.755053 0 
L 48.586346 0 
L 49.528106 0 
L 50.262579 0.411429 
L 50.779965 0.822857 
L 51.405846 1.234286 
L 51.973754 1.645714 
L 52.540952 1.645714 
L 53.264107 2.057143 
L 54.015982 2.468571 
L 55.07139 3.291429 
L 57.368379 4.937143 
L 57.978391 5.76 
L 59.480083 7.817143 
L 59.815067 8.228571 
L 60.003424 8.64 
L 61.119201 9.462857 
L 61.506832 9.874286 
L 61.939602 9.874286 
L 62.451616 10.697143 
L 62.891042 10.697143 
L 63.319588 11.108571 
L 63.957297 11.52 
L 64.892743 12.342857 
L 65.143816 12.754286 
L 65.351851 12.754286 
L 66.164534 13.165714 
L 66.434814 13.165714 
L 66.672092 13.577143 
L 67.038994 13.577143 
L 67.66899 13.988571 
L 68.29254 14.4 
L 69.002257 14.811429 
L 69.42458 14.811429 
L 69.637811 15.222857 
L 69.969112 15.222857 
L 69.969112 15.222857 
L 70.300414 15.222857 
L 70.513645 14.811429 
L 70.742307 15.222857 
L 71.218952 15.634286 
L 71.725774 15.634286 
L 72.023412 16.045714 
L 72.479102 16.457143 
L 72.907063 16.868571 
L 73.412425 17.691429 
L 73.854689 18.514286 
L 74.475029 19.748571 
L 74.828525 20.571429 
L 75.098625 21.394286 
L 75.76452 22.628571 
L 76.161873 23.862857 
L 76.520457 24.685714 
L 76.736087 24.685714 
L 77.348254 26.742857 
L 77.486114 27.154286 
L 77.732682 27.565714 
L 78.54917 29.211429 
L 79.511218 30.445714 
L 82.25642 34.56 
L 82.674324 35.794286 
L 82.86623 36.205714 
L 83.001749 36.617143 
L 84.276196 37.028571 
L 85.451758 37.028571 
L 86.90414 37.028571 
L 88.338397 37.028571 
L 90.312165 37.028571 
L 91.352285 37.028571 
L 91.583104 37.851429 
L 91.857732 38.262857 
L 94.50061 38.674286 
L 97.434492 39.085714 
L 98.514019 39.497143 
L 98.621681 39.497143 
L 99.190618 39.497143 
L 99.637353 39.497143 
L 99.863191 39.497143 
L 100.69339 39.908571 
L 101.269476 40.32 
L 101.610291 40.731429 
L 102.17536 40.731429 
L 102.780842 41.142857 
L 103.106312 41.142857 
L 103.436035 41.142857 
L 104.006885 41.142857 
L 104.126212 41.142857 
L 104.295822 41.142857 
L 105.188618 40.731429 
L 105.803218 40.32 
L 105.995334 40.32 
L 106.146615 40.32 
L 106.498597 40.32 
L 109.009395 41.142857 
L 110.895345 41.965714 
L 112.616868 42.377143 
L 114.316748 42.788571 
L 116.449048 43.611429 
L 117.900601 44.022857 
L 119.488319 44.434286 
L 119.524866 44.434286 
L 121.027827 44.845714 
L 130.747137 47.725714 
L 137.989336 49.782857 
L 139.212845 49.782857 
L 140.284537 50.194286 
L 142.248613 51.017143 
L 143.772374 51.428571 
L 145.349696 51.84 
L 147.504611 52.251429 
L 148.637489 52.662857 
L 149.024729 53.074286 
L 151.0342 53.485714 
L 151.736903 54.72 
L 152.099099 55.131429 
L 153.341122 54.72 
L 154.194577 54.308571 
L 155.209648 53.897143 
L 155.795486 53.897143 
L 157.009087 53.485714 
L 159.168028 53.485714 
L 160.748873 53.485714 
L 161.109274 53.485714 
L 162.710097 54.308571 
L 163.489258 54.72 
L 164.560754 55.131429 
L 165.765873 55.954286 
L 166.490702 56.365714 
L 167.434414 57.188571 
L 167.803542 57.188571 
L 168.276337 57.6 
L 169.444487 58.422857 
L 170.090972 58.834286 
L 172.175954 60.068571 
L 173.655764 61.302857 
L 174.376275 61.714286 
L 175.922231 62.537143 
L 176.326185 62.948571 
L 176.87633 62.948571 
L 178.440847 64.182857 
L 180.588117 65.417143 
L 181.81539 65.828571 
L 182.662925 66.24 
L 183.453965 66.651429 
L 185.511269 67.474286 
L 186.416099 67.885714 
L 187.272467 68.297143 
L 188.31031 68.708571 
L 188.948964 69.12 
L 190.461423 69.531429 
L 190.767194 69.942857 
L 191.960712 70.765714 
L 193.270569 71.588571 
L 193.899344 72 
L 196.900013 74.468571 
L 197.863852 74.88 
L 199.045312 75.291429 
L 200.13175 76.114286 
L 200.602242 76.114286 
L 201.298248 76.525714 
L 202.131559 76.937143 
L 203.085851 77.348571 
L 203.974905 77.76 
L 204.686695 78.171429 
L 205.327777 78.171429 
L 206.763204 78.171429 
L 207.734516 78.582857 
L 208.787734 78.582857 
L 209.341295 78.582857 
L 209.777922 78.582857 
L 210.691653 78.582857 
L 211.278413 78.582857 
L 213.484141 78.994286 
L 213.711772 78.994286 
L 215.647071 78.994286 
L 217.045378 78.994286 
L 218.506555 79.405714 
L 219.213845 79.405714 
L 220.201857 79.405714 
L 220.635297 79.405714 
L 221.777767 79.405714 
L 222.119392 79.405714 
L 222.904534 79.405714 
L 223.101886 79.405714 
L 223.902754 79.405714 
L 224.716198 79.817143 
L 225.395484 79.817143 
L 225.890794 79.817143 
L 226.398785 80.228571 
L 226.669525 80.64 
L 227.294315 81.051429 
L 229.234389 82.697143 
L 229.792903 82.697143 
L 230.076254 83.108571 
L 230.528991 83.108571 
L 231.527925 83.52 
L 232.646953 84.342857 
L 233.276421 84.754286 
L 234.047368 85.165714 
L 234.69085 85.165714 
L 235.787906 85.988571 
L 236.533715 86.4 
L 237.607683 86.4 
L 238.251506 86.811429 
L 239.40598 86.811429 
L 240.35059 87.222857 
L 241.321936 87.222857 
L 243.187971 87.634286 
L 243.823877 87.222857 
L 245.82632 83.52 
L 247.765837 79.817143 
L 249.446188 78.171429 
L 251.030478 77.76 
L 252.127417 78.171429 
L 252.988165 78.171429 
L 256.368577 78.171429 
L 257.502733 78.582857 
L 258.729647 78.582857 
L 260.206773 78.994286 
L 261.840549 79.817143 
L 263.248652 79.817143 
L 264.475567 80.228571 
L 265.657094 80.64 
L 267.117123 81.051429 
L 268.162661 81.462857 
L 269.33857 81.874286 
L 270.506764 81.874286 
L 271.345687 82.285714 
L 272.949655 82.697143 
L 273.871638 83.108571 
L 276.126973 83.931429 
L 277.185525 84.342857 
L 278.579495 84.754286 
L 280.155381 85.165714 
L 281.949411 85.988571 
L 283.300929 86.4 
L 284.513974 86.811429 
L 285.854867 87.222857 
L 287.141733 87.222857 
L 288.531447 87.634286 
L 290.106506 88.457143 
L 291.48647 88.457143 
L 292.504373 88.868571 
L 293.581839 89.28 
L 294.525041 89.691429 
L 296.721776 90.102857 
L 297.685137 90.514286 
L 298.707213 90.925714 
L 299.66932 90.925714 
L 300.667659 91.337143 
L 308.167751 93.805714 
L 309.316689 93.805714 
L 311.349244 94.628571 
L 311.907896 94.628571 
L 312.367541 94.628571 
L 315.568997 94.628571 
L 315.765723 94.628571 
L 315.918707 94.628571 
L 316.051733 94.628571 
L 316.32935 94.628571 
L 316.649561 94.628571 
L 318.540216 94.628571 
L 318.927618 94.628571 
L 319.327923 94.628571 
L 319.771405 94.628571 
L 320.285848 94.628571 
L 320.96618 95.04 
L 321.584954 95.862857 
L 322.760052 96.685714 
L 325.57359 99.154286 
L 325.931478 99.154286 
L 326.384409 99.565714 
L 328.244862 100.8 
L 333.314344 103.68 
L 334.069751 104.502857 
L 334.81391 104.914286 
L 335.819432 105.737143 
L 337.492803 106.56 
L 339.420436 107.794286 
L 339.818159 107.794286 
L 340.359189 108.205714 
L 340.872402 108.617143 
L 342.063348 109.028571 
L 342.701361 109.44 
L 343.362286 109.851429 
L 343.988783 109.851429 
L 347.619375 111.085714 
L 349.661007 111.085714 
L 350.640291 111.085714 
L 351.943673 111.085714 
L 353.860832 111.085714 
L 359.2232 111.085714 
L 359.870704 111.085714 
L 360.522882 111.085714 
L 361.966719 111.085714 
L 363.34061 111.085714 
L 363.426391 111.085714 
L 363.930836 111.085714 
L 364.363552 111.085714 
L 365.635383 113.554286 
L 367.181804 116.434286 
L 367.943422 117.668571 
L 370.124313 120.96 
L 370.704274 121.371429 
L 371.7444 123.017143 
L 373.901989 123.84 
L 374.169028 123.84 
L 375.128862 124.251429 
L 375.391885 124.251429 
L 375.774629 124.251429 
L 376.055329 124.251429 
L 376.739862 124.662857 
L 377.519464 124.662857 
L 378.373733 125.074286 
L 379.920774 125.485714 
L 381.375555 125.897143 
L 382.451437 126.308571 
L 383.147967 126.308571 
L 384.023489 126.72 
L 384.377062 126.72 
L 385.697581 127.131429 
L 386.922924 127.542857 
L 387.752255 127.542857 
L 388.339983 126.308571 
L 389.101436 125.074286 
L 389.222118 124.662857 
L 390.190106 125.074286 
L 391.148859 125.485714 
L 392.12555 125.897143 
L 392.770521 125.897143 
L 392.998948 125.897143 
L 393.656231 126.308571 
L 395.036078 127.542857 
L 395.414484 127.542857 
L 396.14964 127.542857 
L 396.48857 127.542857 
L 396.797456 127.542857 
L 398.071332 127.542857 
L 398.705961 127.542857 
L 400.615735 127.542857 
L 400.996706 127.542857 
L 401.402641 127.542857 
L 404.153825 127.542857 
L 405.697824 127.542857 
L 408.170076 127.542857 
L 411.086343 127.542857 
L 411.278747 127.542857 
L 412.950767 127.542857 
L 414.204837 127.542857 
L 415.141442 127.542857 
L 416.381676 127.542857 
L 418.943822 127.542857 
L 419.046633 127.542857 
L 419.046633 127.542857 
L 419.046633 127.542857 
L 419.046633 127.542857 
L 419.149445 127.542857 
L 421.825518 127.131429 
L 424.459408 125.897143 
L 425.85399 127.542857 
L 428.976549 130.011429 
L 430.937146 131.245714 
L 433.898344 131.657143 
L 434.083244 131.657143 
L 434.197279 131.657143 
L 434.453319 131.657143 
L 434.639948 131.657143 
L 434.886602 131.657143 
L 435.12929 131.657143 
L 435.383293 131.657143 
L 435.613609 131.657143 
L 435.867157 131.657143 
L 436.173679 131.657143 
L 436.624168 131.657143 
L 437.38777 131.657143 
L 437.558181 131.657143 
L 437.748546 131.657143 
L 438.755032 131.657143 
L 439.041154 131.657143 
L 440.099385 131.657143 
L 440.382374 131.657143 
L 440.643428 131.657143 
L 440.89701 131.657143 
L 441.271386 131.657143 
L 441.68964 131.657143 
L 441.976001 131.657143 
L 442.262016 131.657143 
L 442.602839 131.657143 
L 442.945201 131.657143 
L 444.91564 131.245714 
L 446.066752 130.834286 
L 446.272927 130.834286 
L 452.475819 127.131429 
L 452.811593 126.72 
L 452.915039 126.72 
L 454.760982 125.074286 
L 456.727622 123.428571 
L 460.050897 121.782857 
L 460.76939 121.371429 
L 461.584565 120.96 
L 462.636012 120.548571 
L 463.484926 120.137143 
L 464.476691 119.314286 
L 465.644174 118.902857 
L 467.945638 117.257143 
L 469.002906 116.434286 
L 470.948771 115.2 
L 471.130203 115.611429 
L 471.37502 115.611429 
L 471.640812 116.022857 
L 471.944304 116.845714 
L 472.190788 116.845714 
L 472.396704 117.257143 
L 474.039816 119.314286 
L 475.128586 119.725714 
L 476.313463 120.137143 
L 477.613266 120.96 
L 478.161874 120.96 
L 478.587621 120.96 
L 478.825654 120.96 
L 479.069117 120.96 
L 479.326687 120.96 
L 479.597649 120.96 
L 479.997188 120.96 
L 486.574571 121.782857 
L 486.574571 121.782857 
L 491.073258 122.194286 
L 491.52912 122.605714 
L 491.928994 122.605714 
L 492.197685 122.605714 
L 492.496068 122.605714 
L 492.725858 122.605714 
L 492.956168 122.605714 
L 493.269469 122.605714 
L 493.600616 122.605714 
L 494.221345 122.605714 
L 494.496245 122.605714 
L 494.727086 122.605714 
L 494.902264 123.017143 
L 495.056531 123.017143 
L 495.668474 123.017143 
L 496.429394 123.017143 
L 502.871846 130.834286 
L 503.325959 131.657143 
L 503.757211 132.891429 
L 503.994245 133.714286 
L 504.221945 133.714286 
L 504.696268 134.125714 
L 505.077239 134.537143 
L 505.994908 134.948571 
L 508.917564 135.771429 
L 509.388574 135.771429 
L 510.692014 135.771429 
L 512.786634 135.771429 
L 518.919003 134.537143 
L 520.356424 134.537143 
L 523.007922 134.125714 
L 527.857962 133.302857 
L 528.888502 132.891429 
L 530.210519 133.302857 
L 531.660397 134.125714 
L 532.68369 134.537143 
L 535.717962 135.771429 
L 535.967266 136.182857 
L 537.639168 135.771429 
L 538.395592 135.771429 
L 538.742412 135.771429 
L 540.046851 135.771429 
L 540.286178 135.771429 
L 540.849533 135.771429 
L 541.358643 135.771429 
L 542.110576 135.771429 
L 542.905941 135.771429 
L 542.990045 135.771429 
L 543.211738 135.771429 
L 543.688373 136.182857 
L 545.548432 137.417143 
L 546.382511 138.24 
L 547.121257 138.651429 
L 549.722668 140.708571 
L 550.103641 140.708571 
L 550.37394 141.12 
L 550.37394 141.942857 
L 550.37394 141.942857 
L 550.989775 141.942857 
L 551.32034 141.942857 
L 553.166872 144 
L 553.488819 144 
L 556.285412 144 
L 557.63016 144 
L 559.274526 144 
L 560.32238 143.588571 
L 560.64361 143.177143 
L 560.712601 143.177143 
L 560.876252 143.177143 
L 561.216286 142.765714 
L 561.785602 142.765714 
L 561.96293 142.354286 
L 562.467857 141.942857 
L 562.982657 141.942857 
L 563.359369 141.531429 
L 563.777161 141.12 
L 564.26779 140.708571 
L 564.765828 140.708571 
L 565.486922 139.885714 
L 566.205886 139.885714 
L 566.906153 139.885714 
L 567.420953 139.474286 
L 567.667633 139.062857 
L 567.905935 139.062857 
L 569.646383 139.885714 
L 570.457936 140.297143 
L 572.268686 140.708571 
L 573.631486 141.12 
L 575.005796 141.531429 
L 575.934727 141.531429 
L 577.67334 141.942857 
L 578.225293 142.354286 
L 578.793099 142.354286 
L 579.247479 142.354286 
L 579.743521 140.708571 
L 580.965516 139.885714 
L 582.195289 139.474286 
L 583.143673 139.474286 
L 584.451846 139.062857 
L 586.205984 138.24 
L 587.747936 137.828571 
L 588.499504 137.417143 
L 589.492875 137.005714 
L 590.795926 136.594286 
L 591.768139 136.594286 
L 592.632618 136.182857 
L 593.466371 135.771429 
L 594.073978 135.771429 
L 595.126171 135.36 
L 596.005891 134.948571 
L 596.647353 134.948571 
L 597.281445 134.537143 
L 598.362831 132.48 
L 599.398006 131.245714 
L 606.033174 125.074286 
L 609.827806 121.782857 
L 610.227207 121.371429 
L 610.58549 120.96 
L 611.15401 120.548571 
L 611.534865 120.137143 
L 611.882068 119.725714 
L 612.194459 119.314286 
L 612.525254 119.314286 
L 612.89302 119.314286 
L 613.2307 119.314286 
L 613.502263 119.314286 
L 614.724306 119.314286 
L 615.212988 119.314286 
L 615.80335 119.314286 
L 616.251654 119.314286 
L 616.659686 119.314286 
L 617.037959 119.314286 
L 617.515992 119.314286 
L 618.047533 119.314286 
L 618.748049 119.314286 
L 619.290525 119.314286 
L 619.689901 119.314286 
L 620.018491 119.314286 
L 620.290352 119.314286 
L 620.639869 119.314286 
L 621.17644 119.314286 
L 621.576121 119.314286 
L 622.046952 119.314286 
L 622.562515 119.314286 
L 623.058701 119.314286 
L 623.59287 119.314286 
L 623.976221 119.314286 
L 624.286225 119.314286 
L 624.525555 119.314286 
L 624.714861 119.314286 
L 625.088109 119.314286 
L 625.462562 119.314286 
L 625.839942 119.314286 
L 626.403293 119.314286 
L 626.952158 119.314286 
L 627.404592 119.314286 
L 627.855495 119.314286 
L 628.228526 119.314286 
L 628.565588 119.314286 
L 628.945467 119.314286 
L 629.15492 119.314286 
L 629.401484 119.314286 
L 629.728342 119.314286 
L 630.169419 119.314286 
L 630.27775 119.314286 
L 630.404541 119.725714 
L 630.621304 122.605714 
L 630.796962 122.605714 
L 632.483578 123.017143 
L 635.88065 126.308571 
L 640.429944 128.777143 
L 641.766046 129.188571 
L 644.096509 130.011429 
L 648.284824 136.182857 
L 651.820805 140.297143 
L 652.768432 140.297143 
L 656.917038 140.297143 
L 658.344541 140.708571 
L 659.847416 141.531429 
L 665.978713 144 
L 667.293322 144 
L 667.624631 144 
L 668.761592 144 
L 670.776937 144 
L 672.777451 144 
L 674.449606 144 
L 682.603558 144 
L 684.978441 144 
L 692.120615 144 
L 695.80719 144 
L 702.388297 144 
L 703.425858 144 
L 704.344684 144 
L 704.972194 144 
L 705.369926 144 
L 706.186267 144 
L 706.809708 144 
L 707.158369 144 
L 714.252786 142.765714 
L 718.376604 141.531429 
L 719.983132 141.12 
L 720 141.12 
L 720 144 
L 720 144 
L 719.983132 144 
L 718.376604 144 
L 714.252786 144 
L 707.158369 144 
L 706.809708 144 
L 706.186267 144 
L 705.369926 144 
L 704.972194 144 
L 704.344684 144 
L 703.425858 144 
L 702.388297 144 
L 695.80719 144 
L 692.120615 144 
L 684.978441 144 
L 682.603558 144 
L 674.449606 144 
L 672.777451 144 
L 670.776937 144 
L 668.761592 144 
L 667.624631 144 
L 667.293322 144 
L 665.978713 144 
L 659.847416 144 
L 658.344541 144 
L 656.917038 144 
L 652.768432 144 
L 651.820805 144 
L 648.284824 144 
L 644.096509 144 
L 641.766046 144 
L 640.429944 144 
L 635.88065 144 
L 632.483578 144 
L 630.796962 144 
L 630.621304 144 
L 630.404541 144 
L 630.27775 144 
L 630.169419 144 
L 629.728342 144 
L 629.401484 144 
L 629.15492 144 
L 628.945467 144 
L 628.565588 144 
L 628.228526 144 
L 627.855495 144 
L 627.404592 144 
L 626.952158 144 
L 626.403293 144 
L 625.839942 144 
L 625.462562 144 
L 625.088109 144 
L 624.714861 144 
L 624.525555 144 
L 624.286225 144 
L 623.976221 144 
L 623.59287 144 
L 623.058701 144 
L 622.562515 144 
L 622.046952 144 
L 621.576121 144 
L 621.17644 144 
L 620.639869 144 
L 620.290352 144 
L 620.018491 144 
L 619.689901 144 
L 619.290525 144 
L 618.748049 144 
L 618.047533 144 
L 617.515992 144 
L 617.037959 144 
L 616.659686 144 
L 616.251654 144 
L 615.80335 144 
L 615.212988 144 
L 614.724306 144 
L 613.502263 144 
L 613.2307 144 
L 612.89302 144 
L 612.525254 144 
L 612.194459 144 
L 611.882068 144 
L 611.534865 144 
L 611.15401 144 
L 610.58549 144 
L 610.227207 144 
L 609.827806 144 
L 606.033174 144 
L 599.398006 144 
L 598.362831 144 
L 597.281445 144 
L 596.647353 144 
L 596.005891 144 
L 595.126171 144 
L 594.073978 144 
L 593.466371 144 
L 592.632618 144 
L 591.768139 144 
L 590.795926 144 
L 589.492875 144 
L 588.499504 144 
L 587.747936 144 
L 586.205984 144 
L 584.451846 144 
L 583.143673 144 
L 582.195289 144 
L 580.965516 144 
L 579.743521 144 
L 579.247479 144 
L 578.793099 144 
L 578.225293 144 
L 577.67334 144 
L 575.934727 144 
L 575.005796 144 
L 573.631486 144 
L 572.268686 144 
L 570.457936 144 
L 569.646383 144 
L 567.905935 144 
L 567.667633 144 
L 567.420953 144 
L 566.906153 144 
L 566.205886 144 
L 565.486922 144 
L 564.765828 144 
L 564.26779 144 
L 563.777161 144 
L 563.359369 144 
L 562.982657 144 
L 562.467857 144 
L 561.96293 144 
L 561.785602 144 
L 561.216286 144 
L 560.876252 144 
L 560.712601 144 
L 560.64361 144 
L 560.32238 144 
L 559.274526 144 
L 557.63016 144 
L 556.285412 144 
L 553.488819 144 
L 553.166872 144 
L 551.32034 144 
L 550.989775 144 
L 550.37394 144 
L 550.37394 144 
L 550.37394 144 
L 550.103641 144 
L 549.722668 144 
L 547.121257 144 
L 546.382511 144 
L 545.548432 144 
L 543.688373 144 
L 543.211738 144 
L 542.990045 144 
L 542.905941 144 
L 542.110576 144 
L 541.358643 144 
L 540.849533 144 
L 540.286178 144 
L 540.046851 144 
L 538.742412 144 
L 538.395592 144 
L 537.639168 144 
L 535.967266 144 
L 535.717962 144 
L 532.68369 144 
L 531.660397 144 
L 530.210519 144 
L 528.888502 144 
L 527.857962 144 
L 523.007922 144 
L 520.356424 144 
L 518.919003 144 
L 512.786634 144 
L 510.692014 144 
L 509.388574 144 
L 508.917564 144 
L 505.994908 144 
L 505.077239 144 
L 504.696268 144 
L 504.221945 144 
L 503.994245 144 
L 503.757211 144 
L 503.325959 144 
L 502.871846 144 
L 496.429394 144 
L 495.668474 144 
L 495.056531 144 
L 494.902264 144 
L 494.727086 144 
L 494.496245 144 
L 494.221345 144 
L 493.600616 144 
L 493.269469 144 
L 492.956168 144 
L 492.725858 144 
L 492.496068 144 
L 492.197685 144 
L 491.928994 144 
L 491.52912 144 
L 491.073258 144 
L 486.574571 144 
L 486.574571 144 
L 479.997188 144 
L 479.597649 144 
L 479.326687 144 
L 479.069117 144 
L 478.825654 144 
L 478.587621 144 
L 478.161874 144 
L 477.613266 144 
L 476.313463 144 
L 475.128586 144 
L 474.039816 144 
L 472.396704 144 
L 472.190788 144 
L 471.944304 144 
L 471.640812 144 
L 471.37502 144 
L 471.130203 144 
L 470.948771 144 
L 469.002906 144 
L 467.945638 144 
L 465.644174 144 
L 464.476691 144 
L 463.484926 144 
L 462.636012 144 
L 461.584565 144 
L 460.76939 144 
L 460.050897 144 
L 456.727622 144 
L 454.760982 144 
L 452.915039 144 
L 452.811593 144 
L 452.475819 144 
L 446.272927 144 
L 446.066752 144 
L 444.91564 144 
L 442.945201 144 
L 442.602839 144 
L 442.262016 144 
L 441.976001 144 
L 441.68964 144 
L 441.271386 144 
L 440.89701 144 
L 440.643428 144 
L 440.382374 144 
L 440.099385 144 
L 439.041154 144 
L 438.755032 144 
L 437.748546 144 
L 437.558181 144 
L 437.38777 144 
L 436.624168 144 
L 436.173679 144 
L 435.867157 144 
L 435.613609 144 
L 435.383293 144 
L 435.12929 144 
L 434.886602 144 
L 434.639948 144 
L 434.453319 144 
L 434.197279 144 
L 434.083244 144 
L 433.898344 144 
L 430.937146 144 
L 428.976549 144 
L 425.85399 144 
L 424.459408 144 
L 421.825518 144 
L 419.149445 144 
L 419.046633 144 
L 419.046633 144 
L 419.046633 144 
L 419.046633 144 
L 418.943822 144 
L 416.381676 144 
L 415.141442 144 
L 414.204837 144 
L 412.950767 144 
L 411.278747 144 
L 411.086343 144 
L 408.170076 144 
L 405.697824 144 
L 404.153825 144 
L 401.402641 144 
L 400.996706 144 
L 400.615735 144 
L 398.705961 144 
L 398.071332 144 
L 396.797456 144 
L 396.48857 144 
L 396.14964 144 
L 395.414484 144 
L 395.036078 144 
L 393.656231 144 
L 392.998948 144 
L 392.770521 144 
L 392.12555 144 
L 391.148859 144 
L 390.190106 144 
L 389.222118 144 
L 389.101436 144 
L 388.339983 144 
L 387.752255 144 
L 386.922924 144 
L 385.697581 144 
L 384.377062 144 
L 384.023489 144 
L 383.147967 144 
L 382.451437 144 
L 381.375555 144 
L 379.920774 144 
L 378.373733 144 
L 377.519464 144 
L 376.739862 144 
L 376.055329 144 
L 375.774629 144 
L 375.391885 144 
L 375.128862 144 
L 374.169028 144 
L 373.901989 144 
L 371.7444 144 
L 370.704274 144 
L 370.124313 144 
L 367.943422 144 
L 367.181804 144 
L 365.635383 144 
L 364.363552 144 
L 363.930836 144 
L 363.426391 144 
L 363.34061 144 
L 361.966719 144 
L 360.522882 144 
L 359.870704 144 
L 359.2232 144 
L 353.860832 144 
L 351.943673 144 
L 350.640291 144 
L 349.661007 144 
L 347.619375 144 
L 343.988783 144 
L 343.362286 144 
L 342.701361 144 
L 342.063348 144 
L 340.872402 144 
L 340.359189 144 
L 339.818159 144 
L 339.420436 144 
L 337.492803 144 
L 335.819432 144 
L 334.81391 144 
L 334.069751 144 
L 333.314344 144 
L 328.244862 144 
L 326.384409 144 
L 325.931478 144 
L 325.57359 144 
L 322.760052 144 
L 321.584954 144 
L 320.96618 144 
L 320.285848 144 
L 319.771405 144 
L 319.327923 144 
L 318.927618 144 
L 318.540216 144 
L 316.649561 144 
L 316.32935 144 
L 316.051733 144 
L 315.918707 144 
L 315.765723 144 
L 315.568997 144 
L 312.367541 144 
L 311.907896 144 
L 311.349244 144 
L 309.316689 144 
L 308.167751 144 
L 300.667659 144 
L 299.66932 144 
L 298.707213 144 
L 297.685137 144 
L 296.721776 144 
L 294.525041 144 
L 293.581839 144 
L 292.504373 144 
L 291.48647 144 
L 290.106506 144 
L 288.531447 144 
L 287.141733 144 
L 285.854867 144 
L 284.513974 144 
L 283.300929 144 
L 281.949411 144 
L 280.155381 144 
L 278.579495 144 
L 277.185525 144 
L 276.126973 144 
L 273.871638 144 
L 272.949655 144 
L 271.345687 144 
L 270.506764 144 
L 269.33857 144 
L 268.162661 144 
L 267.117123 144 
L 265.657094 144 
L 264.475567 144 
L 263.248652 144 
L 261.840549 144 
L 260.206773 144 
L 258.729647 144 
L 257.502733 144 
L 256.368577 144 
L 252.988165 144 
L 252.127417 144 
L 251.030478 144 
L 249.446188 144 
L 247.765837 144 
L 245.82632 144 
L 243.823877 144 
L 243.187971 144 
L 241.321936 144 
L 240.35059 144 
L 239.40598 144 
L 238.251506 144 
L 237.607683 144 
L 236.533715 144 
L 235.787906 144 
L 234.69085 144 
L 234.047368 144 
L 233.276421 144 
L 232.646953 144 
L 231.527925 144 
L 230.528991 144 
L 230.076254 144 
L 229.792903 144 
L 229.234389 144 
L 227.294315 144 
L 226.669525 144 
L 226.398785 144 
L 225.890794 144 
L 225.395484 144 
L 224.716198 144 
L 223.902754 144 
L 223.101886 144 
L 222.904534 144 
L 222.119392 144 
L 221.777767 144 
L 220.635297 144 
L 220.201857 144 
L 219.213845 144 
L 218.506555 144 
L 217.045378 144 
L 215.647071 144 
L 213.711772 144 
L 213.484141 144 
L 211.278413 144 
L 210.691653 144 
L 209.777922 144 
L 209.341295 144 
L 208.787734 144 
L 207.734516 144 
L 206.763204 144 
L 205.327777 144 
L 204.686695 144 
L 203.974905 144 
L 203.085851 144 
L 202.131559 144 
L 201.298248 144 
L 200.602242 144 
L 200.13175 144 
L 199.045312 144 
L 197.863852 144 
L 196.900013 144 
L 193.899344 144 
L 193.270569 144 
L 191.960712 144 
L 190.767194 144 
L 190.461423 144 
L 188.948964 144 
L 188.31031 144 
L 187.272467 144 
L 186.416099 144 
L 185.511269 144 
L 183.453965 144 
L 182.662925 144 
L 181.81539 144 
L 180.588117 144 
L 178.440847 144 
L 176.87633 144 
L 176.326185 144 
L 175.922231 144 
L 174.376275 144 
L 173.655764 144 
L 172.175954 144 
L 170.090972 144 
L 169.444487 144 
L 168.276337 144 
L 167.803542 144 
L 167.434414 144 
L 166.490702 144 
L 165.765873 144 
L 164.560754 144 
L 163.489258 144 
L 162.710097 144 
L 161.109274 144 
L 160.748873 144 
L 159.168028 144 
L 157.009087 144 
L 155.795486 144 
L 155.209648 144 
L 154.194577 144 
L 153.341122 144 
L 152.099099 144 
L 151.736903 144 
L 151.0342 144 
L 149.024729 144 
L 148.637489 144 
L 147.504611 144 
L 145.349696 144 
L 143.772374 144 
L 142.248613 144 
L 140.284537 144 
L 139.212845 144 
L 137.989336 144 
L 130.747137 144 
L 121.027827 144 
L 119.524866 144 
L 119.488319 144 
L 117.900601 144 
L 116.449048 144 
L 114.316748 144 
L 112.616868 144 
L 110.895345 144 
L 109.009395 144 
L 106.498597 144 
L 106.146615 144 
L 105.995334 144 
L 105.803218 144 
L 105.188618 144 
L 104.295822 144 
L 104.126212 144 
L 104.006885 144 
L 103.436035 144 
L 103.106312 144 
L 102.780842 144 
L 102.17536 144 
L 101.610291 144 
L 101.269476 144 
L 100.69339 144 
L 99.863191 144 
L 99.637353 144 
L 99.190618 144 
L 98.621681 144 
L 98.514019 144 
L 97.434492 144 
L 94.50061 144 
L 91.857732 144 
L 91.583104 144 
L 91.352285 144 
L 90.312165 144 
L 88.338397 144 
L 86.90414 144 
L 85.451758 144 
L 84.276196 144 
L 83.001749 144 
L 82.86623 144 
L 82.674324 144 
L 82.25642 144 
L 79.511218 144 
L 78.54917 144 
L 77.732682 144 
L 77.486114 144 
L 77.348254 144 
L 76.736087 144 
L 76.520457 144 
L 76.161873 144 
L 75.76452 144 
L 75.098625 144 
L 74.828525 144 
L 74.475029 144 
L 73.854689 144 
L 73.412425 144 
L 72.907063 144 
L 72.479102 144 
L 72.023412 144 
L 71.725774 144 
L 71.218952 144 
L 70.742307 144 
L 70.513645 144 
L 70.300414 144 
L 69.969112 144 
L 69.969112 144 
L 69.637811 144 
L 69.42458 144 
L 69.002257 144 
L 68.29254 144 
L 67.66899 144 
L 67.038994 144 
L 66.672092 144 
L 66.434814 144 
L 66.164534 144 
L 65.351851 144 
L 65.143816 144 
L 64.892743 144 
L 63.957297 144 
L 63.319588 144 
L 62.891042 144 
L 62.451616 144 
L 61.939602 144 
L 61.506832 144 
L 61.119201 144 
L 60.003424 144 
L 59.815067 144 
L 59.480083 144 
L 57.978391 144 
L 57.368379 144 
L 55.07139 144 
L 54.015982 144 
L 53.264107 144 
L 52.540952 144 
L 51.973754 144 
L 51.405846 144 
L 50.779965 144 
L 50.262579 144 
L 49.528106 144 
L 48.586346 144 
L 47.755053 144 
L 47.098469 144 
L 45.93157 144 
L 45.543131 144 
L 45.277322 144 
L 44.876934 144 
L 44.345377 144 
L 43.777251 144 
L 43.189759 144 
L 41.838174 144 
L 39.625038 144 
L 36.84787 144 
L 33.72272 144 
L 31.233392 144 
L 29.24108 144 
L 26.618066 144 
L 25.555749 144 
L 25.025319 144 
L 23.168857 144 
L 21.995007 144 
L 21.550587 144 
L 20.691022 144 
L 20.331177 144 
L 18.894302 144 
L 18.478231 144 
L 16.673364 144 
L 15.609587 144 
L 14.219008 144 
L 11.897768 144 
L 9.855344 144 
L 9.475591 144 
L 9.330704 144 
L 8.713629 144 
L 8.104066 144 
L 3.219264 144 
L 0.933053 144 
L 0.329968 144 
L 0.217517 144 
L 0.120082 144 
L 0.025334 144 
L 0 144 
z
" clip-path="url(#p82f8585348)" style="fill: #c18182; fill-opacity: 0.3; stroke: #c18182; stroke-opacity: 0.3"/>
   </g>
   <g id="line2d_1">
    <path d="M 0 16.457143 
L 11.897768 16.457143 
L 14.219008 18.102857 
L 16.673364 20.16 
L 20.691022 24.685714 
L 21.550587 28.8 
L 25.555749 28.8 
L 26.618066 26.331429 
L 29.24108 20.571429 
L 31.233392 17.28 
L 33.72272 10.697143 
L 36.84787 4.114286 
L 39.625038 1.234286 
L 41.838174 0 
L 49.528106 0 
L 50.779965 0.822857 
L 51.973754 1.645714 
L 52.540952 1.645714 
L 54.015982 2.468571 
L 55.07139 3.291429 
L 57.368379 4.937143 
L 60.003424 8.64 
L 61.506832 9.874286 
L 61.939602 9.874286 
L 62.451616 10.697143 
L 62.891042 10.697143 
L 63.319588 11.108571 
L 63.957297 11.52 
L 64.892743 12.342857 
L 65.143816 12.754286 
L 65.351851 12.754286 
L 66.164534 13.165714 
L 66.434814 13.165714 
L 66.672092 13.577143 
L 67.038994 13.577143 
L 69.002257 14.811429 
L 69.42458 14.811429 
L 69.637811 15.222857 
L 70.300414 15.222857 
L 70.513645 14.811429 
L 70.742307 15.222857 
L 71.218952 15.634286 
L 71.725774 15.634286 
L 72.023412 16.045714 
L 72.907063 16.868571 
L 73.854689 18.514286 
L 74.828525 20.571429 
L 75.098625 21.394286 
L 75.76452 22.628571 
L 76.520457 24.685714 
L 76.736087 24.685714 
L 77.486114 27.154286 
L 77.732682 27.565714 
L 78.54917 29.211429 
L 79.511218 30.445714 
L 82.25642 34.56 
L 83.001749 36.617143 
L 84.276196 37.028571 
L 91.352285 37.028571 
L 91.583104 37.851429 
L 91.857732 38.262857 
L 97.434492 39.085714 
L 98.621681 39.497143 
L 99.863191 39.497143 
L 100.69339 39.908571 
L 101.269476 40.32 
L 101.610291 40.731429 
L 102.17536 40.731429 
L 102.780842 41.142857 
L 104.295822 41.142857 
L 105.188618 40.731429 
L 105.995334 40.32 
L 106.498597 40.32 
L 109.009395 41.142857 
L 110.895345 41.965714 
L 114.316748 42.788571 
L 116.449048 43.611429 
L 137.989336 49.782857 
L 139.212845 49.782857 
L 143.772374 51.428571 
L 145.349696 51.84 
L 147.504611 52.251429 
L 148.637489 52.662857 
L 149.024729 53.074286 
L 151.0342 53.485714 
L 151.736903 54.72 
L 152.099099 55.131429 
L 153.341122 54.72 
L 155.209648 53.897143 
L 155.795486 53.897143 
L 157.009087 53.485714 
L 161.109274 53.485714 
L 163.489258 54.72 
L 164.560754 55.131429 
L 167.434414 57.188571 
L 167.803542 57.188571 
L 168.276337 57.6 
L 170.090972 58.834286 
L 172.175954 60.068571 
L 173.655764 61.302857 
L 176.326185 62.948571 
L 176.87633 62.948571 
L 178.440847 64.182857 
L 180.588117 65.417143 
L 181.81539 65.828571 
L 183.453965 66.651429 
L 188.31031 68.708571 
L 188.948964 69.12 
L 190.461423 69.531429 
L 190.767194 69.942857 
L 193.899344 72 
L 196.900013 74.468571 
L 199.045312 75.291429 
L 200.13175 76.114286 
L 200.602242 76.114286 
L 202.131559 76.937143 
L 203.974905 77.76 
L 204.686695 78.171429 
L 206.763204 78.171429 
L 207.734516 78.582857 
L 211.278413 78.582857 
L 213.711772 78.994286 
L 217.045378 78.994286 
L 218.506555 79.405714 
L 223.902754 79.405714 
L 224.716198 79.817143 
L 225.890794 79.817143 
L 226.398785 80.228571 
L 226.669525 80.64 
L 227.294315 81.051429 
L 229.234389 82.697143 
L 229.792903 82.697143 
L 230.076254 83.108571 
L 230.528991 83.108571 
L 231.527925 83.52 
L 233.276421 84.754286 
L 234.047368 85.165714 
L 234.69085 85.165714 
L 235.787906 85.988571 
L 236.533715 86.4 
L 237.607683 86.4 
L 238.251506 86.811429 
L 239.40598 86.811429 
L 240.35059 87.222857 
L 241.321936 87.222857 
L 243.187971 87.634286 
L 243.823877 87.222857 
L 247.765837 79.817143 
L 249.446188 78.171429 
L 251.030478 77.76 
L 252.127417 78.171429 
L 256.368577 78.171429 
L 257.502733 78.582857 
L 258.729647 78.582857 
L 260.206773 78.994286 
L 261.840549 79.817143 
L 263.248652 79.817143 
L 269.33857 81.874286 
L 270.506764 81.874286 
L 271.345687 82.285714 
L 272.949655 82.697143 
L 273.871638 83.108571 
L 278.579495 84.754286 
L 280.155381 85.165714 
L 281.949411 85.988571 
L 285.854867 87.222857 
L 287.141733 87.222857 
L 288.531447 87.634286 
L 290.106506 88.457143 
L 291.48647 88.457143 
L 294.525041 89.691429 
L 296.721776 90.102857 
L 298.707213 90.925714 
L 299.66932 90.925714 
L 300.667659 91.337143 
L 308.167751 93.805714 
L 309.316689 93.805714 
L 311.349244 94.628571 
L 320.285848 94.628571 
L 320.96618 95.04 
L 321.584954 95.862857 
L 322.760052 96.685714 
L 325.57359 99.154286 
L 325.931478 99.154286 
L 326.384409 99.565714 
L 328.244862 100.8 
L 333.314344 103.68 
L 334.069751 104.502857 
L 334.81391 104.914286 
L 335.819432 105.737143 
L 337.492803 106.56 
L 339.420436 107.794286 
L 339.818159 107.794286 
L 340.872402 108.617143 
L 342.063348 109.028571 
L 343.362286 109.851429 
L 343.988783 109.851429 
L 347.619375 111.085714 
L 364.363552 111.085714 
L 367.181804 116.434286 
L 367.943422 117.668571 
L 370.124313 120.96 
L 370.704274 121.371429 
L 371.7444 123.017143 
L 375.128862 124.251429 
L 376.055329 124.251429 
L 376.739862 124.662857 
L 377.519464 124.662857 
L 378.373733 125.074286 
L 381.375555 125.897143 
L 382.451437 126.308571 
L 383.147967 126.308571 
L 384.023489 126.72 
L 384.377062 126.72 
L 386.922924 127.542857 
L 387.752255 127.542857 
L 388.339983 126.308571 
L 389.101436 125.074286 
L 389.222118 124.662857 
L 392.12555 125.897143 
L 392.998948 125.897143 
L 393.656231 126.308571 
L 395.036078 127.542857 
L 419.149445 127.542857 
L 421.825518 127.131429 
L 424.459408 125.897143 
L 425.85399 127.542857 
L 428.976549 130.011429 
L 430.937146 131.245714 
L 434.639948 131.657143 
L 442.945201 131.657143 
L 444.91564 131.245714 
L 446.272927 130.834286 
L 452.475819 127.131429 
L 452.915039 126.72 
L 456.727622 123.428571 
L 463.484926 120.137143 
L 464.476691 119.314286 
L 465.644174 118.902857 
L 470.948771 115.2 
L 471.130203 115.611429 
L 471.37502 115.611429 
L 471.640812 116.022857 
L 471.944304 116.845714 
L 472.190788 116.845714 
L 472.396704 117.257143 
L 474.039816 119.314286 
L 476.313463 120.137143 
L 477.613266 120.96 
L 479.997188 120.96 
L 486.574571 121.782857 
L 486.574571 121.782857 
L 491.073258 122.194286 
L 491.52912 122.605714 
L 494.727086 122.605714 
L 494.902264 123.017143 
L 496.429394 123.017143 
L 502.871846 130.834286 
L 503.325959 131.657143 
L 503.994245 133.714286 
L 504.221945 133.714286 
L 505.077239 134.537143 
L 505.994908 134.948571 
L 508.917564 135.771429 
L 512.786634 135.771429 
L 518.919003 134.537143 
L 520.356424 134.537143 
L 527.857962 133.302857 
L 528.888502 132.891429 
L 530.210519 133.302857 
L 531.660397 134.125714 
L 535.717962 135.771429 
L 535.967266 136.182857 
L 537.639168 135.771429 
L 543.211738 135.771429 
L 543.688373 136.182857 
L 545.548432 137.417143 
L 546.382511 138.24 
L 547.121257 138.651429 
L 549.722668 140.708571 
L 550.103641 140.708571 
L 550.37394 141.12 
L 550.37394 141.942857 
L 551.32034 141.942857 
L 553.166872 144 
L 559.274526 144 
L 560.32238 143.588571 
L 560.712601 143.177143 
L 560.876252 143.177143 
L 561.216286 142.765714 
L 561.785602 142.765714 
L 561.96293 142.354286 
L 562.467857 141.942857 
L 562.982657 141.942857 
L 563.777161 141.12 
L 564.26779 140.708571 
L 564.765828 140.708571 
L 565.486922 139.885714 
L 566.906153 139.885714 
L 567.420953 139.474286 
L 567.667633 139.062857 
L 567.905935 139.062857 
L 570.457936 140.297143 
L 573.631486 141.12 
L 575.005796 141.531429 
L 575.934727 141.531429 
L 577.67334 141.942857 
L 578.225293 142.354286 
L 579.247479 142.354286 
L 579.743521 140.708571 
L 580.965516 139.885714 
L 582.195289 139.474286 
L 583.143673 139.474286 
L 584.451846 139.062857 
L 586.205984 138.24 
L 587.747936 137.828571 
L 588.499504 137.417143 
L 589.492875 137.005714 
L 590.795926 136.594286 
L 591.768139 136.594286 
L 593.466371 135.771429 
L 594.073978 135.771429 
L 596.005891 134.948571 
L 596.647353 134.948571 
L 597.281445 134.537143 
L 598.362831 132.48 
L 599.398006 131.245714 
L 606.033174 125.074286 
L 610.227207 121.371429 
L 610.58549 120.96 
L 611.534865 120.137143 
L 612.194459 119.314286 
L 630.27775 119.314286 
L 630.404541 119.725714 
L 630.621304 122.605714 
L 630.796962 122.605714 
L 632.483578 123.017143 
L 635.88065 126.308571 
L 640.429944 128.777143 
L 644.096509 130.011429 
L 648.284824 136.182857 
L 651.820805 140.297143 
L 656.917038 140.297143 
L 658.344541 140.708571 
L 659.847416 141.531429 
L 665.978713 144 
L 707.158369 144 
L 714.252786 142.765714 
L 720 141.12 
L 720 141.12 
" clip-path="url(#p82f8585348)" style="fill: none; stroke: #c18182; stroke-width: 3; stroke-linecap: square"/>
   </g>
  </g>
 </g>
 <defs>
  <clipPath id="p82f8585348">
   <rect x="0" y="0" width="720" height="144"/>
  </clipPath>
 </defs>
</svg>
