<?xml version="1.0" encoding="utf-8" standalone="no"?>
<!DOCTYPE svg PUBLIC "-//W3C//DTD SVG 1.1//EN"
  "http://www.w3.org/Graphics/SVG/1.1/DTD/svg11.dtd">
<svg xmlns:xlink="http://www.w3.org/1999/xlink" width="720pt" height="144pt" viewBox="0 0 720 144" xmlns="http://www.w3.org/2000/svg" version="1.1">
 <metadata>
  <rdf:RDF xmlns:dc="http://purl.org/dc/elements/1.1/" xmlns:cc="http://creativecommons.org/ns#" xmlns:rdf="http://www.w3.org/1999/02/22-rdf-syntax-ns#">
   <cc:Work>
    <dc:type rdf:resource="http://purl.org/dc/dcmitype/StillImage"/>
    <dc:date>2026-03-16T23:23:50.710522</dc:date>
    <dc:format>image/svg+xml</dc:format>
    <dc:creator>
     <cc:Agent>
      <dc:title>Matplotlib v3.10.8, https://matplotlib.org/</dc:title>
     </cc:Agent>
    </dc:creator>
   </cc:Work>
  </rdf:RDF>
 </metadata>
 <defs>
  <style type="text/css">*{stroke-linejoin: round; stroke-linecap: butt}</style>
 </defs>
 <g id="figure_1">
  <g id="patch_1">
   <path d="M 0 144 
L 720 144 
L 720 0 
L 0 0 
L 0 144 
z
" style="fill: none"/>
  </g>
  <g id="axes_1">
   <g id="FillBetweenPolyCollection_1">
    <path d="M 0 144 
L 0 1.270588 
L 0.018491 1.270588 
L 1.633574 2.117647 
L 4.450873 2.964706 
L 6.137995 3.388235 
L 7.786082 3.811765 
L 15.796243 8.047059 
L 16.190136 8.470588 
L 17.09358 8.470588 
L 18.134392 8.470588 
L 65.266304 16.941176 
L 80.144996 20.752941 
L 84.765215 21.176471 
L 94.61089 21.6 
L 95.90272 22.023529 
L 97.481624 22.447059 
L 98.787129 22.447059 
L 103.498696 23.294118 
L 108.121146 24.141176 
L 111.52914 24.988235 
L 112.790269 24.988235 
L 113.909431 25.411765 
L 118.469843 25.835294 
L 120.965788 26.258824 
L 124.665613 26.682353 
L 126.092887 26.682353 
L 126.507928 26.682353 
L 126.861157 26.682353 
L 127.672944 27.105882 
L 128.155605 27.105882 
L 128.908212 27.105882 
L 129.509611 27.105882 
L 130.088841 27.105882 
L 133.790993 27.529412 
L 136.289574 27.952941 
L 141.003088 28.376471 
L 142.584263 28.8 
L 143.558359 28.8 
L 144.651835 28.8 
L 148.685479 29.223529 
L 157.731759 31.341176 
L 161.097098 31.764706 
L 162.189509 32.188235 
L 164.459896 32.611765 
L 165.647149 33.035294 
L 166.740682 33.035294 
L 173.807507 33.882353 
L 174.059971 33.882353 
L 175.473829 33.882353 
L 176.812381 33.882353 
L 179.851491 33.882353 
L 181.047845 33.882353 
L 182.296289 33.882353 
L 189.627875 36.423529 
L 190.584695 36.847059 
L 191.786563 37.270588 
L 194.925199 38.117647 
L 197.337979 38.541176 
L 198.29204 38.541176 
L 199.177122 38.964706 
L 199.826386 38.964706 
L 202.454966 39.388235 
L 203.740612 39.388235 
L 204.98603 39.388235 
L 214.179073 40.658824 
L 214.792807 42.352941 
L 215.022024 42.352941 
L 215.30284 42.352941 
L 215.879243 42.352941 
L 216.129549 42.352941 
L 216.996389 42.352941 
L 217.248924 42.352941 
L 217.659058 42.352941 
L 217.949489 41.929412 
L 218.263509 41.505882 
L 218.683479 41.505882 
L 219.431379 41.929412 
L 219.992199 41.929412 
L 220.239836 41.929412 
L 220.463594 42.352941 
L 221.160032 42.352941 
L 223.811375 42.352941 
L 224.580967 42.352941 
L 226.071973 42.352941 
L 226.541303 42.352941 
L 228.24204 42.352941 
L 229.811306 42.352941 
L 231.080039 42.352941 
L 231.652903 42.352941 
L 232.164496 42.352941 
L 232.984897 42.352941 
L 234.199081 42.352941 
L 235.29145 42.352941 
L 235.939111 42.352941 
L 236.387698 42.352941 
L 236.582821 42.352941 
L 237.293343 42.352941 
L 238.052995 42.352941 
L 238.610049 42.352941 
L 238.995097 42.352941 
L 239.290741 42.352941 
L 240.669956 42.352941 
L 241.42828 41.082353 
L 243.347574 38.117647 
L 243.83224 37.694118 
L 244.109625 37.694118 
L 244.818499 37.270588 
L 246.775642 36.423529 
L 248.975021 35.152941 
L 250.172196 34.729412 
L 251.282792 33.882353 
L 252.839477 33.035294 
L 253.20375 32.611765 
L 254.103218 32.188235 
L 256.715769 30.494118 
L 257.792921 29.647059 
L 257.854436 29.647059 
L 259.784096 26.682353 
L 261.674121 24.564706 
L 262.972579 23.294118 
L 263.399692 22.870588 
L 263.96932 21.176471 
L 265.812527 19.482353 
L 266.758811 18.635294 
L 270.175843 15.670588 
L 272.886731 13.552941 
L 275.135083 11.435294 
L 276.418766 9.741176 
L 280.731159 7.2 
L 281.780171 6.776471 
L 284.120988 5.929412 
L 286.152981 5.505882 
L 287.081496 5.082353 
L 288.164762 4.658824 
L 291.921097 2.964706 
L 293.166538 2.117647 
L 293.93688 1.694118 
L 295.403108 1.270588 
L 296.096492 1.270588 
L 296.548565 1.270588 
L 296.990531 0 
L 297.919813 0 
L 298.651959 0 
L 300.69852 0 
L 303.49717 0 
L 305.788314 0 
L 307.83276 1.694118 
L 308.747258 2.541176 
L 310.50792 4.235294 
L 311.069775 4.658824 
L 312.291961 5.929412 
L 314.194469 8.470588 
L 317.020607 10.588235 
L 317.442031 11.011765 
L 319.256748 12.282353 
L 320.693937 13.552941 
L 322.247191 14.4 
L 324.363329 16.094118 
L 328.077048 18.635294 
L 329.9585 19.482353 
L 330.586409 19.905882 
L 330.854991 19.905882 
L 332.439162 21.176471 
L 333.444176 22.447059 
L 334.291473 23.717647 
L 334.811212 24.141176 
L 335.169669 24.988235 
L 335.951452 25.411765 
L 336.36915 25.835294 
L 337.613331 26.682353 
L 337.948085 26.682353 
L 338.250559 26.682353 
L 338.573374 27.105882 
L 338.898118 27.105882 
L 339.384614 27.529412 
L 339.651688 27.529412 
L 340.343426 27.952941 
L 340.561854 27.952941 
L 340.746839 27.952941 
L 341.257252 28.376471 
L 341.424235 28.376471 
L 341.672484 28.8 
L 342.023962 28.8 
L 342.432301 29.223529 
L 342.967868 29.223529 
L 343.475469 29.647059 
L 343.728701 29.647059 
L 344.149106 30.494118 
L 344.819913 31.341176 
L 345.497651 32.611765 
L 346.68639 33.882353 
L 347.003458 34.305882 
L 347.815211 34.305882 
L 348.038974 34.305882 
L 348.323468 34.729412 
L 349.335297 35.152941 
L 349.903818 35.152941 
L 350.79759 35.576471 
L 351.730661 36 
L 352.39758 36 
L 354.096482 36.423529 
L 355.016778 36.847059 
L 355.447896 37.270588 
L 355.824706 37.270588 
L 356.561501 37.694118 
L 357.105342 37.694118 
L 357.728052 38.117647 
L 358.89625 38.117647 
L 359.017019 38.117647 
L 359.135101 38.117647 
L 359.811858 38.117647 
L 360.386895 38.964706 
L 360.875637 39.388235 
L 361.369814 40.235294 
L 363.322172 42.776471 
L 363.637751 43.2 
L 363.986213 43.623529 
L 364.464431 44.470588 
L 364.865497 45.317647 
L 365.144946 45.741176 
L 365.452902 46.164706 
L 365.919583 46.588235 
L 366.389978 47.011765 
L 366.791134 47.435294 
L 367.061593 47.435294 
L 367.396719 47.858824 
L 367.591366 47.858824 
L 368.009 48.282353 
L 368.495837 48.705882 
L 369.017098 49.129412 
L 369.527217 49.552941 
L 370.135726 49.976471 
L 370.858418 50.4 
L 371.44589 50.823529 
L 372.244455 50.823529 
L 373.057684 50.823529 
L 373.657598 50.823529 
L 374.533165 50.823529 
L 375.121274 50.823529 
L 375.568526 50.823529 
L 376.047551 50.823529 
L 376.782826 50.823529 
L 377.575997 49.129412 
L 378.14381 47.011765 
L 378.65316 47.011765 
L 379.267037 47.011765 
L 379.867105 47.435294 
L 380.728698 47.435294 
L 381.069063 47.858824 
L 381.477071 47.858824 
L 381.893063 47.858824 
L 382.444764 48.282353 
L 382.839424 48.282353 
L 383.25712 48.282353 
L 383.648615 48.282353 
L 384.18199 48.705882 
L 384.875241 48.705882 
L 385.436619 49.552941 
L 385.816741 50.4 
L 386.245948 50.823529 
L 386.613419 50.823529 
L 387.137053 51.247059 
L 387.75483 51.247059 
L 388.14773 51.670588 
L 388.452125 51.670588 
L 389.167313 52.094118 
L 389.950654 52.094118 
L 390.347822 52.517647 
L 390.710614 52.517647 
L 391.031808 52.517647 
L 391.424223 52.941176 
L 392.104739 52.941176 
L 392.373323 52.941176 
L 392.623422 53.364706 
L 393.068978 53.788235 
L 394.364023 54.635294 
L 395.723771 55.905882 
L 396.286089 56.752941 
L 396.768702 57.176471 
L 397.031487 57.176471 
L 397.346721 57.6 
L 398.225938 58.023529 
L 398.933706 58.023529 
L 399.545482 58.447059 
L 400.030686 58.447059 
L 400.969602 58.870588 
L 401.454855 59.294118 
L 401.661869 59.294118 
L 402.493016 59.717647 
L 402.833871 59.717647 
L 403.184647 59.717647 
L 403.815761 59.717647 
L 404.375851 60.141176 
L 404.667553 60.141176 
L 405.208045 60.141176 
L 405.503049 60.141176 
L 405.989382 60.141176 
L 406.541748 60.564706 
L 407.078752 60.564706 
L 407.483567 60.564706 
L 407.898995 60.564706 
L 408.816631 60.988235 
L 409.275878 60.988235 
L 409.656077 60.988235 
L 409.970302 61.411765 
L 410.385952 61.411765 
L 410.720604 61.411765 
L 411.060968 61.411765 
L 411.519178 61.411765 
L 411.875827 61.835294 
L 412.324687 61.835294 
L 412.755381 61.835294 
L 413.211363 61.835294 
L 413.462052 61.835294 
L 413.732712 62.682353 
L 414.284976 63.529412 
L 414.711181 63.952941 
L 415.044014 64.376471 
L 415.415658 64.8 
L 415.669217 65.223529 
L 415.857973 65.223529 
L 416.209732 65.647059 
L 416.587798 66.070588 
L 417.033229 66.494118 
L 417.287967 66.917647 
L 417.584009 67.341176 
L 417.818436 67.341176 
L 418.104786 67.764706 
L 418.426685 68.188235 
L 418.780287 69.035294 
L 419.216884 69.458824 
L 419.635577 70.305882 
L 420.067166 71.152941 
L 420.466152 72 
L 420.899894 72.423529 
L 421.20632 72.847059 
L 421.479776 72.847059 
L 421.791978 73.270588 
L 422.223334 73.694118 
L 422.56195 74.117647 
L 422.889224 74.541176 
L 423.263737 74.541176 
L 423.552233 74.964706 
L 423.880956 75.388235 
L 424.217102 75.811765 
L 424.608368 76.235294 
L 425.094567 76.658824 
L 425.459224 77.505882 
L 425.912468 78.352941 
L 426.293084 79.2 
L 426.694165 80.047059 
L 427.143952 80.894118 
L 427.683199 81.317647 
L 428.175199 82.164706 
L 428.680616 83.011765 
L 429.279988 83.858824 
L 429.799092 86.4 
L 430.206404 86.4 
L 430.49668 86.4 
L 431.192819 86.4 
L 431.487702 86.4 
L 431.829307 86.4 
L 432.165446 86.4 
L 432.715123 86.4 
L 433.05026 87.247059 
L 433.266155 87.670588 
L 433.477112 88.094118 
L 433.730076 88.517647 
L 433.991894 89.364706 
L 434.474555 90.635294 
L 434.820826 91.482353 
L 435.371892 93.176471 
L 435.602685 93.6 
L 435.773617 94.023529 
L 436.155356 94.870588 
L 436.571458 95.717647 
L 437.150833 96.988235 
L 437.741325 97.835294 
L 438.236059 98.258824 
L 438.659776 98.258824 
L 439.022555 99.529412 
L 439.489497 100.8 
L 439.78423 101.647059 
L 440.45555 101.647059 
L 440.811286 102.070588 
L 441.702399 102.917647 
L 442.414066 103.764706 
L 443.389951 105.035294 
L 444.132078 105.882353 
L 444.86386 106.305882 
L 445.117087 106.305882 
L 445.735472 106.729412 
L 446.678682 107.576471 
L 447.202305 108 
L 447.630975 108.423529 
L 447.834647 108.423529 
L 448.374359 108.847059 
L 448.808664 109.270588 
L 449.336138 110.117647 
L 450.122014 111.388235 
L 450.755799 111.811765 
L 451.300884 112.658824 
L 451.941773 113.505882 
L 452.337791 113.929412 
L 452.74512 114.352941 
L 453.153413 115.623529 
L 453.758824 117.741176 
L 454.530588 118.588235 
L 455.29532 118.588235 
L 455.720532 118.588235 
L 456.148964 118.588235 
L 456.429313 118.588235 
L 457.736337 118.588235 
L 458.136367 118.588235 
L 458.59102 118.588235 
L 459.325517 118.164706 
L 459.516137 117.741176 
L 460.069036 116.894118 
L 460.535653 116.047059 
L 461.024004 115.623529 
L 461.642292 114.352941 
L 461.988011 114.352941 
L 462.526408 113.929412 
L 462.693845 113.929412 
L 462.989547 113.929412 
L 464.502034 113.082353 
L 464.944062 113.082353 
L 465.277359 113.082353 
L 466.114061 112.658824 
L 466.632729 112.235294 
L 467.165258 112.235294 
L 467.626395 112.235294 
L 467.978332 111.811765 
L 469.713081 111.388235 
L 471.067647 110.541176 
L 471.650561 110.541176 
L 472.151739 110.117647 
L 473.067735 110.117647 
L 474.545063 110.117647 
L 474.920266 110.117647 
L 476.511881 110.117647 
L 476.959033 110.117647 
L 477.367173 110.117647 
L 477.98681 110.117647 
L 478.280924 110.117647 
L 478.545176 110.117647 
L 478.899585 110.117647 
L 479.353493 110.117647 
L 479.935893 110.117647 
L 480.351561 110.117647 
L 480.811971 110.117647 
L 482.033208 109.694118 
L 482.905437 109.270588 
L 484.004678 108.423529 
L 484.387742 108.423529 
L 485.301537 108 
L 485.759002 107.576471 
L 486.245518 107.152941 
L 486.963919 107.152941 
L 487.717691 106.729412 
L 488.317142 106.305882 
L 488.641897 105.882353 
L 489.141216 105.882353 
L 490.242141 105.035294 
L 490.531829 105.035294 
L 490.987933 104.611765 
L 491.429911 104.611765 
L 491.680398 104.188235 
L 491.859632 104.188235 
L 492.644885 103.764706 
L 493.338853 103.341176 
L 494.137824 102.917647 
L 494.568989 102.494118 
L 494.744293 102.494118 
L 495.891413 101.647059 
L 496.514038 101.647059 
L 496.989067 101.223529 
L 497.369418 101.223529 
L 497.678549 100.8 
L 498.178981 100.8 
L 498.592147 100.376471 
L 499.109631 99.952941 
L 499.591789 99.952941 
L 499.967856 99.529412 
L 500.259487 99.529412 
L 500.53297 99.529412 
L 500.927402 99.105882 
L 501.175319 99.105882 
L 501.599043 98.682353 
L 501.851558 98.682353 
L 502.334271 98.258824 
L 503.034877 98.258824 
L 503.564307 97.835294 
L 503.996777 97.411765 
L 504.501382 97.411765 
L 505.020519 96.564706 
L 505.556427 95.717647 
L 506.153969 94.870588 
L 506.748647 94.023529 
L 507.455198 93.176471 
L 507.808668 93.176471 
L 508.237284 92.752941 
L 508.735281 92.752941 
L 509.454054 92.329412 
L 511.557304 91.482353 
L 512.296481 91.482353 
L 512.73529 91.058824 
L 513.410686 91.058824 
L 514.000319 90.635294 
L 514.598025 90.211765 
L 515.210921 90.211765 
L 515.480989 90.211765 
L 516.109752 89.788235 
L 516.396175 89.788235 
L 516.659322 89.788235 
L 517.012762 89.364706 
L 517.254328 89.364706 
L 517.562439 89.364706 
L 517.803468 89.364706 
L 518.09511 88.941176 
L 518.574594 88.941176 
L 519.447757 88.941176 
L 519.884412 88.941176 
L 520.343301 88.941176 
L 520.706137 88.941176 
L 521.208521 88.941176 
L 521.791168 88.941176 
L 522.167249 88.941176 
L 522.850306 88.941176 
L 523.323677 88.941176 
L 524.012282 88.941176 
L 524.574622 88.941176 
L 525.224616 88.941176 
L 525.805376 88.941176 
L 526.62136 89.788235 
L 527.106651 90.211765 
L 527.577107 91.058824 
L 528.298133 91.905882 
L 529.253926 93.6 
L 529.47062 93.6 
L 530.061125 94.447059 
L 530.246709 94.870588 
L 530.823341 95.717647 
L 531.241872 96.564706 
L 532.030306 97.411765 
L 532.435673 97.411765 
L 533.079727 97.411765 
L 533.53576 97.411765 
L 534.101859 97.411765 
L 535.162301 97.411765 
L 535.824765 97.411765 
L 536.157151 97.411765 
L 536.526808 97.411765 
L 536.93245 97.411765 
L 538.777759 97.411765 
L 539.115624 97.411765 
L 539.733808 97.411765 
L 540.404508 97.411765 
L 541.023416 97.411765 
L 541.386243 97.411765 
L 542.155181 97.411765 
L 543.510116 97.411765 
L 544.157432 97.411765 
L 544.84195 97.411765 
L 545.196454 97.411765 
L 545.700223 97.411765 
L 548.401619 97.411765 
L 548.852727 97.411765 
L 549.296167 98.258824 
L 550.581068 100.8 
L 551.47687 102.070588 
L 551.681512 102.494118 
L 552.137616 102.917647 
L 552.61943 103.764706 
L 553.873648 105.458824 
L 554.119558 105.882353 
L 554.739992 106.729412 
L 555.185414 107.576471 
L 555.929642 109.270588 
L 556.561213 110.541176 
L 557.080348 111.811765 
L 557.639103 113.505882 
L 558.232018 114.776471 
L 558.769824 115.623529 
L 559.237187 116.470588 
L 559.986698 118.164706 
L 560.339822 118.588235 
L 561.254394 120.705882 
L 561.669866 121.552941 
L 562.151637 122.4 
L 563.041092 123.670588 
L 563.727088 124.941176 
L 564.149153 125.364706 
L 565.232391 127.058824 
L 565.487657 127.058824 
L 566.235645 127.905882 
L 567.055378 128.752941 
L 567.882684 129.6 
L 568.323588 130.023529 
L 569.565429 131.294118 
L 570.078953 131.717647 
L 570.524779 132.564706 
L 571.036363 133.411765 
L 571.43661 134.258824 
L 572.187436 133.835294 
L 576.894336 132.988235 
L 580.26966 132.564706 
L 580.893723 132.141176 
L 581.270443 132.141176 
L 582.323543 132.141176 
L 582.748597 132.141176 
L 583.150745 132.141176 
L 583.384316 132.141176 
L 583.626705 132.141176 
L 584.286227 131.717647 
L 584.811849 131.717647 
L 585.685894 131.294118 
L 586.760638 130.023529 
L 587.767561 128.329412 
L 588.005236 127.905882 
L 588.194261 127.482353 
L 588.69351 126.635294 
L 588.925694 126.635294 
L 589.172782 126.211765 
L 589.648253 125.364706 
L 590.365101 124.517647 
L 591.091046 123.670588 
L 592.480828 120.705882 
L 592.946817 119.435294 
L 594.785401 113.505882 
L 595.452409 111.388235 
L 595.834807 110.541176 
L 596.700637 110.117647 
L 597.084944 110.964706 
L 597.514218 111.811765 
L 599.014297 114.352941 
L 599.407324 114.352941 
L 599.784217 114.352941 
L 600.580625 114.352941 
L 600.952283 114.352941 
L 601.406505 114.352941 
L 601.746197 114.352941 
L 604.184341 115.623529 
L 606.230481 118.588235 
L 606.688689 119.011765 
L 608.631647 119.858824 
L 609.641277 120.282353 
L 610.58043 120.705882 
L 611.719081 121.552941 
L 612.17605 121.552941 
L 612.523658 121.976471 
L 613.66872 122.4 
L 614.268339 122.823529 
L 615.233929 124.517647 
L 617.146757 127.905882 
L 617.689824 128.752941 
L 617.937751 129.176471 
L 619.80597 131.294118 
L 621.501492 134.258824 
L 622.393398 135.529412 
L 623.36965 136.8 
L 624.274336 137.647059 
L 625.056948 138.070588 
L 625.329974 138.494118 
L 625.942681 138.917647 
L 626.272768 139.341176 
L 626.541379 139.764706 
L 627.164193 139.764706 
L 627.561859 139.764706 
L 627.841347 139.764706 
L 628.42553 139.764706 
L 628.696088 139.764706 
L 629.098857 139.764706 
L 629.803216 139.764706 
L 630.357729 139.764706 
L 631.143134 139.764706 
L 631.876576 139.764706 
L 632.612107 139.764706 
L 633.198464 139.764706 
L 633.72135 139.764706 
L 634.307261 139.764706 
L 634.634159 139.764706 
L 634.912715 139.764706 
L 635.204152 139.764706 
L 635.537128 139.764706 
L 636.179161 139.764706 
L 636.681802 139.764706 
L 637.180764 139.764706 
L 637.644571 139.764706 
L 638.180497 140.188235 
L 638.72368 140.188235 
L 639.394402 140.188235 
L 640.412536 140.188235 
L 641.222793 140.188235 
L 641.615206 140.611765 
L 641.894696 140.611765 
L 642.22391 140.611765 
L 642.69267 140.611765 
L 643.517867 140.611765 
L 644.069168 140.611765 
L 644.548663 140.611765 
L 644.98868 140.611765 
L 645.7604 141.035294 
L 646.321453 141.035294 
L 646.695244 141.035294 
L 647.14998 141.035294 
L 647.76493 141.035294 
L 648.2925 141.035294 
L 648.817805 141.458824 
L 649.408552 141.458824 
L 650.973339 141.458824 
L 651.829599 141.458824 
L 652.429056 141.882353 
L 653.224535 141.882353 
L 653.83553 141.882353 
L 654.626153 141.882353 
L 655.164309 141.882353 
L 655.415039 141.882353 
L 655.79793 141.882353 
L 655.946595 141.882353 
L 656.19462 142.305882 
L 657.588178 142.305882 
L 658.158804 142.305882 
L 658.576229 142.305882 
L 661.048855 142.729412 
L 662.83043 142.729412 
L 663.481417 143.152941 
L 665.621753 143.152941 
L 666.492266 143.152941 
L 668.052574 143.576471 
L 668.961239 143.576471 
L 670.819974 144 
L 672.225357 144 
L 672.545675 144 
L 672.722939 144 
L 672.930379 144 
L 673.995071 144 
L 677.089409 144 
L 679.760715 144 
L 680.281618 144 
L 680.489379 144 
L 680.623128 144 
L 681.113023 144 
L 681.884497 144 
L 683.731946 144 
L 683.850755 144 
L 684.205289 144 
L 686.359927 144 
L 687.069493 144 
L 687.276426 144 
L 687.45467 144 
L 687.995415 144 
L 688.255587 144 
L 689.619638 144 
L 689.707295 144 
L 689.752425 144 
L 690.575633 144 
L 690.663291 144 
L 691.249121 144 
L 692.554273 144 
L 692.847189 144 
L 692.930816 144 
L 692.996773 144 
L 693.261393 144 
L 693.438302 144 
L 693.5714 144 
L 693.701135 144 
L 693.912727 144 
L 694.041514 144 
L 694.20907 144 
L 694.718861 144 
L 694.946454 144 
L 695.201038 144 
L 695.325276 144 
L 695.45719 144 
L 695.623046 144 
L 695.668527 144 
L 695.730163 144 
L 695.816023 144 
L 698.525597 144 
L 698.696571 144 
L 698.845201 144 
L 699.031078 144 
L 699.105413 143.576471 
L 699.286172 142.729412 
L 699.813525 142.729412 
L 700.882117 143.152941 
L 701.27436 143.152941 
L 701.982813 143.576471 
L 703.812806 144 
L 704.331995 144 
L 704.656941 144 
L 704.797833 144 
L 705.129411 144 
L 705.792246 144 
L 706.135809 144 
L 706.287514 144 
L 706.448398 144 
L 707.640001 144 
L 707.993504 144 
L 708.912695 144 
L 709.298978 144 
L 709.756886 144 
L 709.963844 144 
L 710.139164 144 
L 710.713125 144 
L 711.226753 144 
L 711.638149 143.152941 
L 711.918175 143.152941 
L 712.704607 143.576471 
L 712.959694 143.152941 
L 713.333932 142.305882 
L 713.815134 141.035294 
L 714.131427 141.458824 
L 714.403252 141.458824 
L 715.898611 142.729412 
L 716.466211 144 
L 716.840057 144 
L 720 144 
L 720 144 
L 720 144 
L 716.840057 144 
L 716.466211 144 
L 715.898611 144 
L 714.403252 144 
L 714.131427 144 
L 713.815134 144 
L 713.333932 144 
L 712.959694 144 
L 712.704607 144 
L 711.918175 144 
L 711.638149 144 
L 711.226753 144 
L 710.713125 144 
L 710.139164 144 
L 709.963844 144 
L 709.756886 144 
L 709.298978 144 
L 708.912695 144 
L 707.993504 144 
L 707.640001 144 
L 706.448398 144 
L 706.287514 144 
L 706.135809 144 
L 705.792246 144 
L 705.129411 144 
L 704.797833 144 
L 704.656941 144 
L 704.331995 144 
L 703.812806 144 
L 701.982813 144 
L 701.27436 144 
L 700.882117 144 
L 699.813525 144 
L 699.286172 144 
L 699.105413 144 
L 699.031078 144 
L 698.845201 144 
L 698.696571 144 
L 698.525597 144 
L 695.816023 144 
L 695.730163 144 
L 695.668527 144 
L 695.623046 144 
L 695.45719 144 
L 695.325276 144 
L 695.201038 144 
L 694.946454 144 
L 694.718861 144 
L 694.20907 144 
L 694.041514 144 
L 693.912727 144 
L 693.701135 144 
L 693.5714 144 
L 693.438302 144 
L 693.261393 144 
L 692.996773 144 
L 692.930816 144 
L 692.847189 144 
L 692.554273 144 
L 691.249121 144 
L 690.663291 144 
L 690.575633 144 
L 689.752425 144 
L 689.707295 144 
L 689.619638 144 
L 688.255587 144 
L 687.995415 144 
L 687.45467 144 
L 687.276426 144 
L 687.069493 144 
L 686.359927 144 
L 684.205289 144 
L 683.850755 144 
L 683.731946 144 
L 681.884497 144 
L 681.113023 144 
L 680.623128 144 
L 680.489379 144 
L 680.281618 144 
L 679.760715 144 
L 677.089409 144 
L 673.995071 144 
L 672.930379 144 
L 672.722939 144 
L 672.545675 144 
L 672.225357 144 
L 670.819974 144 
L 668.961239 144 
L 668.052574 144 
L 666.492266 144 
L 665.621753 144 
L 663.481417 144 
L 662.83043 144 
L 661.048855 144 
L 658.576229 144 
L 658.158804 144 
L 657.588178 144 
L 656.19462 144 
L 655.946595 144 
L 655.79793 144 
L 655.415039 144 
L 655.164309 144 
L 654.626153 144 
L 653.83553 144 
L 653.224535 144 
L 652.429056 144 
L 651.829599 144 
L 650.973339 144 
L 649.408552 144 
L 648.817805 144 
L 648.2925 144 
L 647.76493 144 
L 647.14998 144 
L 646.695244 144 
L 646.321453 144 
L 645.7604 144 
L 644.98868 144 
L 644.548663 144 
L 644.069168 144 
L 643.517867 144 
L 642.69267 144 
L 642.22391 144 
L 641.894696 144 
L 641.615206 144 
L 641.222793 144 
L 640.412536 144 
L 639.394402 144 
L 638.72368 144 
L 638.180497 144 
L 637.644571 144 
L 637.180764 144 
L 636.681802 144 
L 636.179161 144 
L 635.537128 144 
L 635.204152 144 
L 634.912715 144 
L 634.634159 144 
L 634.307261 144 
L 633.72135 144 
L 633.198464 144 
L 632.612107 144 
L 631.876576 144 
L 631.143134 144 
L 630.357729 144 
L 629.803216 144 
L 629.098857 144 
L 628.696088 144 
L 628.42553 144 
L 627.841347 144 
L 627.561859 144 
L 627.164193 144 
L 626.541379 144 
L 626.272768 144 
L 625.942681 144 
L 625.329974 144 
L 625.056948 144 
L 624.274336 144 
L 623.36965 144 
L 622.393398 144 
L 621.501492 144 
L 619.80597 144 
L 617.937751 144 
L 617.689824 144 
L 617.146757 144 
L 615.233929 144 
L 614.268339 144 
L 613.66872 144 
L 612.523658 144 
L 612.17605 144 
L 611.719081 144 
L 610.58043 144 
L 609.641277 144 
L 608.631647 144 
L 606.688689 144 
L 606.230481 144 
L 604.184341 144 
L 601.746197 144 
L 601.406505 144 
L 600.952283 144 
L 600.580625 144 
L 599.784217 144 
L 599.407324 144 
L 599.014297 144 
L 597.514218 144 
L 597.084944 144 
L 596.700637 144 
L 595.834807 144 
L 595.452409 144 
L 594.785401 144 
L 592.946817 144 
L 592.480828 144 
L 591.091046 144 
L 590.365101 144 
L 589.648253 144 
L 589.172782 144 
L 588.925694 144 
L 588.69351 144 
L 588.194261 144 
L 588.005236 144 
L 587.767561 144 
L 586.760638 144 
L 585.685894 144 
L 584.811849 144 
L 584.286227 144 
L 583.626705 144 
L 583.384316 144 
L 583.150745 144 
L 582.748597 144 
L 582.323543 144 
L 581.270443 144 
L 580.893723 144 
L 580.26966 144 
L 576.894336 144 
L 572.187436 144 
L 571.43661 144 
L 571.036363 144 
L 570.524779 144 
L 570.078953 144 
L 569.565429 144 
L 568.323588 144 
L 567.882684 144 
L 567.055378 144 
L 566.235645 144 
L 565.487657 144 
L 565.232391 144 
L 564.149153 144 
L 563.727088 144 
L 563.041092 144 
L 562.151637 144 
L 561.669866 144 
L 561.254394 144 
L 560.339822 144 
L 559.986698 144 
L 559.237187 144 
L 558.769824 144 
L 558.232018 144 
L 557.639103 144 
L 557.080348 144 
L 556.561213 144 
L 555.929642 144 
L 555.185414 144 
L 554.739992 144 
L 554.119558 144 
L 553.873648 144 
L 552.61943 144 
L 552.137616 144 
L 551.681512 144 
L 551.47687 144 
L 550.581068 144 
L 549.296167 144 
L 548.852727 144 
L 548.401619 144 
L 545.700223 144 
L 545.196454 144 
L 544.84195 144 
L 544.157432 144 
L 543.510116 144 
L 542.155181 144 
L 541.386243 144 
L 541.023416 144 
L 540.404508 144 
L 539.733808 144 
L 539.115624 144 
L 538.777759 144 
L 536.93245 144 
L 536.526808 144 
L 536.157151 144 
L 535.824765 144 
L 535.162301 144 
L 534.101859 144 
L 533.53576 144 
L 533.079727 144 
L 532.435673 144 
L 532.030306 144 
L 531.241872 144 
L 530.823341 144 
L 530.246709 144 
L 530.061125 144 
L 529.47062 144 
L 529.253926 144 
L 528.298133 144 
L 527.577107 144 
L 527.106651 144 
L 526.62136 144 
L 525.805376 144 
L 525.224616 144 
L 524.574622 144 
L 524.012282 144 
L 523.323677 144 
L 522.850306 144 
L 522.167249 144 
L 521.791168 144 
L 521.208521 144 
L 520.706137 144 
L 520.343301 144 
L 519.884412 144 
L 519.447757 144 
L 518.574594 144 
L 518.09511 144 
L 517.803468 144 
L 517.562439 144 
L 517.254328 144 
L 517.012762 144 
L 516.659322 144 
L 516.396175 144 
L 516.109752 144 
L 515.480989 144 
L 515.210921 144 
L 514.598025 144 
L 514.000319 144 
L 513.410686 144 
L 512.73529 144 
L 512.296481 144 
L 511.557304 144 
L 509.454054 144 
L 508.735281 144 
L 508.237284 144 
L 507.808668 144 
L 507.455198 144 
L 506.748647 144 
L 506.153969 144 
L 505.556427 144 
L 505.020519 144 
L 504.501382 144 
L 503.996777 144 
L 503.564307 144 
L 503.034877 144 
L 502.334271 144 
L 501.851558 144 
L 501.599043 144 
L 501.175319 144 
L 500.927402 144 
L 500.53297 144 
L 500.259487 144 
L 499.967856 144 
L 499.591789 144 
L 499.109631 144 
L 498.592147 144 
L 498.178981 144 
L 497.678549 144 
L 497.369418 144 
L 496.989067 144 
L 496.514038 144 
L 495.891413 144 
L 494.744293 144 
L 494.568989 144 
L 494.137824 144 
L 493.338853 144 
L 492.644885 144 
L 491.859632 144 
L 491.680398 144 
L 491.429911 144 
L 490.987933 144 
L 490.531829 144 
L 490.242141 144 
L 489.141216 144 
L 488.641897 144 
L 488.317142 144 
L 487.717691 144 
L 486.963919 144 
L 486.245518 144 
L 485.759002 144 
L 485.301537 144 
L 484.387742 144 
L 484.004678 144 
L 482.905437 144 
L 482.033208 144 
L 480.811971 144 
L 480.351561 144 
L 479.935893 144 
L 479.353493 144 
L 478.899585 144 
L 478.545176 144 
L 478.280924 144 
L 477.98681 144 
L 477.367173 144 
L 476.959033 144 
L 476.511881 144 
L 474.920266 144 
L 474.545063 144 
L 473.067735 144 
L 472.151739 144 
L 471.650561 144 
L 471.067647 144 
L 469.713081 144 
L 467.978332 144 
L 467.626395 144 
L 467.165258 144 
L 466.632729 144 
L 466.114061 144 
L 465.277359 144 
L 464.944062 144 
L 464.502034 144 
L 462.989547 144 
L 462.693845 144 
L 462.526408 144 
L 461.988011 144 
L 461.642292 144 
L 461.024004 144 
L 460.535653 144 
L 460.069036 144 
L 459.516137 144 
L 459.325517 144 
L 458.59102 144 
L 458.136367 144 
L 457.736337 144 
L 456.429313 144 
L 456.148964 144 
L 455.720532 144 
L 455.29532 144 
L 454.530588 144 
L 453.758824 144 
L 453.153413 144 
L 452.74512 144 
L 452.337791 144 
L 451.941773 144 
L 451.300884 144 
L 450.755799 144 
L 450.122014 144 
L 449.336138 144 
L 448.808664 144 
L 448.374359 144 
L 447.834647 144 
L 447.630975 144 
L 447.202305 144 
L 446.678682 144 
L 445.735472 144 
L 445.117087 144 
L 444.86386 144 
L 444.132078 144 
L 443.389951 144 
L 442.414066 144 
L 441.702399 144 
L 440.811286 144 
L 440.45555 144 
L 439.78423 144 
L 439.489497 144 
L 439.022555 144 
L 438.659776 144 
L 438.236059 144 
L 437.741325 144 
L 437.150833 144 
L 436.571458 144 
L 436.155356 144 
L 435.773617 144 
L 435.602685 144 
L 435.371892 144 
L 434.820826 144 
L 434.474555 144 
L 433.991894 144 
L 433.730076 144 
L 433.477112 144 
L 433.266155 144 
L 433.05026 144 
L 432.715123 144 
L 432.165446 144 
L 431.829307 144 
L 431.487702 144 
L 431.192819 144 
L 430.49668 144 
L 430.206404 144 
L 429.799092 144 
L 429.279988 144 
L 428.680616 144 
L 428.175199 144 
L 427.683199 144 
L 427.143952 144 
L 426.694165 144 
L 426.293084 144 
L 425.912468 144 
L 425.459224 144 
L 425.094567 144 
L 424.608368 144 
L 424.217102 144 
L 423.880956 144 
L 423.552233 144 
L 423.263737 144 
L 422.889224 144 
L 422.56195 144 
L 422.223334 144 
L 421.791978 144 
L 421.479776 144 
L 421.20632 144 
L 420.899894 144 
L 420.466152 144 
L 420.067166 144 
L 419.635577 144 
L 419.216884 144 
L 418.780287 144 
L 418.426685 144 
L 418.104786 144 
L 417.818436 144 
L 417.584009 144 
L 417.287967 144 
L 417.033229 144 
L 416.587798 144 
L 416.209732 144 
L 415.857973 144 
L 415.669217 144 
L 415.415658 144 
L 415.044014 144 
L 414.711181 144 
L 414.284976 144 
L 413.732712 144 
L 413.462052 144 
L 413.211363 144 
L 412.755381 144 
L 412.324687 144 
L 411.875827 144 
L 411.519178 144 
L 411.060968 144 
L 410.720604 144 
L 410.385952 144 
L 409.970302 144 
L 409.656077 144 
L 409.275878 144 
L 408.816631 144 
L 407.898995 144 
L 407.483567 144 
L 407.078752 144 
L 406.541748 144 
L 405.989382 144 
L 405.503049 144 
L 405.208045 144 
L 404.667553 144 
L 404.375851 144 
L 403.815761 144 
L 403.184647 144 
L 402.833871 144 
L 402.493016 144 
L 401.661869 144 
L 401.454855 144 
L 400.969602 144 
L 400.030686 144 
L 399.545482 144 
L 398.933706 144 
L 398.225938 144 
L 397.346721 144 
L 397.031487 144 
L 396.768702 144 
L 396.286089 144 
L 395.723771 144 
L 394.364023 144 
L 393.068978 144 
L 392.623422 144 
L 392.373323 144 
L 392.104739 144 
L 391.424223 144 
L 391.031808 144 
L 390.710614 144 
L 390.347822 144 
L 389.950654 144 
L 389.167313 144 
L 388.452125 144 
L 388.14773 144 
L 387.75483 144 
L 387.137053 144 
L 386.613419 144 
L 386.245948 144 
L 385.816741 144 
L 385.436619 144 
L 384.875241 144 
L 384.18199 144 
L 383.648615 144 
L 383.25712 144 
L 382.839424 144 
L 382.444764 144 
L 381.893063 144 
L 381.477071 144 
L 381.069063 144 
L 380.728698 144 
L 379.867105 144 
L 379.267037 144 
L 378.65316 144 
L 378.14381 144 
L 377.575997 144 
L 376.782826 144 
L 376.047551 144 
L 375.568526 144 
L 375.121274 144 
L 374.533165 144 
L 373.657598 144 
L 373.057684 144 
L 372.244455 144 
L 371.44589 144 
L 370.858418 144 
L 370.135726 144 
L 369.527217 144 
L 369.017098 144 
L 368.495837 144 
L 368.009 144 
L 367.591366 144 
L 367.396719 144 
L 367.061593 144 
L 366.791134 144 
L 366.389978 144 
L 365.919583 144 
L 365.452902 144 
L 365.144946 144 
L 364.865497 144 
L 364.464431 144 
L 363.986213 144 
L 363.637751 144 
L 363.322172 144 
L 361.369814 144 
L 360.875637 144 
L 360.386895 144 
L 359.811858 144 
L 359.135101 144 
L 359.017019 144 
L 358.89625 144 
L 357.728052 144 
L 357.105342 144 
L 356.561501 144 
L 355.824706 144 
L 355.447896 144 
L 355.016778 144 
L 354.096482 144 
L 352.39758 144 
L 351.730661 144 
L 350.79759 144 
L 349.903818 144 
L 349.335297 144 
L 348.323468 144 
L 348.038974 144 
L 347.815211 144 
L 347.003458 144 
L 346.68639 144 
L 345.497651 144 
L 344.819913 144 
L 344.149106 144 
L 343.728701 144 
L 343.475469 144 
L 342.967868 144 
L 342.432301 144 
L 342.023962 144 
L 341.672484 144 
L 341.424235 144 
L 341.257252 144 
L 340.746839 144 
L 340.561854 144 
L 340.343426 144 
L 339.651688 144 
L 339.384614 144 
L 338.898118 144 
L 338.573374 144 
L 338.250559 144 
L 337.948085 144 
L 337.613331 144 
L 336.36915 144 
L 335.951452 144 
L 335.169669 144 
L 334.811212 144 
L 334.291473 144 
L 333.444176 144 
L 332.439162 144 
L 330.854991 144 
L 330.586409 144 
L 329.9585 144 
L 328.077048 144 
L 324.363329 144 
L 322.247191 144 
L 320.693937 144 
L 319.256748 144 
L 317.442031 144 
L 317.020607 144 
L 314.194469 144 
L 312.291961 144 
L 311.069775 144 
L 310.50792 144 
L 308.747258 144 
L 307.83276 144 
L 305.788314 144 
L 303.49717 144 
L 300.69852 144 
L 298.651959 144 
L 297.919813 144 
L 296.990531 144 
L 296.548565 144 
L 296.096492 144 
L 295.403108 144 
L 293.93688 144 
L 293.166538 144 
L 291.921097 144 
L 288.164762 144 
L 287.081496 144 
L 286.152981 144 
L 284.120988 144 
L 281.780171 144 
L 280.731159 144 
L 276.418766 144 
L 275.135083 144 
L 272.886731 144 
L 270.175843 144 
L 266.758811 144 
L 265.812527 144 
L 263.96932 144 
L 263.399692 144 
L 262.972579 144 
L 261.674121 144 
L 259.784096 144 
L 257.854436 144 
L 257.792921 144 
L 256.715769 144 
L 254.103218 144 
L 253.20375 144 
L 252.839477 144 
L 251.282792 144 
L 250.172196 144 
L 248.975021 144 
L 246.775642 144 
L 244.818499 144 
L 244.109625 144 
L 243.83224 144 
L 243.347574 144 
L 241.42828 144 
L 240.669956 144 
L 239.290741 144 
L 238.995097 144 
L 238.610049 144 
L 238.052995 144 
L 237.293343 144 
L 236.582821 144 
L 236.387698 144 
L 235.939111 144 
L 235.29145 144 
L 234.199081 144 
L 232.984897 144 
L 232.164496 144 
L 231.652903 144 
L 231.080039 144 
L 229.811306 144 
L 228.24204 144 
L 226.541303 144 
L 226.071973 144 
L 224.580967 144 
L 223.811375 144 
L 221.160032 144 
L 220.463594 144 
L 220.239836 144 
L 219.992199 144 
L 219.431379 144 
L 218.683479 144 
L 218.263509 144 
L 217.949489 144 
L 217.659058 144 
L 217.248924 144 
L 216.996389 144 
L 216.129549 144 
L 215.879243 144 
L 215.30284 144 
L 215.022024 144 
L 214.792807 144 
L 214.179073 144 
L 204.98603 144 
L 203.740612 144 
L 202.454966 144 
L 199.826386 144 
L 199.177122 144 
L 198.29204 144 
L 197.337979 144 
L 194.925199 144 
L 191.786563 144 
L 190.584695 144 
L 189.627875 144 
L 182.296289 144 
L 181.047845 144 
L 179.851491 144 
L 176.812381 144 
L 175.473829 144 
L 174.059971 144 
L 173.807507 144 
L 166.740682 144 
L 165.647149 144 
L 164.459896 144 
L 162.189509 144 
L 161.097098 144 
L 157.731759 144 
L 148.685479 144 
L 144.651835 144 
L 143.558359 144 
L 142.584263 144 
L 141.003088 144 
L 136.289574 144 
L 133.790993 144 
L 130.088841 144 
L 129.509611 144 
L 128.908212 144 
L 128.155605 144 
L 127.672944 144 
L 126.861157 144 
L 126.507928 144 
L 126.092887 144 
L 124.665613 144 
L 120.965788 144 
L 118.469843 144 
L 113.909431 144 
L 112.790269 144 
L 111.52914 144 
L 108.121146 144 
L 103.498696 144 
L 98.787129 144 
L 97.481624 144 
L 95.90272 144 
L 94.61089 144 
L 84.765215 144 
L 80.144996 144 
L 65.266304 144 
L 18.134392 144 
L 17.09358 144 
L 16.190136 144 
L 15.796243 144 
L 7.786082 144 
L 6.137995 144 
L 4.450873 144 
L 1.633574 144 
L 0.018491 144 
L 0 144 
z
" clip-path="url(#p48fa5a3dda)" style="fill: #c18182; fill-opacity: 0.3; stroke: #c18182; stroke-opacity: 0.3"/>
   </g>
   <g id="line2d_1">
    <path d="M 0 1.270588 
L 0.018491 1.270588 
L 1.633574 2.117647 
L 6.137995 3.388235 
L 7.786082 3.811765 
L 15.796243 8.047059 
L 16.190136 8.470588 
L 18.134392 8.470588 
L 65.266304 16.941176 
L 80.144996 20.752941 
L 84.765215 21.176471 
L 94.61089 21.6 
L 97.481624 22.447059 
L 98.787129 22.447059 
L 108.121146 24.141176 
L 111.52914 24.988235 
L 112.790269 24.988235 
L 113.909431 25.411765 
L 118.469843 25.835294 
L 120.965788 26.258824 
L 124.665613 26.682353 
L 126.861157 26.682353 
L 127.672944 27.105882 
L 130.088841 27.105882 
L 133.790993 27.529412 
L 136.289574 27.952941 
L 141.003088 28.376471 
L 142.584263 28.8 
L 144.651835 28.8 
L 148.685479 29.223529 
L 157.731759 31.341176 
L 161.097098 31.764706 
L 162.189509 32.188235 
L 164.459896 32.611765 
L 165.647149 33.035294 
L 166.740682 33.035294 
L 174.059971 33.882353 
L 182.296289 33.882353 
L 191.786563 37.270588 
L 194.925199 38.117647 
L 197.337979 38.541176 
L 198.29204 38.541176 
L 199.177122 38.964706 
L 199.826386 38.964706 
L 202.454966 39.388235 
L 204.98603 39.388235 
L 214.179073 40.658824 
L 214.792807 42.352941 
L 217.659058 42.352941 
L 218.263509 41.505882 
L 218.683479 41.505882 
L 219.431379 41.929412 
L 220.239836 41.929412 
L 220.463594 42.352941 
L 240.669956 42.352941 
L 241.42828 41.082353 
L 243.347574 38.117647 
L 243.83224 37.694118 
L 244.109625 37.694118 
L 244.818499 37.270588 
L 246.775642 36.423529 
L 248.975021 35.152941 
L 250.172196 34.729412 
L 251.282792 33.882353 
L 252.839477 33.035294 
L 253.20375 32.611765 
L 254.103218 32.188235 
L 256.715769 30.494118 
L 257.854436 29.647059 
L 259.784096 26.682353 
L 261.674121 24.564706 
L 263.399692 22.870588 
L 263.96932 21.176471 
L 266.758811 18.635294 
L 270.175843 15.670588 
L 272.886731 13.552941 
L 275.135083 11.435294 
L 276.418766 9.741176 
L 280.731159 7.2 
L 284.120988 5.929412 
L 286.152981 5.505882 
L 291.921097 2.964706 
L 293.93688 1.694118 
L 295.403108 1.270588 
L 296.548565 1.270588 
L 296.990531 0 
L 305.788314 0 
L 308.747258 2.541176 
L 312.291961 5.929412 
L 314.194469 8.470588 
L 319.256748 12.282353 
L 320.693937 13.552941 
L 322.247191 14.4 
L 324.363329 16.094118 
L 328.077048 18.635294 
L 329.9585 19.482353 
L 330.586409 19.905882 
L 330.854991 19.905882 
L 332.439162 21.176471 
L 333.444176 22.447059 
L 334.291473 23.717647 
L 334.811212 24.141176 
L 335.169669 24.988235 
L 335.951452 25.411765 
L 336.36915 25.835294 
L 337.613331 26.682353 
L 338.250559 26.682353 
L 338.573374 27.105882 
L 338.898118 27.105882 
L 339.384614 27.529412 
L 339.651688 27.529412 
L 340.343426 27.952941 
L 340.746839 27.952941 
L 341.672484 28.8 
L 342.023962 28.8 
L 342.432301 29.223529 
L 342.967868 29.223529 
L 343.475469 29.647059 
L 343.728701 29.647059 
L 344.149106 30.494118 
L 344.819913 31.341176 
L 345.497651 32.611765 
L 347.003458 34.305882 
L 348.038974 34.305882 
L 348.323468 34.729412 
L 349.335297 35.152941 
L 349.903818 35.152941 
L 351.730661 36 
L 352.39758 36 
L 354.096482 36.423529 
L 355.016778 36.847059 
L 355.447896 37.270588 
L 355.824706 37.270588 
L 356.561501 37.694118 
L 357.105342 37.694118 
L 357.728052 38.117647 
L 359.811858 38.117647 
L 360.386895 38.964706 
L 360.875637 39.388235 
L 361.369814 40.235294 
L 363.986213 43.623529 
L 365.452902 46.164706 
L 366.791134 47.435294 
L 367.061593 47.435294 
L 367.396719 47.858824 
L 367.591366 47.858824 
L 368.495837 48.705882 
L 370.135726 49.976471 
L 371.44589 50.823529 
L 376.782826 50.823529 
L 377.575997 49.129412 
L 378.14381 47.011765 
L 379.267037 47.011765 
L 379.867105 47.435294 
L 380.728698 47.435294 
L 381.069063 47.858824 
L 381.893063 47.858824 
L 382.444764 48.282353 
L 383.648615 48.282353 
L 384.18199 48.705882 
L 384.875241 48.705882 
L 385.436619 49.552941 
L 385.816741 50.4 
L 386.245948 50.823529 
L 386.613419 50.823529 
L 387.137053 51.247059 
L 387.75483 51.247059 
L 388.14773 51.670588 
L 388.452125 51.670588 
L 389.167313 52.094118 
L 389.950654 52.094118 
L 390.347822 52.517647 
L 391.031808 52.517647 
L 391.424223 52.941176 
L 392.373323 52.941176 
L 392.623422 53.364706 
L 393.068978 53.788235 
L 394.364023 54.635294 
L 395.723771 55.905882 
L 396.286089 56.752941 
L 396.768702 57.176471 
L 397.031487 57.176471 
L 397.346721 57.6 
L 398.225938 58.023529 
L 398.933706 58.023529 
L 399.545482 58.447059 
L 400.030686 58.447059 
L 400.969602 58.870588 
L 401.454855 59.294118 
L 401.661869 59.294118 
L 402.493016 59.717647 
L 403.815761 59.717647 
L 404.375851 60.141176 
L 405.989382 60.141176 
L 406.541748 60.564706 
L 407.898995 60.564706 
L 408.816631 60.988235 
L 409.656077 60.988235 
L 409.970302 61.411765 
L 411.519178 61.411765 
L 411.875827 61.835294 
L 413.462052 61.835294 
L 413.732712 62.682353 
L 414.284976 63.529412 
L 415.415658 64.8 
L 415.669217 65.223529 
L 415.857973 65.223529 
L 417.584009 67.341176 
L 417.818436 67.341176 
L 418.426685 68.188235 
L 418.780287 69.035294 
L 419.216884 69.458824 
L 420.466152 72 
L 422.56195 74.117647 
L 422.889224 74.541176 
L 423.263737 74.541176 
L 424.217102 75.811765 
L 425.094567 76.658824 
L 426.293084 79.2 
L 427.143952 80.894118 
L 427.683199 81.317647 
L 429.279988 83.858824 
L 429.799092 86.4 
L 432.715123 86.4 
L 433.477112 88.094118 
L 433.730076 88.517647 
L 434.474555 90.635294 
L 434.820826 91.482353 
L 435.602685 93.6 
L 436.571458 95.717647 
L 437.150833 96.988235 
L 437.741325 97.835294 
L 438.236059 98.258824 
L 438.659776 98.258824 
L 439.489497 100.8 
L 439.78423 101.647059 
L 440.45555 101.647059 
L 440.811286 102.070588 
L 441.702399 102.917647 
L 444.132078 105.882353 
L 444.86386 106.305882 
L 445.117087 106.305882 
L 445.735472 106.729412 
L 447.630975 108.423529 
L 447.834647 108.423529 
L 448.808664 109.270588 
L 450.122014 111.388235 
L 450.755799 111.811765 
L 451.941773 113.505882 
L 452.74512 114.352941 
L 453.758824 117.741176 
L 454.530588 118.588235 
L 458.59102 118.588235 
L 459.325517 118.164706 
L 459.516137 117.741176 
L 461.642292 114.352941 
L 461.988011 114.352941 
L 462.693845 113.929412 
L 462.989547 113.929412 
L 464.502034 113.082353 
L 465.277359 113.082353 
L 466.114061 112.658824 
L 466.632729 112.235294 
L 467.626395 112.235294 
L 467.978332 111.811765 
L 469.713081 111.388235 
L 471.067647 110.541176 
L 471.650561 110.541176 
L 472.151739 110.117647 
L 480.811971 110.117647 
L 482.033208 109.694118 
L 482.905437 109.270588 
L 484.004678 108.423529 
L 484.387742 108.423529 
L 485.301537 108 
L 486.245518 107.152941 
L 486.963919 107.152941 
L 488.317142 106.305882 
L 488.641897 105.882353 
L 489.141216 105.882353 
L 490.242141 105.035294 
L 490.531829 105.035294 
L 490.987933 104.611765 
L 491.429911 104.611765 
L 491.680398 104.188235 
L 491.859632 104.188235 
L 494.137824 102.917647 
L 494.568989 102.494118 
L 494.744293 102.494118 
L 495.891413 101.647059 
L 496.514038 101.647059 
L 496.989067 101.223529 
L 497.369418 101.223529 
L 497.678549 100.8 
L 498.178981 100.8 
L 499.109631 99.952941 
L 499.591789 99.952941 
L 499.967856 99.529412 
L 500.53297 99.529412 
L 500.927402 99.105882 
L 501.175319 99.105882 
L 501.599043 98.682353 
L 501.851558 98.682353 
L 502.334271 98.258824 
L 503.034877 98.258824 
L 503.996777 97.411765 
L 504.501382 97.411765 
L 506.153969 94.870588 
L 507.455198 93.176471 
L 507.808668 93.176471 
L 508.237284 92.752941 
L 508.735281 92.752941 
L 509.454054 92.329412 
L 511.557304 91.482353 
L 512.296481 91.482353 
L 512.73529 91.058824 
L 513.410686 91.058824 
L 514.598025 90.211765 
L 515.480989 90.211765 
L 516.109752 89.788235 
L 516.659322 89.788235 
L 517.012762 89.364706 
L 517.803468 89.364706 
L 518.09511 88.941176 
L 525.805376 88.941176 
L 527.106651 90.211765 
L 527.577107 91.058824 
L 528.298133 91.905882 
L 529.253926 93.6 
L 529.47062 93.6 
L 530.823341 95.717647 
L 531.241872 96.564706 
L 532.030306 97.411765 
L 548.852727 97.411765 
L 550.581068 100.8 
L 554.739992 106.729412 
L 555.185414 107.576471 
L 557.080348 111.811765 
L 557.639103 113.505882 
L 558.232018 114.776471 
L 559.237187 116.470588 
L 559.986698 118.164706 
L 560.339822 118.588235 
L 561.669866 121.552941 
L 562.151637 122.4 
L 563.041092 123.670588 
L 563.727088 124.941176 
L 564.149153 125.364706 
L 565.232391 127.058824 
L 565.487657 127.058824 
L 567.055378 128.752941 
L 570.078953 131.717647 
L 571.43661 134.258824 
L 572.187436 133.835294 
L 576.894336 132.988235 
L 580.26966 132.564706 
L 580.893723 132.141176 
L 583.626705 132.141176 
L 584.286227 131.717647 
L 584.811849 131.717647 
L 585.685894 131.294118 
L 586.760638 130.023529 
L 588.69351 126.635294 
L 588.925694 126.635294 
L 589.648253 125.364706 
L 591.091046 123.670588 
L 592.480828 120.705882 
L 592.946817 119.435294 
L 595.452409 111.388235 
L 595.834807 110.541176 
L 596.700637 110.117647 
L 597.514218 111.811765 
L 599.014297 114.352941 
L 601.746197 114.352941 
L 604.184341 115.623529 
L 606.230481 118.588235 
L 606.688689 119.011765 
L 610.58043 120.705882 
L 611.719081 121.552941 
L 612.17605 121.552941 
L 612.523658 121.976471 
L 613.66872 122.4 
L 614.268339 122.823529 
L 617.937751 129.176471 
L 619.80597 131.294118 
L 621.501492 134.258824 
L 623.36965 136.8 
L 624.274336 137.647059 
L 625.056948 138.070588 
L 625.329974 138.494118 
L 625.942681 138.917647 
L 626.541379 139.764706 
L 637.644571 139.764706 
L 638.180497 140.188235 
L 641.222793 140.188235 
L 641.615206 140.611765 
L 644.98868 140.611765 
L 645.7604 141.035294 
L 648.2925 141.035294 
L 648.817805 141.458824 
L 651.829599 141.458824 
L 652.429056 141.882353 
L 655.946595 141.882353 
L 656.19462 142.305882 
L 658.576229 142.305882 
L 661.048855 142.729412 
L 662.83043 142.729412 
L 663.481417 143.152941 
L 666.492266 143.152941 
L 668.052574 143.576471 
L 668.961239 143.576471 
L 670.819974 144 
L 699.031078 144 
L 699.286172 142.729412 
L 699.813525 142.729412 
L 700.882117 143.152941 
L 701.27436 143.152941 
L 701.982813 143.576471 
L 703.812806 144 
L 711.226753 144 
L 711.638149 143.152941 
L 711.918175 143.152941 
L 712.704607 143.576471 
L 712.959694 143.152941 
L 713.815134 141.035294 
L 714.131427 141.458824 
L 714.403252 141.458824 
L 715.898611 142.729412 
L 716.466211 144 
L 720 144 
L 720 144 
" clip-path="url(#p48fa5a3dda)" style="fill: none; stroke: #c18182; stroke-width: 3; stroke-linecap: square"/>
   </g>
  </g>
 </g>
 <defs>
  <clipPath id="p48fa5a3dda">
   <rect x="0" y="0" width="720" height="144"/>
  </clipPath>
 </defs>
</svg>
