<?xml version="1.0" encoding="utf-8" standalone="no"?>
<!DOCTYPE svg PUBLIC "-//W3C//DTD SVG 1.1//EN"
  "http://www.w3.org/Graphics/SVG/1.1/DTD/svg11.dtd">
<!-- Created with matplotlib (http://matplotlib.org/) -->
<svg height="144pt" version="1.1" viewBox="0 0 720 144" width="720pt" xmlns="http://www.w3.org/2000/svg" xmlns:xlink="http://www.w3.org/1999/xlink">
 <defs>
  <style type="text/css">
*{stroke-linecap:butt;stroke-linejoin:round;}
  </style>
 </defs>
 <g id="figure_1">
  <g id="patch_1">
   <path d="M 0 144 
L 720 144 
L 720 0 
L 0 0 
z
" style="fill:none;"/>
  </g>
  <g id="axes_1">
   <g id="PolyCollection_1">
    <path clip-path="url(#p173308de54)" d="M 0 144 
L 0 107.473171 
L 0.123584 107.82439 
L 0.312001 107.82439 
L 0.515418 108.17561 
L 0.973798 108.878049 
L 1.155336 108.878049 
L 1.654598 109.931707 
L 1.860665 109.931707 
L 2.293736 110.634146 
L 2.828 111.687805 
L 2.908688 111.687805 
L 3.454089 112.741463 
L 4.168638 113.795122 
L 4.390281 114.146341 
L 4.465418 114.146341 
L 5.263801 115.55122 
L 5.416217 115.55122 
L 6.685654 117.658537 
L 7.406378 118.712195 
L 8.299951 120.468293 
L 9.144947 122.57561 
L 9.659459 123.980488 
L 9.740826 123.980488 
L 10.383748 125.736585 
L 10.942288 127.141463 
L 11.575307 127.843902 
L 12.124342 128.897561 
L 13.558655 131.004878 
L 13.762071 131.356098 
L 14.571143 132.760976 
L 14.951145 133.112195 
L 15.197692 133.463415 
L 17.763902 135.570732 
L 19.708564 136.97561 
L 20.472912 137.678049 
L 21.80202 139.082927 
L 22.023792 139.434146 
L 22.242598 139.434146 
L 22.959303 140.136585 
L 23.220553 140.487805 
L 23.367426 140.839024 
L 23.965172 141.541463 
L 24.286152 141.892683 
L 24.765204 142.595122 
L 25.146387 142.946341 
L 25.308653 143.297561 
L 25.603247 143.64878 
L 25.932471 144 
L 27.510233 144 
L 29.742789 144 
L 29.947879 144 
L 30.173292 144 
L 30.484311 144 
L 30.866053 144 
L 30.955543 144 
L 32.467499 144 
L 33.723536 144 
L 33.988008 144 
L 34.196009 144 
L 34.323886 144 
L 34.741987 144 
L 35.211872 144 
L 35.522206 144 
L 35.728301 144 
L 36.025938 144 
L 36.324898 144 
L 36.58126 144 
L 36.929374 144 
L 37.369522 144 
L 38.136999 144 
L 38.892546 144 
L 39.473628 144 
L 39.943726 144 
L 40.643572 144 
L 40.921539 144 
L 41.486842 144 
L 41.809892 144 
L 42.091394 144 
L 42.467586 144 
L 42.953588 144 
L 43.248326 144 
L 43.955286 144 
L 44.383349 144 
L 44.907771 144 
L 45.581289 144 
L 45.997814 144 
L 47.100474 143.297561 
L 47.670678 142.946341 
L 48.319985 142.595122 
L 48.578964 142.595122 
L 48.902587 142.243902 
L 49.133008 142.243902 
L 49.586453 141.892683 
L 50.055147 141.541463 
L 50.195899 141.541463 
L 50.451786 141.190244 
L 50.82837 141.190244 
L 51.636118 140.487805 
L 52.470952 140.136585 
L 53.121255 139.785366 
L 53.430144 139.434146 
L 53.88387 139.434146 
L 54.313072 139.082927 
L 55.385415 138.380488 
L 55.582924 138.380488 
L 55.661188 138.380488 
L 55.856334 138.029268 
L 56.261533 138.029268 
L 56.609647 137.678049 
L 57.268094 137.326829 
L 57.564519 136.97561 
L 57.825442 136.97561 
L 58.091277 136.97561 
L 58.869734 136.97561 
L 59.039766 136.97561 
L 59.226516 136.97561 
L 59.747037 136.97561 
L 60.076892 136.97561 
L 61.150786 136.97561 
L 61.540953 136.97561 
L 61.613814 136.97561 
L 62.199756 136.97561 
L 62.658877 136.97561 
L 63.756681 136.97561 
L 64.481604 136.97561 
L 64.940649 136.97561 
L 65.160182 136.97561 
L 65.687038 136.97561 
L 66.108301 136.97561 
L 66.375946 136.97561 
L 67.209019 136.97561 
L 69.126661 136.97561 
L 69.367533 136.97561 
L 69.626809 136.97561 
L 69.801728 136.97561 
L 70.07299 136.97561 
L 70.645885 136.97561 
L 70.845096 136.97561 
L 71.21898 136.97561 
L 71.698194 136.97561 
L 72.248762 136.97561 
L 72.489798 136.97561 
L 72.768027 136.97561 
L 73.069361 136.97561 
L 73.382314 136.97561 
L 73.603596 136.97561 
L 73.876593 136.97561 
L 74.516364 136.97561 
L 74.729845 136.97561 
L 74.913347 136.97561 
L 75.557722 136.97561 
L 76.044497 136.97561 
L 76.749069 136.97561 
L 77.207324 136.97561 
L 77.656666 136.97561 
L 77.970808 136.97561 
L 78.256278 136.97561 
L 79.288273 136.97561 
L 79.782497 136.97561 
L 79.992749 136.97561 
L 80.250648 136.97561 
L 80.627258 136.97561 
L 81.058566 136.97561 
L 82.14885 136.97561 
L 82.576089 136.97561 
L 83.142785 136.97561 
L 83.553153 136.97561 
L 84.250842 136.97561 
L 84.667497 136.97561 
L 85.529805 136.97561 
L 86.137366 136.97561 
L 87.586202 136.97561 
L 88.196424 136.97561 
L 88.534964 136.97561 
L 89.081748 136.97561 
L 90.149334 136.97561 
L 90.867065 136.97561 
L 92.595663 136.62439 
L 93.360919 136.62439 
L 93.785684 136.273171 
L 95.81901 135.921951 
L 96.404919 135.570732 
L 96.826876 135.570732 
L 97.373776 135.570732 
L 98.208754 135.219512 
L 100.570092 134.517073 
L 102.130248 134.165854 
L 103.827937 133.814634 
L 105.056042 133.112195 
L 106.607046 132.409756 
L 108.011398 131.356098 
L 109.501983 130.302439 
L 110.836189 129.6 
L 113.523267 128.546341 
L 113.949814 128.195122 
L 114.797825 127.843902 
L 116.082302 127.492683 
L 116.523388 127.141463 
L 117.000749 126.790244 
L 117.175451 126.790244 
L 117.792215 126.439024 
L 118.574656 126.087805 
L 119.002018 126.087805 
L 119.221134 126.087805 
L 119.993037 125.736585 
L 121.060793 125.034146 
L 121.488312 125.034146 
L 122.504492 124.331707 
L 122.743942 124.331707 
L 122.917526 124.331707 
L 123.419454 123.980488 
L 123.767568 123.980488 
L 124.010847 123.980488 
L 124.625281 123.629268 
L 125.768621 122.926829 
L 125.794965 122.926829 
L 127.033878 122.57561 
L 127.810531 122.57561 
L 128.308421 122.22439 
L 129.03996 122.22439 
L 129.389798 121.873171 
L 130.027381 121.873171 
L 130.86133 121.521951 
L 131.255888 121.521951 
L 132.087654 121.170732 
L 132.512218 121.170732 
L 132.905788 121.170732 
L 133.470603 120.819512 
L 135.141271 120.468293 
L 135.561108 120.468293 
L 136.511163 120.117073 
L 137.57317 119.765854 
L 137.923829 119.765854 
L 138.35934 119.414634 
L 138.942966 119.414634 
L 139.617744 118.712195 
L 140.24482 118.360976 
L 140.775473 117.658537 
L 140.820803 117.658537 
L 141.086528 117.658537 
L 141.426602 117.307317 
L 141.853635 116.956098 
L 142.299647 116.604878 
L 142.94619 115.902439 
L 143.515719 115.2 
L 144.087824 114.497561 
L 144.322253 114.146341 
L 144.670824 113.443902 
L 145.000048 113.092683 
L 145.515724 112.390244 
L 145.923969 112.039024 
L 146.186185 111.687805 
L 146.734697 111.336585 
L 147.184671 110.985366 
L 147.393529 110.634146 
L 147.741382 110.282927 
L 148.196877 109.931707 
L 148.912074 109.229268 
L 149.770316 108.526829 
L 150.140604 108.17561 
L 150.412233 107.82439 
L 150.595735 107.82439 
L 150.942907 107.473171 
L 151.059485 107.473171 
L 151.262528 107.121951 
L 151.379105 107.121951 
L 152.1794 106.419512 
L 153.109191 105.365854 
L 154.247006 105.365854 
L 155.474941 105.365854 
L 157.05838 105.365854 
L 158.584324 105.365854 
L 159.389273 105.365854 
L 160.105231 105.365854 
L 160.42945 105.365854 
L 160.834922 105.365854 
L 161.168393 105.717073 
L 161.60916 105.717073 
L 161.948192 106.068293 
L 162.411896 106.068293 
L 162.708385 106.419512 
L 163.032605 106.419512 
L 163.534544 106.770732 
L 163.969701 106.770732 
L 164.470035 107.121951 
L 164.969305 107.473171 
L 165.39387 107.473171 
L 166.005721 107.82439 
L 166.370026 107.82439 
L 167.19338 108.17561 
L 167.540151 108.526829 
L 168.479427 108.878049 
L 169.322728 109.229268 
L 169.571305 109.580488 
L 169.972624 109.580488 
L 170.523371 109.931707 
L 170.897655 109.931707 
L 171.524866 110.282927 
L 172.269697 110.634146 
L 173.611082 111.336585 
L 174.075053 111.336585 
L 174.60931 111.687805 
L 175.161039 112.039024 
L 175.622654 112.039024 
L 175.887759 112.390244 
L 175.979108 112.390244 
L 176.503235 112.741463 
L 177.298174 113.443902 
L 178.72798 115.2 
L 180.728092 116.604878 
L 181.228585 116.956098 
L 181.702824 117.307317 
L 182.882829 118.360976 
L 184.177849 119.063415 
L 185.300583 119.414634 
L 186.303043 119.414634 
L 186.636846 119.414634 
L 186.958385 119.414634 
L 187.377328 119.414634 
L 187.764464 119.414634 
L 188.170732 119.414634 
L 188.78896 119.414634 
L 189.063015 119.414634 
L 189.266238 119.414634 
L 189.440487 119.414634 
L 189.578772 119.414634 
L 189.868302 119.414634 
L 190.003513 119.414634 
L 190.159305 119.414634 
L 190.567822 119.414634 
L 191.118832 119.414634 
L 192.013958 119.414634 
L 192.542559 119.414634 
L 193.552354 119.414634 
L 193.743952 119.414634 
L 193.884716 119.414634 
L 194.630567 119.414634 
L 195.147613 119.414634 
L 195.518433 119.414634 
L 196.017408 119.414634 
L 196.204161 119.414634 
L 196.457758 119.414634 
L 196.606178 119.414634 
L 197.11514 119.414634 
L 197.624102 119.414634 
L 197.82752 119.414634 
L 198.542928 119.063415 
L 199.220265 118.712195 
L 199.808831 118.009756 
L 200.343295 117.658537 
L 200.589017 117.307317 
L 200.739811 117.307317 
L 201.325702 116.604878 
L 201.945941 116.253659 
L 203.950249 113.443902 
L 206.043714 111.336585 
L 206.33413 110.985366 
L 206.914475 110.634146 
L 207.78233 109.931707 
L 208.660642 109.229268 
L 208.760252 109.229268 
L 209.660075 108.878049 
L 210.343611 108.878049 
L 210.69345 108.878049 
L 211.004213 108.878049 
L 211.589275 108.17561 
L 212.107238 107.473171 
L 213.376498 106.068293 
L 213.770285 105.717073 
L 214.375729 105.014634 
L 214.615515 104.663415 
L 214.823889 104.663415 
L 215.232737 104.312195 
L 215.366695 104.312195 
L 215.496226 103.960976 
L 215.712248 103.960976 
L 215.960829 103.609756 
L 216.163879 103.609756 
L 216.252931 103.258537 
L 216.346503 103.258537 
L 216.48727 103.258537 
L 216.609979 102.907317 
L 216.650566 102.907317 
L 216.839203 102.907317 
L 217.064626 102.556098 
L 217.342057 102.204878 
L 217.360427 102.204878 
L 217.583658 102.204878 
L 217.878827 101.853659 
L 218.085786 101.502439 
L 218.490918 101.15122 
L 218.582692 101.15122 
L 218.694519 100.8 
L 218.763029 100.8 
L 219.133458 100.44878 
L 219.226252 100.097561 
L 219.433013 99.746341 
L 219.786937 99.395122 
L 220.157262 99.043902 
L 220.412174 98.692683 
L 220.478634 98.692683 
L 220.665388 98.341463 
L 221.013986 97.990244 
L 221.345908 97.639024 
L 221.468047 97.287805 
L 221.606707 97.287805 
L 221.71897 96.936585 
L 221.916594 96.936585 
L 222.124033 96.585366 
L 222.475251 96.234146 
L 222.58355 95.882927 
L 222.914338 95.531707 
L 223.164459 95.180488 
L 223.51847 94.829268 
L 223.844871 94.829268 
L 224.077399 94.829268 
L 224.364205 94.478049 
L 224.463816 94.478049 
L 224.581365 94.478049 
L 224.826515 94.478049 
L 225.980607 94.126829 
L 226.636541 93.77561 
L 227.340079 93.77561 
L 228.034041 93.42439 
L 229.632779 93.073171 
L 230.414282 92.721951 
L 231.076137 92.721951 
L 231.713199 92.370732 
L 232.895549 92.019512 
L 233.272263 92.019512 
L 234.861123 91.317073 
L 236.183177 90.965854 
L 236.505428 90.965854 
L 236.930148 90.614634 
L 238.094302 90.263415 
L 238.175903 90.263415 
L 239.213105 89.912195 
L 239.82073 89.560976 
L 243.556798 88.156098 
L 243.934802 87.804878 
L 244.428147 87.804878 
L 245.04518 87.453659 
L 245.558343 87.102439 
L 245.846316 87.102439 
L 246.105379 87.102439 
L 246.438154 86.75122 
L 246.675057 86.75122 
L 247.759212 86.4 
L 248.548982 86.04878 
L 249.669754 85.346341 
L 249.989891 85.346341 
L 250.516389 84.995122 
L 250.828701 84.995122 
L 251.200071 84.643902 
L 251.365327 84.643902 
L 251.795981 84.643902 
L 252.496338 84.292683 
L 253.008611 84.292683 
L 253.259941 84.292683 
L 253.614518 84.292683 
L 254.184593 84.292683 
L 254.730895 84.292683 
L 255.479471 84.292683 
L 255.906465 84.292683 
L 256.227491 84.292683 
L 256.574291 84.292683 
L 256.992071 84.292683 
L 257.369084 84.292683 
L 257.817526 84.292683 
L 258.871426 84.292683 
L 259.857892 84.292683 
L 260.416005 84.292683 
L 261.007015 84.292683 
L 261.617073 84.292683 
L 262.175214 84.292683 
L 262.506147 84.292683 
L 262.926102 84.292683 
L 263.327799 84.292683 
L 263.799611 84.292683 
L 264.055973 84.292683 
L 264.302652 84.292683 
L 264.60193 84.292683 
L 264.925692 84.292683 
L 265.38105 84.292683 
L 265.782786 84.292683 
L 266.157893 84.292683 
L 266.53889 84.292683 
L 266.799542 84.292683 
L 267.022256 84.292683 
L 267.280372 84.292683 
L 267.627781 84.292683 
L 267.877487 84.292683 
L 268.138858 84.292683 
L 268.388564 84.292683 
L 268.645776 84.292683 
L 268.921915 84.643902 
L 269.144424 84.643902 
L 269.398369 84.995122 
L 269.623163 84.995122 
L 269.909178 85.346341 
L 270.132428 85.697561 
L 270.410554 85.697561 
L 270.706178 86.04878 
L 270.991232 86.04878 
L 271.382378 86.4 
L 271.75698 86.75122 
L 272.071587 87.102439 
L 272.568539 87.453659 
L 273.063472 87.804878 
L 273.493889 87.804878 
L 273.918139 88.156098 
L 274.381367 88.507317 
L 274.969294 88.507317 
L 275.635161 88.858537 
L 276.161045 89.209756 
L 276.572627 89.209756 
L 276.856179 89.560976 
L 277.396937 89.912195 
L 277.752764 89.912195 
L 278.109645 89.912195 
L 278.409893 90.263415 
L 278.673978 90.263415 
L 278.993237 90.614634 
L 279.341507 90.614634 
L 279.681789 90.614634 
L 280.084504 90.965854 
L 280.329672 90.965854 
L 280.829891 91.317073 
L 281.216325 91.668293 
L 281.52084 92.019512 
L 281.815412 92.370732 
L 281.963226 92.721951 
L 282.265337 93.073171 
L 282.518958 93.42439 
L 282.758347 93.42439 
L 283.061198 93.77561 
L 283.334053 94.126829 
L 283.635577 94.478049 
L 284.023908 94.829268 
L 284.619659 94.829268 
L 285.064687 94.829268 
L 285.847979 94.829268 
L 286.536934 94.478049 
L 286.922762 94.126829 
L 287.10981 94.126829 
L 287.429865 93.77561 
L 288.552952 93.073171 
L 289.075926 92.721951 
L 290.191868 92.370732 
L 291.914282 91.317073 
L 295.484216 88.156098 
L 298.457552 84.643902 
L 300.589645 80.780488 
L 301.568277 79.37561 
L 303.234558 76.917073 
L 303.677857 76.565854 
L 312.050117 74.809756 
L 320.353895 77.268293 
L 320.507298 77.268293 
L 322.578776 77.268293 
L 323.121881 77.268293 
L 323.729681 77.268293 
L 326.983057 76.565854 
L 328.421067 74.809756 
L 332.83786 71.64878 
L 334.51526 70.595122 
L 335.964938 69.541463 
L 340.423872 66.731707 
L 341.66007 66.731707 
L 342.511782 66.731707 
L 344.027065 66.731707 
L 344.82303 66.731707 
L 347.153014 66.731707 
L 348.055384 66.731707 
L 349.077085 66.731707 
L 349.503839 66.731707 
L 352.922955 66.029268 
L 354.475629 64.62439 
L 355.785899 63.921951 
L 357.172089 62.868293 
L 358.146375 62.165854 
L 359.081045 61.463415 
L 359.655467 61.112195 
L 360.79576 60.058537 
L 361.366474 59.707317 
L 362.201693 58.653659 
L 363.162297 57.24878 
L 364.226956 55.843902 
L 364.961986 55.492683 
L 365.637623 54.790244 
L 366.333223 54.439024 
L 367.037702 53.736585 
L 367.822409 53.034146 
L 369.29442 51.629268 
L 370.110059 50.926829 
L 371.143117 49.521951 
L 372.454444 48.819512 
L 374.299226 47.765854 
L 375.342244 47.063415 
L 375.422948 47.063415 
L 376.419767 46.360976 
L 379.635642 45.658537 
L 379.660131 45.658537 
L 380.686624 45.658537 
L 380.91061 45.658537 
L 381.076483 45.658537 
L 381.865598 46.009756 
L 383.154832 47.063415 
L 383.411195 47.414634 
L 383.98435 47.765854 
L 384.869596 48.468293 
L 385.68396 49.170732 
L 386.464067 49.873171 
L 387.290736 50.926829 
L 387.646469 51.278049 
L 388.249727 51.980488 
L 388.839657 52.682927 
L 389.598928 53.385366 
L 389.992511 53.736585 
L 390.629007 54.439024 
L 390.833187 54.439024 
L 391.307395 55.141463 
L 391.477051 55.141463 
L 392.491226 56.195122 
L 393.225233 56.195122 
L 394.34107 56.195122 
L 394.856735 56.195122 
L 395.171055 56.195122 
L 395.463078 56.195122 
L 396.280098 56.195122 
L 397.159978 56.195122 
L 397.388022 56.195122 
L 397.916634 56.195122 
L 398.385079 56.195122 
L 398.796057 56.195122 
L 399.529329 56.546341 
L 399.879168 56.546341 
L 400.387279 56.897561 
L 400.706674 56.897561 
L 401.570172 57.24878 
L 402.688733 57.6 
L 403.220348 57.6 
L 403.964958 57.95122 
L 404.58443 58.302439 
L 405.212022 58.302439 
L 405.264727 58.302439 
L 405.528141 58.302439 
L 405.987118 58.653659 
L 406.579977 58.653659 
L 406.972822 59.004878 
L 407.625233 59.004878 
L 407.981021 59.356098 
L 408.281284 59.356098 
L 408.760188 59.356098 
L 409.302656 59.707317 
L 410.150171 60.058537 
L 410.517634 60.409756 
L 411.174576 60.760976 
L 411.875672 61.112195 
L 411.95134 61.112195 
L 412.282388 61.463415 
L 413.073787 62.165854 
L 413.920031 62.517073 
L 414.217043 62.868293 
L 414.516655 62.868293 
L 415.083352 63.219512 
L 415.549052 63.570732 
L 416.280645 63.921951 
L 416.999742 64.62439 
L 417.553322 64.62439 
L 418.149068 64.97561 
L 418.896813 65.678049 
L 419.5253 66.029268 
L 420.096941 66.380488 
L 420.721513 66.731707 
L 421.077265 66.731707 
L 421.593188 66.731707 
L 422.122272 66.731707 
L 422.504898 66.731707 
L 422.999387 66.731707 
L 423.367399 66.731707 
L 423.735043 66.731707 
L 424.048011 66.731707 
L 424.521057 66.731707 
L 425.614519 66.731707 
L 426.022752 66.731707 
L 426.658773 66.731707 
L 427.264366 66.731707 
L 427.545779 66.731707 
L 428.22172 66.731707 
L 429.186562 66.380488 
L 429.668523 66.380488 
L 430.665312 65.678049 
L 431.501041 64.97561 
L 432.429835 64.273171 
L 432.897399 64.273171 
L 434.14626 63.219512 
L 435.056051 62.517073 
L 435.826758 61.814634 
L 437.363371 60.409756 
L 438.136557 59.707317 
L 439.211151 57.95122 
L 439.408623 57.6 
L 439.687502 57.24878 
L 440.414549 56.195122 
L 441.103426 55.492683 
L 441.717791 55.141463 
L 441.985182 54.790244 
L 442.32471 54.439024 
L 442.840391 54.087805 
L 444.098316 53.034146 
L 444.43563 52.682927 
L 444.841671 52.331707 
L 445.227574 51.980488 
L 445.687234 51.278049 
L 446.698195 49.873171 
L 447.158175 49.170732 
L 447.487308 48.819512 
L 448.834121 47.063415 
L 449.108376 46.712195 
L 449.855297 45.658537 
L 450.554135 44.604878 
L 451.580632 43.2 
L 451.943619 42.84878 
L 452.781507 41.795122 
L 453.457211 41.092683 
L 453.69512 40.741463 
L 454.210461 40.039024 
L 454.693381 39.687805 
L 455.053716 39.336585 
L 455.572362 38.634146 
L 456.347148 37.931707 
L 456.748862 37.580488 
L 457.096059 37.229268 
L 457.224215 37.229268 
L 457.28379 37.229268 
L 457.60485 36.878049 
L 457.792383 36.526829 
L 458.675926 35.82439 
L 459.272607 35.121951 
L 460.065924 34.770732 
L 460.948079 34.068293 
L 461.49981 33.717073 
L 462.56189 33.365854 
L 462.864605 33.014634 
L 463.817013 32.663415 
L 464.577805 31.960976 
L 464.832433 31.960976 
L 465.195623 31.609756 
L 465.754846 31.258537 
L 466.511505 30.556098 
L 466.994772 30.204878 
L 467.666959 29.853659 
L 468.037317 29.502439 
L 468.22892 29.15122 
L 468.426596 29.15122 
L 468.727824 28.8 
L 469.014649 28.44878 
L 469.29405 28.44878 
L 469.534771 28.097561 
L 469.871593 27.746341 
L 470.111401 27.746341 
L 470.357068 27.395122 
L 470.670245 27.043902 
L 470.916662 27.043902 
L 471.250469 26.692683 
L 471.584276 26.341463 
L 471.781201 25.990244 
L 472.011631 25.990244 
L 472.10555 25.639024 
L 472.250512 25.639024 
L 472.51192 25.287805 
L 472.825755 25.287805 
L 473.202589 24.936585 
L 473.502199 24.585366 
L 473.693716 24.585366 
L 474.106268 24.585366 
L 474.459973 24.585366 
L 474.71723 24.585366 
L 474.994026 24.585366 
L 475.292162 24.585366 
L 475.707903 24.585366 
L 475.932723 24.585366 
L 476.172795 24.585366 
L 476.468809 24.585366 
L 476.875853 24.585366 
L 477.21111 24.585366 
L 477.266237 24.585366 
L 477.511747 24.585366 
L 477.713876 24.585366 
L 477.912559 24.585366 
L 478.110047 24.585366 
L 478.340476 24.585366 
L 478.545864 24.585366 
L 478.904641 24.585366 
L 480.112985 24.585366 
L 480.761674 24.585366 
L 481.631045 24.585366 
L 482.326201 24.585366 
L 482.523875 24.585366 
L 482.707903 24.585366 
L 482.941725 24.585366 
L 483.213466 24.585366 
L 483.749008 24.234146 
L 484.011148 23.882927 
L 484.231272 23.882927 
L 484.713223 23.531707 
L 485.083702 23.180488 
L 485.440641 22.829268 
L 485.689043 22.829268 
L 485.854463 22.478049 
L 486.183801 22.478049 
L 486.505347 22.126829 
L 486.669959 22.126829 
L 486.839627 21.77561 
L 487.06298 21.77561 
L 487.449013 21.42439 
L 487.754264 21.073171 
L 487.995713 21.073171 
L 488.227949 20.721951 
L 488.491378 20.370732 
L 488.765626 20.019512 
L 489.005258 19.668293 
L 489.319401 19.317073 
L 489.785126 18.614634 
L 490.130873 18.263415 
L 490.526988 17.912195 
L 491.04602 17.209756 
L 491.464505 17.209756 
L 491.933114 16.858537 
L 492.37825 16.507317 
L 492.895362 16.156098 
L 493.77673 15.804878 
L 494.189903 15.453659 
L 494.597765 15.453659 
L 494.874054 15.102439 
L 496.721003 14.04878 
L 496.94307 14.04878 
L 497.233524 14.04878 
L 497.519089 13.697561 
L 497.727559 13.697561 
L 497.98552 13.346341 
L 498.268929 13.346341 
L 498.627959 12.995122 
L 498.969255 12.995122 
L 499.338725 12.643902 
L 499.874474 12.643902 
L 500.213816 12.292683 
L 500.524911 12.292683 
L 500.863367 11.941463 
L 501.177715 11.941463 
L 501.589645 11.590244 
L 502.331606 11.239024 
L 502.929973 10.887805 
L 503.427036 10.887805 
L 503.910764 10.536585 
L 504.260429 10.185366 
L 504.684496 9.834146 
L 505.300687 9.131707 
L 505.688449 8.780488 
L 506.169587 8.078049 
L 506.701621 7.726829 
L 506.994214 7.37561 
L 507.357536 7.02439 
L 507.667528 6.673171 
L 508.137277 6.673171 
L 508.386468 6.321951 
L 508.754485 6.321951 
L 509.178553 5.970732 
L 509.580008 5.970732 
L 510.138493 5.619512 
L 510.716808 5.268293 
L 510.979681 5.268293 
L 511.285742 4.917073 
L 511.487885 4.917073 
L 511.639026 4.917073 
L 511.99098 4.565854 
L 512.277806 4.565854 
L 512.695631 4.214634 
L 513.125786 4.214634 
L 513.529913 3.863415 
L 513.973429 3.863415 
L 514.356263 3.512195 
L 514.671688 3.160976 
L 515.020806 2.809756 
L 515.290882 2.809756 
L 515.601847 2.458537 
L 516.033747 1.756098 
L 516.434602 1.404878 
L 516.978897 1.053659 
L 517.521193 0.35122 
L 518.033325 0 
L 518.338757 0 
L 518.665231 0 
L 519.084275 0 
L 519.569222 0 
L 519.905686 0 
L 520.452644 0 
L 520.97107 0 
L 521.384355 0 
L 521.607646 0 
L 521.828353 0 
L 521.947206 0 
L 522.126908 0 
L 522.318443 0 
L 522.509977 0 
L 522.758531 0 
L 522.967446 0 
L 523.497657 0.35122 
L 524.227449 0.702439 
L 524.775722 1.053659 
L 525.25964 1.404878 
L 526.460462 2.458537 
L 527.355287 2.809756 
L 527.813033 3.160976 
L 528.099862 3.512195 
L 528.410196 3.512195 
L 528.685449 3.863415 
L 529.006493 3.863415 
L 529.646397 4.214634 
L 530.415268 4.565854 
L 531.07847 4.917073 
L 531.351852 4.917073 
L 531.596674 4.917073 
L 531.88686 5.268293 
L 532.173691 5.268293 
L 532.563397 5.619512 
L 532.909156 5.619512 
L 533.379091 5.970732 
L 534.202493 6.321951 
L 534.954515 6.673171 
L 535.882176 7.02439 
L 536.591944 7.02439 
L 537.149466 7.02439 
L 537.70987 7.02439 
L 537.914189 7.02439 
L 538.117238 7.02439 
L 538.510072 7.02439 
L 539.27916 7.02439 
L 539.773266 7.02439 
L 540.304503 7.02439 
L 540.92018 7.02439 
L 541.864701 7.02439 
L 542.300346 7.02439 
L 542.545759 7.02439 
L 542.76704 7.02439 
L 543.007212 7.02439 
L 543.370429 7.02439 
L 544.219853 7.02439 
L 544.83047 7.02439 
L 545.135566 7.02439 
L 545.552693 7.02439 
L 545.811999 7.02439 
L 546.115835 7.02439 
L 546.298585 7.02439 
L 546.725584 7.02439 
L 547.445663 7.02439 
L 548.00749 7.02439 
L 548.49245 7.02439 
L 548.934736 7.02439 
L 549.240201 7.02439 
L 549.746873 7.02439 
L 550.243551 7.02439 
L 550.686864 7.02439 
L 550.984392 7.02439 
L 551.278919 7.02439 
L 551.605743 7.02439 
L 551.936793 7.02439 
L 552.421754 7.02439 
L 553.148845 7.02439 
L 553.433873 7.02439 
L 553.69657 7.02439 
L 553.915937 7.02439 
L 554.397888 7.02439 
L 555.087398 7.02439 
L 555.503336 7.02439 
L 555.994984 7.02439 
L 556.491949 7.02439 
L 556.896122 7.02439 
L 557.088766 7.02439 
L 557.329163 7.02439 
L 557.65566 7.02439 
L 557.955955 7.02439 
L 558.389053 7.02439 
L 558.772268 7.02439 
L 558.969278 7.02439 
L 559.448931 7.02439 
L 559.865407 7.02439 
L 560.540873 7.02439 
L 560.948668 7.02439 
L 561.664195 7.02439 
L 562.324755 7.02439 
L 562.893521 7.02439 
L 563.396748 7.02439 
L 564.009224 7.02439 
L 564.463622 7.02439 
L 564.957019 7.02439 
L 565.486144 7.02439 
L 566.164577 7.02439 
L 566.787043 7.02439 
L 567.25347 7.02439 
L 567.541137 7.02439 
L 567.937682 7.02439 
L 568.250831 7.02439 
L 568.658631 7.02439 
L 568.935498 7.02439 
L 569.476031 7.37561 
L 570.002688 8.078049 
L 570.377683 8.429268 
L 570.92686 8.780488 
L 571.838387 9.482927 
L 572.564766 10.185366 
L 572.992113 10.536585 
L 573.634632 11.239024 
L 574.095025 11.590244 
L 574.514084 11.941463 
L 574.784177 12.292683 
L 575.400511 12.995122 
L 575.566146 12.995122 
L 575.775426 13.346341 
L 576.114354 13.697561 
L 576.79359 14.4 
L 577.510697 15.102439 
L 577.770433 15.453659 
L 578.120695 15.804878 
L 578.493006 16.156098 
L 578.846206 16.507317 
L 579.010691 16.858537 
L 579.163862 16.858537 
L 579.452358 17.209756 
L 579.699136 17.560976 
L 579.884798 17.912195 
L 580.081231 17.912195 
L 580.334875 18.263415 
L 580.509943 18.614634 
L 580.659139 18.614634 
L 580.846277 18.965854 
L 581.110648 18.965854 
L 581.527082 19.668293 
L 581.994313 20.019512 
L 582.347777 20.370732 
L 582.578145 20.721951 
L 582.887053 21.073171 
L 583.107997 21.42439 
L 583.471248 22.126829 
L 583.709665 22.478049 
L 584.04117 23.180488 
L 584.226304 23.531707 
L 584.467833 24.234146 
L 584.634348 24.585366 
L 584.833375 24.936585 
L 585.190399 25.287805 
L 585.332155 25.639024 
L 585.834305 26.341463 
L 586.286109 26.692683 
L 586.670042 27.395122 
L 586.914998 27.746341 
L 587.205176 28.097561 
L 587.467849 28.8 
L 587.669374 29.15122 
L 587.916444 29.502439 
L 588.123291 29.853659 
L 588.495892 30.556098 
L 588.784392 30.907317 
L 589.240121 31.609756 
L 589.56022 32.312195 
L 590.347557 33.365854 
L 590.76208 34.068293 
L 591.100916 34.419512 
L 591.68128 35.121951 
L 592.097986 35.82439 
L 592.325402 35.82439 
L 592.451225 36.17561 
L 592.647067 36.17561 
L 593.538396 36.878049 
L 594.054503 37.229268 
L 595.541082 38.634146 
L 596.005692 38.985366 
L 596.062708 38.985366 
L 596.252629 38.634146 
L 597.206735 38.634146 
L 597.485818 38.634146 
L 597.739729 38.634146 
L 598.754223 38.634146 
L 604.198764 40.741463 
L 604.994935 41.795122 
L 605.880344 43.2 
L 606.660782 44.253659 
L 607.15922 45.307317 
L 607.668847 45.658537 
L 608.057518 46.009756 
L 608.861617 46.360976 
L 609.513276 47.063415 
L 610.013644 47.414634 
L 610.59582 47.765854 
L 612.280161 48.819512 
L 612.816838 49.170732 
L 613.160549 49.170732 
L 613.753932 49.170732 
L 614.671764 49.170732 
L 616.362801 49.170732 
L 617.177412 49.170732 
L 617.800045 49.170732 
L 623.305214 49.170732 
L 624.042143 49.170732 
L 624.789918 49.170732 
L 626.72098 49.170732 
L 627.283488 49.170732 
L 627.349952 49.170732 
L 627.519078 49.170732 
L 628.201347 49.170732 
L 628.753218 49.170732 
L 629.155822 49.170732 
L 629.579893 49.170732 
L 629.928492 49.170732 
L 630.377644 49.521951 
L 630.812319 49.521951 
L 631.402763 49.873171 
L 632.01093 49.873171 
L 632.57869 49.873171 
L 633.099627 50.22439 
L 633.586037 50.22439 
L 633.934534 50.57561 
L 634.22913 50.57561 
L 634.499236 50.57561 
L 634.780013 50.57561 
L 635.060737 50.57561 
L 635.463341 50.926829 
L 635.816075 50.926829 
L 636.152973 50.926829 
L 636.344586 51.278049 
L 636.70155 51.278049 
L 636.971656 51.278049 
L 637.340126 51.278049 
L 637.743554 51.629268 
L 638.06367 51.629268 
L 638.457522 51.629268 
L 638.769165 51.980488 
L 639.043769 51.980488 
L 639.206088 51.980488 
L 639.315998 51.980488 
L 639.391586 51.980488 
L 639.541141 51.980488 
L 639.867599 51.980488 
L 640.261285 52.331707 
L 640.564282 52.331707 
L 640.863935 52.331707 
L 641.06716 52.331707 
L 641.264935 52.682927 
L 641.416152 52.682927 
L 641.875556 52.682927 
L 642.301874 52.682927 
L 642.559976 52.682927 
L 642.779384 52.682927 
L 643.042392 52.682927 
L 643.475699 52.682927 
L 643.91524 52.682927 
L 644.425579 52.682927 
L 644.81526 52.682927 
L 645.224405 52.682927 
L 645.495756 52.682927 
L 645.730619 52.682927 
L 645.862827 52.682927 
L 646.130352 52.682927 
L 646.952893 52.682927 
L 647.972033 52.682927 
L 648.646484 52.682927 
L 649.195612 52.682927 
L 649.474951 52.682927 
L 650.035409 52.682927 
L 650.632583 52.682927 
L 651.259452 52.682927 
L 651.861689 52.682927 
L 652.307328 52.682927 
L 654.024191 52.682927 
L 654.505952 52.682927 
L 655.155974 52.682927 
L 655.598351 52.331707 
L 656.412518 51.629268 
L 657.29531 50.926829 
L 658.254582 49.873171 
L 658.984322 49.170732 
L 659.855002 47.414634 
L 660.702563 45.307317 
L 661.549286 43.902439 
L 663.244842 40.741463 
L 664.507333 38.634146 
L 666.427089 35.473171 
L 667.455519 34.419512 
L 671.142222 32.312195 
L 671.842011 31.960976 
L 672.321827 31.609756 
L 672.655174 31.258537 
L 673.291424 30.556098 
L 673.650674 30.204878 
L 674.830029 29.15122 
L 675.810951 28.097561 
L 676.345192 27.395122 
L 677.486355 26.341463 
L 678.942364 24.936585 
L 679.874617 23.180488 
L 680.956774 21.42439 
L 681.359867 20.721951 
L 682.437599 19.668293 
L 682.899366 19.317073 
L 685.048032 17.560976 
L 687.80671 17.560976 
L 688.349352 17.560976 
L 689.664484 17.560976 
L 690.898801 17.560976 
L 693.288195 17.560976 
L 695.59323 17.912195 
L 696.35104 18.263415 
L 696.884987 18.263415 
L 697.170422 18.263415 
L 697.79845 18.263415 
L 700.737255 18.965854 
L 702.101338 18.965854 
L 704.647484 19.668293 
L 705.037429 19.668293 
L 705.18585 19.668293 
L 705.307074 19.668293 
L 705.461896 19.317073 
L 705.642736 19.317073 
L 705.789857 19.317073 
L 705.919603 19.317073 
L 706.038617 19.317073 
L 706.380754 19.317073 
L 706.631654 18.965854 
L 706.775158 18.965854 
L 709.466951 17.912195 
L 710.995065 17.209756 
L 712.331177 16.156098 
L 713.248346 16.507317 
L 714.286065 16.507317 
L 714.533186 16.507317 
L 714.931778 16.507317 
L 715.02271 16.507317 
L 715.106746 16.507317 
L 715.172059 16.507317 
L 715.252944 16.507317 
L 715.320059 16.507317 
L 715.391579 16.507317 
L 715.446751 16.507317 
L 715.522075 16.507317 
L 715.598025 16.507317 
L 715.96956 16.156098 
L 716.074426 16.156098 
L 716.157124 15.804878 
L 716.222505 15.804878 
L 717.628298 14.04878 
L 717.731837 14.04878 
L 718.51171 14.04878 
L 718.718789 14.04878 
L 719.289668 14.04878 
L 719.394669 14.04878 
L 719.543632 14.04878 
L 719.723933 14.04878 
L 719.833431 14.04878 
L 720 14.04878 
L 720 144 
L 720 144 
L 719.833431 144 
L 719.723933 144 
L 719.543632 144 
L 719.394669 144 
L 719.289668 144 
L 718.718789 144 
L 718.51171 144 
L 717.731837 144 
L 717.628298 144 
L 716.222505 144 
L 716.157124 144 
L 716.074426 144 
L 715.96956 144 
L 715.598025 144 
L 715.522075 144 
L 715.446751 144 
L 715.391579 144 
L 715.320059 144 
L 715.252944 144 
L 715.172059 144 
L 715.106746 144 
L 715.02271 144 
L 714.931778 144 
L 714.533186 144 
L 714.286065 144 
L 713.248346 144 
L 712.331177 144 
L 710.995065 144 
L 709.466951 144 
L 706.775158 144 
L 706.631654 144 
L 706.380754 144 
L 706.038617 144 
L 705.919603 144 
L 705.789857 144 
L 705.642736 144 
L 705.461896 144 
L 705.307074 144 
L 705.18585 144 
L 705.037429 144 
L 704.647484 144 
L 702.101338 144 
L 700.737255 144 
L 697.79845 144 
L 697.170422 144 
L 696.884987 144 
L 696.35104 144 
L 695.59323 144 
L 693.288195 144 
L 690.898801 144 
L 689.664484 144 
L 688.349352 144 
L 687.80671 144 
L 685.048032 144 
L 682.899366 144 
L 682.437599 144 
L 681.359867 144 
L 680.956774 144 
L 679.874617 144 
L 678.942364 144 
L 677.486355 144 
L 676.345192 144 
L 675.810951 144 
L 674.830029 144 
L 673.650674 144 
L 673.291424 144 
L 672.655174 144 
L 672.321827 144 
L 671.842011 144 
L 671.142222 144 
L 667.455519 144 
L 666.427089 144 
L 664.507333 144 
L 663.244842 144 
L 661.549286 144 
L 660.702563 144 
L 659.855002 144 
L 658.984322 144 
L 658.254582 144 
L 657.29531 144 
L 656.412518 144 
L 655.598351 144 
L 655.155974 144 
L 654.505952 144 
L 654.024191 144 
L 652.307328 144 
L 651.861689 144 
L 651.259452 144 
L 650.632583 144 
L 650.035409 144 
L 649.474951 144 
L 649.195612 144 
L 648.646484 144 
L 647.972033 144 
L 646.952893 144 
L 646.130352 144 
L 645.862827 144 
L 645.730619 144 
L 645.495756 144 
L 645.224405 144 
L 644.81526 144 
L 644.425579 144 
L 643.91524 144 
L 643.475699 144 
L 643.042392 144 
L 642.779384 144 
L 642.559976 144 
L 642.301874 144 
L 641.875556 144 
L 641.416152 144 
L 641.264935 144 
L 641.06716 144 
L 640.863935 144 
L 640.564282 144 
L 640.261285 144 
L 639.867599 144 
L 639.541141 144 
L 639.391586 144 
L 639.315998 144 
L 639.206088 144 
L 639.043769 144 
L 638.769165 144 
L 638.457522 144 
L 638.06367 144 
L 637.743554 144 
L 637.340126 144 
L 636.971656 144 
L 636.70155 144 
L 636.344586 144 
L 636.152973 144 
L 635.816075 144 
L 635.463341 144 
L 635.060737 144 
L 634.780013 144 
L 634.499236 144 
L 634.22913 144 
L 633.934534 144 
L 633.586037 144 
L 633.099627 144 
L 632.57869 144 
L 632.01093 144 
L 631.402763 144 
L 630.812319 144 
L 630.377644 144 
L 629.928492 144 
L 629.579893 144 
L 629.155822 144 
L 628.753218 144 
L 628.201347 144 
L 627.519078 144 
L 627.349952 144 
L 627.283488 144 
L 626.72098 144 
L 624.789918 144 
L 624.042143 144 
L 623.305214 144 
L 617.800045 144 
L 617.177412 144 
L 616.362801 144 
L 614.671764 144 
L 613.753932 144 
L 613.160549 144 
L 612.816838 144 
L 612.280161 144 
L 610.59582 144 
L 610.013644 144 
L 609.513276 144 
L 608.861617 144 
L 608.057518 144 
L 607.668847 144 
L 607.15922 144 
L 606.660782 144 
L 605.880344 144 
L 604.994935 144 
L 604.198764 144 
L 598.754223 144 
L 597.739729 144 
L 597.485818 144 
L 597.206735 144 
L 596.252629 144 
L 596.062708 144 
L 596.005692 144 
L 595.541082 144 
L 594.054503 144 
L 593.538396 144 
L 592.647067 144 
L 592.451225 144 
L 592.325402 144 
L 592.097986 144 
L 591.68128 144 
L 591.100916 144 
L 590.76208 144 
L 590.347557 144 
L 589.56022 144 
L 589.240121 144 
L 588.784392 144 
L 588.495892 144 
L 588.123291 144 
L 587.916444 144 
L 587.669374 144 
L 587.467849 144 
L 587.205176 144 
L 586.914998 144 
L 586.670042 144 
L 586.286109 144 
L 585.834305 144 
L 585.332155 144 
L 585.190399 144 
L 584.833375 144 
L 584.634348 144 
L 584.467833 144 
L 584.226304 144 
L 584.04117 144 
L 583.709665 144 
L 583.471248 144 
L 583.107997 144 
L 582.887053 144 
L 582.578145 144 
L 582.347777 144 
L 581.994313 144 
L 581.527082 144 
L 581.110648 144 
L 580.846277 144 
L 580.659139 144 
L 580.509943 144 
L 580.334875 144 
L 580.081231 144 
L 579.884798 144 
L 579.699136 144 
L 579.452358 144 
L 579.163862 144 
L 579.010691 144 
L 578.846206 144 
L 578.493006 144 
L 578.120695 144 
L 577.770433 144 
L 577.510697 144 
L 576.79359 144 
L 576.114354 144 
L 575.775426 144 
L 575.566146 144 
L 575.400511 144 
L 574.784177 144 
L 574.514084 144 
L 574.095025 144 
L 573.634632 144 
L 572.992113 144 
L 572.564766 144 
L 571.838387 144 
L 570.92686 144 
L 570.377683 144 
L 570.002688 144 
L 569.476031 144 
L 568.935498 144 
L 568.658631 144 
L 568.250831 144 
L 567.937682 144 
L 567.541137 144 
L 567.25347 144 
L 566.787043 144 
L 566.164577 144 
L 565.486144 144 
L 564.957019 144 
L 564.463622 144 
L 564.009224 144 
L 563.396748 144 
L 562.893521 144 
L 562.324755 144 
L 561.664195 144 
L 560.948668 144 
L 560.540873 144 
L 559.865407 144 
L 559.448931 144 
L 558.969278 144 
L 558.772268 144 
L 558.389053 144 
L 557.955955 144 
L 557.65566 144 
L 557.329163 144 
L 557.088766 144 
L 556.896122 144 
L 556.491949 144 
L 555.994984 144 
L 555.503336 144 
L 555.087398 144 
L 554.397888 144 
L 553.915937 144 
L 553.69657 144 
L 553.433873 144 
L 553.148845 144 
L 552.421754 144 
L 551.936793 144 
L 551.605743 144 
L 551.278919 144 
L 550.984392 144 
L 550.686864 144 
L 550.243551 144 
L 549.746873 144 
L 549.240201 144 
L 548.934736 144 
L 548.49245 144 
L 548.00749 144 
L 547.445663 144 
L 546.725584 144 
L 546.298585 144 
L 546.115835 144 
L 545.811999 144 
L 545.552693 144 
L 545.135566 144 
L 544.83047 144 
L 544.219853 144 
L 543.370429 144 
L 543.007212 144 
L 542.76704 144 
L 542.545759 144 
L 542.300346 144 
L 541.864701 144 
L 540.92018 144 
L 540.304503 144 
L 539.773266 144 
L 539.27916 144 
L 538.510072 144 
L 538.117238 144 
L 537.914189 144 
L 537.70987 144 
L 537.149466 144 
L 536.591944 144 
L 535.882176 144 
L 534.954515 144 
L 534.202493 144 
L 533.379091 144 
L 532.909156 144 
L 532.563397 144 
L 532.173691 144 
L 531.88686 144 
L 531.596674 144 
L 531.351852 144 
L 531.07847 144 
L 530.415268 144 
L 529.646397 144 
L 529.006493 144 
L 528.685449 144 
L 528.410196 144 
L 528.099862 144 
L 527.813033 144 
L 527.355287 144 
L 526.460462 144 
L 525.25964 144 
L 524.775722 144 
L 524.227449 144 
L 523.497657 144 
L 522.967446 144 
L 522.758531 144 
L 522.509977 144 
L 522.318443 144 
L 522.126908 144 
L 521.947206 144 
L 521.828353 144 
L 521.607646 144 
L 521.384355 144 
L 520.97107 144 
L 520.452644 144 
L 519.905686 144 
L 519.569222 144 
L 519.084275 144 
L 518.665231 144 
L 518.338757 144 
L 518.033325 144 
L 517.521193 144 
L 516.978897 144 
L 516.434602 144 
L 516.033747 144 
L 515.601847 144 
L 515.290882 144 
L 515.020806 144 
L 514.671688 144 
L 514.356263 144 
L 513.973429 144 
L 513.529913 144 
L 513.125786 144 
L 512.695631 144 
L 512.277806 144 
L 511.99098 144 
L 511.639026 144 
L 511.487885 144 
L 511.285742 144 
L 510.979681 144 
L 510.716808 144 
L 510.138493 144 
L 509.580008 144 
L 509.178553 144 
L 508.754485 144 
L 508.386468 144 
L 508.137277 144 
L 507.667528 144 
L 507.357536 144 
L 506.994214 144 
L 506.701621 144 
L 506.169587 144 
L 505.688449 144 
L 505.300687 144 
L 504.684496 144 
L 504.260429 144 
L 503.910764 144 
L 503.427036 144 
L 502.929973 144 
L 502.331606 144 
L 501.589645 144 
L 501.177715 144 
L 500.863367 144 
L 500.524911 144 
L 500.213816 144 
L 499.874474 144 
L 499.338725 144 
L 498.969255 144 
L 498.627959 144 
L 498.268929 144 
L 497.98552 144 
L 497.727559 144 
L 497.519089 144 
L 497.233524 144 
L 496.94307 144 
L 496.721003 144 
L 494.874054 144 
L 494.597765 144 
L 494.189903 144 
L 493.77673 144 
L 492.895362 144 
L 492.37825 144 
L 491.933114 144 
L 491.464505 144 
L 491.04602 144 
L 490.526988 144 
L 490.130873 144 
L 489.785126 144 
L 489.319401 144 
L 489.005258 144 
L 488.765626 144 
L 488.491378 144 
L 488.227949 144 
L 487.995713 144 
L 487.754264 144 
L 487.449013 144 
L 487.06298 144 
L 486.839627 144 
L 486.669959 144 
L 486.505347 144 
L 486.183801 144 
L 485.854463 144 
L 485.689043 144 
L 485.440641 144 
L 485.083702 144 
L 484.713223 144 
L 484.231272 144 
L 484.011148 144 
L 483.749008 144 
L 483.213466 144 
L 482.941725 144 
L 482.707903 144 
L 482.523875 144 
L 482.326201 144 
L 481.631045 144 
L 480.761674 144 
L 480.112985 144 
L 478.904641 144 
L 478.545864 144 
L 478.340476 144 
L 478.110047 144 
L 477.912559 144 
L 477.713876 144 
L 477.511747 144 
L 477.266237 144 
L 477.21111 144 
L 476.875853 144 
L 476.468809 144 
L 476.172795 144 
L 475.932723 144 
L 475.707903 144 
L 475.292162 144 
L 474.994026 144 
L 474.71723 144 
L 474.459973 144 
L 474.106268 144 
L 473.693716 144 
L 473.502199 144 
L 473.202589 144 
L 472.825755 144 
L 472.51192 144 
L 472.250512 144 
L 472.10555 144 
L 472.011631 144 
L 471.781201 144 
L 471.584276 144 
L 471.250469 144 
L 470.916662 144 
L 470.670245 144 
L 470.357068 144 
L 470.111401 144 
L 469.871593 144 
L 469.534771 144 
L 469.29405 144 
L 469.014649 144 
L 468.727824 144 
L 468.426596 144 
L 468.22892 144 
L 468.037317 144 
L 467.666959 144 
L 466.994772 144 
L 466.511505 144 
L 465.754846 144 
L 465.195623 144 
L 464.832433 144 
L 464.577805 144 
L 463.817013 144 
L 462.864605 144 
L 462.56189 144 
L 461.49981 144 
L 460.948079 144 
L 460.065924 144 
L 459.272607 144 
L 458.675926 144 
L 457.792383 144 
L 457.60485 144 
L 457.28379 144 
L 457.224215 144 
L 457.096059 144 
L 456.748862 144 
L 456.347148 144 
L 455.572362 144 
L 455.053716 144 
L 454.693381 144 
L 454.210461 144 
L 453.69512 144 
L 453.457211 144 
L 452.781507 144 
L 451.943619 144 
L 451.580632 144 
L 450.554135 144 
L 449.855297 144 
L 449.108376 144 
L 448.834121 144 
L 447.487308 144 
L 447.158175 144 
L 446.698195 144 
L 445.687234 144 
L 445.227574 144 
L 444.841671 144 
L 444.43563 144 
L 444.098316 144 
L 442.840391 144 
L 442.32471 144 
L 441.985182 144 
L 441.717791 144 
L 441.103426 144 
L 440.414549 144 
L 439.687502 144 
L 439.408623 144 
L 439.211151 144 
L 438.136557 144 
L 437.363371 144 
L 435.826758 144 
L 435.056051 144 
L 434.14626 144 
L 432.897399 144 
L 432.429835 144 
L 431.501041 144 
L 430.665312 144 
L 429.668523 144 
L 429.186562 144 
L 428.22172 144 
L 427.545779 144 
L 427.264366 144 
L 426.658773 144 
L 426.022752 144 
L 425.614519 144 
L 424.521057 144 
L 424.048011 144 
L 423.735043 144 
L 423.367399 144 
L 422.999387 144 
L 422.504898 144 
L 422.122272 144 
L 421.593188 144 
L 421.077265 144 
L 420.721513 144 
L 420.096941 144 
L 419.5253 144 
L 418.896813 144 
L 418.149068 144 
L 417.553322 144 
L 416.999742 144 
L 416.280645 144 
L 415.549052 144 
L 415.083352 144 
L 414.516655 144 
L 414.217043 144 
L 413.920031 144 
L 413.073787 144 
L 412.282388 144 
L 411.95134 144 
L 411.875672 144 
L 411.174576 144 
L 410.517634 144 
L 410.150171 144 
L 409.302656 144 
L 408.760188 144 
L 408.281284 144 
L 407.981021 144 
L 407.625233 144 
L 406.972822 144 
L 406.579977 144 
L 405.987118 144 
L 405.528141 144 
L 405.264727 144 
L 405.212022 144 
L 404.58443 144 
L 403.964958 144 
L 403.220348 144 
L 402.688733 144 
L 401.570172 144 
L 400.706674 144 
L 400.387279 144 
L 399.879168 144 
L 399.529329 144 
L 398.796057 144 
L 398.385079 144 
L 397.916634 144 
L 397.388022 144 
L 397.159978 144 
L 396.280098 144 
L 395.463078 144 
L 395.171055 144 
L 394.856735 144 
L 394.34107 144 
L 393.225233 144 
L 392.491226 144 
L 391.477051 144 
L 391.307395 144 
L 390.833187 144 
L 390.629007 144 
L 389.992511 144 
L 389.598928 144 
L 388.839657 144 
L 388.249727 144 
L 387.646469 144 
L 387.290736 144 
L 386.464067 144 
L 385.68396 144 
L 384.869596 144 
L 383.98435 144 
L 383.411195 144 
L 383.154832 144 
L 381.865598 144 
L 381.076483 144 
L 380.91061 144 
L 380.686624 144 
L 379.660131 144 
L 379.635642 144 
L 376.419767 144 
L 375.422948 144 
L 375.342244 144 
L 374.299226 144 
L 372.454444 144 
L 371.143117 144 
L 370.110059 144 
L 369.29442 144 
L 367.822409 144 
L 367.037702 144 
L 366.333223 144 
L 365.637623 144 
L 364.961986 144 
L 364.226956 144 
L 363.162297 144 
L 362.201693 144 
L 361.366474 144 
L 360.79576 144 
L 359.655467 144 
L 359.081045 144 
L 358.146375 144 
L 357.172089 144 
L 355.785899 144 
L 354.475629 144 
L 352.922955 144 
L 349.503839 144 
L 349.077085 144 
L 348.055384 144 
L 347.153014 144 
L 344.82303 144 
L 344.027065 144 
L 342.511782 144 
L 341.66007 144 
L 340.423872 144 
L 335.964938 144 
L 334.51526 144 
L 332.83786 144 
L 328.421067 144 
L 326.983057 144 
L 323.729681 144 
L 323.121881 144 
L 322.578776 144 
L 320.507298 144 
L 320.353895 144 
L 312.050117 144 
L 303.677857 144 
L 303.234558 144 
L 301.568277 144 
L 300.589645 144 
L 298.457552 144 
L 295.484216 144 
L 291.914282 144 
L 290.191868 144 
L 289.075926 144 
L 288.552952 144 
L 287.429865 144 
L 287.10981 144 
L 286.922762 144 
L 286.536934 144 
L 285.847979 144 
L 285.064687 144 
L 284.619659 144 
L 284.023908 144 
L 283.635577 144 
L 283.334053 144 
L 283.061198 144 
L 282.758347 144 
L 282.518958 144 
L 282.265337 144 
L 281.963226 144 
L 281.815412 144 
L 281.52084 144 
L 281.216325 144 
L 280.829891 144 
L 280.329672 144 
L 280.084504 144 
L 279.681789 144 
L 279.341507 144 
L 278.993237 144 
L 278.673978 144 
L 278.409893 144 
L 278.109645 144 
L 277.752764 144 
L 277.396937 144 
L 276.856179 144 
L 276.572627 144 
L 276.161045 144 
L 275.635161 144 
L 274.969294 144 
L 274.381367 144 
L 273.918139 144 
L 273.493889 144 
L 273.063472 144 
L 272.568539 144 
L 272.071587 144 
L 271.75698 144 
L 271.382378 144 
L 270.991232 144 
L 270.706178 144 
L 270.410554 144 
L 270.132428 144 
L 269.909178 144 
L 269.623163 144 
L 269.398369 144 
L 269.144424 144 
L 268.921915 144 
L 268.645776 144 
L 268.388564 144 
L 268.138858 144 
L 267.877487 144 
L 267.627781 144 
L 267.280372 144 
L 267.022256 144 
L 266.799542 144 
L 266.53889 144 
L 266.157893 144 
L 265.782786 144 
L 265.38105 144 
L 264.925692 144 
L 264.60193 144 
L 264.302652 144 
L 264.055973 144 
L 263.799611 144 
L 263.327799 144 
L 262.926102 144 
L 262.506147 144 
L 262.175214 144 
L 261.617073 144 
L 261.007015 144 
L 260.416005 144 
L 259.857892 144 
L 258.871426 144 
L 257.817526 144 
L 257.369084 144 
L 256.992071 144 
L 256.574291 144 
L 256.227491 144 
L 255.906465 144 
L 255.479471 144 
L 254.730895 144 
L 254.184593 144 
L 253.614518 144 
L 253.259941 144 
L 253.008611 144 
L 252.496338 144 
L 251.795981 144 
L 251.365327 144 
L 251.200071 144 
L 250.828701 144 
L 250.516389 144 
L 249.989891 144 
L 249.669754 144 
L 248.548982 144 
L 247.759212 144 
L 246.675057 144 
L 246.438154 144 
L 246.105379 144 
L 245.846316 144 
L 245.558343 144 
L 245.04518 144 
L 244.428147 144 
L 243.934802 144 
L 243.556798 144 
L 239.82073 144 
L 239.213105 144 
L 238.175903 144 
L 238.094302 144 
L 236.930148 144 
L 236.505428 144 
L 236.183177 144 
L 234.861123 144 
L 233.272263 144 
L 232.895549 144 
L 231.713199 144 
L 231.076137 144 
L 230.414282 144 
L 229.632779 144 
L 228.034041 144 
L 227.340079 144 
L 226.636541 144 
L 225.980607 144 
L 224.826515 144 
L 224.581365 144 
L 224.463816 144 
L 224.364205 144 
L 224.077399 144 
L 223.844871 144 
L 223.51847 144 
L 223.164459 144 
L 222.914338 144 
L 222.58355 144 
L 222.475251 144 
L 222.124033 144 
L 221.916594 144 
L 221.71897 144 
L 221.606707 144 
L 221.468047 144 
L 221.345908 144 
L 221.013986 144 
L 220.665388 144 
L 220.478634 144 
L 220.412174 144 
L 220.157262 144 
L 219.786937 144 
L 219.433013 144 
L 219.226252 144 
L 219.133458 144 
L 218.763029 144 
L 218.694519 144 
L 218.582692 144 
L 218.490918 144 
L 218.085786 144 
L 217.878827 144 
L 217.583658 144 
L 217.360427 144 
L 217.342057 144 
L 217.064626 144 
L 216.839203 144 
L 216.650566 144 
L 216.609979 144 
L 216.48727 144 
L 216.346503 144 
L 216.252931 144 
L 216.163879 144 
L 215.960829 144 
L 215.712248 144 
L 215.496226 144 
L 215.366695 144 
L 215.232737 144 
L 214.823889 144 
L 214.615515 144 
L 214.375729 144 
L 213.770285 144 
L 213.376498 144 
L 212.107238 144 
L 211.589275 144 
L 211.004213 144 
L 210.69345 144 
L 210.343611 144 
L 209.660075 144 
L 208.760252 144 
L 208.660642 144 
L 207.78233 144 
L 206.914475 144 
L 206.33413 144 
L 206.043714 144 
L 203.950249 144 
L 201.945941 144 
L 201.325702 144 
L 200.739811 144 
L 200.589017 144 
L 200.343295 144 
L 199.808831 144 
L 199.220265 144 
L 198.542928 144 
L 197.82752 144 
L 197.624102 144 
L 197.11514 144 
L 196.606178 144 
L 196.457758 144 
L 196.204161 144 
L 196.017408 144 
L 195.518433 144 
L 195.147613 144 
L 194.630567 144 
L 193.884716 144 
L 193.743952 144 
L 193.552354 144 
L 192.542559 144 
L 192.013958 144 
L 191.118832 144 
L 190.567822 144 
L 190.159305 144 
L 190.003513 144 
L 189.868302 144 
L 189.578772 144 
L 189.440487 144 
L 189.266238 144 
L 189.063015 144 
L 188.78896 144 
L 188.170732 144 
L 187.764464 144 
L 187.377328 144 
L 186.958385 144 
L 186.636846 144 
L 186.303043 144 
L 185.300583 144 
L 184.177849 144 
L 182.882829 144 
L 181.702824 144 
L 181.228585 144 
L 180.728092 144 
L 178.72798 144 
L 177.298174 144 
L 176.503235 144 
L 175.979108 144 
L 175.887759 144 
L 175.622654 144 
L 175.161039 144 
L 174.60931 144 
L 174.075053 144 
L 173.611082 144 
L 172.269697 144 
L 171.524866 144 
L 170.897655 144 
L 170.523371 144 
L 169.972624 144 
L 169.571305 144 
L 169.322728 144 
L 168.479427 144 
L 167.540151 144 
L 167.19338 144 
L 166.370026 144 
L 166.005721 144 
L 165.39387 144 
L 164.969305 144 
L 164.470035 144 
L 163.969701 144 
L 163.534544 144 
L 163.032605 144 
L 162.708385 144 
L 162.411896 144 
L 161.948192 144 
L 161.60916 144 
L 161.168393 144 
L 160.834922 144 
L 160.42945 144 
L 160.105231 144 
L 159.389273 144 
L 158.584324 144 
L 157.05838 144 
L 155.474941 144 
L 154.247006 144 
L 153.109191 144 
L 152.1794 144 
L 151.379105 144 
L 151.262528 144 
L 151.059485 144 
L 150.942907 144 
L 150.595735 144 
L 150.412233 144 
L 150.140604 144 
L 149.770316 144 
L 148.912074 144 
L 148.196877 144 
L 147.741382 144 
L 147.393529 144 
L 147.184671 144 
L 146.734697 144 
L 146.186185 144 
L 145.923969 144 
L 145.515724 144 
L 145.000048 144 
L 144.670824 144 
L 144.322253 144 
L 144.087824 144 
L 143.515719 144 
L 142.94619 144 
L 142.299647 144 
L 141.853635 144 
L 141.426602 144 
L 141.086528 144 
L 140.820803 144 
L 140.775473 144 
L 140.24482 144 
L 139.617744 144 
L 138.942966 144 
L 138.35934 144 
L 137.923829 144 
L 137.57317 144 
L 136.511163 144 
L 135.561108 144 
L 135.141271 144 
L 133.470603 144 
L 132.905788 144 
L 132.512218 144 
L 132.087654 144 
L 131.255888 144 
L 130.86133 144 
L 130.027381 144 
L 129.389798 144 
L 129.03996 144 
L 128.308421 144 
L 127.810531 144 
L 127.033878 144 
L 125.794965 144 
L 125.768621 144 
L 124.625281 144 
L 124.010847 144 
L 123.767568 144 
L 123.419454 144 
L 122.917526 144 
L 122.743942 144 
L 122.504492 144 
L 121.488312 144 
L 121.060793 144 
L 119.993037 144 
L 119.221134 144 
L 119.002018 144 
L 118.574656 144 
L 117.792215 144 
L 117.175451 144 
L 117.000749 144 
L 116.523388 144 
L 116.082302 144 
L 114.797825 144 
L 113.949814 144 
L 113.523267 144 
L 110.836189 144 
L 109.501983 144 
L 108.011398 144 
L 106.607046 144 
L 105.056042 144 
L 103.827937 144 
L 102.130248 144 
L 100.570092 144 
L 98.208754 144 
L 97.373776 144 
L 96.826876 144 
L 96.404919 144 
L 95.81901 144 
L 93.785684 144 
L 93.360919 144 
L 92.595663 144 
L 90.867065 144 
L 90.149334 144 
L 89.081748 144 
L 88.534964 144 
L 88.196424 144 
L 87.586202 144 
L 86.137366 144 
L 85.529805 144 
L 84.667497 144 
L 84.250842 144 
L 83.553153 144 
L 83.142785 144 
L 82.576089 144 
L 82.14885 144 
L 81.058566 144 
L 80.627258 144 
L 80.250648 144 
L 79.992749 144 
L 79.782497 144 
L 79.288273 144 
L 78.256278 144 
L 77.970808 144 
L 77.656666 144 
L 77.207324 144 
L 76.749069 144 
L 76.044497 144 
L 75.557722 144 
L 74.913347 144 
L 74.729845 144 
L 74.516364 144 
L 73.876593 144 
L 73.603596 144 
L 73.382314 144 
L 73.069361 144 
L 72.768027 144 
L 72.489798 144 
L 72.248762 144 
L 71.698194 144 
L 71.21898 144 
L 70.845096 144 
L 70.645885 144 
L 70.07299 144 
L 69.801728 144 
L 69.626809 144 
L 69.367533 144 
L 69.126661 144 
L 67.209019 144 
L 66.375946 144 
L 66.108301 144 
L 65.687038 144 
L 65.160182 144 
L 64.940649 144 
L 64.481604 144 
L 63.756681 144 
L 62.658877 144 
L 62.199756 144 
L 61.613814 144 
L 61.540953 144 
L 61.150786 144 
L 60.076892 144 
L 59.747037 144 
L 59.226516 144 
L 59.039766 144 
L 58.869734 144 
L 58.091277 144 
L 57.825442 144 
L 57.564519 144 
L 57.268094 144 
L 56.609647 144 
L 56.261533 144 
L 55.856334 144 
L 55.661188 144 
L 55.582924 144 
L 55.385415 144 
L 54.313072 144 
L 53.88387 144 
L 53.430144 144 
L 53.121255 144 
L 52.470952 144 
L 51.636118 144 
L 50.82837 144 
L 50.451786 144 
L 50.195899 144 
L 50.055147 144 
L 49.586453 144 
L 49.133008 144 
L 48.902587 144 
L 48.578964 144 
L 48.319985 144 
L 47.670678 144 
L 47.100474 144 
L 45.997814 144 
L 45.581289 144 
L 44.907771 144 
L 44.383349 144 
L 43.955286 144 
L 43.248326 144 
L 42.953588 144 
L 42.467586 144 
L 42.091394 144 
L 41.809892 144 
L 41.486842 144 
L 40.921539 144 
L 40.643572 144 
L 39.943726 144 
L 39.473628 144 
L 38.892546 144 
L 38.136999 144 
L 37.369522 144 
L 36.929374 144 
L 36.58126 144 
L 36.324898 144 
L 36.025938 144 
L 35.728301 144 
L 35.522206 144 
L 35.211872 144 
L 34.741987 144 
L 34.323886 144 
L 34.196009 144 
L 33.988008 144 
L 33.723536 144 
L 32.467499 144 
L 30.955543 144 
L 30.866053 144 
L 30.484311 144 
L 30.173292 144 
L 29.947879 144 
L 29.742789 144 
L 27.510233 144 
L 25.932471 144 
L 25.603247 144 
L 25.308653 144 
L 25.146387 144 
L 24.765204 144 
L 24.286152 144 
L 23.965172 144 
L 23.367426 144 
L 23.220553 144 
L 22.959303 144 
L 22.242598 144 
L 22.023792 144 
L 21.80202 144 
L 20.472912 144 
L 19.708564 144 
L 17.763902 144 
L 15.197692 144 
L 14.951145 144 
L 14.571143 144 
L 13.762071 144 
L 13.558655 144 
L 12.124342 144 
L 11.575307 144 
L 10.942288 144 
L 10.383748 144 
L 9.740826 144 
L 9.659459 144 
L 9.144947 144 
L 8.299951 144 
L 7.406378 144 
L 6.685654 144 
L 5.416217 144 
L 5.263801 144 
L 4.465418 144 
L 4.390281 144 
L 4.168638 144 
L 3.454089 144 
L 2.908688 144 
L 2.828 144 
L 2.293736 144 
L 1.860665 144 
L 1.654598 144 
L 1.155336 144 
L 0.973798 144 
L 0.515418 144 
L 0.312001 144 
L 0.123584 144 
L 0 144 
z
" style="fill:#c18182;fill-opacity:0.3;stroke:#c18182;stroke-opacity:0.3;"/>
   </g>
   <g id="line2d_1">
    <path clip-path="url(#p173308de54)" d="M 0 107.473171 
L 0.123584 107.82439 
L 0.312001 107.82439 
L 0.973798 108.878049 
L 1.155336 108.878049 
L 1.654598 109.931707 
L 1.860665 109.931707 
L 2.908688 111.687805 
L 3.454089 112.741463 
L 7.406378 118.712195 
L 8.299951 120.468293 
L 10.942288 127.141463 
L 11.575307 127.843902 
L 12.124342 128.897561 
L 13.762071 131.356098 
L 14.571143 132.760976 
L 17.763902 135.570732 
L 19.708564 136.97561 
L 20.472912 137.678049 
L 22.242598 139.434146 
L 23.220553 140.487805 
L 23.367426 140.839024 
L 25.146387 142.946341 
L 25.308653 143.297561 
L 25.932471 144 
L 45.997814 144 
L 48.319985 142.595122 
L 48.578964 142.595122 
L 48.902587 142.243902 
L 49.133008 142.243902 
L 50.451786 141.190244 
L 50.82837 141.190244 
L 51.636118 140.487805 
L 53.121255 139.785366 
L 53.430144 139.434146 
L 53.88387 139.434146 
L 54.313072 139.082927 
L 55.582924 138.380488 
L 55.661188 138.380488 
L 55.856334 138.029268 
L 56.261533 138.029268 
L 56.609647 137.678049 
L 57.268094 137.326829 
L 57.564519 136.97561 
L 90.867065 136.97561 
L 92.595663 136.62439 
L 93.360919 136.62439 
L 93.785684 136.273171 
L 95.81901 135.921951 
L 96.404919 135.570732 
L 97.373776 135.570732 
L 98.208754 135.219512 
L 102.130248 134.165854 
L 103.827937 133.814634 
L 105.056042 133.112195 
L 106.607046 132.409756 
L 109.501983 130.302439 
L 110.836189 129.6 
L 113.523267 128.546341 
L 113.949814 128.195122 
L 114.797825 127.843902 
L 116.082302 127.492683 
L 117.000749 126.790244 
L 117.175451 126.790244 
L 118.574656 126.087805 
L 119.221134 126.087805 
L 119.993037 125.736585 
L 121.060793 125.034146 
L 121.488312 125.034146 
L 122.504492 124.331707 
L 122.917526 124.331707 
L 123.419454 123.980488 
L 124.010847 123.980488 
L 125.794965 122.926829 
L 127.033878 122.57561 
L 127.810531 122.57561 
L 128.308421 122.22439 
L 129.03996 122.22439 
L 129.389798 121.873171 
L 130.027381 121.873171 
L 130.86133 121.521951 
L 131.255888 121.521951 
L 132.087654 121.170732 
L 132.905788 121.170732 
L 133.470603 120.819512 
L 136.511163 120.117073 
L 138.942966 119.414634 
L 139.617744 118.712195 
L 140.24482 118.360976 
L 140.820803 117.658537 
L 141.086528 117.658537 
L 141.853635 116.956098 
L 142.299647 116.604878 
L 143.515719 115.2 
L 144.322253 114.146341 
L 144.670824 113.443902 
L 146.734697 111.336585 
L 147.184671 110.985366 
L 147.393529 110.634146 
L 148.912074 109.229268 
L 150.140604 108.17561 
L 150.412233 107.82439 
L 150.595735 107.82439 
L 151.379105 107.121951 
L 152.1794 106.419512 
L 153.109191 105.365854 
L 160.834922 105.365854 
L 161.168393 105.717073 
L 161.60916 105.717073 
L 161.948192 106.068293 
L 162.411896 106.068293 
L 162.708385 106.419512 
L 163.032605 106.419512 
L 163.534544 106.770732 
L 163.969701 106.770732 
L 164.969305 107.473171 
L 165.39387 107.473171 
L 166.005721 107.82439 
L 166.370026 107.82439 
L 167.19338 108.17561 
L 167.540151 108.526829 
L 169.322728 109.229268 
L 169.571305 109.580488 
L 169.972624 109.580488 
L 170.523371 109.931707 
L 170.897655 109.931707 
L 173.611082 111.336585 
L 174.075053 111.336585 
L 175.161039 112.039024 
L 175.622654 112.039024 
L 175.979108 112.390244 
L 176.503235 112.741463 
L 177.298174 113.443902 
L 178.72798 115.2 
L 181.702824 117.307317 
L 182.882829 118.360976 
L 184.177849 119.063415 
L 185.300583 119.414634 
L 197.82752 119.414634 
L 199.220265 118.712195 
L 199.808831 118.009756 
L 200.343295 117.658537 
L 200.589017 117.307317 
L 200.739811 117.307317 
L 201.325702 116.604878 
L 201.945941 116.253659 
L 203.950249 113.443902 
L 206.33413 110.985366 
L 206.914475 110.634146 
L 208.760252 109.229268 
L 209.660075 108.878049 
L 211.004213 108.878049 
L 213.770285 105.717073 
L 214.823889 104.663415 
L 216.163879 103.609756 
L 216.346503 103.258537 
L 216.48727 103.258537 
L 216.650566 102.907317 
L 216.839203 102.907317 
L 217.360427 102.204878 
L 217.583658 102.204878 
L 219.226252 100.097561 
L 219.433013 99.746341 
L 220.478634 98.692683 
L 220.665388 98.341463 
L 221.345908 97.639024 
L 221.468047 97.287805 
L 221.606707 97.287805 
L 221.71897 96.936585 
L 221.916594 96.936585 
L 222.124033 96.585366 
L 222.475251 96.234146 
L 222.58355 95.882927 
L 223.51847 94.829268 
L 224.077399 94.829268 
L 224.463816 94.478049 
L 224.826515 94.478049 
L 225.980607 94.126829 
L 226.636541 93.77561 
L 227.340079 93.77561 
L 228.034041 93.42439 
L 229.632779 93.073171 
L 230.414282 92.721951 
L 231.076137 92.721951 
L 231.713199 92.370732 
L 233.272263 92.019512 
L 234.861123 91.317073 
L 236.505428 90.965854 
L 236.930148 90.614634 
L 239.213105 89.912195 
L 239.82073 89.560976 
L 243.556798 88.156098 
L 243.934802 87.804878 
L 244.428147 87.804878 
L 245.846316 87.102439 
L 246.105379 87.102439 
L 246.438154 86.75122 
L 246.675057 86.75122 
L 248.548982 86.04878 
L 249.669754 85.346341 
L 249.989891 85.346341 
L 250.516389 84.995122 
L 250.828701 84.995122 
L 251.200071 84.643902 
L 251.795981 84.643902 
L 252.496338 84.292683 
L 268.645776 84.292683 
L 268.921915 84.643902 
L 269.144424 84.643902 
L 269.398369 84.995122 
L 269.623163 84.995122 
L 270.132428 85.697561 
L 270.410554 85.697561 
L 270.706178 86.04878 
L 270.991232 86.04878 
L 273.063472 87.804878 
L 273.493889 87.804878 
L 274.381367 88.507317 
L 274.969294 88.507317 
L 276.161045 89.209756 
L 276.572627 89.209756 
L 276.856179 89.560976 
L 277.396937 89.912195 
L 278.109645 89.912195 
L 278.409893 90.263415 
L 278.673978 90.263415 
L 278.993237 90.614634 
L 279.681789 90.614634 
L 280.084504 90.965854 
L 280.329672 90.965854 
L 281.216325 91.668293 
L 281.815412 92.370732 
L 281.963226 92.721951 
L 282.518958 93.42439 
L 282.758347 93.42439 
L 284.023908 94.829268 
L 285.847979 94.829268 
L 286.536934 94.478049 
L 286.922762 94.126829 
L 287.10981 94.126829 
L 287.429865 93.77561 
L 289.075926 92.721951 
L 290.191868 92.370732 
L 291.914282 91.317073 
L 295.484216 88.156098 
L 298.457552 84.643902 
L 300.589645 80.780488 
L 303.234558 76.917073 
L 303.677857 76.565854 
L 312.050117 74.809756 
L 320.507298 77.268293 
L 323.729681 77.268293 
L 326.983057 76.565854 
L 328.421067 74.809756 
L 332.83786 71.64878 
L 334.51526 70.595122 
L 335.964938 69.541463 
L 340.423872 66.731707 
L 349.503839 66.731707 
L 352.922955 66.029268 
L 354.475629 64.62439 
L 355.785899 63.921951 
L 361.366474 59.707317 
L 362.201693 58.653659 
L 364.226956 55.843902 
L 364.961986 55.492683 
L 365.637623 54.790244 
L 366.333223 54.439024 
L 369.29442 51.629268 
L 370.110059 50.926829 
L 371.143117 49.521951 
L 374.299226 47.765854 
L 376.419767 46.360976 
L 379.660131 45.658537 
L 381.076483 45.658537 
L 381.865598 46.009756 
L 386.464067 49.873171 
L 388.249727 51.980488 
L 388.839657 52.682927 
L 390.833187 54.439024 
L 391.307395 55.141463 
L 391.477051 55.141463 
L 392.491226 56.195122 
L 398.796057 56.195122 
L 399.529329 56.546341 
L 399.879168 56.546341 
L 400.387279 56.897561 
L 400.706674 56.897561 
L 402.688733 57.6 
L 403.220348 57.6 
L 404.58443 58.302439 
L 405.528141 58.302439 
L 405.987118 58.653659 
L 406.579977 58.653659 
L 406.972822 59.004878 
L 407.625233 59.004878 
L 407.981021 59.356098 
L 408.760188 59.356098 
L 409.302656 59.707317 
L 410.150171 60.058537 
L 410.517634 60.409756 
L 412.282388 61.463415 
L 413.073787 62.165854 
L 413.920031 62.517073 
L 414.217043 62.868293 
L 414.516655 62.868293 
L 416.280645 63.921951 
L 416.999742 64.62439 
L 417.553322 64.62439 
L 418.149068 64.97561 
L 418.896813 65.678049 
L 420.721513 66.731707 
L 428.22172 66.731707 
L 429.186562 66.380488 
L 429.668523 66.380488 
L 431.501041 64.97561 
L 432.429835 64.273171 
L 432.897399 64.273171 
L 437.363371 60.409756 
L 438.136557 59.707317 
L 440.414549 56.195122 
L 441.103426 55.492683 
L 441.717791 55.141463 
L 442.32471 54.439024 
L 442.840391 54.087805 
L 445.227574 51.980488 
L 447.158175 49.170732 
L 447.487308 48.819512 
L 449.855297 45.658537 
L 451.580632 43.2 
L 451.943619 42.84878 
L 454.210461 40.039024 
L 455.053716 39.336585 
L 455.572362 38.634146 
L 458.675926 35.82439 
L 459.272607 35.121951 
L 460.065924 34.770732 
L 461.49981 33.717073 
L 462.56189 33.365854 
L 462.864605 33.014634 
L 463.817013 32.663415 
L 464.577805 31.960976 
L 464.832433 31.960976 
L 465.195623 31.609756 
L 465.754846 31.258537 
L 466.994772 30.204878 
L 467.666959 29.853659 
L 468.037317 29.502439 
L 468.22892 29.15122 
L 468.426596 29.15122 
L 469.014649 28.44878 
L 469.29405 28.44878 
L 469.871593 27.746341 
L 470.111401 27.746341 
L 470.670245 27.043902 
L 470.916662 27.043902 
L 472.51192 25.287805 
L 472.825755 25.287805 
L 473.693716 24.585366 
L 483.213466 24.585366 
L 483.749008 24.234146 
L 484.011148 23.882927 
L 484.231272 23.882927 
L 485.083702 23.180488 
L 485.440641 22.829268 
L 485.689043 22.829268 
L 485.854463 22.478049 
L 486.183801 22.478049 
L 486.505347 22.126829 
L 486.669959 22.126829 
L 486.839627 21.77561 
L 487.06298 21.77561 
L 488.491378 20.370732 
L 491.04602 17.209756 
L 491.464505 17.209756 
L 492.895362 16.156098 
L 493.77673 15.804878 
L 494.189903 15.453659 
L 494.597765 15.453659 
L 494.874054 15.102439 
L 496.94307 14.04878 
L 497.233524 14.04878 
L 497.519089 13.697561 
L 497.727559 13.697561 
L 497.98552 13.346341 
L 498.268929 13.346341 
L 498.627959 12.995122 
L 498.969255 12.995122 
L 499.338725 12.643902 
L 499.874474 12.643902 
L 500.213816 12.292683 
L 500.524911 12.292683 
L 500.863367 11.941463 
L 501.177715 11.941463 
L 501.589645 11.590244 
L 502.929973 10.887805 
L 503.427036 10.887805 
L 504.260429 10.185366 
L 504.684496 9.834146 
L 506.169587 8.078049 
L 506.701621 7.726829 
L 507.667528 6.673171 
L 508.137277 6.673171 
L 508.386468 6.321951 
L 508.754485 6.321951 
L 509.178553 5.970732 
L 509.580008 5.970732 
L 510.716808 5.268293 
L 510.979681 5.268293 
L 511.285742 4.917073 
L 511.639026 4.917073 
L 511.99098 4.565854 
L 512.277806 4.565854 
L 512.695631 4.214634 
L 513.125786 4.214634 
L 513.529913 3.863415 
L 513.973429 3.863415 
L 515.020806 2.809756 
L 515.290882 2.809756 
L 515.601847 2.458537 
L 516.033747 1.756098 
L 518.033325 0 
L 522.967446 0 
L 524.227449 0.702439 
L 525.25964 1.404878 
L 526.460462 2.458537 
L 527.355287 2.809756 
L 528.685449 3.863415 
L 529.006493 3.863415 
L 531.07847 4.917073 
L 531.596674 4.917073 
L 531.88686 5.268293 
L 532.173691 5.268293 
L 532.563397 5.619512 
L 532.909156 5.619512 
L 533.379091 5.970732 
L 535.882176 7.02439 
L 568.935498 7.02439 
L 569.476031 7.37561 
L 570.377683 8.429268 
L 571.838387 9.482927 
L 577.510697 15.102439 
L 578.120695 15.804878 
L 578.846206 16.507317 
L 579.010691 16.858537 
L 579.163862 16.858537 
L 579.699136 17.560976 
L 579.884798 17.912195 
L 580.081231 17.912195 
L 580.846277 18.965854 
L 581.110648 18.965854 
L 581.527082 19.668293 
L 582.347777 20.370732 
L 583.709665 22.478049 
L 584.833375 24.936585 
L 585.190399 25.287805 
L 585.332155 25.639024 
L 585.834305 26.341463 
L 586.286109 26.692683 
L 586.914998 27.746341 
L 587.205176 28.097561 
L 587.669374 29.15122 
L 588.123291 29.853659 
L 588.784392 30.907317 
L 589.240121 31.609756 
L 589.56022 32.312195 
L 592.097986 35.82439 
L 592.325402 35.82439 
L 592.451225 36.17561 
L 592.647067 36.17561 
L 594.054503 37.229268 
L 596.062708 38.985366 
L 596.252629 38.634146 
L 598.754223 38.634146 
L 604.198764 40.741463 
L 604.994935 41.795122 
L 607.15922 45.307317 
L 609.513276 47.063415 
L 610.59582 47.765854 
L 612.816838 49.170732 
L 629.928492 49.170732 
L 630.377644 49.521951 
L 630.812319 49.521951 
L 631.402763 49.873171 
L 632.57869 49.873171 
L 633.099627 50.22439 
L 633.586037 50.22439 
L 633.934534 50.57561 
L 635.060737 50.57561 
L 635.463341 50.926829 
L 636.152973 50.926829 
L 636.344586 51.278049 
L 637.340126 51.278049 
L 637.743554 51.629268 
L 638.457522 51.629268 
L 638.769165 51.980488 
L 639.867599 51.980488 
L 640.261285 52.331707 
L 641.06716 52.331707 
L 641.264935 52.682927 
L 655.155974 52.682927 
L 657.29531 50.926829 
L 658.984322 49.170732 
L 659.855002 47.414634 
L 660.702563 45.307317 
L 661.549286 43.902439 
L 663.244842 40.741463 
L 666.427089 35.473171 
L 667.455519 34.419512 
L 672.321827 31.609756 
L 673.650674 30.204878 
L 674.830029 29.15122 
L 677.486355 26.341463 
L 678.942364 24.936585 
L 679.874617 23.180488 
L 681.359867 20.721951 
L 682.899366 19.317073 
L 685.048032 17.560976 
L 693.288195 17.560976 
L 695.59323 17.912195 
L 696.35104 18.263415 
L 697.79845 18.263415 
L 700.737255 18.965854 
L 702.101338 18.965854 
L 705.037429 19.668293 
L 705.307074 19.668293 
L 705.461896 19.317073 
L 706.380754 19.317073 
L 706.631654 18.965854 
L 706.775158 18.965854 
L 710.995065 17.209756 
L 712.331177 16.156098 
L 713.248346 16.507317 
L 715.598025 16.507317 
L 716.074426 16.156098 
L 716.222505 15.804878 
L 717.731837 14.04878 
L 720 14.04878 
L 720 14.04878 
" style="fill:none;stroke:#c18182;stroke-linecap:square;stroke-width:3;"/>
   </g>
  </g>
 </g>
 <defs>
  <clipPath id="p173308de54">
   <rect height="144" width="720" x="0" y="0"/>
  </clipPath>
 </defs>
</svg>
