<?xml version="1.0" encoding="utf-8" standalone="no"?>
<!DOCTYPE svg PUBLIC "-//W3C//DTD SVG 1.1//EN"
  "http://www.w3.org/Graphics/SVG/1.1/DTD/svg11.dtd">
<svg xmlns:xlink="http://www.w3.org/1999/xlink" width="720pt" height="144pt" viewBox="0 0 720 144" xmlns="http://www.w3.org/2000/svg" version="1.1">
 <metadata>
  <rdf:RDF xmlns:dc="http://purl.org/dc/elements/1.1/" xmlns:cc="http://creativecommons.org/ns#" xmlns:rdf="http://www.w3.org/1999/02/22-rdf-syntax-ns#">
   <cc:Work>
    <dc:type rdf:resource="http://purl.org/dc/dcmitype/StillImage"/>
    <dc:date>2026-03-16T23:23:51.028242</dc:date>
    <dc:format>image/svg+xml</dc:format>
    <dc:creator>
     <cc:Agent>
      <dc:title>Matplotlib v3.10.8, https://matplotlib.org/</dc:title>
     </cc:Agent>
    </dc:creator>
   </cc:Work>
  </rdf:RDF>
 </metadata>
 <defs>
  <style type="text/css">*{stroke-linejoin: round; stroke-linecap: butt}</style>
 </defs>
 <g id="figure_1">
  <g id="patch_1">
   <path d="M 0 144 
L 720 144 
L 720 0 
L 0 0 
L 0 144 
z
" style="fill: none"/>
  </g>
  <g id="axes_1">
   <g id="FillBetweenPolyCollection_1">
    <path d="M 0 144 
L 0 87.157895 
L 0.125586 87.157895 
L 1.511972 86.4 
L 2.335105 86.021053 
L 3.37734 85.263158 
L 4.849446 85.642105 
L 6.087704 86.021053 
L 9.159271 86.778947 
L 10.010968 86.778947 
L 11.216983 87.157895 
L 12.311428 87.157895 
L 14.510598 87.536842 
L 15.547053 87.915789 
L 17.035493 87.915789 
L 17.628891 87.915789 
L 18.167277 88.673684 
L 18.947238 89.810526 
L 19.963104 90.947368 
L 21.180122 91.326316 
L 22.197449 91.705263 
L 23.73929 92.463158 
L 25.227401 92.842105 
L 27.17352 93.6 
L 27.949788 93.978947 
L 28.975797 94.357895 
L 31.326768 94.736842 
L 31.951349 94.736842 
L 32.025644 94.736842 
L 32.770002 94.736842 
L 33.277261 94.736842 
L 33.601824 94.736842 
L 35.531475 94.736842 
L 37.003739 91.326316 
L 37.837912 89.810526 
L 39.173986 87.536842 
L 40.144865 85.642105 
L 40.479892 85.263158 
L 41.853868 83.747368 
L 42.501646 82.610526 
L 42.935438 81.852632 
L 43.339171 81.094737 
L 43.447047 81.094737 
L 43.930492 80.336842 
L 44.0067 79.957895 
L 44.720393 78.821053 
L 45.3815 77.305263 
L 45.673138 76.547368 
L 46.093296 75.789474 
L 46.421541 75.789474 
L 46.51784 75.789474 
L 47.235927 75.789474 
L 47.586618 75.789474 
L 48.693031 75.789474 
L 48.772775 75.789474 
L 49.323306 75.789474 
L 50.14041 75.789474 
L 50.952788 75.789474 
L 51.249224 75.789474 
L 51.822166 75.789474 
L 52.860722 75.789474 
L 52.901876 75.789474 
L 53.812844 77.684211 
L 54.055377 77.684211 
L 54.626569 77.684211 
L 54.898936 77.684211 
L 55.079686 77.684211 
L 55.56327 77.305263 
L 55.764382 77.305263 
L 55.804845 77.305263 
L 56.270776 76.926316 
L 56.327815 76.926316 
L 56.694457 76.926316 
L 56.749611 76.926316 
L 56.961813 77.305263 
L 57.275893 77.305263 
L 57.391864 77.305263 
L 57.521161 77.305263 
L 57.787636 77.305263 
L 58.154039 77.305263 
L 58.646787 77.305263 
L 58.760033 77.684211 
L 59.10766 77.684211 
L 60.478783 78.063158 
L 61.10662 79.578947 
L 61.328465 79.578947 
L 61.92608 79.578947 
L 62.246251 79.578947 
L 62.936291 79.578947 
L 64.317201 79.578947 
L 66.292884 79.578947 
L 66.524847 79.578947 
L 66.890409 79.578947 
L 67.784093 80.336842 
L 68.281032 80.715789 
L 68.876828 81.094737 
L 69.334938 81.473684 
L 69.681216 81.473684 
L 71.291056 81.094737 
L 72.511235 81.094737 
L 73.074138 81.094737 
L 74.010652 80.715789 
L 74.633715 80.715789 
L 75.269808 80.715789 
L 77.182993 80.336842 
L 78.275353 80.336842 
L 79.35463 80.336842 
L 82.637437 79.957895 
L 84.293051 79.578947 
L 85.683781 79.578947 
L 86.095104 78.821053 
L 86.176663 78.821053 
L 86.239618 78.821053 
L 86.329233 78.821053 
L 86.403016 78.821053 
L 86.493127 78.821053 
L 86.572338 78.442105 
L 86.677362 78.442105 
L 86.76671 78.442105 
L 87.147226 78.442105 
L 90.695949 78.821053 
L 91.000737 78.821053 
L 91.098891 78.821053 
L 91.212246 78.821053 
L 91.295601 78.821053 
L 91.389426 78.821053 
L 91.536299 78.821053 
L 91.71339 78.821053 
L 91.827485 78.821053 
L 93.168985 78.821053 
L 95.896826 79.2 
L 97.591679 79.2 
L 98.364664 79.2 
L 98.570876 79.2 
L 99.864413 79.578947 
L 101.423401 79.578947 
L 102.159203 79.578947 
L 103.050474 79.578947 
L 106.446977 79.578947 
L 106.986532 79.578947 
L 107.885214 79.578947 
L 108.373206 79.578947 
L 109.179417 79.578947 
L 110.839856 79.578947 
L 111.342647 79.578947 
L 112.823869 79.578947 
L 114.885051 79.578947 
L 119.546311 79.578947 
L 122.919137 78.821053 
L 122.968947 78.821053 
L 123.672199 78.442105 
L 127.207055 77.305263 
L 127.639432 77.305263 
L 128.041414 77.305263 
L 129.138225 76.926316 
L 132.023688 76.168421 
L 132.905373 75.789474 
L 133.487401 75.410526 
L 134.820516 74.273684 
L 138.034675 72 
L 141.05564 72 
L 141.147159 72 
L 147.765192 69.347368 
L 148.271102 68.968421 
L 149.087397 68.210526 
L 151.072225 69.347368 
L 153.033634 73.136842 
L 154.270968 75.410526 
L 156.241217 81.094737 
L 158.669036 87.915789 
L 160.324043 91.705263 
L 161.304865 93.221053 
L 162.592668 95.873684 
L 163.793804 98.147368 
L 164.870861 100.042105 
L 165.749052 101.178947 
L 166.315741 101.936842 
L 167.431171 103.073684 
L 169.075704 103.452632 
L 169.410721 103.831579 
L 170.232133 103.831579 
L 170.69224 104.210526 
L 171.631739 104.589474 
L 172.227343 104.589474 
L 173.024754 104.968421 
L 173.848766 104.968421 
L 174.294108 105.347368 
L 175.499684 105.726316 
L 176.019459 105.726316 
L 177.29986 107.621053 
L 178.455975 110.652632 
L 179.683389 113.305263 
L 180.630488 113.684211 
L 181.393642 113.684211 
L 182.180101 113.684211 
L 183.291427 113.684211 
L 184.101013 113.684211 
L 185.421054 113.684211 
L 185.97767 113.684211 
L 187.24295 113.305263 
L 188.130464 112.168421 
L 189.417977 113.305263 
L 190.304293 114.063158 
L 191.452728 116.715789 
L 192.302937 118.989474 
L 193.129746 121.263158 
L 193.922814 121.642105 
L 195.046352 123.915789 
L 195.929198 125.052632 
L 196.434043 125.052632 
L 197.529041 124.673684 
L 198.698076 123.157895 
L 199.891306 121.642105 
L 201.10962 120.505263 
L 202.137173 119.368421 
L 202.726346 118.610526 
L 203.627684 117.473684 
L 203.879693 117.094737 
L 204.543331 116.336842 
L 205.209975 115.2 
L 205.471839 114.821053 
L 205.691807 114.442105 
L 205.860292 114.442105 
L 206.133368 114.442105 
L 206.958994 114.063158 
L 207.521589 113.684211 
L 208.215593 113.305263 
L 208.421566 112.926316 
L 208.783408 112.926316 
L 209.281202 112.547368 
L 210.301979 113.684211 
L 210.979719 113.684211 
L 211.976281 113.684211 
L 212.137951 113.684211 
L 212.909454 113.684211 
L 213.196254 113.684211 
L 213.844048 113.684211 
L 214.444202 113.305263 
L 214.662213 113.305263 
L 214.735537 113.305263 
L 215.081512 113.305263 
L 215.171146 113.305263 
L 215.392504 113.305263 
L 215.533127 113.305263 
L 215.889302 113.305263 
L 216.440209 113.305263 
L 216.798747 113.684211 
L 217.080273 114.821053 
L 217.278439 115.2 
L 218.182744 117.473684 
L 218.488625 117.473684 
L 218.773167 117.473684 
L 219.491165 117.473684 
L 220.744399 117.473684 
L 221.823299 117.473684 
L 222.837679 117.094737 
L 224.495674 115.578947 
L 225.880449 114.442105 
L 228.3538 112.168421 
L 230.545657 109.894737 
L 231.864173 107.242105 
L 231.961205 107.242105 
L 232.285045 106.863158 
L 232.625985 106.105263 
L 233.004791 105.726316 
L 233.364596 105.347368 
L 234.117503 104.210526 
L 234.696393 103.073684 
L 235.399979 102.315789 
L 235.926839 101.557895 
L 236.501959 101.178947 
L 237.234092 100.421053 
L 237.794113 99.663158 
L 238.742546 98.905263 
L 239.462085 97.768421 
L 239.916815 97.010526 
L 240.079372 96.631579 
L 240.439816 96.631579 
L 241.019423 97.010526 
L 241.252652 97.010526 
L 241.766668 97.389474 
L 242.169536 97.768421 
L 242.604831 97.768421 
L 243.360174 98.147368 
L 244.078637 98.526316 
L 244.973326 97.010526 
L 245.349595 96.252632 
L 245.571451 96.631579 
L 245.881338 96.631579 
L 246.652797 97.010526 
L 247.111579 97.389474 
L 247.344265 98.526316 
L 247.584138 100.042105 
L 250.029624 106.484211 
L 250.872699 108 
L 251.075693 108.378947 
L 251.477835 108.757895 
L 252.13378 109.894737 
L 252.718797 110.273684 
L 254.368108 111.031579 
L 255.476322 111.410526 
L 259.111137 112.926316 
L 260.066699 113.684211 
L 262.203805 114.821053 
L 264.093509 116.336842 
L 265.091498 117.094737 
L 266.16522 118.610526 
L 267.717338 121.642105 
L 269.807581 122.4 
L 270.748927 122.778947 
L 271.747766 123.536842 
L 272.958699 123.915789 
L 273.832549 124.294737 
L 274.687696 124.673684 
L 275.493648 125.431579 
L 276.017669 126.189474 
L 276.642095 127.326316 
L 277.29845 128.084211 
L 277.924262 129.221053 
L 279.425652 131.115789 
L 280.418578 132.631579 
L 281.09536 133.389474 
L 281.998316 134.147368 
L 283.131198 134.905263 
L 283.747878 135.663158 
L 284.912359 136.8 
L 285.723733 137.557895 
L 286.65742 138.694737 
L 287.381895 139.831579 
L 287.982702 140.589474 
L 288.380654 140.968421 
L 289.033242 142.105263 
L 289.343042 142.484211 
L 289.558213 142.863158 
L 290.623574 142.863158 
L 291.693018 143.242105 
L 292.41646 143.621053 
L 293.166139 143.621053 
L 293.464392 143.621053 
L 294.52462 144 
L 295.017909 144 
L 295.340479 144 
L 296.119226 144 
L 296.504028 144 
L 296.528046 144 
L 296.784471 144 
L 296.986816 144 
L 297.774481 144 
L 298.36583 143.242105 
L 298.869644 141.726316 
L 299.607218 139.452632 
L 300.195979 138.315789 
L 300.759973 136.8 
L 301.739327 134.905263 
L 302.692485 133.010526 
L 302.878086 132.631579 
L 303.392273 131.873684 
L 303.964761 130.736842 
L 304.406063 129.978947 
L 304.69466 129.6 
L 304.88534 129.221053 
L 305.111559 128.842105 
L 305.317538 128.463158 
L 305.441608 128.463158 
L 305.682137 127.705263 
L 305.86119 127.326316 
L 305.987757 126.947368 
L 306.224789 126.568421 
L 306.54575 125.810526 
L 307.256064 123.536842 
L 307.436287 122.778947 
L 308.069371 120.126316 
L 308.829744 117.094737 
L 309.455565 115.957895 
L 309.527984 115.578947 
L 310.03742 114.442105 
L 310.192329 114.442105 
L 310.973395 112.547368 
L 311.985937 109.894737 
L 312.184712 109.136842 
L 312.676022 107.242105 
L 313.06252 105.347368 
L 314.10422 101.178947 
L 314.670579 99.663158 
L 315.31052 97.768421 
L 315.980452 96.252632 
L 316.610677 94.736842 
L 316.790899 94.357895 
L 317.222803 92.463158 
L 317.97031 89.431579 
L 318.75424 86.778947 
L 319.126412 85.642105 
L 319.570545 84.126316 
L 320.116238 82.989474 
L 320.528164 82.610526 
L 321.151771 81.852632 
L 321.546428 81.473684 
L 322.054528 81.094737 
L 322.568644 80.336842 
L 323.139356 79.957895 
L 323.687205 78.821053 
L 324.150321 78.063158 
L 324.611612 77.305263 
L 324.929181 76.926316 
L 325.463203 75.789474 
L 326.052563 75.789474 
L 326.334871 75.789474 
L 326.871569 75.789474 
L 327.103201 75.789474 
L 328.054964 75.789474 
L 328.474314 75.789474 
L 328.961579 75.789474 
L 329.443981 76.926316 
L 329.964271 78.821053 
L 330.288141 79.578947 
L 330.493119 79.578947 
L 330.907635 79.578947 
L 331.1442 79.578947 
L 331.600546 79.578947 
L 332.498811 79.2 
L 332.896398 78.821053 
L 333.09148 78.442105 
L 334.079066 77.684211 
L 334.668207 77.305263 
L 335.055963 76.926316 
L 335.385773 76.547368 
L 335.634701 76.547368 
L 336.022144 76.168421 
L 336.48676 75.789474 
L 337.074907 75.789474 
L 337.313863 75.789474 
L 337.56629 75.789474 
L 337.910037 75.789474 
L 338.113101 75.789474 
L 338.767413 75.789474 
L 339.089844 75.789474 
L 339.782075 75.789474 
L 340.331011 75.789474 
L 340.661413 75.789474 
L 340.858189 75.789474 
L 341.117804 75.789474 
L 341.531646 75.789474 
L 341.751555 75.789474 
L 342.098715 75.789474 
L 343.081847 75.789474 
L 343.427088 75.789474 
L 344.164052 75.789474 
L 344.404086 75.789474 
L 344.69751 75.789474 
L 344.981809 75.789474 
L 345.361147 75.789474 
L 345.915252 75.789474 
L 346.502258 75.789474 
L 346.777934 75.410526 
L 348.346422 73.515789 
L 348.71089 73.136842 
L 349.501985 72 
L 349.799711 72 
L 350.38215 71.621053 
L 350.599539 71.621053 
L 350.948018 71.242105 
L 351.729359 70.863158 
L 352.162685 70.863158 
L 352.317609 70.863158 
L 352.538234 70.484211 
L 353.0361 70.484211 
L 353.476978 70.105263 
L 354.273062 69.726316 
L 355.19525 69.347368 
L 355.251906 69.347368 
L 356.013085 68.968421 
L 356.520316 68.589474 
L 356.916676 68.589474 
L 357.255335 68.210526 
L 357.891725 67.452632 
L 358.394171 66.694737 
L 359.023264 65.557895 
L 359.4751 65.178947 
L 360.189863 64.421053 
L 360.585053 64.042105 
L 361.045123 64.042105 
L 361.425342 64.042105 
L 361.990567 63.663158 
L 362.483312 63.663158 
L 362.627197 63.663158 
L 363.92408 62.905263 
L 364.777645 62.905263 
L 365.21748 62.526316 
L 365.515747 62.526316 
L 365.893627 62.526316 
L 366.038524 62.526316 
L 366.257347 62.147368 
L 366.683558 62.147368 
L 367.261025 61.389474 
L 367.944153 61.010526 
L 368.324856 63.284211 
L 369.141659 62.905263 
L 369.836258 62.147368 
L 370.078069 61.768421 
L 370.327008 61.010526 
L 370.666929 60.631579 
L 370.730997 60.631579 
L 371.273304 60.631579 
L 371.995517 59.115789 
L 372.230313 58.736842 
L 372.437131 58.357895 
L 372.638042 57.978947 
L 372.638042 57.978947 
L 372.781286 57.978947 
L 373.014088 57.978947 
L 373.571694 58.736842 
L 373.793062 59.115789 
L 374.165068 59.873684 
L 374.281682 59.494737 
L 374.510632 59.494737 
L 375.192268 59.115789 
L 375.518133 59.115789 
L 377.856938 57.978947 
L 378.074192 57.978947 
L 380.155001 57.221053 
L 381.628124 56.842105 
L 382.666029 56.842105 
L 383.482233 56.084211 
L 383.924968 55.705263 
L 384.660822 55.326316 
L 384.997133 54.947368 
L 385.33423 54.947368 
L 386.318596 54.947368 
L 386.961449 54.947368 
L 388.065733 54.947368 
L 389.358594 54.947368 
L 390.301947 55.326316 
L 392.229186 56.084211 
L 392.726521 56.084211 
L 393.194548 56.463158 
L 393.511581 56.463158 
L 393.611087 56.463158 
L 393.923846 56.842105 
L 394.512192 56.842105 
L 395.000425 56.842105 
L 395.514942 56.842105 
L 396.557213 56.842105 
L 396.806503 56.842105 
L 397.480451 56.842105 
L 398.011031 56.842105 
L 398.576185 56.842105 
L 398.965271 56.842105 
L 399.257368 56.842105 
L 399.998273 56.842105 
L 400.690474 56.842105 
L 401.133209 56.842105 
L 401.531098 56.842105 
L 401.819607 56.842105 
L 402.138914 56.842105 
L 402.75163 56.842105 
L 403.186109 56.842105 
L 403.878215 56.842105 
L 404.34607 56.842105 
L 404.976516 56.463158 
L 405.268389 56.084211 
L 405.829545 55.705263 
L 406.76368 55.326316 
L 407.526126 54.568421 
L 407.929049 54.568421 
L 408.980792 53.810526 
L 409.500063 53.431579 
L 409.597104 53.431579 
L 410.200063 53.052632 
L 410.622232 52.673684 
L 411.252678 52.294737 
L 411.900093 51.536842 
L 412.381038 51.157895 
L 412.676198 51.157895 
L 413.015716 50.778947 
L 413.267496 50.4 
L 413.830116 50.021053 
L 414.479048 49.642105 
L 414.975364 49.263158 
L 415.416651 49.263158 
L 416.09961 49.263158 
L 416.814884 49.263158 
L 417.391705 49.263158 
L 417.759425 49.263158 
L 418.379293 50.021053 
L 418.839352 50.4 
L 419.264141 50.778947 
L 419.743943 51.157895 
L 420.340604 51.915789 
L 420.865747 52.294737 
L 421.138453 52.673684 
L 421.425033 53.052632 
L 421.69256 53.431579 
L 422.068351 54.189474 
L 423.187522 56.084211 
L 423.543832 56.842105 
L 424.16765 57.6 
L 425.082804 58.357895 
L 425.381164 58.736842 
L 425.896189 59.115789 
L 426.397314 59.873684 
L 427.014277 60.631579 
L 428.059151 61.768421 
L 428.224784 62.147368 
L 428.7248 62.905263 
L 429.018694 63.284211 
L 429.745301 64.042105 
L 430.568731 65.178947 
L 431.04523 65.936842 
L 431.582154 66.694737 
L 431.878943 67.073684 
L 432.313442 67.831579 
L 432.874547 68.210526 
L 433.287318 68.589474 
L 434.20405 69.347368 
L 435.01729 70.105263 
L 436.04913 70.863158 
L 437.019034 71.621053 
L 437.906424 72.757895 
L 438.404616 73.515789 
L 439.24092 74.652632 
L 439.59191 75.410526 
L 440.206187 75.789474 
L 441.059227 76.168421 
L 441.927627 76.926316 
L 442.242052 77.305263 
L 443.381257 78.063158 
L 443.926284 78.442105 
L 445.670749 79.578947 
L 446.249518 79.578947 
L 448.095985 79.578947 
L 448.659746 79.578947 
L 448.880334 79.578947 
L 449.866049 79.578947 
L 450.163892 79.578947 
L 450.63178 79.578947 
L 450.924782 79.578947 
L 451.37768 81.852632 
L 452.464955 82.989474 
L 453.125791 84.505263 
L 453.640402 83.368421 
L 453.820624 83.368421 
L 453.999496 83.368421 
L 454.16436 83.368421 
L 454.584737 83.368421 
L 454.7215 83.747368 
L 454.883961 84.126316 
L 455.248546 85.263158 
L 455.490569 86.4 
L 455.925098 87.536842 
L 456.231114 88.673684 
L 456.62598 89.810526 
L 456.909051 90.568421 
L 457.476413 91.705263 
L 457.943691 92.084211 
L 458.459509 92.842105 
L 459.355542 93.978947 
L 460.080165 94.736842 
L 460.591587 96.252632 
L 461.09698 97.768421 
L 461.600939 99.663158 
L 461.857987 100.421053 
L 462.222459 101.557895 
L 462.690504 102.694737 
L 463.000073 103.073684 
L 463.370805 103.452632 
L 463.404826 103.452632 
L 463.730851 103.831579 
L 464.061279 104.210526 
L 464.35355 104.589474 
L 464.737972 104.968421 
L 465.143752 105.347368 
L 465.598127 105.726316 
L 465.770576 106.105263 
L 466.059349 106.863158 
L 466.455092 107.621053 
L 466.741708 108.378947 
L 466.976585 109.136842 
L 467.251901 109.894737 
L 467.52632 111.031579 
L 467.810074 112.168421 
L 467.939202 112.168421 
L 468.031095 112.547368 
L 468.157086 112.547368 
L 468.312494 112.547368 
L 468.599271 112.926316 
L 469.5373 114.063158 
L 469.700178 114.063158 
L 469.867856 114.442105 
L 470.108397 114.821053 
L 470.490255 115.2 
L 471.152792 116.336842 
L 471.860472 117.473684 
L 472.015932 117.473684 
L 472.201974 118.231579 
L 472.905466 120.126316 
L 473.400896 121.263158 
L 473.717139 121.642105 
L 474.001452 122.021053 
L 474.290898 122.021053 
L 474.534418 122.4 
L 474.776207 122.4 
L 475.705233 123.157895 
L 476.052214 123.536842 
L 476.331983 123.915789 
L 476.662267 123.915789 
L 476.757636 124.294737 
L 477.556335 124.673684 
L 477.896234 125.431579 
L 478.396312 126.568421 
L 478.740265 127.326316 
L 479.152752 128.463158 
L 479.628872 129.221053 
L 480.18 129.978947 
L 480.384436 130.357895 
L 480.616761 130.357895 
L 480.65907 130.357895 
L 481.074729 131.115789 
L 481.488996 131.494737 
L 482.551002 132.631579 
L 482.613408 132.631579 
L 482.814395 132.631579 
L 482.917175 132.631579 
L 483.08128 132.631579 
L 483.76378 132.631579 
L 484.519745 132.252632 
L 484.939172 131.873684 
L 485.290773 131.873684 
L 486.512891 130.736842 
L 486.958017 130.736842 
L 488.015663 129.978947 
L 489.277423 128.842105 
L 489.461323 128.842105 
L 490.007968 128.842105 
L 490.852117 128.842105 
L 492.151254 128.842105 
L 493.091587 128.842105 
L 493.333621 128.842105 
L 493.500069 128.842105 
L 494.734117 127.326316 
L 496.686389 124.294737 
L 497.296238 123.536842 
L 497.88298 122.778947 
L 498.189748 122.4 
L 498.661522 121.642105 
L 499.115138 121.263158 
L 500.094309 120.126316 
L 501.005459 119.368421 
L 501.493008 118.989474 
L 503.753165 117.094737 
L 504.465591 116.336842 
L 504.966272 115.957895 
L 505.722693 115.2 
L 507.741328 112.926316 
L 508.009647 112.547368 
L 509.060083 111.410526 
L 509.661233 110.652632 
L 510.044062 110.273684 
L 510.332812 109.894737 
L 510.520034 109.894737 
L 510.715192 109.515789 
L 511.058401 108.757895 
L 511.403695 108 
L 511.949981 106.863158 
L 512.581346 105.347368 
L 513.03277 103.831579 
L 513.394918 102.315789 
L 513.742241 101.557895 
L 514.008725 101.178947 
L 514.266291 100.421053 
L 514.839452 99.663158 
L 514.953717 99.284211 
L 515.028116 99.284211 
L 515.101907 98.905263 
L 515.173466 98.905263 
L 515.505754 98.526316 
L 515.993961 97.768421 
L 516.486771 97.389474 
L 516.856581 97.010526 
L 517.07433 97.010526 
L 517.277896 96.631579 
L 517.413677 96.631579 
L 517.847179 96.252632 
L 518.081102 95.873684 
L 518.370548 95.873684 
L 518.716684 95.494737 
L 519.287354 95.115789 
L 519.502031 94.736842 
L 519.730988 93.978947 
L 519.954916 93.6 
L 520.272918 92.463158 
L 520.443087 92.084211 
L 520.631236 91.326316 
L 521.259621 90.947368 
L 521.784523 90.947368 
L 522.235363 90.947368 
L 522.744052 90.947368 
L 523.12093 90.947368 
L 523.700545 90.947368 
L 524.296672 90.947368 
L 524.580984 90.947368 
L 524.875664 90.947368 
L 525.333828 90.947368 
L 525.433082 90.947368 
L 525.55916 90.947368 
L 525.740225 90.568421 
L 526.010596 90.189474 
L 526.262753 89.431579 
L 526.38983 89.431579 
L 526.484386 89.052632 
L 526.663493 88.673684 
L 526.912455 88.294737 
L 527.15701 87.536842 
L 527.425164 87.157895 
L 527.690095 86.778947 
L 527.830499 86.4 
L 528.011957 86.021053 
L 528.214808 85.642105 
L 528.411627 85.263158 
L 528.868095 84.505263 
L 529.512819 83.368421 
L 529.981358 82.610526 
L 530.962664 81.473684 
L 531.958713 79.957895 
L 532.302764 79.578947 
L 532.865912 79.578947 
L 533.834475 79.2 
L 533.989449 79.2 
L 534.152119 78.821053 
L 534.402131 78.821053 
L 534.499176 78.821053 
L 534.613655 78.821053 
L 535.034371 76.926316 
L 535.147686 76.547368 
L 535.276466 73.894737 
L 535.983432 74.652632 
L 536.417468 75.031579 
L 536.862302 75.410526 
L 537.159246 78.063158 
L 537.49638 78.063158 
L 538.287501 77.305263 
L 538.747156 77.684211 
L 538.966153 77.684211 
L 538.966153 77.305263 
L 538.966153 77.305263 
L 539.366855 77.305263 
L 539.843413 77.305263 
L 540.259688 76.926316 
L 540.369341 77.684211 
L 541.413551 78.063158 
L 541.721065 76.547368 
L 542.028348 74.652632 
L 542.678276 75.410526 
L 543.216292 75.789474 
L 543.96776 76.926316 
L 544.654387 78.821053 
L 545.177743 80.715789 
L 545.361467 81.473684 
L 546.108633 83.747368 
L 546.723706 84.505263 
L 547.592169 85.642105 
L 548.674168 86.778947 
L 549.630171 87.157895 
L 550.193076 87.157895 
L 550.759684 87.157895 
L 551.971274 86.778947 
L 552.55011 86.021053 
L 553.211005 85.642105 
L 553.847475 85.263158 
L 553.871502 85.263158 
L 554.076 84.884211 
L 554.178977 84.884211 
L 554.864892 84.505263 
L 555.402951 84.126316 
L 556.308981 83.368421 
L 558.41053 75.789474 
L 560.021151 75.789474 
L 560.383595 75.789474 
L 560.873928 74.273684 
L 560.939479 73.894737 
L 561.133182 73.136842 
L 561.649976 71.242105 
L 562.102304 69.347368 
L 562.600478 67.831579 
L 562.79457 67.452632 
L 563.412386 66.315789 
L 564.470415 64.421053 
L 564.783604 63.663158 
L 565.758078 61.010526 
L 566.371935 59.115789 
L 566.695521 58.357895 
L 566.878921 57.6 
L 567.621462 56.842105 
L 568.527379 56.842105 
L 569.104496 56.842105 
L 570.25102 56.842105 
L 570.557364 56.842105 
L 571.139862 56.842105 
L 571.835661 56.842105 
L 572.840441 56.842105 
L 573.410111 56.842105 
L 573.668671 56.842105 
L 574.271343 56.842105 
L 575.1654 56.842105 
L 575.496671 56.842105 
L 575.947093 56.463158 
L 576.598372 55.326316 
L 577.332784 54.189474 
L 578.090355 53.052632 
L 578.766712 53.052632 
L 579.617164 53.052632 
L 579.816944 53.052632 
L 580.215011 53.052632 
L 580.668562 53.052632 
L 581.161369 53.052632 
L 581.238947 53.052632 
L 581.51791 53.052632 
L 582.132296 53.052632 
L 582.518851 53.052632 
L 583.423567 53.052632 
L 584.113161 53.052632 
L 584.728153 53.052632 
L 585.295106 53.052632 
L 585.498915 53.052632 
L 585.859729 53.052632 
L 586.331648 53.052632 
L 586.681051 53.052632 
L 586.86612 53.052632 
L 587.174551 53.052632 
L 587.924773 53.052632 
L 588.200435 53.052632 
L 588.775904 53.052632 
L 589.780377 53.052632 
L 590.772963 51.915789 
L 591.78252 50.778947 
L 592.756899 49.642105 
L 593.066215 49.263158 
L 593.511056 48.884211 
L 594.46806 48.126316 
L 594.90343 48.126316 
L 595.120757 48.126316 
L 595.376114 48.126316 
L 595.837521 48.505263 
L 596.098436 48.505263 
L 596.668389 48.884211 
L 597.11371 49.263158 
L 597.761929 49.642105 
L 598.070376 49.642105 
L 598.470968 49.642105 
L 598.923498 50.021053 
L 599.39006 50.021053 
L 599.648631 50.4 
L 600.12306 50.4 
L 600.607189 50.778947 
L 600.942381 50.778947 
L 601.257595 50.778947 
L 601.562914 51.157895 
L 602.157679 51.157895 
L 602.552988 51.536842 
L 602.990636 51.536842 
L 603.265437 51.536842 
L 603.786467 51.915789 
L 604.229094 52.294737 
L 604.688112 52.294737 
L 604.934128 52.294737 
L 605.327511 52.673684 
L 605.487749 52.673684 
L 605.885223 52.673684 
L 606.470225 53.052632 
L 606.702269 53.052632 
L 606.991847 53.052632 
L 607.207455 53.052632 
L 607.362187 53.052632 
L 607.81847 53.052632 
L 608.266737 53.052632 
L 608.69874 53.052632 
L 608.842987 53.052632 
L 609.339897 52.673684 
L 609.835808 52.673684 
L 610.323439 52.673684 
L 611.281027 52.294737 
L 611.614888 52.294737 
L 612.116027 51.915789 
L 612.612938 51.915789 
L 613.298854 51.536842 
L 613.514122 51.157895 
L 613.986743 50.778947 
L 614.383241 50.4 
L 614.91893 50.021053 
L 615.227008 49.642105 
L 615.315094 49.263158 
L 615.607412 49.263158 
L 615.788539 48.884211 
L 616.077971 48.884211 
L 616.392898 48.505263 
L 616.66467 48.505263 
L 616.85692 48.126316 
L 617.340008 47.747368 
L 617.562993 47.747368 
L 617.795264 47.747368 
L 618.004314 47.368421 
L 618.462121 46.989474 
L 618.684735 46.989474 
L 619.033111 46.610526 
L 619.247915 46.610526 
L 619.478401 46.231579 
L 619.939136 45.852632 
L 620.374508 45.852632 
L 620.663196 45.473684 
L 621.02409 45.094737 
L 621.336244 45.094737 
L 621.480156 44.715789 
L 621.960877 44.336842 
L 622.208113 44.336842 
L 622.387254 43.957895 
L 622.727398 43.957895 
L 623.070947 43.578947 
L 623.498357 43.2 
L 624.03976 42.821053 
L 624.467573 42.442105 
L 624.738731 42.063158 
L 625.079665 42.063158 
L 625.490257 41.684211 
L 625.870779 41.684211 
L 626.338655 41.684211 
L 626.737235 41.684211 
L 627.568809 41.684211 
L 627.918554 41.684211 
L 628.121454 41.684211 
L 628.543979 41.684211 
L 629.089034 41.684211 
L 629.540178 41.305263 
L 630.287563 40.926316 
L 630.98205 40.547368 
L 632.663695 39.789474 
L 633.869347 39.031579 
L 634.333687 38.652632 
L 635.986909 37.894737 
L 636.81579 37.136842 
L 637.558547 36.757895 
L 638.436995 36 
L 638.768241 35.621053 
L 640.219805 34.484211 
L 640.546537 34.484211 
L 642.055064 32.968421 
L 643.319075 32.210526 
L 643.895035 31.452632 
L 644.593325 31.073684 
L 645.642344 30.315789 
L 647.136206 29.557895 
L 648.171784 28.8 
L 649.806833 28.042105 
L 650.551103 27.284211 
L 650.85747 27.284211 
L 651.127459 26.526316 
L 651.456444 26.147368 
L 653.020652 24.631579 
L 653.977169 23.494737 
L 655.042821 22.357895 
L 655.653001 21.221053 
L 656.137342 20.463158 
L 656.480953 20.084211 
L 656.934558 19.326316 
L 657.638975 18.568421 
L 658.303867 17.810526 
L 659.044911 17.052632 
L 659.59324 16.673684 
L 660.504566 15.536842 
L 660.951009 14.778947 
L 661.24214 14.4 
L 661.780457 13.642105 
L 662.93346 12.126316 
L 663.652504 11.368421 
L 664.213015 10.989474 
L 664.645757 10.610526 
L 665.280184 10.610526 
L 665.999926 10.231579 
L 666.581493 9.852632 
L 666.971597 9.473684 
L 667.424469 9.473684 
L 667.990026 9.094737 
L 668.745077 8.715789 
L 669.437102 8.336842 
L 670.300709 7.957895 
L 670.785967 7.578947 
L 671.840096 7.578947 
L 672.307978 7.578947 
L 672.863165 7.578947 
L 673.484224 7.578947 
L 674.280861 7.578947 
L 674.370547 7.578947 
L 674.933773 7.578947 
L 675.459024 7.578947 
L 676.093377 7.578947 
L 676.753334 7.578947 
L 677.283653 7.578947 
L 678.107845 7.578947 
L 678.343271 7.578947 
L 679.140686 7.578947 
L 679.636466 7.578947 
L 679.920548 7.578947 
L 680.552384 7.578947 
L 680.935217 7.578947 
L 681.192292 7.578947 
L 681.959015 7.578947 
L 682.467541 7.578947 
L 683.645766 7.578947 
L 683.966261 7.578947 
L 685.07863 7.578947 
L 685.465165 7.578947 
L 685.892842 7.578947 
L 686.217742 7.578947 
L 687.01113 7.578947 
L 687.183677 7.578947 
L 687.757261 7.578947 
L 689.035935 7.578947 
L 689.863739 7.578947 
L 690.185717 7.578947 
L 690.821376 7.578947 
L 691.614028 7.578947 
L 692.292947 6.821053 
L 692.793859 6.442105 
L 693.411486 6.063158 
L 694.098142 5.305263 
L 694.588323 4.926316 
L 695.202758 4.547368 
L 696.709641 2.273684 
L 697.630877 0.378947 
L 698.961339 0 
L 699.504703 0 
L 699.775636 0 
L 700.457722 0 
L 701.647254 0 
L 702.424545 0.378947 
L 702.951429 2.273684 
L 703.365273 3.789474 
L 704.075584 4.547368 
L 704.532191 5.305263 
L 705.77384 6.821053 
L 706.527208 7.578947 
L 706.729611 7.578947 
L 706.899459 7.578947 
L 710.271695 9.852632 
L 710.852311 10.989474 
L 711.918738 11.368421 
L 712.757776 11.747368 
L 712.956551 11.747368 
L 713.802004 11.747368 
L 714.217202 12.126316 
L 714.379664 12.126316 
L 714.921531 12.126316 
L 714.955985 12.126316 
L 715.40654 12.505263 
L 715.569212 12.505263 
L 715.748597 12.884211 
L 715.839254 12.884211 
L 716.095501 12.884211 
L 716.880111 13.263158 
L 717.026989 13.263158 
L 717.74726 13.263158 
L 718.17259 12.505263 
L 718.374974 12.505263 
L 718.865313 11.368421 
L 719.043607 11.368421 
L 719.493794 10.610526 
L 719.693575 10.231579 
L 719.878625 10.231579 
L 720 9.852632 
L 720 144 
L 720 144 
L 719.878625 144 
L 719.693575 144 
L 719.493794 144 
L 719.043607 144 
L 718.865313 144 
L 718.374974 144 
L 718.17259 144 
L 717.74726 144 
L 717.026989 144 
L 716.880111 144 
L 716.095501 144 
L 715.839254 144 
L 715.748597 144 
L 715.569212 144 
L 715.40654 144 
L 714.955985 144 
L 714.921531 144 
L 714.379664 144 
L 714.217202 144 
L 713.802004 144 
L 712.956551 144 
L 712.757776 144 
L 711.918738 144 
L 710.852311 144 
L 710.271695 144 
L 706.899459 144 
L 706.729611 144 
L 706.527208 144 
L 705.77384 144 
L 704.532191 144 
L 704.075584 144 
L 703.365273 144 
L 702.951429 144 
L 702.424545 144 
L 701.647254 144 
L 700.457722 144 
L 699.775636 144 
L 699.504703 144 
L 698.961339 144 
L 697.630877 144 
L 696.709641 144 
L 695.202758 144 
L 694.588323 144 
L 694.098142 144 
L 693.411486 144 
L 692.793859 144 
L 692.292947 144 
L 691.614028 144 
L 690.821376 144 
L 690.185717 144 
L 689.863739 144 
L 689.035935 144 
L 687.757261 144 
L 687.183677 144 
L 687.01113 144 
L 686.217742 144 
L 685.892842 144 
L 685.465165 144 
L 685.07863 144 
L 683.966261 144 
L 683.645766 144 
L 682.467541 144 
L 681.959015 144 
L 681.192292 144 
L 680.935217 144 
L 680.552384 144 
L 679.920548 144 
L 679.636466 144 
L 679.140686 144 
L 678.343271 144 
L 678.107845 144 
L 677.283653 144 
L 676.753334 144 
L 676.093377 144 
L 675.459024 144 
L 674.933773 144 
L 674.370547 144 
L 674.280861 144 
L 673.484224 144 
L 672.863165 144 
L 672.307978 144 
L 671.840096 144 
L 670.785967 144 
L 670.300709 144 
L 669.437102 144 
L 668.745077 144 
L 667.990026 144 
L 667.424469 144 
L 666.971597 144 
L 666.581493 144 
L 665.999926 144 
L 665.280184 144 
L 664.645757 144 
L 664.213015 144 
L 663.652504 144 
L 662.93346 144 
L 661.780457 144 
L 661.24214 144 
L 660.951009 144 
L 660.504566 144 
L 659.59324 144 
L 659.044911 144 
L 658.303867 144 
L 657.638975 144 
L 656.934558 144 
L 656.480953 144 
L 656.137342 144 
L 655.653001 144 
L 655.042821 144 
L 653.977169 144 
L 653.020652 144 
L 651.456444 144 
L 651.127459 144 
L 650.85747 144 
L 650.551103 144 
L 649.806833 144 
L 648.171784 144 
L 647.136206 144 
L 645.642344 144 
L 644.593325 144 
L 643.895035 144 
L 643.319075 144 
L 642.055064 144 
L 640.546537 144 
L 640.219805 144 
L 638.768241 144 
L 638.436995 144 
L 637.558547 144 
L 636.81579 144 
L 635.986909 144 
L 634.333687 144 
L 633.869347 144 
L 632.663695 144 
L 630.98205 144 
L 630.287563 144 
L 629.540178 144 
L 629.089034 144 
L 628.543979 144 
L 628.121454 144 
L 627.918554 144 
L 627.568809 144 
L 626.737235 144 
L 626.338655 144 
L 625.870779 144 
L 625.490257 144 
L 625.079665 144 
L 624.738731 144 
L 624.467573 144 
L 624.03976 144 
L 623.498357 144 
L 623.070947 144 
L 622.727398 144 
L 622.387254 144 
L 622.208113 144 
L 621.960877 144 
L 621.480156 144 
L 621.336244 144 
L 621.02409 144 
L 620.663196 144 
L 620.374508 144 
L 619.939136 144 
L 619.478401 144 
L 619.247915 144 
L 619.033111 144 
L 618.684735 144 
L 618.462121 144 
L 618.004314 144 
L 617.795264 144 
L 617.562993 144 
L 617.340008 144 
L 616.85692 144 
L 616.66467 144 
L 616.392898 144 
L 616.077971 144 
L 615.788539 144 
L 615.607412 144 
L 615.315094 144 
L 615.227008 144 
L 614.91893 144 
L 614.383241 144 
L 613.986743 144 
L 613.514122 144 
L 613.298854 144 
L 612.612938 144 
L 612.116027 144 
L 611.614888 144 
L 611.281027 144 
L 610.323439 144 
L 609.835808 144 
L 609.339897 144 
L 608.842987 144 
L 608.69874 144 
L 608.266737 144 
L 607.81847 144 
L 607.362187 144 
L 607.207455 144 
L 606.991847 144 
L 606.702269 144 
L 606.470225 144 
L 605.885223 144 
L 605.487749 144 
L 605.327511 144 
L 604.934128 144 
L 604.688112 144 
L 604.229094 144 
L 603.786467 144 
L 603.265437 144 
L 602.990636 144 
L 602.552988 144 
L 602.157679 144 
L 601.562914 144 
L 601.257595 144 
L 600.942381 144 
L 600.607189 144 
L 600.12306 144 
L 599.648631 144 
L 599.39006 144 
L 598.923498 144 
L 598.470968 144 
L 598.070376 144 
L 597.761929 144 
L 597.11371 144 
L 596.668389 144 
L 596.098436 144 
L 595.837521 144 
L 595.376114 144 
L 595.120757 144 
L 594.90343 144 
L 594.46806 144 
L 593.511056 144 
L 593.066215 144 
L 592.756899 144 
L 591.78252 144 
L 590.772963 144 
L 589.780377 144 
L 588.775904 144 
L 588.200435 144 
L 587.924773 144 
L 587.174551 144 
L 586.86612 144 
L 586.681051 144 
L 586.331648 144 
L 585.859729 144 
L 585.498915 144 
L 585.295106 144 
L 584.728153 144 
L 584.113161 144 
L 583.423567 144 
L 582.518851 144 
L 582.132296 144 
L 581.51791 144 
L 581.238947 144 
L 581.161369 144 
L 580.668562 144 
L 580.215011 144 
L 579.816944 144 
L 579.617164 144 
L 578.766712 144 
L 578.090355 144 
L 577.332784 144 
L 576.598372 144 
L 575.947093 144 
L 575.496671 144 
L 575.1654 144 
L 574.271343 144 
L 573.668671 144 
L 573.410111 144 
L 572.840441 144 
L 571.835661 144 
L 571.139862 144 
L 570.557364 144 
L 570.25102 144 
L 569.104496 144 
L 568.527379 144 
L 567.621462 144 
L 566.878921 144 
L 566.695521 144 
L 566.371935 144 
L 565.758078 144 
L 564.783604 144 
L 564.470415 144 
L 563.412386 144 
L 562.79457 144 
L 562.600478 144 
L 562.102304 144 
L 561.649976 144 
L 561.133182 144 
L 560.939479 144 
L 560.873928 144 
L 560.383595 144 
L 560.021151 144 
L 558.41053 144 
L 556.308981 144 
L 555.402951 144 
L 554.864892 144 
L 554.178977 144 
L 554.076 144 
L 553.871502 144 
L 553.847475 144 
L 553.211005 144 
L 552.55011 144 
L 551.971274 144 
L 550.759684 144 
L 550.193076 144 
L 549.630171 144 
L 548.674168 144 
L 547.592169 144 
L 546.723706 144 
L 546.108633 144 
L 545.361467 144 
L 545.177743 144 
L 544.654387 144 
L 543.96776 144 
L 543.216292 144 
L 542.678276 144 
L 542.028348 144 
L 541.721065 144 
L 541.413551 144 
L 540.369341 144 
L 540.259688 144 
L 539.843413 144 
L 539.366855 144 
L 538.966153 144 
L 538.966153 144 
L 538.966153 144 
L 538.747156 144 
L 538.287501 144 
L 537.49638 144 
L 537.159246 144 
L 536.862302 144 
L 536.417468 144 
L 535.983432 144 
L 535.276466 144 
L 535.147686 144 
L 535.034371 144 
L 534.613655 144 
L 534.499176 144 
L 534.402131 144 
L 534.152119 144 
L 533.989449 144 
L 533.834475 144 
L 532.865912 144 
L 532.302764 144 
L 531.958713 144 
L 530.962664 144 
L 529.981358 144 
L 529.512819 144 
L 528.868095 144 
L 528.411627 144 
L 528.214808 144 
L 528.011957 144 
L 527.830499 144 
L 527.690095 144 
L 527.425164 144 
L 527.15701 144 
L 526.912455 144 
L 526.663493 144 
L 526.484386 144 
L 526.38983 144 
L 526.262753 144 
L 526.010596 144 
L 525.740225 144 
L 525.55916 144 
L 525.433082 144 
L 525.333828 144 
L 524.875664 144 
L 524.580984 144 
L 524.296672 144 
L 523.700545 144 
L 523.12093 144 
L 522.744052 144 
L 522.235363 144 
L 521.784523 144 
L 521.259621 144 
L 520.631236 144 
L 520.443087 144 
L 520.272918 144 
L 519.954916 144 
L 519.730988 144 
L 519.502031 144 
L 519.287354 144 
L 518.716684 144 
L 518.370548 144 
L 518.081102 144 
L 517.847179 144 
L 517.413677 144 
L 517.277896 144 
L 517.07433 144 
L 516.856581 144 
L 516.486771 144 
L 515.993961 144 
L 515.505754 144 
L 515.173466 144 
L 515.101907 144 
L 515.028116 144 
L 514.953717 144 
L 514.839452 144 
L 514.266291 144 
L 514.008725 144 
L 513.742241 144 
L 513.394918 144 
L 513.03277 144 
L 512.581346 144 
L 511.949981 144 
L 511.403695 144 
L 511.058401 144 
L 510.715192 144 
L 510.520034 144 
L 510.332812 144 
L 510.044062 144 
L 509.661233 144 
L 509.060083 144 
L 508.009647 144 
L 507.741328 144 
L 505.722693 144 
L 504.966272 144 
L 504.465591 144 
L 503.753165 144 
L 501.493008 144 
L 501.005459 144 
L 500.094309 144 
L 499.115138 144 
L 498.661522 144 
L 498.189748 144 
L 497.88298 144 
L 497.296238 144 
L 496.686389 144 
L 494.734117 144 
L 493.500069 144 
L 493.333621 144 
L 493.091587 144 
L 492.151254 144 
L 490.852117 144 
L 490.007968 144 
L 489.461323 144 
L 489.277423 144 
L 488.015663 144 
L 486.958017 144 
L 486.512891 144 
L 485.290773 144 
L 484.939172 144 
L 484.519745 144 
L 483.76378 144 
L 483.08128 144 
L 482.917175 144 
L 482.814395 144 
L 482.613408 144 
L 482.551002 144 
L 481.488996 144 
L 481.074729 144 
L 480.65907 144 
L 480.616761 144 
L 480.384436 144 
L 480.18 144 
L 479.628872 144 
L 479.152752 144 
L 478.740265 144 
L 478.396312 144 
L 477.896234 144 
L 477.556335 144 
L 476.757636 144 
L 476.662267 144 
L 476.331983 144 
L 476.052214 144 
L 475.705233 144 
L 474.776207 144 
L 474.534418 144 
L 474.290898 144 
L 474.001452 144 
L 473.717139 144 
L 473.400896 144 
L 472.905466 144 
L 472.201974 144 
L 472.015932 144 
L 471.860472 144 
L 471.152792 144 
L 470.490255 144 
L 470.108397 144 
L 469.867856 144 
L 469.700178 144 
L 469.5373 144 
L 468.599271 144 
L 468.312494 144 
L 468.157086 144 
L 468.031095 144 
L 467.939202 144 
L 467.810074 144 
L 467.52632 144 
L 467.251901 144 
L 466.976585 144 
L 466.741708 144 
L 466.455092 144 
L 466.059349 144 
L 465.770576 144 
L 465.598127 144 
L 465.143752 144 
L 464.737972 144 
L 464.35355 144 
L 464.061279 144 
L 463.730851 144 
L 463.404826 144 
L 463.370805 144 
L 463.000073 144 
L 462.690504 144 
L 462.222459 144 
L 461.857987 144 
L 461.600939 144 
L 461.09698 144 
L 460.591587 144 
L 460.080165 144 
L 459.355542 144 
L 458.459509 144 
L 457.943691 144 
L 457.476413 144 
L 456.909051 144 
L 456.62598 144 
L 456.231114 144 
L 455.925098 144 
L 455.490569 144 
L 455.248546 144 
L 454.883961 144 
L 454.7215 144 
L 454.584737 144 
L 454.16436 144 
L 453.999496 144 
L 453.820624 144 
L 453.640402 144 
L 453.125791 144 
L 452.464955 144 
L 451.37768 144 
L 450.924782 144 
L 450.63178 144 
L 450.163892 144 
L 449.866049 144 
L 448.880334 144 
L 448.659746 144 
L 448.095985 144 
L 446.249518 144 
L 445.670749 144 
L 443.926284 144 
L 443.381257 144 
L 442.242052 144 
L 441.927627 144 
L 441.059227 144 
L 440.206187 144 
L 439.59191 144 
L 439.24092 144 
L 438.404616 144 
L 437.906424 144 
L 437.019034 144 
L 436.04913 144 
L 435.01729 144 
L 434.20405 144 
L 433.287318 144 
L 432.874547 144 
L 432.313442 144 
L 431.878943 144 
L 431.582154 144 
L 431.04523 144 
L 430.568731 144 
L 429.745301 144 
L 429.018694 144 
L 428.7248 144 
L 428.224784 144 
L 428.059151 144 
L 427.014277 144 
L 426.397314 144 
L 425.896189 144 
L 425.381164 144 
L 425.082804 144 
L 424.16765 144 
L 423.543832 144 
L 423.187522 144 
L 422.068351 144 
L 421.69256 144 
L 421.425033 144 
L 421.138453 144 
L 420.865747 144 
L 420.340604 144 
L 419.743943 144 
L 419.264141 144 
L 418.839352 144 
L 418.379293 144 
L 417.759425 144 
L 417.391705 144 
L 416.814884 144 
L 416.09961 144 
L 415.416651 144 
L 414.975364 144 
L 414.479048 144 
L 413.830116 144 
L 413.267496 144 
L 413.015716 144 
L 412.676198 144 
L 412.381038 144 
L 411.900093 144 
L 411.252678 144 
L 410.622232 144 
L 410.200063 144 
L 409.597104 144 
L 409.500063 144 
L 408.980792 144 
L 407.929049 144 
L 407.526126 144 
L 406.76368 144 
L 405.829545 144 
L 405.268389 144 
L 404.976516 144 
L 404.34607 144 
L 403.878215 144 
L 403.186109 144 
L 402.75163 144 
L 402.138914 144 
L 401.819607 144 
L 401.531098 144 
L 401.133209 144 
L 400.690474 144 
L 399.998273 144 
L 399.257368 144 
L 398.965271 144 
L 398.576185 144 
L 398.011031 144 
L 397.480451 144 
L 396.806503 144 
L 396.557213 144 
L 395.514942 144 
L 395.000425 144 
L 394.512192 144 
L 393.923846 144 
L 393.611087 144 
L 393.511581 144 
L 393.194548 144 
L 392.726521 144 
L 392.229186 144 
L 390.301947 144 
L 389.358594 144 
L 388.065733 144 
L 386.961449 144 
L 386.318596 144 
L 385.33423 144 
L 384.997133 144 
L 384.660822 144 
L 383.924968 144 
L 383.482233 144 
L 382.666029 144 
L 381.628124 144 
L 380.155001 144 
L 378.074192 144 
L 377.856938 144 
L 375.518133 144 
L 375.192268 144 
L 374.510632 144 
L 374.281682 144 
L 374.165068 144 
L 373.793062 144 
L 373.571694 144 
L 373.014088 144 
L 372.781286 144 
L 372.638042 144 
L 372.638042 144 
L 372.437131 144 
L 372.230313 144 
L 371.995517 144 
L 371.273304 144 
L 370.730997 144 
L 370.666929 144 
L 370.327008 144 
L 370.078069 144 
L 369.836258 144 
L 369.141659 144 
L 368.324856 144 
L 367.944153 144 
L 367.261025 144 
L 366.683558 144 
L 366.257347 144 
L 366.038524 144 
L 365.893627 144 
L 365.515747 144 
L 365.21748 144 
L 364.777645 144 
L 363.92408 144 
L 362.627197 144 
L 362.483312 144 
L 361.990567 144 
L 361.425342 144 
L 361.045123 144 
L 360.585053 144 
L 360.189863 144 
L 359.4751 144 
L 359.023264 144 
L 358.394171 144 
L 357.891725 144 
L 357.255335 144 
L 356.916676 144 
L 356.520316 144 
L 356.013085 144 
L 355.251906 144 
L 355.19525 144 
L 354.273062 144 
L 353.476978 144 
L 353.0361 144 
L 352.538234 144 
L 352.317609 144 
L 352.162685 144 
L 351.729359 144 
L 350.948018 144 
L 350.599539 144 
L 350.38215 144 
L 349.799711 144 
L 349.501985 144 
L 348.71089 144 
L 348.346422 144 
L 346.777934 144 
L 346.502258 144 
L 345.915252 144 
L 345.361147 144 
L 344.981809 144 
L 344.69751 144 
L 344.404086 144 
L 344.164052 144 
L 343.427088 144 
L 343.081847 144 
L 342.098715 144 
L 341.751555 144 
L 341.531646 144 
L 341.117804 144 
L 340.858189 144 
L 340.661413 144 
L 340.331011 144 
L 339.782075 144 
L 339.089844 144 
L 338.767413 144 
L 338.113101 144 
L 337.910037 144 
L 337.56629 144 
L 337.313863 144 
L 337.074907 144 
L 336.48676 144 
L 336.022144 144 
L 335.634701 144 
L 335.385773 144 
L 335.055963 144 
L 334.668207 144 
L 334.079066 144 
L 333.09148 144 
L 332.896398 144 
L 332.498811 144 
L 331.600546 144 
L 331.1442 144 
L 330.907635 144 
L 330.493119 144 
L 330.288141 144 
L 329.964271 144 
L 329.443981 144 
L 328.961579 144 
L 328.474314 144 
L 328.054964 144 
L 327.103201 144 
L 326.871569 144 
L 326.334871 144 
L 326.052563 144 
L 325.463203 144 
L 324.929181 144 
L 324.611612 144 
L 324.150321 144 
L 323.687205 144 
L 323.139356 144 
L 322.568644 144 
L 322.054528 144 
L 321.546428 144 
L 321.151771 144 
L 320.528164 144 
L 320.116238 144 
L 319.570545 144 
L 319.126412 144 
L 318.75424 144 
L 317.97031 144 
L 317.222803 144 
L 316.790899 144 
L 316.610677 144 
L 315.980452 144 
L 315.31052 144 
L 314.670579 144 
L 314.10422 144 
L 313.06252 144 
L 312.676022 144 
L 312.184712 144 
L 311.985937 144 
L 310.973395 144 
L 310.192329 144 
L 310.03742 144 
L 309.527984 144 
L 309.455565 144 
L 308.829744 144 
L 308.069371 144 
L 307.436287 144 
L 307.256064 144 
L 306.54575 144 
L 306.224789 144 
L 305.987757 144 
L 305.86119 144 
L 305.682137 144 
L 305.441608 144 
L 305.317538 144 
L 305.111559 144 
L 304.88534 144 
L 304.69466 144 
L 304.406063 144 
L 303.964761 144 
L 303.392273 144 
L 302.878086 144 
L 302.692485 144 
L 301.739327 144 
L 300.759973 144 
L 300.195979 144 
L 299.607218 144 
L 298.869644 144 
L 298.36583 144 
L 297.774481 144 
L 296.986816 144 
L 296.784471 144 
L 296.528046 144 
L 296.504028 144 
L 296.119226 144 
L 295.340479 144 
L 295.017909 144 
L 294.52462 144 
L 293.464392 144 
L 293.166139 144 
L 292.41646 144 
L 291.693018 144 
L 290.623574 144 
L 289.558213 144 
L 289.343042 144 
L 289.033242 144 
L 288.380654 144 
L 287.982702 144 
L 287.381895 144 
L 286.65742 144 
L 285.723733 144 
L 284.912359 144 
L 283.747878 144 
L 283.131198 144 
L 281.998316 144 
L 281.09536 144 
L 280.418578 144 
L 279.425652 144 
L 277.924262 144 
L 277.29845 144 
L 276.642095 144 
L 276.017669 144 
L 275.493648 144 
L 274.687696 144 
L 273.832549 144 
L 272.958699 144 
L 271.747766 144 
L 270.748927 144 
L 269.807581 144 
L 267.717338 144 
L 266.16522 144 
L 265.091498 144 
L 264.093509 144 
L 262.203805 144 
L 260.066699 144 
L 259.111137 144 
L 255.476322 144 
L 254.368108 144 
L 252.718797 144 
L 252.13378 144 
L 251.477835 144 
L 251.075693 144 
L 250.872699 144 
L 250.029624 144 
L 247.584138 144 
L 247.344265 144 
L 247.111579 144 
L 246.652797 144 
L 245.881338 144 
L 245.571451 144 
L 245.349595 144 
L 244.973326 144 
L 244.078637 144 
L 243.360174 144 
L 242.604831 144 
L 242.169536 144 
L 241.766668 144 
L 241.252652 144 
L 241.019423 144 
L 240.439816 144 
L 240.079372 144 
L 239.916815 144 
L 239.462085 144 
L 238.742546 144 
L 237.794113 144 
L 237.234092 144 
L 236.501959 144 
L 235.926839 144 
L 235.399979 144 
L 234.696393 144 
L 234.117503 144 
L 233.364596 144 
L 233.004791 144 
L 232.625985 144 
L 232.285045 144 
L 231.961205 144 
L 231.864173 144 
L 230.545657 144 
L 228.3538 144 
L 225.880449 144 
L 224.495674 144 
L 222.837679 144 
L 221.823299 144 
L 220.744399 144 
L 219.491165 144 
L 218.773167 144 
L 218.488625 144 
L 218.182744 144 
L 217.278439 144 
L 217.080273 144 
L 216.798747 144 
L 216.440209 144 
L 215.889302 144 
L 215.533127 144 
L 215.392504 144 
L 215.171146 144 
L 215.081512 144 
L 214.735537 144 
L 214.662213 144 
L 214.444202 144 
L 213.844048 144 
L 213.196254 144 
L 212.909454 144 
L 212.137951 144 
L 211.976281 144 
L 210.979719 144 
L 210.301979 144 
L 209.281202 144 
L 208.783408 144 
L 208.421566 144 
L 208.215593 144 
L 207.521589 144 
L 206.958994 144 
L 206.133368 144 
L 205.860292 144 
L 205.691807 144 
L 205.471839 144 
L 205.209975 144 
L 204.543331 144 
L 203.879693 144 
L 203.627684 144 
L 202.726346 144 
L 202.137173 144 
L 201.10962 144 
L 199.891306 144 
L 198.698076 144 
L 197.529041 144 
L 196.434043 144 
L 195.929198 144 
L 195.046352 144 
L 193.922814 144 
L 193.129746 144 
L 192.302937 144 
L 191.452728 144 
L 190.304293 144 
L 189.417977 144 
L 188.130464 144 
L 187.24295 144 
L 185.97767 144 
L 185.421054 144 
L 184.101013 144 
L 183.291427 144 
L 182.180101 144 
L 181.393642 144 
L 180.630488 144 
L 179.683389 144 
L 178.455975 144 
L 177.29986 144 
L 176.019459 144 
L 175.499684 144 
L 174.294108 144 
L 173.848766 144 
L 173.024754 144 
L 172.227343 144 
L 171.631739 144 
L 170.69224 144 
L 170.232133 144 
L 169.410721 144 
L 169.075704 144 
L 167.431171 144 
L 166.315741 144 
L 165.749052 144 
L 164.870861 144 
L 163.793804 144 
L 162.592668 144 
L 161.304865 144 
L 160.324043 144 
L 158.669036 144 
L 156.241217 144 
L 154.270968 144 
L 153.033634 144 
L 151.072225 144 
L 149.087397 144 
L 148.271102 144 
L 147.765192 144 
L 141.147159 144 
L 141.05564 144 
L 138.034675 144 
L 134.820516 144 
L 133.487401 144 
L 132.905373 144 
L 132.023688 144 
L 129.138225 144 
L 128.041414 144 
L 127.639432 144 
L 127.207055 144 
L 123.672199 144 
L 122.968947 144 
L 122.919137 144 
L 119.546311 144 
L 114.885051 144 
L 112.823869 144 
L 111.342647 144 
L 110.839856 144 
L 109.179417 144 
L 108.373206 144 
L 107.885214 144 
L 106.986532 144 
L 106.446977 144 
L 103.050474 144 
L 102.159203 144 
L 101.423401 144 
L 99.864413 144 
L 98.570876 144 
L 98.364664 144 
L 97.591679 144 
L 95.896826 144 
L 93.168985 144 
L 91.827485 144 
L 91.71339 144 
L 91.536299 144 
L 91.389426 144 
L 91.295601 144 
L 91.212246 144 
L 91.098891 144 
L 91.000737 144 
L 90.695949 144 
L 87.147226 144 
L 86.76671 144 
L 86.677362 144 
L 86.572338 144 
L 86.493127 144 
L 86.403016 144 
L 86.329233 144 
L 86.239618 144 
L 86.176663 144 
L 86.095104 144 
L 85.683781 144 
L 84.293051 144 
L 82.637437 144 
L 79.35463 144 
L 78.275353 144 
L 77.182993 144 
L 75.269808 144 
L 74.633715 144 
L 74.010652 144 
L 73.074138 144 
L 72.511235 144 
L 71.291056 144 
L 69.681216 144 
L 69.334938 144 
L 68.876828 144 
L 68.281032 144 
L 67.784093 144 
L 66.890409 144 
L 66.524847 144 
L 66.292884 144 
L 64.317201 144 
L 62.936291 144 
L 62.246251 144 
L 61.92608 144 
L 61.328465 144 
L 61.10662 144 
L 60.478783 144 
L 59.10766 144 
L 58.760033 144 
L 58.646787 144 
L 58.154039 144 
L 57.787636 144 
L 57.521161 144 
L 57.391864 144 
L 57.275893 144 
L 56.961813 144 
L 56.749611 144 
L 56.694457 144 
L 56.327815 144 
L 56.270776 144 
L 55.804845 144 
L 55.764382 144 
L 55.56327 144 
L 55.079686 144 
L 54.898936 144 
L 54.626569 144 
L 54.055377 144 
L 53.812844 144 
L 52.901876 144 
L 52.860722 144 
L 51.822166 144 
L 51.249224 144 
L 50.952788 144 
L 50.14041 144 
L 49.323306 144 
L 48.772775 144 
L 48.693031 144 
L 47.586618 144 
L 47.235927 144 
L 46.51784 144 
L 46.421541 144 
L 46.093296 144 
L 45.673138 144 
L 45.3815 144 
L 44.720393 144 
L 44.0067 144 
L 43.930492 144 
L 43.447047 144 
L 43.339171 144 
L 42.935438 144 
L 42.501646 144 
L 41.853868 144 
L 40.479892 144 
L 40.144865 144 
L 39.173986 144 
L 37.837912 144 
L 37.003739 144 
L 35.531475 144 
L 33.601824 144 
L 33.277261 144 
L 32.770002 144 
L 32.025644 144 
L 31.951349 144 
L 31.326768 144 
L 28.975797 144 
L 27.949788 144 
L 27.17352 144 
L 25.227401 144 
L 23.73929 144 
L 22.197449 144 
L 21.180122 144 
L 19.963104 144 
L 18.947238 144 
L 18.167277 144 
L 17.628891 144 
L 17.035493 144 
L 15.547053 144 
L 14.510598 144 
L 12.311428 144 
L 11.216983 144 
L 10.010968 144 
L 9.159271 144 
L 6.087704 144 
L 4.849446 144 
L 3.37734 144 
L 2.335105 144 
L 1.511972 144 
L 0.125586 144 
L 0 144 
z
" clip-path="url(#pedf4aad138)" style="fill: #c18182; fill-opacity: 0.3; stroke: #c18182; stroke-opacity: 0.3"/>
   </g>
   <g id="line2d_1">
    <path d="M 0 87.157895 
L 0.125586 87.157895 
L 3.37734 85.263158 
L 9.159271 86.778947 
L 10.010968 86.778947 
L 11.216983 87.157895 
L 12.311428 87.157895 
L 14.510598 87.536842 
L 15.547053 87.915789 
L 17.628891 87.915789 
L 18.947238 89.810526 
L 19.963104 90.947368 
L 22.197449 91.705263 
L 23.73929 92.463158 
L 25.227401 92.842105 
L 28.975797 94.357895 
L 31.951349 94.736842 
L 35.531475 94.736842 
L 37.003739 91.326316 
L 40.144865 85.642105 
L 41.853868 83.747368 
L 43.447047 81.094737 
L 43.930492 80.336842 
L 44.0067 79.957895 
L 44.720393 78.821053 
L 46.093296 75.789474 
L 52.901876 75.789474 
L 53.812844 77.684211 
L 55.079686 77.684211 
L 55.56327 77.305263 
L 55.804845 77.305263 
L 56.327815 76.926316 
L 56.749611 76.926316 
L 56.961813 77.305263 
L 58.646787 77.305263 
L 58.760033 77.684211 
L 59.10766 77.684211 
L 60.478783 78.063158 
L 61.10662 79.578947 
L 66.890409 79.578947 
L 68.281032 80.715789 
L 69.334938 81.473684 
L 69.681216 81.473684 
L 71.291056 81.094737 
L 73.074138 81.094737 
L 74.010652 80.715789 
L 75.269808 80.715789 
L 77.182993 80.336842 
L 79.35463 80.336842 
L 82.637437 79.957895 
L 84.293051 79.578947 
L 85.683781 79.578947 
L 86.176663 78.821053 
L 86.493127 78.821053 
L 86.677362 78.442105 
L 87.147226 78.442105 
L 91.71339 78.821053 
L 93.168985 78.821053 
L 95.896826 79.2 
L 98.570876 79.2 
L 99.864413 79.578947 
L 119.546311 79.578947 
L 122.968947 78.821053 
L 123.672199 78.442105 
L 127.207055 77.305263 
L 128.041414 77.305263 
L 129.138225 76.926316 
L 132.023688 76.168421 
L 132.905373 75.789474 
L 133.487401 75.410526 
L 134.820516 74.273684 
L 138.034675 72 
L 141.147159 72 
L 147.765192 69.347368 
L 148.271102 68.968421 
L 149.087397 68.210526 
L 151.072225 69.347368 
L 154.270968 75.410526 
L 158.669036 87.915789 
L 160.324043 91.705263 
L 161.304865 93.221053 
L 163.793804 98.147368 
L 164.870861 100.042105 
L 166.315741 101.936842 
L 167.431171 103.073684 
L 169.075704 103.452632 
L 169.410721 103.831579 
L 170.232133 103.831579 
L 170.69224 104.210526 
L 171.631739 104.589474 
L 172.227343 104.589474 
L 173.024754 104.968421 
L 173.848766 104.968421 
L 174.294108 105.347368 
L 175.499684 105.726316 
L 176.019459 105.726316 
L 177.29986 107.621053 
L 178.455975 110.652632 
L 179.683389 113.305263 
L 180.630488 113.684211 
L 185.97767 113.684211 
L 187.24295 113.305263 
L 188.130464 112.168421 
L 190.304293 114.063158 
L 191.452728 116.715789 
L 193.129746 121.263158 
L 193.922814 121.642105 
L 195.046352 123.915789 
L 195.929198 125.052632 
L 196.434043 125.052632 
L 197.529041 124.673684 
L 199.891306 121.642105 
L 201.10962 120.505263 
L 202.726346 118.610526 
L 204.543331 116.336842 
L 205.691807 114.442105 
L 206.133368 114.442105 
L 207.521589 113.684211 
L 208.215593 113.305263 
L 208.421566 112.926316 
L 208.783408 112.926316 
L 209.281202 112.547368 
L 210.301979 113.684211 
L 213.844048 113.684211 
L 214.444202 113.305263 
L 216.440209 113.305263 
L 216.798747 113.684211 
L 217.278439 115.2 
L 218.182744 117.473684 
L 221.823299 117.473684 
L 222.837679 117.094737 
L 228.3538 112.168421 
L 230.545657 109.894737 
L 231.961205 107.242105 
L 232.285045 106.863158 
L 232.625985 106.105263 
L 233.364596 105.347368 
L 234.117503 104.210526 
L 234.696393 103.073684 
L 235.399979 102.315789 
L 235.926839 101.557895 
L 236.501959 101.178947 
L 237.234092 100.421053 
L 237.794113 99.663158 
L 238.742546 98.905263 
L 240.079372 96.631579 
L 240.439816 96.631579 
L 241.019423 97.010526 
L 241.252652 97.010526 
L 242.169536 97.768421 
L 242.604831 97.768421 
L 244.078637 98.526316 
L 245.349595 96.252632 
L 245.571451 96.631579 
L 245.881338 96.631579 
L 246.652797 97.010526 
L 247.111579 97.389474 
L 247.584138 100.042105 
L 250.029624 106.484211 
L 251.075693 108.378947 
L 251.477835 108.757895 
L 252.13378 109.894737 
L 252.718797 110.273684 
L 254.368108 111.031579 
L 255.476322 111.410526 
L 259.111137 112.926316 
L 260.066699 113.684211 
L 262.203805 114.821053 
L 265.091498 117.094737 
L 266.16522 118.610526 
L 267.717338 121.642105 
L 270.748927 122.778947 
L 271.747766 123.536842 
L 273.832549 124.294737 
L 274.687696 124.673684 
L 275.493648 125.431579 
L 276.017669 126.189474 
L 276.642095 127.326316 
L 277.29845 128.084211 
L 277.924262 129.221053 
L 279.425652 131.115789 
L 280.418578 132.631579 
L 281.09536 133.389474 
L 281.998316 134.147368 
L 283.131198 134.905263 
L 283.747878 135.663158 
L 285.723733 137.557895 
L 286.65742 138.694737 
L 287.982702 140.589474 
L 288.380654 140.968421 
L 289.558213 142.863158 
L 290.623574 142.863158 
L 291.693018 143.242105 
L 292.41646 143.621053 
L 293.464392 143.621053 
L 294.52462 144 
L 297.774481 144 
L 298.36583 143.242105 
L 299.607218 139.452632 
L 300.195979 138.315789 
L 300.759973 136.8 
L 304.406063 129.978947 
L 304.88534 129.221053 
L 305.682137 127.705263 
L 306.54575 125.810526 
L 307.436287 122.778947 
L 308.829744 117.094737 
L 309.455565 115.957895 
L 309.527984 115.578947 
L 310.03742 114.442105 
L 310.192329 114.442105 
L 311.985937 109.894737 
L 312.676022 107.242105 
L 313.06252 105.347368 
L 314.10422 101.178947 
L 316.610677 94.736842 
L 316.790899 94.357895 
L 317.97031 89.431579 
L 319.570545 84.126316 
L 320.116238 82.989474 
L 320.528164 82.610526 
L 321.546428 81.473684 
L 322.054528 81.094737 
L 322.568644 80.336842 
L 323.139356 79.957895 
L 324.150321 78.063158 
L 325.463203 75.789474 
L 328.961579 75.789474 
L 329.443981 76.926316 
L 329.964271 78.821053 
L 330.288141 79.578947 
L 331.600546 79.578947 
L 332.498811 79.2 
L 332.896398 78.821053 
L 333.09148 78.442105 
L 336.48676 75.789474 
L 346.502258 75.789474 
L 346.777934 75.410526 
L 349.501985 72 
L 349.799711 72 
L 350.38215 71.621053 
L 350.599539 71.621053 
L 350.948018 71.242105 
L 351.729359 70.863158 
L 352.317609 70.863158 
L 352.538234 70.484211 
L 353.0361 70.484211 
L 353.476978 70.105263 
L 357.255335 68.210526 
L 358.394171 66.694737 
L 359.023264 65.557895 
L 359.4751 65.178947 
L 360.585053 64.042105 
L 361.425342 64.042105 
L 361.990567 63.663158 
L 362.627197 63.663158 
L 363.92408 62.905263 
L 364.777645 62.905263 
L 365.21748 62.526316 
L 366.038524 62.526316 
L 366.257347 62.147368 
L 366.683558 62.147368 
L 367.261025 61.389474 
L 367.944153 61.010526 
L 368.324856 63.284211 
L 369.141659 62.905263 
L 370.078069 61.768421 
L 370.327008 61.010526 
L 370.730997 60.631579 
L 371.273304 60.631579 
L 372.638042 57.978947 
L 372.638042 57.978947 
L 373.014088 57.978947 
L 373.793062 59.115789 
L 374.165068 59.873684 
L 374.281682 59.494737 
L 374.510632 59.494737 
L 375.192268 59.115789 
L 375.518133 59.115789 
L 378.074192 57.978947 
L 380.155001 57.221053 
L 381.628124 56.842105 
L 382.666029 56.842105 
L 383.924968 55.705263 
L 384.660822 55.326316 
L 384.997133 54.947368 
L 389.358594 54.947368 
L 392.229186 56.084211 
L 392.726521 56.084211 
L 393.194548 56.463158 
L 393.611087 56.463158 
L 393.923846 56.842105 
L 404.34607 56.842105 
L 404.976516 56.463158 
L 405.268389 56.084211 
L 405.829545 55.705263 
L 406.76368 55.326316 
L 407.526126 54.568421 
L 407.929049 54.568421 
L 411.252678 52.294737 
L 411.900093 51.536842 
L 412.381038 51.157895 
L 412.676198 51.157895 
L 413.830116 50.021053 
L 414.975364 49.263158 
L 417.759425 49.263158 
L 418.379293 50.021053 
L 419.743943 51.157895 
L 420.340604 51.915789 
L 420.865747 52.294737 
L 421.69256 53.431579 
L 422.068351 54.189474 
L 424.16765 57.6 
L 425.896189 59.115789 
L 427.014277 60.631579 
L 428.059151 61.768421 
L 428.224784 62.147368 
L 429.018694 63.284211 
L 429.745301 64.042105 
L 431.878943 67.073684 
L 432.313442 67.831579 
L 433.287318 68.589474 
L 437.019034 71.621053 
L 438.404616 73.515789 
L 439.24092 74.652632 
L 439.59191 75.410526 
L 440.206187 75.789474 
L 441.059227 76.168421 
L 443.381257 78.063158 
L 445.670749 79.578947 
L 450.924782 79.578947 
L 451.37768 81.852632 
L 452.464955 82.989474 
L 453.125791 84.505263 
L 453.640402 83.368421 
L 454.584737 83.368421 
L 455.248546 85.263158 
L 455.490569 86.4 
L 455.925098 87.536842 
L 456.62598 89.810526 
L 456.909051 90.568421 
L 457.476413 91.705263 
L 457.943691 92.084211 
L 459.355542 93.978947 
L 460.080165 94.736842 
L 461.09698 97.768421 
L 461.857987 100.421053 
L 462.690504 102.694737 
L 464.35355 104.589474 
L 465.770576 106.105263 
L 467.251901 109.894737 
L 467.810074 112.168421 
L 467.939202 112.168421 
L 468.031095 112.547368 
L 468.312494 112.547368 
L 469.5373 114.063158 
L 469.700178 114.063158 
L 470.108397 114.821053 
L 470.490255 115.2 
L 471.860472 117.473684 
L 472.015932 117.473684 
L 472.201974 118.231579 
L 473.400896 121.263158 
L 474.001452 122.021053 
L 474.290898 122.021053 
L 474.534418 122.4 
L 474.776207 122.4 
L 476.052214 123.536842 
L 476.331983 123.915789 
L 476.662267 123.915789 
L 476.757636 124.294737 
L 477.556335 124.673684 
L 479.628872 129.221053 
L 480.384436 130.357895 
L 480.65907 130.357895 
L 481.074729 131.115789 
L 481.488996 131.494737 
L 482.613408 132.631579 
L 483.76378 132.631579 
L 484.519745 132.252632 
L 484.939172 131.873684 
L 485.290773 131.873684 
L 486.512891 130.736842 
L 486.958017 130.736842 
L 488.015663 129.978947 
L 489.277423 128.842105 
L 493.500069 128.842105 
L 494.734117 127.326316 
L 497.296238 123.536842 
L 499.115138 121.263158 
L 500.094309 120.126316 
L 503.753165 117.094737 
L 504.966272 115.957895 
L 505.722693 115.2 
L 510.715192 109.515789 
L 512.581346 105.347368 
L 513.742241 101.557895 
L 514.008725 101.178947 
L 514.266291 100.421053 
L 514.839452 99.663158 
L 515.173466 98.905263 
L 515.505754 98.526316 
L 515.993961 97.768421 
L 517.07433 97.010526 
L 517.277896 96.631579 
L 517.413677 96.631579 
L 517.847179 96.252632 
L 518.081102 95.873684 
L 518.370548 95.873684 
L 518.716684 95.494737 
L 519.287354 95.115789 
L 519.502031 94.736842 
L 520.272918 92.463158 
L 520.443087 92.084211 
L 520.631236 91.326316 
L 521.259621 90.947368 
L 525.55916 90.947368 
L 527.425164 87.157895 
L 527.830499 86.4 
L 528.411627 85.263158 
L 529.981358 82.610526 
L 530.962664 81.473684 
L 532.302764 79.578947 
L 532.865912 79.578947 
L 533.989449 79.2 
L 534.152119 78.821053 
L 534.613655 78.821053 
L 535.147686 76.547368 
L 535.276466 73.894737 
L 536.417468 75.031579 
L 536.862302 75.410526 
L 537.159246 78.063158 
L 537.49638 78.063158 
L 538.287501 77.305263 
L 538.747156 77.684211 
L 538.966153 77.684211 
L 538.966153 77.305263 
L 538.966153 77.305263 
L 539.843413 77.305263 
L 540.259688 76.926316 
L 540.369341 77.684211 
L 541.413551 78.063158 
L 542.028348 74.652632 
L 542.678276 75.410526 
L 543.216292 75.789474 
L 543.96776 76.926316 
L 544.654387 78.821053 
L 546.108633 83.747368 
L 548.674168 86.778947 
L 549.630171 87.157895 
L 550.759684 87.157895 
L 551.971274 86.778947 
L 552.55011 86.021053 
L 553.871502 85.263158 
L 554.178977 84.884211 
L 555.402951 84.126316 
L 556.308981 83.368421 
L 558.41053 75.789474 
L 560.383595 75.789474 
L 561.133182 73.136842 
L 562.79457 67.452632 
L 564.783604 63.663158 
L 566.695521 58.357895 
L 566.878921 57.6 
L 567.621462 56.842105 
L 575.496671 56.842105 
L 575.947093 56.463158 
L 577.332784 54.189474 
L 578.090355 53.052632 
L 589.780377 53.052632 
L 593.511056 48.884211 
L 594.46806 48.126316 
L 595.376114 48.126316 
L 595.837521 48.505263 
L 596.098436 48.505263 
L 597.761929 49.642105 
L 598.470968 49.642105 
L 598.923498 50.021053 
L 599.39006 50.021053 
L 599.648631 50.4 
L 600.12306 50.4 
L 600.607189 50.778947 
L 601.257595 50.778947 
L 601.562914 51.157895 
L 602.157679 51.157895 
L 602.552988 51.536842 
L 603.265437 51.536842 
L 604.229094 52.294737 
L 604.934128 52.294737 
L 605.327511 52.673684 
L 605.885223 52.673684 
L 606.470225 53.052632 
L 608.842987 53.052632 
L 609.339897 52.673684 
L 610.323439 52.673684 
L 611.281027 52.294737 
L 611.614888 52.294737 
L 612.116027 51.915789 
L 612.612938 51.915789 
L 613.298854 51.536842 
L 613.514122 51.157895 
L 615.227008 49.642105 
L 615.315094 49.263158 
L 615.607412 49.263158 
L 615.788539 48.884211 
L 616.077971 48.884211 
L 616.392898 48.505263 
L 616.66467 48.505263 
L 616.85692 48.126316 
L 617.340008 47.747368 
L 617.795264 47.747368 
L 618.004314 47.368421 
L 618.462121 46.989474 
L 618.684735 46.989474 
L 619.033111 46.610526 
L 619.247915 46.610526 
L 619.478401 46.231579 
L 619.939136 45.852632 
L 620.374508 45.852632 
L 621.02409 45.094737 
L 621.336244 45.094737 
L 621.480156 44.715789 
L 621.960877 44.336842 
L 622.208113 44.336842 
L 622.387254 43.957895 
L 622.727398 43.957895 
L 623.498357 43.2 
L 624.467573 42.442105 
L 624.738731 42.063158 
L 625.079665 42.063158 
L 625.490257 41.684211 
L 629.089034 41.684211 
L 629.540178 41.305263 
L 633.869347 39.031579 
L 634.333687 38.652632 
L 635.986909 37.894737 
L 636.81579 37.136842 
L 637.558547 36.757895 
L 640.219805 34.484211 
L 640.546537 34.484211 
L 642.055064 32.968421 
L 643.319075 32.210526 
L 643.895035 31.452632 
L 644.593325 31.073684 
L 645.642344 30.315789 
L 647.136206 29.557895 
L 648.171784 28.8 
L 649.806833 28.042105 
L 650.551103 27.284211 
L 650.85747 27.284211 
L 651.127459 26.526316 
L 651.456444 26.147368 
L 653.020652 24.631579 
L 655.042821 22.357895 
L 656.137342 20.463158 
L 656.480953 20.084211 
L 656.934558 19.326316 
L 659.044911 17.052632 
L 659.59324 16.673684 
L 660.504566 15.536842 
L 661.24214 14.4 
L 662.93346 12.126316 
L 663.652504 11.368421 
L 664.645757 10.610526 
L 665.280184 10.610526 
L 666.581493 9.852632 
L 666.971597 9.473684 
L 667.424469 9.473684 
L 668.745077 8.715789 
L 670.785967 7.578947 
L 691.614028 7.578947 
L 692.292947 6.821053 
L 693.411486 6.063158 
L 694.588323 4.926316 
L 695.202758 4.547368 
L 696.709641 2.273684 
L 697.630877 0.378947 
L 698.961339 0 
L 701.647254 0 
L 702.424545 0.378947 
L 703.365273 3.789474 
L 704.075584 4.547368 
L 704.532191 5.305263 
L 706.527208 7.578947 
L 706.899459 7.578947 
L 710.271695 9.852632 
L 710.852311 10.989474 
L 712.956551 11.747368 
L 713.802004 11.747368 
L 714.379664 12.126316 
L 714.955985 12.126316 
L 715.839254 12.884211 
L 716.095501 12.884211 
L 717.026989 13.263158 
L 717.74726 13.263158 
L 718.17259 12.505263 
L 718.374974 12.505263 
L 718.865313 11.368421 
L 719.043607 11.368421 
L 719.693575 10.231579 
L 719.878625 10.231579 
L 720 9.852632 
L 720 9.852632 
" clip-path="url(#pedf4aad138)" style="fill: none; stroke: #c18182; stroke-width: 3; stroke-linecap: square"/>
   </g>
  </g>
 </g>
 <defs>
  <clipPath id="pedf4aad138">
   <rect x="0" y="0" width="720" height="144"/>
  </clipPath>
 </defs>
</svg>
