<?xml version="1.0" encoding="utf-8" standalone="no"?>
<!DOCTYPE svg PUBLIC "-//W3C//DTD SVG 1.1//EN"
  "http://www.w3.org/Graphics/SVG/1.1/DTD/svg11.dtd">
<!-- Created with matplotlib (http://matplotlib.org/) -->
<svg height="144pt" version="1.1" viewBox="0 0 720 144" width="720pt" xmlns="http://www.w3.org/2000/svg" xmlns:xlink="http://www.w3.org/1999/xlink">
 <defs>
  <style type="text/css">
*{stroke-linecap:butt;stroke-linejoin:round;}
  </style>
 </defs>
 <g id="figure_1">
  <g id="patch_1">
   <path d="M 0 144 
L 720 144 
L 720 0 
L 0 0 
z
" style="fill:none;"/>
  </g>
  <g id="axes_1">
   <g id="PolyCollection_1">
    <path clip-path="url(#paa2c12a617)" d="M 0 144 
L 0 120.591133 
L 0.231152 120.591133 
L 0.251438 120.591133 
L 0.290323 120.591133 
L 0.327998 120.591133 
L 0.345281 120.591133 
L 0.717405 120.591133 
L 0.734687 120.591133 
L 0.754973 120.591133 
L 1.068216 120.591133 
L 1.205806 120.591133 
L 1.515899 120.591133 
L 1.59367 120.591133 
L 1.654534 120.591133 
L 1.776007 120.591133 
L 2.028159 120.591133 
L 3.037808 120.591133 
L 3.447791 120.591133 
L 4.097493 120.591133 
L 4.155822 120.591133 
L 4.56613 120.591133 
L 4.646504 120.591133 
L 4.799886 120.591133 
L 4.919968 120.591133 
L 5.309352 120.591133 
L 5.621097 120.591133 
L 5.815524 121.300493 
L 6.012026 122.009852 
L 6.248841 122.719212 
L 6.287726 123.428571 
L 6.426863 124.137931 
L 6.564466 124.137931 
L 6.741611 125.55665 
L 6.817221 125.55665 
L 7.25206 127.684729 
L 7.333861 127.684729 
L 7.455333 128.394089 
L 7.592538 129.103448 
L 7.732487 129.812808 
L 8.240367 131.940887 
L 9.394763 134.778325 
L 10.047724 134.778325 
L 10.708965 134.778325 
L 11.217522 134.778325 
L 11.632649 134.778325 
L 12.059129 134.778325 
L 12.431822 134.778325 
L 12.542143 134.778325 
L 12.774074 134.778325 
L 13.530772 134.778325 
L 14.766342 134.778325 
L 15.186352 134.778325 
L 15.422681 134.778325 
L 15.579537 134.778325 
L 15.972678 134.778325 
L 17.384145 134.778325 
L 18.485036 134.778325 
L 20.119795 134.778325 
L 20.32969 134.778325 
L 20.592522 134.778325 
L 21.220176 136.906404 
L 21.581275 138.325123 
L 21.61895 138.325123 
L 23.054389 139.743842 
L 23.445058 137.615764 
L 23.677095 137.615764 
L 24.48262 137.615764 
L 24.83568 141.162562 
L 25.402966 141.871921 
L 25.523367 141.871921 
L 26.444072 141.871921 
L 27.241676 141.871921 
L 27.261118 144 
L 27.322873 143.29064 
L 27.410591 141.871921 
L 27.545313 144 
L 27.591278 144 
L 27.823124 141.871921 
L 27.93978 141.871921 
L 28.077382 141.871921 
L 28.336066 141.871921 
L 28.50309 141.871921 
L 28.741398 141.871921 
L 28.900399 141.871921 
L 29.025192 141.871921 
L 29.164067 141.871921 
L 29.427728 141.871921 
L 29.723978 141.871921 
L 29.87215 141.871921 
L 30.123552 141.871921 
L 30.568619 141.871921 
L 30.811821 141.871921 
L 31.131994 141.871921 
L 31.577367 141.871921 
L 31.794514 141.162562 
L 32.159378 141.162562 
L 32.428219 141.162562 
L 34.75648 140.453202 
L 35.017622 140.453202 
L 35.190774 140.453202 
L 35.330369 140.453202 
L 35.894435 140.453202 
L 36.612344 140.453202 
L 38.127769 139.743842 
L 39.194734 139.743842 
L 39.719569 139.743842 
L 40.473571 139.034483 
L 40.651103 139.034483 
L 41.327031 139.034483 
L 41.94273 139.034483 
L 42.160425 139.034483 
L 42.278376 139.034483 
L 42.70358 136.197044 
L 43.087766 136.197044 
L 43.402095 136.197044 
L 43.718546 136.197044 
L 43.919369 136.906404 
L 43.981126 136.906404 
L 44.347848 136.197044 
L 45.572052 135.487685 
L 46.45905 134.778325 
L 47.381682 134.778325 
L 48.102089 131.940887 
L 48.815826 131.231527 
L 49.436101 131.231527 
L 49.946071 130.522167 
L 51.172482 129.812808 
L 51.496265 129.812808 
L 51.974293 129.103448 
L 52.622021 129.103448 
L 53.063765 128.394089 
L 53.481786 128.394089 
L 53.699769 128.394089 
L 53.907363 128.394089 
L 54.11026 127.684729 
L 54.228214 127.684729 
L 54.327596 127.684729 
L 54.520663 127.684729 
L 55.393953 127.684729 
L 56.220046 127.684729 
L 57.077552 127.684729 
L 59.33106 127.684729 
L 60.195243 127.684729 
L 61.111958 127.684729 
L 61.850835 127.684729 
L 62.548663 127.684729 
L 63.506306 127.684729 
L 63.8419 127.684729 
L 64.238577 127.684729 
L 64.515491 121.300493 
L 64.657518 123.428571 
L 64.797994 124.137931 
L 64.935917 124.137931 
L 65.083254 124.137931 
L 65.224906 124.847291 
L 65.359333 124.847291 
L 65.527113 123.428571 
L 65.694459 122.009852 
L 65.796905 121.300493 
L 65.969102 121.300493 
L 66.135101 121.300493 
L 66.329541 121.300493 
L 66.61278 123.428571 
L 67.569441 123.428571 
L 67.820873 122.719212 
L 68.926915 123.428571 
L 69.794004 122.009852 
L 70.047878 121.300493 
L 70.303443 127.684729 
L 70.675592 127.684729 
L 70.849614 127.684729 
L 71.141555 127.684729 
L 72.351103 127.684729 
L 72.904138 127.684729 
L 73.430653 127.684729 
L 76.469527 127.684729 
L 76.879807 124.847291 
L 78.050779 124.847291 
L 78.592205 125.55665 
L 79.4476 124.847291 
L 80.437607 124.137931 
L 82.119568 124.137931 
L 82.893611 124.137931 
L 84.025786 124.137931 
L 84.547281 123.428571 
L 84.970475 123.428571 
L 85.314586 123.428571 
L 85.608526 123.428571 
L 85.905825 123.428571 
L 86.198559 123.428571 
L 86.596923 123.428571 
L 86.635812 123.428571 
L 86.679674 123.428571 
L 86.839727 123.428571 
L 87.07394 123.428571 
L 87.24678 123.428571 
L 87.395818 123.428571 
L 87.546674 123.428571 
L 87.695772 124.137931 
L 87.754105 124.137931 
L 87.850744 124.137931 
L 87.998683 124.137931 
L 88.165033 124.137931 
L 88.236117 124.137931 
L 88.307142 123.428571 
L 88.461709 123.428571 
L 88.914814 123.428571 
L 89.012016 123.428571 
L 89.210077 123.428571 
L 89.408137 123.428571 
L 89.544248 123.428571 
L 89.681466 123.428571 
L 89.865815 123.428571 
L 90.032852 122.719212 
L 90.241385 122.719212 
L 90.608959 122.719212 
L 90.868296 122.719212 
L 91.458385 122.719212 
L 92.052724 122.719212 
L 92.41937 122.009852 
L 92.694186 122.009852 
L 92.851901 122.009852 
L 93.0474 122.009852 
L 93.905264 122.009852 
L 94.80994 121.300493 
L 95.322321 121.300493 
L 96.295451 120.591133 
L 97.276854 120.591133 
L 97.941202 120.591133 
L 98.663758 120.591133 
L 99.826929 120.591133 
L 100.512927 120.591133 
L 101.156462 120.591133 
L 101.392104 120.591133 
L 101.748515 120.591133 
L 102.154236 120.591133 
L 102.875677 114.206897 
L 103.9318 114.206897 
L 104.264143 119.881773 
L 104.755147 119.172414 
L 105.143226 119.172414 
L 105.992951 118.463054 
L 106.543837 117.753695 
L 107.392746 117.044335 
L 108.47904 116.334975 
L 109.555305 114.916256 
L 110.106788 114.916256 
L 110.557705 114.206897 
L 111.103417 114.206897 
L 111.61001 114.206897 
L 112.076701 114.206897 
L 112.569095 114.206897 
L 113.208635 114.206897 
L 113.673491 114.206897 
L 114.265118 114.206897 
L 115.206248 114.916256 
L 115.461831 114.916256 
L 115.461831 114.916256 
L 116.166628 114.916256 
L 116.926877 114.916256 
L 117.705606 114.916256 
L 118.133405 114.916256 
L 118.987084 114.916256 
L 119.803792 114.916256 
L 120.310538 114.916256 
L 120.902164 114.916256 
L 122.006155 114.916256 
L 124.490211 114.916256 
L 125.004756 114.916256 
L 125.886063 114.916256 
L 126.435757 114.916256 
L 126.980226 115.625616 
L 127.851758 115.625616 
L 128.650048 115.625616 
L 129.2554 115.625616 
L 130.014507 115.625616 
L 131.429905 115.625616 
L 133.953825 115.625616 
L 134.430215 115.625616 
L 134.763268 115.625616 
L 135.405429 115.625616 
L 135.850853 115.625616 
L 136.125999 115.625616 
L 137.027302 115.625616 
L 137.228143 115.625616 
L 137.729992 115.625616 
L 138.577032 115.625616 
L 139.299388 115.625616 
L 141.85419 114.916256 
L 143.73386 114.916256 
L 144.837578 114.916256 
L 146.416032 114.206897 
L 147.154864 114.206897 
L 147.848316 114.206897 
L 149.567897 113.497537 
L 149.705512 113.497537 
L 150.041 113.497537 
L 151.390419 113.497537 
L 151.702192 113.497537 
L 152.259925 113.497537 
L 152.677951 113.497537 
L 152.921234 113.497537 
L 153.991703 113.497537 
L 154.664281 113.497537 
L 155.019264 113.497537 
L 155.488798 113.497537 
L 155.784582 113.497537 
L 156.002566 113.497537 
L 156.210679 113.497537 
L 156.41096 113.497537 
L 156.551436 113.497537 
L 156.551436 113.497537 
L 156.691913 113.497537 
L 156.892194 113.497537 
L 157.100307 113.497537 
L 157.318291 113.497537 
L 157.614074 113.497537 
L 158.016062 113.497537 
L 158.363752 113.497537 
L 158.762114 113.497537 
L 159.396248 113.497537 
L 159.660125 113.497537 
L 160.222735 113.497537 
L 160.3872 113.497537 
L 160.720231 113.497537 
L 160.909955 113.497537 
L 161.517566 113.497537 
L 162.694966 104.275862 
L 164.097581 102.147783 
L 166.239845 97.182266 
L 168.204096 91.507389 
L 171.507585 86.541872 
L 172.298065 84.413793 
L 174.220055 80.866995 
L 174.879148 79.448276 
L 176.37455 77.320197 
L 177.121031 75.901478 
L 178.804716 73.773399 
L 180.198583 72.35468 
L 181.819431 70.226601 
L 182.682708 68.098522 
L 184.113596 65.261084 
L 185.076727 66.679803 
L 185.577786 66.679803 
L 186.811439 68.098522 
L 187.555159 68.807882 
L 188.446666 69.517241 
L 189.175983 70.226601 
L 190.480645 71.64532 
L 191.154655 71.64532 
L 191.634593 72.35468 
L 192.244973 72.35468 
L 194.482479 73.773399 
L 195.283338 74.482759 
L 196.699877 75.192118 
L 197.085017 75.901478 
L 197.722307 75.901478 
L 199.233543 77.320197 
L 199.485675 77.320197 
L 200.046963 75.901478 
L 201.766008 71.64532 
L 201.880518 72.35468 
L 204.870317 75.192118 
L 205.287556 75.192118 
L 205.669224 75.901478 
L 206.474688 76.610837 
L 209.427766 82.995074 
L 210.300301 85.123153 
L 211.44931 87.251232 
L 214.708774 92.926108 
L 215.00049 92.926108 
L 217.836189 90.08867 
L 218.58553 87.960591 
L 219.598947 85.832512 
L 220.842242 79.448276 
L 222.775357 72.35468 
L 223.071279 70.935961 
L 223.329926 70.935961 
L 223.567361 70.935961 
L 228.932043 70.935961 
L 229.16783 70.935961 
L 229.373076 70.935961 
L 229.558472 70.935961 
L 229.793061 70.935961 
L 230.205833 70.226601 
L 232.003814 68.098522 
L 234.4146 65.970443 
L 236.68494 63.133005 
L 236.68494 63.133005 
L 236.97764 63.133005 
L 238.190898 61.004926 
L 238.910706 59.586207 
L 239.224174 59.586207 
L 239.536973 58.876847 
L 239.781523 58.167488 
L 240.054465 58.167488 
L 240.980017 56.748768 
L 241.441264 56.748768 
L 242.033276 56.748768 
L 242.482285 56.748768 
L 243.135964 56.748768 
L 245.770276 56.748768 
L 246.172541 56.748768 
L 246.584057 56.748768 
L 247.00078 56.748768 
L 247.411255 56.748768 
L 247.759452 56.748768 
L 248.052954 56.748768 
L 248.408441 56.748768 
L 248.720733 56.748768 
L 249.034469 56.748768 
L 249.324276 56.748768 
L 249.59755 56.748768 
L 249.909812 56.748768 
L 250.443699 56.039409 
L 250.997609 54.62069 
L 251.554804 53.20197 
L 251.933828 52.492611 
L 252.303932 51.783251 
L 252.6725 51.073892 
L 253.060841 50.364532 
L 253.413426 49.655172 
L 253.746348 49.655172 
L 254.259499 48.945813 
L 254.860201 48.236453 
L 257.051943 46.817734 
L 258.73654 46.108374 
L 259.69298 45.399015 
L 260.28539 44.689655 
L 260.805439 44.689655 
L 261.24764 44.689655 
L 261.750295 43.980296 
L 262.155793 43.980296 
L 262.987729 43.270936 
L 263.36038 43.270936 
L 263.75914 42.561576 
L 266.275509 36.8867 
L 266.691327 36.17734 
L 267.578321 35.46798 
L 268.716553 35.46798 
L 269.736094 35.46798 
L 269.736094 35.46798 
L 270.755636 35.46798 
L 271.893868 35.46798 
L 272.780862 36.17734 
L 273.19668 36.8867 
L 275.713049 42.561576 
L 276.111808 43.270936 
L 276.48446 43.270936 
L 277.316396 43.980296 
L 277.721894 43.980296 
L 278.224548 44.689655 
L 278.66675 44.689655 
L 279.186799 44.689655 
L 279.779209 45.399015 
L 280.735649 46.108374 
L 282.420246 46.817734 
L 284.443023 48.236453 
L 284.935564 48.945813 
L 285.422412 48.945813 
L 285.865797 48.945813 
L 286.292959 49.655172 
L 288.754984 56.748768 
L 289.767882 57.458128 
L 290.200215 58.167488 
L 290.54528 58.167488 
L 290.925034 58.876847 
L 292.638863 60.295567 
L 292.83291 61.004926 
L 293.028135 61.004926 
L 293.247029 61.004926 
L 293.537703 63.842365 
L 293.993711 64.551724 
L 294.237852 64.551724 
L 294.437339 64.551724 
L 294.922458 65.261084 
L 295.418001 65.261084 
L 296.006558 65.970443 
L 296.658348 65.970443 
L 296.875468 66.679803 
L 298.078305 67.389163 
L 299.47509 68.098522 
L 300.739483 68.807882 
L 303.278346 70.935961 
L 304.344975 72.35468 
L 304.73505 73.064039 
L 305.063453 73.773399 
L 305.505806 74.482759 
L 305.949806 75.192118 
L 306.317916 75.901478 
L 307.803194 79.448276 
L 309.264419 82.995074 
L 309.642397 84.413793 
L 311.083698 85.123153 
L 311.2813 85.123153 
L 311.99686 85.123153 
L 312.260223 85.123153 
L 312.935497 85.123153 
L 313.462596 85.123153 
L 313.699554 85.123153 
L 313.992058 85.123153 
L 314.907362 85.123153 
L 315.621204 85.123153 
L 316.449823 84.413793 
L 316.919171 84.413793 
L 317.180823 84.413793 
L 317.495147 84.413793 
L 318.212659 84.413793 
L 318.45428 84.413793 
L 318.994304 83.704433 
L 320.277728 83.704433 
L 320.556963 82.995074 
L 321.088002 81.576355 
L 321.911283 79.448276 
L 324.599441 74.482759 
L 325.54614 72.35468 
L 326.807524 69.517241 
L 330.303676 63.842365 
L 331.613256 62.423645 
L 332.938192 61.004926 
L 336.289306 58.167488 
L 337.37421 57.458128 
L 338.113419 56.039409 
L 338.824533 53.91133 
L 341.296236 45.399015 
L 342.198699 40.433498 
L 342.906451 36.8867 
L 343.812687 30.502463 
L 346.506553 20.571429 
L 347.237368 19.862069 
L 347.954593 19.152709 
L 348.518855 18.44335 
L 349.014297 17.73399 
L 349.370414 18.44335 
L 349.727547 18.44335 
L 350.266546 18.44335 
L 351.03789 19.152709 
L 351.682891 19.152709 
L 352.190988 19.862069 
L 352.649502 19.862069 
L 353.344058 20.571429 
L 353.752685 20.571429 
L 354.09709 20.571429 
L 354.471507 20.571429 
L 355.301592 21.280788 
L 355.662819 21.990148 
L 355.966181 23.408867 
L 357.174289 26.955665 
L 358.937369 30.502463 
L 359.545074 31.211823 
L 360.165281 32.630542 
L 360.529576 32.630542 
L 361.133772 34.049261 
L 361.580409 34.758621 
L 362.051392 35.46798 
L 362.531972 36.17734 
L 363.779905 37.596059 
L 364.949567 38.305419 
L 365.456143 39.014778 
L 365.895617 39.724138 
L 366.480199 40.433498 
L 366.898576 40.433498 
L 367.802354 41.852217 
L 370.022315 43.980296 
L 370.586603 44.689655 
L 370.914509 44.689655 
L 371.42026 45.399015 
L 371.824205 45.399015 
L 372.192749 46.108374 
L 372.854675 46.817734 
L 373.530331 46.817734 
L 374.871551 48.236453 
L 376.218442 49.655172 
L 377.988731 55.330049 
L 378.512407 56.748768 
L 378.992563 58.167488 
L 379.600635 60.295567 
L 380.298167 62.423645 
L 380.577425 63.133005 
L 380.969876 63.842365 
L 381.465958 65.970443 
L 381.862022 66.679803 
L 382.783945 69.517241 
L 383.174452 70.935961 
L 383.672824 70.935961 
L 384.205931 70.935961 
L 384.414179 70.935961 
L 385.064524 70.935961 
L 385.299613 70.935961 
L 385.662233 70.935961 
L 386.2134 70.935961 
L 387.069545 70.935961 
L 387.537953 68.807882 
L 388.124123 66.679803 
L 389.964974 58.876847 
L 392.428676 53.20197 
L 394.391878 48.945813 
L 395.29237 46.817734 
L 395.840325 45.399015 
L 396.109809 44.689655 
L 396.510006 43.270936 
L 397.130548 42.561576 
L 397.473968 41.852217 
L 398.182271 41.142857 
L 398.426454 40.433498 
L 398.582127 40.433498 
L 399.089662 39.724138 
L 399.890422 39.014778 
L 401.269525 36.8867 
L 402.021918 36.17734 
L 402.599651 36.8867 
L 403.533604 38.305419 
L 410.056638 53.20197 
L 413.777832 59.586207 
L 417.380377 65.261084 
L 417.769205 65.261084 
L 424.729531 61.714286 
L 427.005844 60.295567 
L 428.509329 59.586207 
L 431.308399 56.748768 
L 432.059858 56.748768 
L 433.03699 56.748768 
L 433.81761 56.748768 
L 434.674777 56.748768 
L 435.514035 56.748768 
L 436.408806 56.748768 
L 437.49564 56.748768 
L 438.321429 56.748768 
L 439.286461 56.748768 
L 440.022227 56.748768 
L 440.780872 56.748768 
L 442.322877 56.748768 
L 443.100533 56.748768 
L 443.73788 56.748768 
L 444.413189 56.748768 
L 449.881713 56.748768 
L 453.518485 56.748768 
L 454.498607 56.748768 
L 455.350653 56.748768 
L 456.146845 56.748768 
L 458.135923 56.748768 
L 466.990675 62.423645 
L 467.982578 63.842365 
L 468.822695 63.842365 
L 474.099572 63.842365 
L 479.506528 63.842365 
L 480.176326 63.842365 
L 481.22141 63.842365 
L 482.8811 62.423645 
L 484.847641 61.004926 
L 485.497504 60.295567 
L 486.094708 60.295567 
L 488.468756 56.748768 
L 488.941798 55.330049 
L 489.592893 53.91133 
L 490.003371 53.20197 
L 490.43709 51.783251 
L 491.157561 50.364532 
L 491.741303 49.655172 
L 492.01715 48.945813 
L 492.152073 48.945813 
L 493.365464 48.236453 
L 493.870784 48.236453 
L 494.405332 48.236453 
L 495.128832 47.527094 
L 496.159302 46.817734 
L 496.535516 46.817734 
L 497.812798 46.108374 
L 499.16862 45.399015 
L 499.636544 45.399015 
L 500.00514 44.689655 
L 500.315233 44.689655 
L 500.703574 44.689655 
L 500.962382 43.980296 
L 501.572523 43.980296 
L 502.430757 43.270936 
L 503.051601 43.270936 
L 504.617808 42.561576 
L 505.096002 42.561576 
L 505.66146 42.561576 
L 506.233644 42.561576 
L 506.999559 42.561576 
L 507.627306 42.561576 
L 507.86205 42.561576 
L 508.344736 42.561576 
L 508.831451 42.561576 
L 509.526369 42.561576 
L 510.158555 42.561576 
L 510.544745 42.561576 
L 511.394144 39.014778 
L 511.980466 36.17734 
L 512.902078 34.049261 
L 513.528605 32.630542 
L 513.904128 31.921182 
L 515.573819 29.083744 
L 516.215346 27.665025 
L 516.89667 26.246305 
L 517.721352 24.827586 
L 518.26931 24.118227 
L 518.822654 22.699507 
L 519.635748 21.280788 
L 520.558569 21.280788 
L 521.668266 21.280788 
L 522.712443 23.408867 
L 523.207433 24.118227 
L 523.700497 25.536946 
L 524.308305 26.955665 
L 525.016441 28.374384 
L 525.643258 29.083744 
L 526.263645 29.083744 
L 527.265885 29.793103 
L 528.572568 30.502463 
L 529.580146 31.211823 
L 529.937629 31.211823 
L 530.844054 31.921182 
L 531.459642 31.921182 
L 532.011035 32.630542 
L 533.307497 33.339901 
L 534.274819 33.339901 
L 535.476734 34.049261 
L 536.352983 34.758621 
L 536.876874 34.758621 
L 537.314183 35.46798 
L 537.892186 35.46798 
L 541.220452 35.46798 
L 542.175955 35.46798 
L 543.050575 35.46798 
L 545.572179 35.46798 
L 549.011618 35.46798 
L 555.421644 35.46798 
L 556.075828 35.46798 
L 556.604687 35.46798 
L 558.307644 35.46798 
L 558.960962 35.46798 
L 559.720444 35.46798 
L 559.954997 35.46798 
L 561.31834 35.46798 
L 561.3894 35.46798 
L 563.552401 35.46798 
L 564.337954 35.46798 
L 565.296598 35.46798 
L 566.314503 35.46798 
L 567.318353 35.46798 
L 567.903786 35.46798 
L 568.235013 35.46798 
L 570.401575 35.46798 
L 571.646321 35.46798 
L 572.706925 35.46798 
L 573.868155 35.46798 
L 574.870227 35.46798 
L 576.41116 35.46798 
L 579.798202 35.46798 
L 581.525386 35.46798 
L 582.87371 35.46798 
L 583.858181 35.46798 
L 584.977644 35.46798 
L 586.038249 35.46798 
L 593.39272 36.8867 
L 594.42227 37.596059 
L 595.314444 37.596059 
L 602.065344 39.014778 
L 603.213108 39.014778 
L 604.519576 39.014778 
L 605.784483 39.724138 
L 607.009946 39.724138 
L 608.047484 39.724138 
L 608.819329 40.433498 
L 609.097943 40.433498 
L 609.264992 40.433498 
L 610.101875 40.433498 
L 614.37962 41.142857 
L 615.325873 41.852217 
L 615.967664 41.852217 
L 617.148991 41.852217 
L 618.713942 41.852217 
L 619.308143 41.852217 
L 620.231853 41.852217 
L 620.893465 42.561576 
L 621.482808 42.561576 
L 622.402292 42.561576 
L 623.257695 42.561576 
L 623.948309 43.270936 
L 624.416706 43.980296 
L 625.663618 45.399015 
L 627.202984 46.817734 
L 628.3197 47.527094 
L 628.521537 48.236453 
L 630.993846 48.236453 
L 634.047416 48.945813 
L 634.188508 48.945813 
L 635.574824 49.655172 
L 637.52712 50.364532 
L 638.81277 52.492611 
L 639.542432 53.91133 
L 641.495106 57.458128 
L 642.295009 59.586207 
L 643.7239 62.423645 
L 644.447792 63.842365 
L 645.226783 65.261084 
L 646.110388 66.679803 
L 646.96639 68.098522 
L 647.500264 68.807882 
L 647.909355 68.807882 
L 648.45559 69.517241 
L 649.186642 70.226601 
L 649.805688 70.226601 
L 650.504032 71.64532 
L 651.241324 73.064039 
L 651.768208 73.773399 
L 652.640253 75.192118 
L 653.301223 76.610837 
L 654.159454 78.029557 
L 654.560603 78.029557 
L 655.088402 78.029557 
L 655.990365 78.029557 
L 656.96631 76.610837 
L 657.645201 76.610837 
L 658.445953 75.901478 
L 659.231301 75.192118 
L 660.242566 73.773399 
L 661.846639 72.35468 
L 663.320144 70.935961 
L 664.896187 68.098522 
L 665.323989 67.389163 
L 668.129749 61.714286 
L 668.617209 61.004926 
L 674.092844 63.842365 
L 676.576545 63.842365 
L 676.82103 63.842365 
L 676.82103 63.842365 
L 677.065516 63.842365 
L 679.549217 63.842365 
L 685.024851 61.004926 
L 685.193578 61.004926 
L 686.928419 58.167488 
L 687.365468 57.458128 
L 687.687893 56.748768 
L 688.197751 56.039409 
L 688.736603 54.62069 
L 689.431892 53.20197 
L 689.958792 52.492611 
L 690.779179 51.073892 
L 691.294312 50.364532 
L 691.913665 48.945813 
L 692.342619 48.236453 
L 693.20903 46.817734 
L 693.381502 46.817734 
L 693.590397 46.108374 
L 693.837873 43.270936 
L 694.099502 43.270936 
L 695.269967 42.561576 
L 695.855191 42.561576 
L 696.084118 41.852217 
L 696.24722 41.852217 
L 696.828567 41.142857 
L 698.2205 39.014778 
L 700.366989 35.46798 
L 700.803508 32.630542 
L 701.810128 30.502463 
L 702.821399 27.665025 
L 703.350366 26.246305 
L 703.799567 25.536946 
L 704.524668 23.408867 
L 707.10472 17.024631 
L 707.610325 15.605911 
L 707.961658 14.896552 
L 708.347184 13.477833 
L 708.889905 12.768473 
L 709.107874 12.059113 
L 709.286071 11.349754 
L 709.50404 10.640394 
L 709.713268 10.640394 
L 710.772634 7.802956 
L 711.242085 6.384236 
L 711.634801 5.674877 
L 712.265124 4.965517 
L 712.493305 4.256158 
L 712.779965 3.546798 
L 713.227692 2.837438 
L 713.682079 2.128079 
L 716.591443 0 
L 716.880654 0 
L 717.195599 0 
L 719.038146 0 
L 719.659847 0 
L 719.775769 0 
L 719.876212 0 
L 719.973884 0 
L 720 0 
L 720 144 
L 720 144 
L 719.973884 144 
L 719.876212 144 
L 719.775769 144 
L 719.659847 144 
L 719.038146 144 
L 717.195599 144 
L 716.880654 144 
L 716.591443 144 
L 713.682079 144 
L 713.227692 144 
L 712.779965 144 
L 712.493305 144 
L 712.265124 144 
L 711.634801 144 
L 711.242085 144 
L 710.772634 144 
L 709.713268 144 
L 709.50404 144 
L 709.286071 144 
L 709.107874 144 
L 708.889905 144 
L 708.347184 144 
L 707.961658 144 
L 707.610325 144 
L 707.10472 144 
L 704.524668 144 
L 703.799567 144 
L 703.350366 144 
L 702.821399 144 
L 701.810128 144 
L 700.803508 144 
L 700.366989 144 
L 698.2205 144 
L 696.828567 144 
L 696.24722 144 
L 696.084118 144 
L 695.855191 144 
L 695.269967 144 
L 694.099502 144 
L 693.837873 144 
L 693.590397 144 
L 693.381502 144 
L 693.20903 144 
L 692.342619 144 
L 691.913665 144 
L 691.294312 144 
L 690.779179 144 
L 689.958792 144 
L 689.431892 144 
L 688.736603 144 
L 688.197751 144 
L 687.687893 144 
L 687.365468 144 
L 686.928419 144 
L 685.193578 144 
L 685.024851 144 
L 679.549217 144 
L 677.065516 144 
L 676.82103 144 
L 676.82103 144 
L 676.576545 144 
L 674.092844 144 
L 668.617209 144 
L 668.129749 144 
L 665.323989 144 
L 664.896187 144 
L 663.320144 144 
L 661.846639 144 
L 660.242566 144 
L 659.231301 144 
L 658.445953 144 
L 657.645201 144 
L 656.96631 144 
L 655.990365 144 
L 655.088402 144 
L 654.560603 144 
L 654.159454 144 
L 653.301223 144 
L 652.640253 144 
L 651.768208 144 
L 651.241324 144 
L 650.504032 144 
L 649.805688 144 
L 649.186642 144 
L 648.45559 144 
L 647.909355 144 
L 647.500264 144 
L 646.96639 144 
L 646.110388 144 
L 645.226783 144 
L 644.447792 144 
L 643.7239 144 
L 642.295009 144 
L 641.495106 144 
L 639.542432 144 
L 638.81277 144 
L 637.52712 144 
L 635.574824 144 
L 634.188508 144 
L 634.047416 144 
L 630.993846 144 
L 628.521537 144 
L 628.3197 144 
L 627.202984 144 
L 625.663618 144 
L 624.416706 144 
L 623.948309 144 
L 623.257695 144 
L 622.402292 144 
L 621.482808 144 
L 620.893465 144 
L 620.231853 144 
L 619.308143 144 
L 618.713942 144 
L 617.148991 144 
L 615.967664 144 
L 615.325873 144 
L 614.37962 144 
L 610.101875 144 
L 609.264992 144 
L 609.097943 144 
L 608.819329 144 
L 608.047484 144 
L 607.009946 144 
L 605.784483 144 
L 604.519576 144 
L 603.213108 144 
L 602.065344 144 
L 595.314444 144 
L 594.42227 144 
L 593.39272 144 
L 586.038249 144 
L 584.977644 144 
L 583.858181 144 
L 582.87371 144 
L 581.525386 144 
L 579.798202 144 
L 576.41116 144 
L 574.870227 144 
L 573.868155 144 
L 572.706925 144 
L 571.646321 144 
L 570.401575 144 
L 568.235013 144 
L 567.903786 144 
L 567.318353 144 
L 566.314503 144 
L 565.296598 144 
L 564.337954 144 
L 563.552401 144 
L 561.3894 144 
L 561.31834 144 
L 559.954997 144 
L 559.720444 144 
L 558.960962 144 
L 558.307644 144 
L 556.604687 144 
L 556.075828 144 
L 555.421644 144 
L 549.011618 144 
L 545.572179 144 
L 543.050575 144 
L 542.175955 144 
L 541.220452 144 
L 537.892186 144 
L 537.314183 144 
L 536.876874 144 
L 536.352983 144 
L 535.476734 144 
L 534.274819 144 
L 533.307497 144 
L 532.011035 144 
L 531.459642 144 
L 530.844054 144 
L 529.937629 144 
L 529.580146 144 
L 528.572568 144 
L 527.265885 144 
L 526.263645 144 
L 525.643258 144 
L 525.016441 144 
L 524.308305 144 
L 523.700497 144 
L 523.207433 144 
L 522.712443 144 
L 521.668266 144 
L 520.558569 144 
L 519.635748 144 
L 518.822654 144 
L 518.26931 144 
L 517.721352 144 
L 516.89667 144 
L 516.215346 144 
L 515.573819 144 
L 513.904128 144 
L 513.528605 144 
L 512.902078 144 
L 511.980466 144 
L 511.394144 144 
L 510.544745 144 
L 510.158555 144 
L 509.526369 144 
L 508.831451 144 
L 508.344736 144 
L 507.86205 144 
L 507.627306 144 
L 506.999559 144 
L 506.233644 144 
L 505.66146 144 
L 505.096002 144 
L 504.617808 144 
L 503.051601 144 
L 502.430757 144 
L 501.572523 144 
L 500.962382 144 
L 500.703574 144 
L 500.315233 144 
L 500.00514 144 
L 499.636544 144 
L 499.16862 144 
L 497.812798 144 
L 496.535516 144 
L 496.159302 144 
L 495.128832 144 
L 494.405332 144 
L 493.870784 144 
L 493.365464 144 
L 492.152073 144 
L 492.01715 144 
L 491.741303 144 
L 491.157561 144 
L 490.43709 144 
L 490.003371 144 
L 489.592893 144 
L 488.941798 144 
L 488.468756 144 
L 486.094708 144 
L 485.497504 144 
L 484.847641 144 
L 482.8811 144 
L 481.22141 144 
L 480.176326 144 
L 479.506528 144 
L 474.099572 144 
L 468.822695 144 
L 467.982578 144 
L 466.990675 144 
L 458.135923 144 
L 456.146845 144 
L 455.350653 144 
L 454.498607 144 
L 453.518485 144 
L 449.881713 144 
L 444.413189 144 
L 443.73788 144 
L 443.100533 144 
L 442.322877 144 
L 440.780872 144 
L 440.022227 144 
L 439.286461 144 
L 438.321429 144 
L 437.49564 144 
L 436.408806 144 
L 435.514035 144 
L 434.674777 144 
L 433.81761 144 
L 433.03699 144 
L 432.059858 144 
L 431.308399 144 
L 428.509329 144 
L 427.005844 144 
L 424.729531 144 
L 417.769205 144 
L 417.380377 144 
L 413.777832 144 
L 410.056638 144 
L 403.533604 144 
L 402.599651 144 
L 402.021918 144 
L 401.269525 144 
L 399.890422 144 
L 399.089662 144 
L 398.582127 144 
L 398.426454 144 
L 398.182271 144 
L 397.473968 144 
L 397.130548 144 
L 396.510006 144 
L 396.109809 144 
L 395.840325 144 
L 395.29237 144 
L 394.391878 144 
L 392.428676 144 
L 389.964974 144 
L 388.124123 144 
L 387.537953 144 
L 387.069545 144 
L 386.2134 144 
L 385.662233 144 
L 385.299613 144 
L 385.064524 144 
L 384.414179 144 
L 384.205931 144 
L 383.672824 144 
L 383.174452 144 
L 382.783945 144 
L 381.862022 144 
L 381.465958 144 
L 380.969876 144 
L 380.577425 144 
L 380.298167 144 
L 379.600635 144 
L 378.992563 144 
L 378.512407 144 
L 377.988731 144 
L 376.218442 144 
L 374.871551 144 
L 373.530331 144 
L 372.854675 144 
L 372.192749 144 
L 371.824205 144 
L 371.42026 144 
L 370.914509 144 
L 370.586603 144 
L 370.022315 144 
L 367.802354 144 
L 366.898576 144 
L 366.480199 144 
L 365.895617 144 
L 365.456143 144 
L 364.949567 144 
L 363.779905 144 
L 362.531972 144 
L 362.051392 144 
L 361.580409 144 
L 361.133772 144 
L 360.529576 144 
L 360.165281 144 
L 359.545074 144 
L 358.937369 144 
L 357.174289 144 
L 355.966181 144 
L 355.662819 144 
L 355.301592 144 
L 354.471507 144 
L 354.09709 144 
L 353.752685 144 
L 353.344058 144 
L 352.649502 144 
L 352.190988 144 
L 351.682891 144 
L 351.03789 144 
L 350.266546 144 
L 349.727547 144 
L 349.370414 144 
L 349.014297 144 
L 348.518855 144 
L 347.954593 144 
L 347.237368 144 
L 346.506553 144 
L 343.812687 144 
L 342.906451 144 
L 342.198699 144 
L 341.296236 144 
L 338.824533 144 
L 338.113419 144 
L 337.37421 144 
L 336.289306 144 
L 332.938192 144 
L 331.613256 144 
L 330.303676 144 
L 326.807524 144 
L 325.54614 144 
L 324.599441 144 
L 321.911283 144 
L 321.088002 144 
L 320.556963 144 
L 320.277728 144 
L 318.994304 144 
L 318.45428 144 
L 318.212659 144 
L 317.495147 144 
L 317.180823 144 
L 316.919171 144 
L 316.449823 144 
L 315.621204 144 
L 314.907362 144 
L 313.992058 144 
L 313.699554 144 
L 313.462596 144 
L 312.935497 144 
L 312.260223 144 
L 311.99686 144 
L 311.2813 144 
L 311.083698 144 
L 309.642397 144 
L 309.264419 144 
L 307.803194 144 
L 306.317916 144 
L 305.949806 144 
L 305.505806 144 
L 305.063453 144 
L 304.73505 144 
L 304.344975 144 
L 303.278346 144 
L 300.739483 144 
L 299.47509 144 
L 298.078305 144 
L 296.875468 144 
L 296.658348 144 
L 296.006558 144 
L 295.418001 144 
L 294.922458 144 
L 294.437339 144 
L 294.237852 144 
L 293.993711 144 
L 293.537703 144 
L 293.247029 144 
L 293.028135 144 
L 292.83291 144 
L 292.638863 144 
L 290.925034 144 
L 290.54528 144 
L 290.200215 144 
L 289.767882 144 
L 288.754984 144 
L 286.292959 144 
L 285.865797 144 
L 285.422412 144 
L 284.935564 144 
L 284.443023 144 
L 282.420246 144 
L 280.735649 144 
L 279.779209 144 
L 279.186799 144 
L 278.66675 144 
L 278.224548 144 
L 277.721894 144 
L 277.316396 144 
L 276.48446 144 
L 276.111808 144 
L 275.713049 144 
L 273.19668 144 
L 272.780862 144 
L 271.893868 144 
L 270.755636 144 
L 269.736094 144 
L 269.736094 144 
L 268.716553 144 
L 267.578321 144 
L 266.691327 144 
L 266.275509 144 
L 263.75914 144 
L 263.36038 144 
L 262.987729 144 
L 262.155793 144 
L 261.750295 144 
L 261.24764 144 
L 260.805439 144 
L 260.28539 144 
L 259.69298 144 
L 258.73654 144 
L 257.051943 144 
L 254.860201 144 
L 254.259499 144 
L 253.746348 144 
L 253.413426 144 
L 253.060841 144 
L 252.6725 144 
L 252.303932 144 
L 251.933828 144 
L 251.554804 144 
L 250.997609 144 
L 250.443699 144 
L 249.909812 144 
L 249.59755 144 
L 249.324276 144 
L 249.034469 144 
L 248.720733 144 
L 248.408441 144 
L 248.052954 144 
L 247.759452 144 
L 247.411255 144 
L 247.00078 144 
L 246.584057 144 
L 246.172541 144 
L 245.770276 144 
L 243.135964 144 
L 242.482285 144 
L 242.033276 144 
L 241.441264 144 
L 240.980017 144 
L 240.054465 144 
L 239.781523 144 
L 239.536973 144 
L 239.224174 144 
L 238.910706 144 
L 238.190898 144 
L 236.97764 144 
L 236.68494 144 
L 236.68494 144 
L 234.4146 144 
L 232.003814 144 
L 230.205833 144 
L 229.793061 144 
L 229.558472 144 
L 229.373076 144 
L 229.16783 144 
L 228.932043 144 
L 223.567361 144 
L 223.329926 144 
L 223.071279 144 
L 222.775357 144 
L 220.842242 144 
L 219.598947 144 
L 218.58553 144 
L 217.836189 144 
L 215.00049 144 
L 214.708774 144 
L 211.44931 144 
L 210.300301 144 
L 209.427766 144 
L 206.474688 144 
L 205.669224 144 
L 205.287556 144 
L 204.870317 144 
L 201.880518 144 
L 201.766008 144 
L 200.046963 144 
L 199.485675 144 
L 199.233543 144 
L 197.722307 144 
L 197.085017 144 
L 196.699877 144 
L 195.283338 144 
L 194.482479 144 
L 192.244973 144 
L 191.634593 144 
L 191.154655 144 
L 190.480645 144 
L 189.175983 144 
L 188.446666 144 
L 187.555159 144 
L 186.811439 144 
L 185.577786 144 
L 185.076727 144 
L 184.113596 144 
L 182.682708 144 
L 181.819431 144 
L 180.198583 144 
L 178.804716 144 
L 177.121031 144 
L 176.37455 144 
L 174.879148 144 
L 174.220055 144 
L 172.298065 144 
L 171.507585 144 
L 168.204096 144 
L 166.239845 144 
L 164.097581 144 
L 162.694966 144 
L 161.517566 144 
L 160.909955 144 
L 160.720231 144 
L 160.3872 144 
L 160.222735 144 
L 159.660125 144 
L 159.396248 144 
L 158.762114 144 
L 158.363752 144 
L 158.016062 144 
L 157.614074 144 
L 157.318291 144 
L 157.100307 144 
L 156.892194 144 
L 156.691913 144 
L 156.551436 144 
L 156.551436 144 
L 156.41096 144 
L 156.210679 144 
L 156.002566 144 
L 155.784582 144 
L 155.488798 144 
L 155.019264 144 
L 154.664281 144 
L 153.991703 144 
L 152.921234 144 
L 152.677951 144 
L 152.259925 144 
L 151.702192 144 
L 151.390419 144 
L 150.041 144 
L 149.705512 144 
L 149.567897 144 
L 147.848316 144 
L 147.154864 144 
L 146.416032 144 
L 144.837578 144 
L 143.73386 144 
L 141.85419 144 
L 139.299388 144 
L 138.577032 144 
L 137.729992 144 
L 137.228143 144 
L 137.027302 144 
L 136.125999 144 
L 135.850853 144 
L 135.405429 144 
L 134.763268 144 
L 134.430215 144 
L 133.953825 144 
L 131.429905 144 
L 130.014507 144 
L 129.2554 144 
L 128.650048 144 
L 127.851758 144 
L 126.980226 144 
L 126.435757 144 
L 125.886063 144 
L 125.004756 144 
L 124.490211 144 
L 122.006155 144 
L 120.902164 144 
L 120.310538 144 
L 119.803792 144 
L 118.987084 144 
L 118.133405 144 
L 117.705606 144 
L 116.926877 144 
L 116.166628 144 
L 115.461831 144 
L 115.461831 144 
L 115.206248 144 
L 114.265118 144 
L 113.673491 144 
L 113.208635 144 
L 112.569095 144 
L 112.076701 144 
L 111.61001 144 
L 111.103417 144 
L 110.557705 144 
L 110.106788 144 
L 109.555305 144 
L 108.47904 144 
L 107.392746 144 
L 106.543837 144 
L 105.992951 144 
L 105.143226 144 
L 104.755147 144 
L 104.264143 144 
L 103.9318 144 
L 102.875677 144 
L 102.154236 144 
L 101.748515 144 
L 101.392104 144 
L 101.156462 144 
L 100.512927 144 
L 99.826929 144 
L 98.663758 144 
L 97.941202 144 
L 97.276854 144 
L 96.295451 144 
L 95.322321 144 
L 94.80994 144 
L 93.905264 144 
L 93.0474 144 
L 92.851901 144 
L 92.694186 144 
L 92.41937 144 
L 92.052724 144 
L 91.458385 144 
L 90.868296 144 
L 90.608959 144 
L 90.241385 144 
L 90.032852 144 
L 89.865815 144 
L 89.681466 144 
L 89.544248 144 
L 89.408137 144 
L 89.210077 144 
L 89.012016 144 
L 88.914814 144 
L 88.461709 144 
L 88.307142 144 
L 88.236117 144 
L 88.165033 144 
L 87.998683 144 
L 87.850744 144 
L 87.754105 144 
L 87.695772 144 
L 87.546674 144 
L 87.395818 144 
L 87.24678 144 
L 87.07394 144 
L 86.839727 144 
L 86.679674 144 
L 86.635812 144 
L 86.596923 144 
L 86.198559 144 
L 85.905825 144 
L 85.608526 144 
L 85.314586 144 
L 84.970475 144 
L 84.547281 144 
L 84.025786 144 
L 82.893611 144 
L 82.119568 144 
L 80.437607 144 
L 79.4476 144 
L 78.592205 144 
L 78.050779 144 
L 76.879807 144 
L 76.469527 144 
L 73.430653 144 
L 72.904138 144 
L 72.351103 144 
L 71.141555 144 
L 70.849614 144 
L 70.675592 144 
L 70.303443 144 
L 70.047878 144 
L 69.794004 144 
L 68.926915 144 
L 67.820873 144 
L 67.569441 144 
L 66.61278 144 
L 66.329541 144 
L 66.135101 144 
L 65.969102 144 
L 65.796905 144 
L 65.694459 144 
L 65.527113 144 
L 65.359333 144 
L 65.224906 144 
L 65.083254 144 
L 64.935917 144 
L 64.797994 144 
L 64.657518 144 
L 64.515491 144 
L 64.238577 144 
L 63.8419 144 
L 63.506306 144 
L 62.548663 144 
L 61.850835 144 
L 61.111958 144 
L 60.195243 144 
L 59.33106 144 
L 57.077552 144 
L 56.220046 144 
L 55.393953 144 
L 54.520663 144 
L 54.327596 144 
L 54.228214 144 
L 54.11026 144 
L 53.907363 144 
L 53.699769 144 
L 53.481786 144 
L 53.063765 144 
L 52.622021 144 
L 51.974293 144 
L 51.496265 144 
L 51.172482 144 
L 49.946071 144 
L 49.436101 144 
L 48.815826 144 
L 48.102089 144 
L 47.381682 144 
L 46.45905 144 
L 45.572052 144 
L 44.347848 144 
L 43.981126 144 
L 43.919369 144 
L 43.718546 144 
L 43.402095 144 
L 43.087766 144 
L 42.70358 144 
L 42.278376 144 
L 42.160425 144 
L 41.94273 144 
L 41.327031 144 
L 40.651103 144 
L 40.473571 144 
L 39.719569 144 
L 39.194734 144 
L 38.127769 144 
L 36.612344 144 
L 35.894435 144 
L 35.330369 144 
L 35.190774 144 
L 35.017622 144 
L 34.75648 144 
L 32.428219 144 
L 32.159378 144 
L 31.794514 144 
L 31.577367 144 
L 31.131994 144 
L 30.811821 144 
L 30.568619 144 
L 30.123552 144 
L 29.87215 144 
L 29.723978 144 
L 29.427728 144 
L 29.164067 144 
L 29.025192 144 
L 28.900399 144 
L 28.741398 144 
L 28.50309 144 
L 28.336066 144 
L 28.077382 144 
L 27.93978 144 
L 27.823124 144 
L 27.591278 144 
L 27.545313 144 
L 27.410591 144 
L 27.322873 144 
L 27.261118 144 
L 27.241676 144 
L 26.444072 144 
L 25.523367 144 
L 25.402966 144 
L 24.83568 144 
L 24.48262 144 
L 23.677095 144 
L 23.445058 144 
L 23.054389 144 
L 21.61895 144 
L 21.581275 144 
L 21.220176 144 
L 20.592522 144 
L 20.32969 144 
L 20.119795 144 
L 18.485036 144 
L 17.384145 144 
L 15.972678 144 
L 15.579537 144 
L 15.422681 144 
L 15.186352 144 
L 14.766342 144 
L 13.530772 144 
L 12.774074 144 
L 12.542143 144 
L 12.431822 144 
L 12.059129 144 
L 11.632649 144 
L 11.217522 144 
L 10.708965 144 
L 10.047724 144 
L 9.394763 144 
L 8.240367 144 
L 7.732487 144 
L 7.592538 144 
L 7.455333 144 
L 7.333861 144 
L 7.25206 144 
L 6.817221 144 
L 6.741611 144 
L 6.564466 144 
L 6.426863 144 
L 6.287726 144 
L 6.248841 144 
L 6.012026 144 
L 5.815524 144 
L 5.621097 144 
L 5.309352 144 
L 4.919968 144 
L 4.799886 144 
L 4.646504 144 
L 4.56613 144 
L 4.155822 144 
L 4.097493 144 
L 3.447791 144 
L 3.037808 144 
L 2.028159 144 
L 1.776007 144 
L 1.654534 144 
L 1.59367 144 
L 1.515899 144 
L 1.205806 144 
L 1.068216 144 
L 0.754973 144 
L 0.734687 144 
L 0.717405 144 
L 0.345281 144 
L 0.327998 144 
L 0.290323 144 
L 0.251438 144 
L 0.231152 144 
L 0 144 
z
" style="fill:#c18182;fill-opacity:0.3;stroke:#c18182;stroke-opacity:0.3;"/>
   </g>
   <g id="line2d_1">
    <path clip-path="url(#paa2c12a617)" d="M 0 120.591133 
L 5.621097 120.591133 
L 6.287726 123.428571 
L 6.426863 124.137931 
L 6.564466 124.137931 
L 6.817221 125.55665 
L 7.732487 129.812808 
L 8.240367 131.940887 
L 9.394763 134.778325 
L 20.592522 134.778325 
L 21.61895 138.325123 
L 23.054389 139.743842 
L 23.445058 137.615764 
L 24.48262 137.615764 
L 24.83568 141.162562 
L 25.523367 141.871921 
L 27.241676 141.871921 
L 27.261118 144 
L 27.322873 143.29064 
L 27.410591 141.871921 
L 27.591278 144 
L 27.823124 141.871921 
L 31.577367 141.871921 
L 31.794514 141.162562 
L 32.428219 141.162562 
L 35.017622 140.453202 
L 36.612344 140.453202 
L 38.127769 139.743842 
L 39.719569 139.743842 
L 40.473571 139.034483 
L 42.278376 139.034483 
L 42.70358 136.197044 
L 43.718546 136.197044 
L 43.981126 136.906404 
L 44.347848 136.197044 
L 45.572052 135.487685 
L 46.45905 134.778325 
L 47.381682 134.778325 
L 48.102089 131.940887 
L 48.815826 131.231527 
L 49.436101 131.231527 
L 49.946071 130.522167 
L 51.172482 129.812808 
L 51.496265 129.812808 
L 51.974293 129.103448 
L 52.622021 129.103448 
L 53.063765 128.394089 
L 53.907363 128.394089 
L 54.11026 127.684729 
L 64.238577 127.684729 
L 64.515491 121.300493 
L 64.797994 124.137931 
L 65.083254 124.137931 
L 65.224906 124.847291 
L 65.359333 124.847291 
L 65.796905 121.300493 
L 66.329541 121.300493 
L 66.61278 123.428571 
L 67.569441 123.428571 
L 67.820873 122.719212 
L 68.926915 123.428571 
L 69.794004 122.009852 
L 70.047878 121.300493 
L 70.303443 127.684729 
L 76.469527 127.684729 
L 76.879807 124.847291 
L 78.050779 124.847291 
L 78.592205 125.55665 
L 80.437607 124.137931 
L 84.025786 124.137931 
L 84.547281 123.428571 
L 87.546674 123.428571 
L 87.754105 124.137931 
L 88.236117 124.137931 
L 88.307142 123.428571 
L 89.865815 123.428571 
L 90.032852 122.719212 
L 92.052724 122.719212 
L 92.41937 122.009852 
L 93.905264 122.009852 
L 94.80994 121.300493 
L 95.322321 121.300493 
L 96.295451 120.591133 
L 102.154236 120.591133 
L 102.875677 114.206897 
L 103.9318 114.206897 
L 104.264143 119.881773 
L 104.755147 119.172414 
L 105.143226 119.172414 
L 105.992951 118.463054 
L 106.543837 117.753695 
L 107.392746 117.044335 
L 108.47904 116.334975 
L 109.555305 114.916256 
L 110.106788 114.916256 
L 110.557705 114.206897 
L 114.265118 114.206897 
L 115.206248 114.916256 
L 126.435757 114.916256 
L 126.980226 115.625616 
L 139.299388 115.625616 
L 141.85419 114.916256 
L 144.837578 114.916256 
L 146.416032 114.206897 
L 147.848316 114.206897 
L 149.705512 113.497537 
L 161.517566 113.497537 
L 162.694966 104.275862 
L 164.097581 102.147783 
L 166.239845 97.182266 
L 168.204096 91.507389 
L 171.507585 86.541872 
L 172.298065 84.413793 
L 174.879148 79.448276 
L 176.37455 77.320197 
L 177.121031 75.901478 
L 178.804716 73.773399 
L 180.198583 72.35468 
L 181.819431 70.226601 
L 182.682708 68.098522 
L 184.113596 65.261084 
L 185.076727 66.679803 
L 185.577786 66.679803 
L 187.555159 68.807882 
L 189.175983 70.226601 
L 190.480645 71.64532 
L 191.154655 71.64532 
L 191.634593 72.35468 
L 192.244973 72.35468 
L 194.482479 73.773399 
L 195.283338 74.482759 
L 196.699877 75.192118 
L 197.085017 75.901478 
L 197.722307 75.901478 
L 199.233543 77.320197 
L 199.485675 77.320197 
L 201.766008 71.64532 
L 201.880518 72.35468 
L 204.870317 75.192118 
L 205.287556 75.192118 
L 205.669224 75.901478 
L 206.474688 76.610837 
L 211.44931 87.251232 
L 214.708774 92.926108 
L 215.00049 92.926108 
L 217.836189 90.08867 
L 218.58553 87.960591 
L 219.598947 85.832512 
L 220.842242 79.448276 
L 223.071279 70.935961 
L 229.793061 70.935961 
L 230.205833 70.226601 
L 232.003814 68.098522 
L 234.4146 65.970443 
L 236.68494 63.133005 
L 236.68494 63.133005 
L 236.97764 63.133005 
L 238.910706 59.586207 
L 239.224174 59.586207 
L 239.781523 58.167488 
L 240.054465 58.167488 
L 240.980017 56.748768 
L 249.909812 56.748768 
L 250.443699 56.039409 
L 251.933828 52.492611 
L 253.413426 49.655172 
L 253.746348 49.655172 
L 254.860201 48.236453 
L 257.051943 46.817734 
L 258.73654 46.108374 
L 259.69298 45.399015 
L 260.28539 44.689655 
L 261.24764 44.689655 
L 261.750295 43.980296 
L 262.155793 43.980296 
L 262.987729 43.270936 
L 263.36038 43.270936 
L 263.75914 42.561576 
L 266.691327 36.17734 
L 267.578321 35.46798 
L 271.893868 35.46798 
L 272.780862 36.17734 
L 273.19668 36.8867 
L 276.111808 43.270936 
L 276.48446 43.270936 
L 277.316396 43.980296 
L 277.721894 43.980296 
L 278.224548 44.689655 
L 279.186799 44.689655 
L 279.779209 45.399015 
L 280.735649 46.108374 
L 282.420246 46.817734 
L 284.443023 48.236453 
L 284.935564 48.945813 
L 285.865797 48.945813 
L 286.292959 49.655172 
L 288.754984 56.748768 
L 289.767882 57.458128 
L 290.200215 58.167488 
L 290.54528 58.167488 
L 290.925034 58.876847 
L 292.638863 60.295567 
L 292.83291 61.004926 
L 293.247029 61.004926 
L 293.537703 63.842365 
L 293.993711 64.551724 
L 294.437339 64.551724 
L 294.922458 65.261084 
L 295.418001 65.261084 
L 296.006558 65.970443 
L 296.658348 65.970443 
L 296.875468 66.679803 
L 299.47509 68.098522 
L 300.739483 68.807882 
L 303.278346 70.935961 
L 304.344975 72.35468 
L 306.317916 75.901478 
L 309.264419 82.995074 
L 309.642397 84.413793 
L 311.2813 85.123153 
L 315.621204 85.123153 
L 316.449823 84.413793 
L 318.45428 84.413793 
L 318.994304 83.704433 
L 320.277728 83.704433 
L 321.911283 79.448276 
L 324.599441 74.482759 
L 326.807524 69.517241 
L 330.303676 63.842365 
L 332.938192 61.004926 
L 336.289306 58.167488 
L 337.37421 57.458128 
L 338.113419 56.039409 
L 338.824533 53.91133 
L 341.296236 45.399015 
L 342.906451 36.8867 
L 343.812687 30.502463 
L 346.506553 20.571429 
L 347.954593 19.152709 
L 349.014297 17.73399 
L 349.370414 18.44335 
L 350.266546 18.44335 
L 351.03789 19.152709 
L 351.682891 19.152709 
L 352.190988 19.862069 
L 352.649502 19.862069 
L 353.344058 20.571429 
L 354.471507 20.571429 
L 355.301592 21.280788 
L 355.662819 21.990148 
L 355.966181 23.408867 
L 357.174289 26.955665 
L 358.937369 30.502463 
L 359.545074 31.211823 
L 360.165281 32.630542 
L 360.529576 32.630542 
L 361.133772 34.049261 
L 362.531972 36.17734 
L 363.779905 37.596059 
L 364.949567 38.305419 
L 366.480199 40.433498 
L 366.898576 40.433498 
L 367.802354 41.852217 
L 370.022315 43.980296 
L 370.586603 44.689655 
L 370.914509 44.689655 
L 371.42026 45.399015 
L 371.824205 45.399015 
L 372.192749 46.108374 
L 372.854675 46.817734 
L 373.530331 46.817734 
L 376.218442 49.655172 
L 378.512407 56.748768 
L 379.600635 60.295567 
L 380.577425 63.133005 
L 380.969876 63.842365 
L 381.465958 65.970443 
L 381.862022 66.679803 
L 383.174452 70.935961 
L 387.069545 70.935961 
L 387.537953 68.807882 
L 388.124123 66.679803 
L 389.964974 58.876847 
L 396.109809 44.689655 
L 396.510006 43.270936 
L 397.130548 42.561576 
L 397.473968 41.852217 
L 398.182271 41.142857 
L 398.426454 40.433498 
L 398.582127 40.433498 
L 399.089662 39.724138 
L 399.890422 39.014778 
L 401.269525 36.8867 
L 402.021918 36.17734 
L 402.599651 36.8867 
L 403.533604 38.305419 
L 410.056638 53.20197 
L 413.777832 59.586207 
L 417.380377 65.261084 
L 417.769205 65.261084 
L 424.729531 61.714286 
L 427.005844 60.295567 
L 428.509329 59.586207 
L 431.308399 56.748768 
L 458.135923 56.748768 
L 466.990675 62.423645 
L 467.982578 63.842365 
L 481.22141 63.842365 
L 482.8811 62.423645 
L 484.847641 61.004926 
L 485.497504 60.295567 
L 486.094708 60.295567 
L 488.468756 56.748768 
L 488.941798 55.330049 
L 490.003371 53.20197 
L 490.43709 51.783251 
L 491.157561 50.364532 
L 491.741303 49.655172 
L 492.01715 48.945813 
L 492.152073 48.945813 
L 493.365464 48.236453 
L 494.405332 48.236453 
L 495.128832 47.527094 
L 496.159302 46.817734 
L 496.535516 46.817734 
L 499.16862 45.399015 
L 499.636544 45.399015 
L 500.00514 44.689655 
L 500.703574 44.689655 
L 500.962382 43.980296 
L 501.572523 43.980296 
L 502.430757 43.270936 
L 503.051601 43.270936 
L 504.617808 42.561576 
L 510.544745 42.561576 
L 511.980466 36.17734 
L 513.904128 31.921182 
L 515.573819 29.083744 
L 516.89667 26.246305 
L 517.721352 24.827586 
L 518.26931 24.118227 
L 518.822654 22.699507 
L 519.635748 21.280788 
L 521.668266 21.280788 
L 522.712443 23.408867 
L 523.207433 24.118227 
L 524.308305 26.955665 
L 525.016441 28.374384 
L 525.643258 29.083744 
L 526.263645 29.083744 
L 527.265885 29.793103 
L 528.572568 30.502463 
L 529.580146 31.211823 
L 529.937629 31.211823 
L 530.844054 31.921182 
L 531.459642 31.921182 
L 532.011035 32.630542 
L 533.307497 33.339901 
L 534.274819 33.339901 
L 535.476734 34.049261 
L 536.352983 34.758621 
L 536.876874 34.758621 
L 537.314183 35.46798 
L 586.038249 35.46798 
L 593.39272 36.8867 
L 594.42227 37.596059 
L 595.314444 37.596059 
L 602.065344 39.014778 
L 604.519576 39.014778 
L 605.784483 39.724138 
L 608.047484 39.724138 
L 608.819329 40.433498 
L 610.101875 40.433498 
L 614.37962 41.142857 
L 615.325873 41.852217 
L 620.231853 41.852217 
L 620.893465 42.561576 
L 623.257695 42.561576 
L 623.948309 43.270936 
L 624.416706 43.980296 
L 625.663618 45.399015 
L 627.202984 46.817734 
L 628.3197 47.527094 
L 628.521537 48.236453 
L 630.993846 48.236453 
L 634.188508 48.945813 
L 635.574824 49.655172 
L 637.52712 50.364532 
L 639.542432 53.91133 
L 641.495106 57.458128 
L 642.295009 59.586207 
L 645.226783 65.261084 
L 647.500264 68.807882 
L 647.909355 68.807882 
L 648.45559 69.517241 
L 649.186642 70.226601 
L 649.805688 70.226601 
L 651.241324 73.064039 
L 651.768208 73.773399 
L 652.640253 75.192118 
L 653.301223 76.610837 
L 654.159454 78.029557 
L 655.990365 78.029557 
L 656.96631 76.610837 
L 657.645201 76.610837 
L 659.231301 75.192118 
L 660.242566 73.773399 
L 663.320144 70.935961 
L 665.323989 67.389163 
L 668.129749 61.714286 
L 668.617209 61.004926 
L 674.092844 63.842365 
L 679.549217 63.842365 
L 685.193578 61.004926 
L 688.197751 56.039409 
L 688.736603 54.62069 
L 689.431892 53.20197 
L 689.958792 52.492611 
L 693.20903 46.817734 
L 693.381502 46.817734 
L 693.590397 46.108374 
L 693.837873 43.270936 
L 694.099502 43.270936 
L 695.269967 42.561576 
L 695.855191 42.561576 
L 696.084118 41.852217 
L 696.24722 41.852217 
L 696.828567 41.142857 
L 698.2205 39.014778 
L 700.366989 35.46798 
L 700.803508 32.630542 
L 701.810128 30.502463 
L 703.350366 26.246305 
L 703.799567 25.536946 
L 704.524668 23.408867 
L 707.961658 14.896552 
L 708.347184 13.477833 
L 708.889905 12.768473 
L 709.50404 10.640394 
L 709.713268 10.640394 
L 711.634801 5.674877 
L 712.265124 4.965517 
L 712.779965 3.546798 
L 713.682079 2.128079 
L 716.591443 0 
L 720 0 
L 720 0 
" style="fill:none;stroke:#c18182;stroke-linecap:square;stroke-width:3;"/>
   </g>
  </g>
 </g>
 <defs>
  <clipPath id="paa2c12a617">
   <rect height="144" width="720" x="0" y="0"/>
  </clipPath>
 </defs>
</svg>
