<?xml version="1.0" encoding="utf-8" standalone="no"?>
<!DOCTYPE svg PUBLIC "-//W3C//DTD SVG 1.1//EN"
  "http://www.w3.org/Graphics/SVG/1.1/DTD/svg11.dtd">
<!-- Created with matplotlib (http://matplotlib.org/) -->
<svg height="144pt" version="1.1" viewBox="0 0 720 144" width="720pt" xmlns="http://www.w3.org/2000/svg" xmlns:xlink="http://www.w3.org/1999/xlink">
 <defs>
  <style type="text/css">
*{stroke-linecap:butt;stroke-linejoin:round;}
  </style>
 </defs>
 <g id="figure_1">
  <g id="patch_1">
   <path d="M 0 144 
L 720 144 
L 720 0 
L 0 0 
z
" style="fill:none;"/>
  </g>
  <g id="axes_1">
   <g id="PolyCollection_1">
    <path clip-path="url(#p3dcbef6a4e)" d="M 0 144 
L 0 121.371429 
L 0.234323 121.371429 
L 0.254888 121.371429 
L 0.294307 121.371429 
L 0.332499 121.371429 
L 0.350018 121.371429 
L 0.727248 121.371429 
L 0.744768 121.371429 
L 0.765332 121.371429 
L 1.082873 121.371429 
L 1.222351 121.371429 
L 1.536698 121.371429 
L 1.615536 121.371429 
L 1.677236 121.371429 
L 1.800375 121.371429 
L 2.055987 121.371429 
L 3.079489 121.371429 
L 3.495098 121.371429 
L 4.153715 121.371429 
L 4.212843 121.371429 
L 4.628782 121.371429 
L 4.710258 121.371429 
L 4.865744 121.371429 
L 4.987475 121.371429 
L 5.382201 121.371429 
L 5.698223 121.371429 
L 5.895319 122.057143 
L 6.094516 122.742857 
L 6.33458 123.428571 
L 6.373999 124.114286 
L 6.515045 124.8 
L 6.654536 124.8 
L 6.834112 126.171429 
L 6.91076 126.171429 
L 7.351565 128.228571 
L 7.434488 128.228571 
L 7.557627 128.914286 
L 7.696715 129.6 
L 7.838584 130.285714 
L 8.353433 132.342857 
L 9.523668 135.085714 
L 10.185588 135.085714 
L 10.855902 135.085714 
L 11.371436 135.085714 
L 11.792259 135.085714 
L 12.224591 135.085714 
L 12.602398 135.085714 
L 12.714233 135.085714 
L 12.949346 135.085714 
L 13.716427 135.085714 
L 14.96895 135.085714 
L 15.394722 135.085714 
L 15.634295 135.085714 
L 15.793302 135.085714 
L 16.191838 135.085714 
L 17.622671 135.085714 
L 18.738667 135.085714 
L 20.395857 135.085714 
L 20.608632 135.085714 
L 20.87507 135.085714 
L 21.511337 137.142857 
L 21.87739 138.514286 
L 21.915582 138.514286 
L 23.370716 139.885714 
L 23.766745 137.828571 
L 24.001967 137.828571 
L 24.818544 137.828571 
L 25.176448 141.257143 
L 25.751518 141.942857 
L 25.873571 141.942857 
L 26.806908 141.942857 
L 27.615456 141.942857 
L 27.635166 144 
L 27.697768 143.314286 
L 27.78669 141.942857 
L 27.923259 144 
L 27.969856 144 
L 28.204882 141.942857 
L 28.323139 141.942857 
L 28.46263 141.942857 
L 28.724862 141.942857 
L 28.894178 141.942857 
L 29.135756 141.942857 
L 29.296939 141.942857 
L 29.423444 141.942857 
L 29.564224 141.942857 
L 29.831504 141.942857 
L 30.131818 141.942857 
L 30.282023 141.942857 
L 30.536874 141.942857 
L 30.988048 141.942857 
L 31.234587 141.942857 
L 31.559154 141.942857 
L 32.010638 141.942857 
L 32.230764 141.257143 
L 32.600634 141.257143 
L 32.873164 141.257143 
L 35.233371 140.571429 
L 35.498096 140.571429 
L 35.673623 140.571429 
L 35.815133 140.571429 
L 36.386939 140.571429 
L 37.114699 140.571429 
L 38.650916 139.885714 
L 39.732522 139.885714 
L 40.264557 139.885714 
L 41.028905 139.2 
L 41.208873 139.2 
L 41.894076 139.2 
L 42.518222 139.2 
L 42.738904 139.2 
L 42.858473 139.2 
L 43.289512 136.457143 
L 43.67897 136.457143 
L 43.997611 136.457143 
L 44.318404 136.457143 
L 44.521982 137.142857 
L 44.584588 137.142857 
L 44.956341 136.457143 
L 46.197342 135.771429 
L 47.096511 135.085714 
L 48.031802 135.085714 
L 48.762093 132.342857 
L 49.485623 131.657143 
L 50.114409 131.657143 
L 50.631377 130.971429 
L 51.874615 130.285714 
L 52.202841 130.285714 
L 52.687427 129.6 
L 53.344043 129.6 
L 53.791848 128.914286 
L 54.215605 128.914286 
L 54.436579 128.914286 
L 54.647021 128.914286 
L 54.852702 128.228571 
L 54.972275 128.228571 
L 55.07302 128.228571 
L 55.268736 128.228571 
L 56.154009 128.228571 
L 56.991436 128.228571 
L 57.860707 128.228571 
L 60.145136 128.228571 
L 61.021176 128.228571 
L 61.95047 128.228571 
L 62.699485 128.228571 
L 63.406887 128.228571 
L 64.377671 128.228571 
L 64.717869 128.228571 
L 65.119988 128.228571 
L 65.400702 122.057143 
L 65.544678 124.114286 
L 65.687081 124.8 
L 65.826897 124.8 
L 65.976256 124.8 
L 66.119851 125.485714 
L 66.256122 125.485714 
L 66.426205 124.114286 
L 66.595847 122.742857 
L 66.699698 122.057143 
L 66.874258 122.057143 
L 67.042535 122.057143 
L 67.239643 122.057143 
L 67.526768 124.114286 
L 68.496556 124.114286 
L 68.751437 123.428571 
L 69.872655 124.114286 
L 70.751641 122.742857 
L 71.008999 122.057143 
L 71.26807 128.228571 
L 71.645326 128.228571 
L 71.821735 128.228571 
L 72.117681 128.228571 
L 73.343826 128.228571 
L 73.904449 128.228571 
L 74.438188 128.228571 
L 77.518759 128.228571 
L 77.934668 125.485714 
L 79.121707 125.485714 
L 79.670562 126.171429 
L 80.537693 125.485714 
L 81.541284 124.8 
L 83.246324 124.8 
L 84.030987 124.8 
L 85.178697 124.8 
L 85.707347 124.114286 
L 86.136347 124.114286 
L 86.485179 124.114286 
L 86.783153 124.114286 
L 87.084532 124.114286 
L 87.381281 124.114286 
L 87.785112 124.114286 
L 87.824534 124.114286 
L 87.868998 124.114286 
L 88.031247 124.114286 
L 88.268674 124.114286 
L 88.443885 124.114286 
L 88.594968 124.114286 
L 88.747894 124.114286 
L 88.899037 124.8 
L 88.958171 124.8 
L 89.056136 124.8 
L 89.206105 124.8 
L 89.374738 124.8 
L 89.446797 124.8 
L 89.518796 124.114286 
L 89.675484 124.114286 
L 90.134806 124.114286 
L 90.233342 124.114286 
L 90.43412 124.114286 
L 90.634898 124.114286 
L 90.772877 124.114286 
L 90.911977 124.114286 
L 91.098855 124.114286 
L 91.268184 123.428571 
L 91.479579 123.428571 
L 91.852196 123.428571 
L 92.115092 123.428571 
L 92.713277 123.428571 
L 93.315771 123.428571 
L 93.687448 122.742857 
L 93.966034 122.742857 
L 94.125913 122.742857 
L 94.324095 122.742857 
L 95.19373 122.742857 
L 96.110818 122.057143 
L 96.63023 122.057143 
L 97.616712 121.371429 
L 98.611581 121.371429 
L 99.285044 121.371429 
L 100.017515 121.371429 
L 101.196645 121.371429 
L 101.892056 121.371429 
L 102.544421 121.371429 
L 102.783296 121.371429 
L 103.144597 121.371429 
L 103.555885 121.371429 
L 104.287224 115.2 
L 105.357839 115.2 
L 105.694742 120.685714 
L 106.192483 120 
L 106.585887 120 
L 107.447271 119.314286 
L 108.005715 118.628571 
L 108.866272 117.942857 
L 109.313864 117.942857 
L 109.313864 117.942857 
L 109.967472 117.257143 
L 111.058505 115.885714 
L 111.617555 115.885714 
L 112.074658 115.2 
L 112.627858 115.2 
L 113.141402 115.2 
L 113.614496 115.2 
L 114.113646 115.2 
L 114.761962 115.2 
L 115.233196 115.2 
L 115.832941 115.2 
L 116.786984 115.885714 
L 117.760536 115.885714 
L 118.531216 115.885714 
L 119.320629 115.885714 
L 119.754298 115.885714 
L 120.619691 115.885714 
L 121.447605 115.885714 
L 121.961304 115.885714 
L 122.561047 115.885714 
L 123.680186 115.885714 
L 126.198325 115.885714 
L 126.71993 115.885714 
L 127.61333 115.885714 
L 128.170566 115.885714 
L 128.722506 116.571429 
L 129.605996 116.571429 
L 130.415239 116.571429 
L 131.028898 116.571429 
L 131.79842 116.571429 
L 133.233238 116.571429 
L 135.791789 116.571429 
L 136.274715 116.571429 
L 136.612338 116.571429 
L 137.26331 116.571429 
L 137.714846 116.571429 
L 137.993767 116.571429 
L 138.907437 116.571429 
L 139.111034 116.571429 
L 139.619768 116.571429 
L 140.47843 116.571429 
L 141.210698 116.571429 
L 143.800554 115.885714 
L 145.706015 115.885714 
L 146.824877 115.885714 
L 148.424989 115.2 
L 149.173959 115.2 
L 149.876925 115.2 
L 151.6201 114.514286 
L 151.759603 114.514286 
L 152.099695 114.514286 
L 153.467628 114.514286 
L 153.78368 114.514286 
L 154.349065 114.514286 
L 154.772827 114.514286 
L 155.019448 114.514286 
L 156.104605 114.514286 
L 156.786411 114.514286 
L 157.146265 114.514286 
L 157.622242 114.514286 
L 157.922084 114.514286 
L 158.143059 114.514286 
L 158.354027 114.514286 
L 158.557056 114.514286 
L 158.940104 114.514286 
L 158.940104 114.514286 
L 159.323151 114.514286 
L 159.52618 114.514286 
L 159.737149 114.514286 
L 159.958124 114.514286 
L 160.257966 114.514286 
L 160.733942 114.514286 
L 161.093796 114.514286 
L 161.775603 114.514286 
L 162.860759 114.514286 
L 163.10738 114.514286 
L 163.697194 114.514286 
L 164.244502 114.514286 
L 165.397918 114.514286 
L 166.096003 114.514286 
L 166.51489 114.514286 
L 166.930151 114.514286 
L 167.410912 114.514286 
L 168.212862 114.514286 
L 168.330375 114.514286 
L 170.736902 114.514286 
L 171.573383 114.514286 
L 172.366436 114.514286 
L 173.868063 114.514286 
L 174.38144 114.514286 
L 175.395329 114.514286 
L 175.530494 114.514286 
L 176.923769 114.514286 
L 179.326977 113.828571 
L 179.718045 113.828571 
L 181.171619 113.142857 
L 182.028062 112.457143 
L 186.203992 118.628571 
L 187.84479 121.371429 
L 188.395892 121.371429 
L 188.634639 121.371429 
L 190.524589 121.371429 
L 191.5858 120.685714 
L 192.825564 120.685714 
L 194.798741 120.685714 
L 197.365173 120 
L 199.471983 119.314286 
L 202.507922 119.314286 
L 204.654703 118.628571 
L 207.233893 118.628571 
L 208.600304 117.942857 
L 210.246613 117.942857 
L 210.88299 117.942857 
L 212.509122 117.257143 
L 214.098964 117.257143 
L 216.826552 116.571429 
L 219.241562 116.571429 
L 221.647883 115.885714 
L 225.204023 115.2 
L 227.259079 115.2 
L 230.966272 114.514286 
L 232.061572 114.514286 
L 232.535681 114.514286 
L 232.983692 114.514286 
L 234.479366 114.514286 
L 234.816619 114.514286 
L 235.091714 114.514286 
L 235.370694 113.828571 
L 235.726718 113.828571 
L 237.163452 111.771429 
L 238.109642 111.085714 
L 238.525749 110.4 
L 239.532388 109.028571 
L 239.907808 109.028571 
L 240.975486 107.657143 
L 242.481665 106.285714 
L 243.525756 105.6 
L 246.094495 103.542857 
L 247.004702 102.857143 
L 249.395428 100.8 
L 250.024123 100.114286 
L 250.607815 100.114286 
L 252.151957 98.742857 
L 253.329588 97.371429 
L 254.834375 95.314286 
L 255.616886 94.628571 
L 256.453394 93.257143 
L 257.259648 91.2 
L 257.876932 90.514286 
L 258.236847 90.514286 
L 259.190964 91.885714 
L 259.49132 91.885714 
L 260.980786 93.942857 
L 261.707805 93.942857 
L 262.136061 93.942857 
L 262.594838 93.942857 
L 263.254403 93.942857 
L 263.803777 93.942857 
L 264.172675 93.942857 
L 265.536954 93.942857 
L 265.757104 93.942857 
L 266.411124 93.942857 
L 266.813799 93.942857 
L 267.360143 93.942857 
L 267.657004 93.942857 
L 268.062092 93.942857 
L 268.521343 93.942857 
L 269.370906 93.257143 
L 269.924473 92.571429 
L 270.700322 91.2 
L 272.187208 89.828571 
L 273.439612 87.771429 
L 275.599926 84.342857 
L 276.053315 83.657143 
L 277.503387 80.914286 
L 278.155337 79.542857 
L 278.687373 78.171429 
L 280.354858 74.057143 
L 280.623229 74.057143 
L 281.770292 73.371429 
L 285.47334 72 
L 292.236808 67.885714 
L 293.117002 67.885714 
L 294.547379 66.514286 
L 304.050685 66.514286 
L 312.56257 67.2 
L 314.26534 66.514286 
L 315.430438 66.514286 
L 326.95559 67.885714 
L 328.260285 68.571429 
L 332.88895 69.257143 
L 335.439769 69.942857 
L 337.702159 69.942857 
L 338.815619 69.942857 
L 341.077412 70.628571 
L 341.986036 70.628571 
L 345.029904 71.314286 
L 346.064658 71.314286 
L 348.654434 72 
L 349.500615 72 
L 350.417524 72 
L 351.323548 72 
L 352.180781 72.685714 
L 354.985653 72.685714 
L 355.812844 73.371429 
L 356.673624 73.371429 
L 357.565227 73.371429 
L 358.313862 73.371429 
L 359.081145 73.371429 
L 359.737747 73.371429 
L 360.351649 73.371429 
L 361.081586 73.371429 
L 362.048291 73.371429 
L 362.946167 73.371429 
L 363.909313 72.685714 
L 364.752954 72.685714 
L 365.701309 72 
L 366.637708 72 
L 367.538456 71.314286 
L 369.609989 70.628571 
L 370.444631 69.942857 
L 371.272295 69.942857 
L 371.947045 69.942857 
L 372.630971 69.257143 
L 373.238445 69.257143 
L 374.158561 68.571429 
L 374.822804 68.571429 
L 375.693048 67.885714 
L 376.087212 67.885714 
L 383.14304 64.457143 
L 385.450586 63.085714 
L 386.9747 62.4 
L 389.812176 59.657143 
L 390.573946 59.657143 
L 391.564484 59.657143 
L 392.355816 59.657143 
L 393.224744 59.657143 
L 394.075517 59.657143 
L 394.982565 59.657143 
L 396.084312 59.657143 
L 396.921432 59.657143 
L 397.899704 59.657143 
L 398.645565 59.657143 
L 399.41462 59.657143 
L 400.977783 59.657143 
L 401.766109 59.657143 
L 402.412201 59.657143 
L 403.096775 59.657143 
L 408.640332 59.657143 
L 412.327005 59.657143 
L 413.320574 59.657143 
L 414.184311 59.657143 
L 414.991428 59.657143 
L 417.007798 59.657143 
L 425.984046 65.142857 
L 426.989558 66.514286 
L 427.841202 66.514286 
L 433.190483 66.514286 
L 438.671627 66.514286 
L 439.350615 66.514286 
L 440.410039 66.514286 
L 442.092502 65.142857 
L 444.086025 63.771429 
L 444.744805 63.085714 
L 445.350203 63.085714 
L 447.756825 59.657143 
L 448.236357 58.285714 
L 448.896386 56.914286 
L 449.312496 56.228571 
L 449.752167 54.857143 
L 450.482523 53.485714 
L 451.074274 52.8 
L 451.353906 52.114286 
L 451.49068 52.114286 
L 452.720721 51.428571 
L 453.232974 51.428571 
L 453.774857 51.428571 
L 454.508283 50.742857 
L 455.552892 50.057143 
L 455.934268 50.057143 
L 457.229076 49.371429 
L 458.603501 48.685714 
L 459.077845 48.685714 
L 459.451499 48 
L 459.765847 48 
L 460.159516 48 
L 460.421875 47.314286 
L 461.040388 47.314286 
L 461.910397 46.628571 
L 462.53976 46.628571 
L 464.127457 45.942857 
L 464.612212 45.942857 
L 465.185429 45.942857 
L 465.765464 45.942857 
L 466.541888 45.942857 
L 467.178248 45.942857 
L 467.416212 45.942857 
L 467.905521 45.942857 
L 468.398915 45.942857 
L 469.103368 45.942857 
L 469.744228 45.942857 
L 470.135716 45.942857 
L 470.99677 42.514286 
L 471.591137 39.771429 
L 472.525394 37.714286 
L 473.160518 36.342857 
L 473.541193 35.657143 
L 475.233794 32.914286 
L 475.884123 31.542857 
L 476.574796 30.171429 
L 477.410794 28.8 
L 477.96627 28.114286 
L 478.527206 26.742857 
L 479.351456 25.371429 
L 480.28694 25.371429 
L 481.411862 25.371429 
L 482.470367 27.428571 
L 482.972148 28.114286 
L 483.471978 29.485714 
L 484.088125 30.857143 
L 484.805977 32.228571 
L 485.441395 32.914286 
L 486.070294 32.914286 
L 487.086286 33.6 
L 488.410898 34.285714 
L 489.4323 34.971429 
L 489.794688 34.971429 
L 490.713551 35.657143 
L 491.337585 35.657143 
L 491.896543 36.342857 
L 493.210795 37.028571 
L 494.191389 37.028571 
L 495.409796 37.714286 
L 496.298067 38.4 
L 496.829146 38.4 
L 497.272455 39.085714 
L 497.858389 39.085714 
L 501.232323 39.085714 
L 502.200935 39.085714 
L 503.087556 39.085714 
L 505.643759 39.085714 
L 509.130391 39.085714 
L 515.628367 39.085714 
L 516.291527 39.085714 
L 516.827643 39.085714 
L 518.553966 39.085714 
L 519.216249 39.085714 
L 519.986151 39.085714 
L 520.223923 39.085714 
L 521.605972 39.085714 
L 521.678007 39.085714 
L 523.870686 39.085714 
L 524.667017 39.085714 
L 525.638815 39.085714 
L 526.670687 39.085714 
L 527.68831 39.085714 
L 528.281776 39.085714 
L 528.617548 39.085714 
L 530.813837 39.085714 
L 532.075662 39.085714 
L 533.150818 39.085714 
L 534.327982 39.085714 
L 535.343803 39.085714 
L 536.905879 39.085714 
L 540.339394 39.085714 
L 542.090277 39.085714 
L 543.457101 39.085714 
L 544.45508 39.085714 
L 545.589903 39.085714 
L 546.665061 39.085714 
L 554.120441 40.457143 
L 555.164118 41.142857 
L 556.068533 41.142857 
L 562.912061 42.514286 
L 564.075574 42.514286 
L 565.399968 42.514286 
L 566.682231 43.2 
L 567.924508 43.2 
L 568.976282 43.2 
L 569.758717 43.885714 
L 570.041154 43.885714 
L 570.210495 43.885714 
L 570.659156 44.571429 
L 573.663878 46.628571 
L 574.793269 47.314286 
L 575.978537 48 
L 576.389296 48 
L 576.84721 48.685714 
L 577.406073 49.371429 
L 578.225713 50.742857 
L 580.242459 53.485714 
L 581.300735 56.228571 
L 582.546426 58.971429 
L 582.846225 59.657143 
L 583.298353 61.028571 
L 583.788082 62.4 
L 587.302466 69.942857 
L 587.673738 69.942857 
L 588.53163 71.314286 
L 588.920416 72 
L 590.631143 74.057143 
L 590.966165 74.742857 
L 591.248479 75.428571 
L 592.260177 76.114286 
L 592.534567 76.8 
L 593.485191 78.171429 
L 594.35949 79.542857 
L 594.618376 79.542857 
L 595.182096 80.228571 
L 596.187136 82.285714 
L 597.841817 85.028571 
L 598.282751 85.714286 
L 598.282751 85.714286 
L 598.723685 85.028571 
L 600.378365 82.285714 
L 601.383406 80.228571 
L 601.947126 79.542857 
L 602.206012 79.542857 
L 603.080311 78.171429 
L 604.030934 76.8 
L 604.305324 76.114286 
L 605.317023 75.428571 
L 605.599336 74.742857 
L 605.934359 74.057143 
L 607.645085 72 
L 608.033871 71.314286 
L 608.891763 69.942857 
L 609.263036 69.942857 
L 612.777419 62.4 
L 613.267148 61.028571 
L 613.719276 59.657143 
L 614.019075 58.971429 
L 615.264766 56.228571 
L 616.323042 53.485714 
L 618.339788 50.742857 
L 619.159429 49.371429 
L 619.718291 48.685714 
L 620.176206 48 
L 620.586964 48 
L 621.772232 47.314286 
L 622.901623 46.628571 
L 625.906345 44.571429 
L 626.355006 43.885714 
L 627.203372 43.885714 
L 631.539812 44.571429 
L 632.499048 45.257143 
L 633.149645 45.257143 
L 634.347181 45.257143 
L 635.933605 45.257143 
L 636.535959 45.257143 
L 637.472343 45.257143 
L 638.143033 45.942857 
L 638.740463 45.942857 
L 639.672563 45.942857 
L 640.539702 45.942857 
L 641.239792 46.628571 
L 641.714616 47.314286 
L 642.978637 48.685714 
L 644.539124 50.057143 
L 645.671163 50.742857 
L 645.875769 51.428571 
L 648.382 51.428571 
L 651.477468 52.114286 
L 651.620496 52.114286 
L 653.025834 52.8 
L 655.004917 53.485714 
L 656.308207 55.542857 
L 657.04788 56.914286 
L 659.027347 60.342857 
L 659.838226 62.4 
L 661.286723 65.142857 
L 662.020547 66.514286 
L 662.810226 67.885714 
L 663.705955 69.257143 
L 664.573702 70.628571 
L 665.114902 71.314286 
L 665.529606 71.314286 
L 666.083335 72 
L 666.824418 72.685714 
L 667.451958 72.685714 
L 668.159884 74.057143 
L 668.907293 75.428571 
L 669.441405 76.114286 
L 670.325416 77.485714 
L 670.995455 78.857143 
L 671.865462 80.228571 
L 672.272114 80.228571 
L 672.807155 80.228571 
L 673.721494 80.228571 
L 674.71083 78.857143 
L 675.399036 78.857143 
L 676.210775 78.171429 
L 677.006899 77.485714 
L 678.032039 76.114286 
L 679.658121 74.742857 
L 681.151845 73.371429 
L 682.749513 70.628571 
L 683.183184 69.942857 
L 686.027442 64.457143 
L 686.521591 63.771429 
L 686.692632 63.771429 
L 688.451277 61.028571 
L 688.894322 60.342857 
L 689.221172 59.657143 
L 689.738025 58.971429 
L 690.284271 57.6 
L 690.9891 56.228571 
L 691.523229 55.542857 
L 692.354873 54.171429 
L 692.877074 53.485714 
L 693.504925 52.114286 
L 693.939764 51.428571 
L 694.818064 50.057143 
L 694.992902 50.057143 
L 695.204663 49.371429 
L 695.455535 46.628571 
L 695.720753 46.628571 
L 696.907279 45.942857 
L 697.500533 45.942857 
L 697.7326 45.257143 
L 697.897941 45.257143 
L 698.487264 44.571429 
L 699.898296 42.514286 
L 702.074236 39.085714 
L 702.516744 36.342857 
L 703.537177 34.285714 
L 704.562323 31.542857 
L 705.098548 30.171429 
L 705.553912 29.485714 
L 706.288963 27.428571 
L 708.904415 21.257143 
L 709.416957 19.885714 
L 709.773111 19.2 
L 710.163926 17.828571 
L 710.714095 17.142857 
L 710.935054 16.457143 
L 711.115696 15.771429 
L 711.746907 13.714286 
L 712.246723 12.342857 
L 715.658704 2.742857 
L 717.63609 0 
L 718.79947 0.685714 
L 719.20099 1.371429 
L 720 2.742857 
L 720 144 
L 720 144 
L 719.20099 144 
L 718.79947 144 
L 717.63609 144 
L 715.658704 144 
L 712.246723 144 
L 711.746907 144 
L 711.115696 144 
L 710.935054 144 
L 710.714095 144 
L 710.163926 144 
L 709.773111 144 
L 709.416957 144 
L 708.904415 144 
L 706.288963 144 
L 705.553912 144 
L 705.098548 144 
L 704.562323 144 
L 703.537177 144 
L 702.516744 144 
L 702.074236 144 
L 699.898296 144 
L 698.487264 144 
L 697.897941 144 
L 697.7326 144 
L 697.500533 144 
L 696.907279 144 
L 695.720753 144 
L 695.455535 144 
L 695.204663 144 
L 694.992902 144 
L 694.818064 144 
L 693.939764 144 
L 693.504925 144 
L 692.877074 144 
L 692.354873 144 
L 691.523229 144 
L 690.9891 144 
L 690.284271 144 
L 689.738025 144 
L 689.221172 144 
L 688.894322 144 
L 688.451277 144 
L 686.692632 144 
L 686.521591 144 
L 686.027442 144 
L 683.183184 144 
L 682.749513 144 
L 681.151845 144 
L 679.658121 144 
L 678.032039 144 
L 677.006899 144 
L 676.210775 144 
L 675.399036 144 
L 674.71083 144 
L 673.721494 144 
L 672.807155 144 
L 672.272114 144 
L 671.865462 144 
L 670.995455 144 
L 670.325416 144 
L 669.441405 144 
L 668.907293 144 
L 668.159884 144 
L 667.451958 144 
L 666.824418 144 
L 666.083335 144 
L 665.529606 144 
L 665.114902 144 
L 664.573702 144 
L 663.705955 144 
L 662.810226 144 
L 662.020547 144 
L 661.286723 144 
L 659.838226 144 
L 659.027347 144 
L 657.04788 144 
L 656.308207 144 
L 655.004917 144 
L 653.025834 144 
L 651.620496 144 
L 651.477468 144 
L 648.382 144 
L 645.875769 144 
L 645.671163 144 
L 644.539124 144 
L 642.978637 144 
L 641.714616 144 
L 641.239792 144 
L 640.539702 144 
L 639.672563 144 
L 638.740463 144 
L 638.143033 144 
L 637.472343 144 
L 636.535959 144 
L 635.933605 144 
L 634.347181 144 
L 633.149645 144 
L 632.499048 144 
L 631.539812 144 
L 627.203372 144 
L 626.355006 144 
L 625.906345 144 
L 622.901623 144 
L 621.772232 144 
L 620.586964 144 
L 620.176206 144 
L 619.718291 144 
L 619.159429 144 
L 618.339788 144 
L 616.323042 144 
L 615.264766 144 
L 614.019075 144 
L 613.719276 144 
L 613.267148 144 
L 612.777419 144 
L 609.263036 144 
L 608.891763 144 
L 608.033871 144 
L 607.645085 144 
L 605.934359 144 
L 605.599336 144 
L 605.317023 144 
L 604.305324 144 
L 604.030934 144 
L 603.080311 144 
L 602.206012 144 
L 601.947126 144 
L 601.383406 144 
L 600.378365 144 
L 598.723685 144 
L 598.282751 144 
L 598.282751 144 
L 597.841817 144 
L 596.187136 144 
L 595.182096 144 
L 594.618376 144 
L 594.35949 144 
L 593.485191 144 
L 592.534567 144 
L 592.260177 144 
L 591.248479 144 
L 590.966165 144 
L 590.631143 144 
L 588.920416 144 
L 588.53163 144 
L 587.673738 144 
L 587.302466 144 
L 583.788082 144 
L 583.298353 144 
L 582.846225 144 
L 582.546426 144 
L 581.300735 144 
L 580.242459 144 
L 578.225713 144 
L 577.406073 144 
L 576.84721 144 
L 576.389296 144 
L 575.978537 144 
L 574.793269 144 
L 573.663878 144 
L 570.659156 144 
L 570.210495 144 
L 570.041154 144 
L 569.758717 144 
L 568.976282 144 
L 567.924508 144 
L 566.682231 144 
L 565.399968 144 
L 564.075574 144 
L 562.912061 144 
L 556.068533 144 
L 555.164118 144 
L 554.120441 144 
L 546.665061 144 
L 545.589903 144 
L 544.45508 144 
L 543.457101 144 
L 542.090277 144 
L 540.339394 144 
L 536.905879 144 
L 535.343803 144 
L 534.327982 144 
L 533.150818 144 
L 532.075662 144 
L 530.813837 144 
L 528.617548 144 
L 528.281776 144 
L 527.68831 144 
L 526.670687 144 
L 525.638815 144 
L 524.667017 144 
L 523.870686 144 
L 521.678007 144 
L 521.605972 144 
L 520.223923 144 
L 519.986151 144 
L 519.216249 144 
L 518.553966 144 
L 516.827643 144 
L 516.291527 144 
L 515.628367 144 
L 509.130391 144 
L 505.643759 144 
L 503.087556 144 
L 502.200935 144 
L 501.232323 144 
L 497.858389 144 
L 497.272455 144 
L 496.829146 144 
L 496.298067 144 
L 495.409796 144 
L 494.191389 144 
L 493.210795 144 
L 491.896543 144 
L 491.337585 144 
L 490.713551 144 
L 489.794688 144 
L 489.4323 144 
L 488.410898 144 
L 487.086286 144 
L 486.070294 144 
L 485.441395 144 
L 484.805977 144 
L 484.088125 144 
L 483.471978 144 
L 482.972148 144 
L 482.470367 144 
L 481.411862 144 
L 480.28694 144 
L 479.351456 144 
L 478.527206 144 
L 477.96627 144 
L 477.410794 144 
L 476.574796 144 
L 475.884123 144 
L 475.233794 144 
L 473.541193 144 
L 473.160518 144 
L 472.525394 144 
L 471.591137 144 
L 470.99677 144 
L 470.135716 144 
L 469.744228 144 
L 469.103368 144 
L 468.398915 144 
L 467.905521 144 
L 467.416212 144 
L 467.178248 144 
L 466.541888 144 
L 465.765464 144 
L 465.185429 144 
L 464.612212 144 
L 464.127457 144 
L 462.53976 144 
L 461.910397 144 
L 461.040388 144 
L 460.421875 144 
L 460.159516 144 
L 459.765847 144 
L 459.451499 144 
L 459.077845 144 
L 458.603501 144 
L 457.229076 144 
L 455.934268 144 
L 455.552892 144 
L 454.508283 144 
L 453.774857 144 
L 453.232974 144 
L 452.720721 144 
L 451.49068 144 
L 451.353906 144 
L 451.074274 144 
L 450.482523 144 
L 449.752167 144 
L 449.312496 144 
L 448.896386 144 
L 448.236357 144 
L 447.756825 144 
L 445.350203 144 
L 444.744805 144 
L 444.086025 144 
L 442.092502 144 
L 440.410039 144 
L 439.350615 144 
L 438.671627 144 
L 433.190483 144 
L 427.841202 144 
L 426.989558 144 
L 425.984046 144 
L 417.007798 144 
L 414.991428 144 
L 414.184311 144 
L 413.320574 144 
L 412.327005 144 
L 408.640332 144 
L 403.096775 144 
L 402.412201 144 
L 401.766109 144 
L 400.977783 144 
L 399.41462 144 
L 398.645565 144 
L 397.899704 144 
L 396.921432 144 
L 396.084312 144 
L 394.982565 144 
L 394.075517 144 
L 393.224744 144 
L 392.355816 144 
L 391.564484 144 
L 390.573946 144 
L 389.812176 144 
L 386.9747 144 
L 385.450586 144 
L 383.14304 144 
L 376.087212 144 
L 375.693048 144 
L 374.822804 144 
L 374.158561 144 
L 373.238445 144 
L 372.630971 144 
L 371.947045 144 
L 371.272295 144 
L 370.444631 144 
L 369.609989 144 
L 367.538456 144 
L 366.637708 144 
L 365.701309 144 
L 364.752954 144 
L 363.909313 144 
L 362.946167 144 
L 362.048291 144 
L 361.081586 144 
L 360.351649 144 
L 359.737747 144 
L 359.081145 144 
L 358.313862 144 
L 357.565227 144 
L 356.673624 144 
L 355.812844 144 
L 354.985653 144 
L 352.180781 144 
L 351.323548 144 
L 350.417524 144 
L 349.500615 144 
L 348.654434 144 
L 346.064658 144 
L 345.029904 144 
L 341.986036 144 
L 341.077412 144 
L 338.815619 144 
L 337.702159 144 
L 335.439769 144 
L 332.88895 144 
L 328.260285 144 
L 326.95559 144 
L 315.430438 144 
L 314.26534 144 
L 312.56257 144 
L 304.050685 144 
L 294.547379 144 
L 293.117002 144 
L 292.236808 144 
L 285.47334 144 
L 281.770292 144 
L 280.623229 144 
L 280.354858 144 
L 278.687373 144 
L 278.155337 144 
L 277.503387 144 
L 276.053315 144 
L 275.599926 144 
L 273.439612 144 
L 272.187208 144 
L 270.700322 144 
L 269.924473 144 
L 269.370906 144 
L 268.521343 144 
L 268.062092 144 
L 267.657004 144 
L 267.360143 144 
L 266.813799 144 
L 266.411124 144 
L 265.757104 144 
L 265.536954 144 
L 264.172675 144 
L 263.803777 144 
L 263.254403 144 
L 262.594838 144 
L 262.136061 144 
L 261.707805 144 
L 260.980786 144 
L 259.49132 144 
L 259.190964 144 
L 258.236847 144 
L 257.876932 144 
L 257.259648 144 
L 256.453394 144 
L 255.616886 144 
L 254.834375 144 
L 253.329588 144 
L 252.151957 144 
L 250.607815 144 
L 250.024123 144 
L 249.395428 144 
L 247.004702 144 
L 246.094495 144 
L 243.525756 144 
L 242.481665 144 
L 240.975486 144 
L 239.907808 144 
L 239.532388 144 
L 238.525749 144 
L 238.109642 144 
L 237.163452 144 
L 235.726718 144 
L 235.370694 144 
L 235.091714 144 
L 234.816619 144 
L 234.479366 144 
L 232.983692 144 
L 232.535681 144 
L 232.061572 144 
L 230.966272 144 
L 227.259079 144 
L 225.204023 144 
L 221.647883 144 
L 219.241562 144 
L 216.826552 144 
L 214.098964 144 
L 212.509122 144 
L 210.88299 144 
L 210.246613 144 
L 208.600304 144 
L 207.233893 144 
L 204.654703 144 
L 202.507922 144 
L 199.471983 144 
L 197.365173 144 
L 194.798741 144 
L 192.825564 144 
L 191.5858 144 
L 190.524589 144 
L 188.634639 144 
L 188.395892 144 
L 187.84479 144 
L 186.203992 144 
L 182.028062 144 
L 181.171619 144 
L 179.718045 144 
L 179.326977 144 
L 176.923769 144 
L 175.530494 144 
L 175.395329 144 
L 174.38144 144 
L 173.868063 144 
L 172.366436 144 
L 171.573383 144 
L 170.736902 144 
L 168.330375 144 
L 168.212862 144 
L 167.410912 144 
L 166.930151 144 
L 166.51489 144 
L 166.096003 144 
L 165.397918 144 
L 164.244502 144 
L 163.697194 144 
L 163.10738 144 
L 162.860759 144 
L 161.775603 144 
L 161.093796 144 
L 160.733942 144 
L 160.257966 144 
L 159.958124 144 
L 159.737149 144 
L 159.52618 144 
L 159.323151 144 
L 158.940104 144 
L 158.940104 144 
L 158.557056 144 
L 158.354027 144 
L 158.143059 144 
L 157.922084 144 
L 157.622242 144 
L 157.146265 144 
L 156.786411 144 
L 156.104605 144 
L 155.019448 144 
L 154.772827 144 
L 154.349065 144 
L 153.78368 144 
L 153.467628 144 
L 152.099695 144 
L 151.759603 144 
L 151.6201 144 
L 149.876925 144 
L 149.173959 144 
L 148.424989 144 
L 146.824877 144 
L 145.706015 144 
L 143.800554 144 
L 141.210698 144 
L 140.47843 144 
L 139.619768 144 
L 139.111034 144 
L 138.907437 144 
L 137.993767 144 
L 137.714846 144 
L 137.26331 144 
L 136.612338 144 
L 136.274715 144 
L 135.791789 144 
L 133.233238 144 
L 131.79842 144 
L 131.028898 144 
L 130.415239 144 
L 129.605996 144 
L 128.722506 144 
L 128.170566 144 
L 127.61333 144 
L 126.71993 144 
L 126.198325 144 
L 123.680186 144 
L 122.561047 144 
L 121.961304 144 
L 121.447605 144 
L 120.619691 144 
L 119.754298 144 
L 119.320629 144 
L 118.531216 144 
L 117.760536 144 
L 116.786984 144 
L 115.832941 144 
L 115.233196 144 
L 114.761962 144 
L 114.113646 144 
L 113.614496 144 
L 113.141402 144 
L 112.627858 144 
L 112.074658 144 
L 111.617555 144 
L 111.058505 144 
L 109.967472 144 
L 109.313864 144 
L 109.313864 144 
L 108.866272 144 
L 108.005715 144 
L 107.447271 144 
L 106.585887 144 
L 106.192483 144 
L 105.694742 144 
L 105.357839 144 
L 104.287224 144 
L 103.555885 144 
L 103.144597 144 
L 102.783296 144 
L 102.544421 144 
L 101.892056 144 
L 101.196645 144 
L 100.017515 144 
L 99.285044 144 
L 98.611581 144 
L 97.616712 144 
L 96.63023 144 
L 96.110818 144 
L 95.19373 144 
L 94.324095 144 
L 94.125913 144 
L 93.966034 144 
L 93.687448 144 
L 93.315771 144 
L 92.713277 144 
L 92.115092 144 
L 91.852196 144 
L 91.479579 144 
L 91.268184 144 
L 91.098855 144 
L 90.911977 144 
L 90.772877 144 
L 90.634898 144 
L 90.43412 144 
L 90.233342 144 
L 90.134806 144 
L 89.675484 144 
L 89.518796 144 
L 89.446797 144 
L 89.374738 144 
L 89.206105 144 
L 89.056136 144 
L 88.958171 144 
L 88.899037 144 
L 88.747894 144 
L 88.594968 144 
L 88.443885 144 
L 88.268674 144 
L 88.031247 144 
L 87.868998 144 
L 87.824534 144 
L 87.785112 144 
L 87.381281 144 
L 87.084532 144 
L 86.783153 144 
L 86.485179 144 
L 86.136347 144 
L 85.707347 144 
L 85.178697 144 
L 84.030987 144 
L 83.246324 144 
L 81.541284 144 
L 80.537693 144 
L 79.670562 144 
L 79.121707 144 
L 77.934668 144 
L 77.518759 144 
L 74.438188 144 
L 73.904449 144 
L 73.343826 144 
L 72.117681 144 
L 71.821735 144 
L 71.645326 144 
L 71.26807 144 
L 71.008999 144 
L 70.751641 144 
L 69.872655 144 
L 68.751437 144 
L 68.496556 144 
L 67.526768 144 
L 67.239643 144 
L 67.042535 144 
L 66.874258 144 
L 66.699698 144 
L 66.595847 144 
L 66.426205 144 
L 66.256122 144 
L 66.119851 144 
L 65.976256 144 
L 65.826897 144 
L 65.687081 144 
L 65.544678 144 
L 65.400702 144 
L 65.119988 144 
L 64.717869 144 
L 64.377671 144 
L 63.406887 144 
L 62.699485 144 
L 61.95047 144 
L 61.021176 144 
L 60.145136 144 
L 57.860707 144 
L 56.991436 144 
L 56.154009 144 
L 55.268736 144 
L 55.07302 144 
L 54.972275 144 
L 54.852702 144 
L 54.647021 144 
L 54.436579 144 
L 54.215605 144 
L 53.791848 144 
L 53.344043 144 
L 52.687427 144 
L 52.202841 144 
L 51.874615 144 
L 50.631377 144 
L 50.114409 144 
L 49.485623 144 
L 48.762093 144 
L 48.031802 144 
L 47.096511 144 
L 46.197342 144 
L 44.956341 144 
L 44.584588 144 
L 44.521982 144 
L 44.318404 144 
L 43.997611 144 
L 43.67897 144 
L 43.289512 144 
L 42.858473 144 
L 42.738904 144 
L 42.518222 144 
L 41.894076 144 
L 41.208873 144 
L 41.028905 144 
L 40.264557 144 
L 39.732522 144 
L 38.650916 144 
L 37.114699 144 
L 36.386939 144 
L 35.815133 144 
L 35.673623 144 
L 35.498096 144 
L 35.233371 144 
L 32.873164 144 
L 32.600634 144 
L 32.230764 144 
L 32.010638 144 
L 31.559154 144 
L 31.234587 144 
L 30.988048 144 
L 30.536874 144 
L 30.282023 144 
L 30.131818 144 
L 29.831504 144 
L 29.564224 144 
L 29.423444 144 
L 29.296939 144 
L 29.135756 144 
L 28.894178 144 
L 28.724862 144 
L 28.46263 144 
L 28.323139 144 
L 28.204882 144 
L 27.969856 144 
L 27.923259 144 
L 27.78669 144 
L 27.697768 144 
L 27.635166 144 
L 27.615456 144 
L 26.806908 144 
L 25.873571 144 
L 25.751518 144 
L 25.176448 144 
L 24.818544 144 
L 24.001967 144 
L 23.766745 144 
L 23.370716 144 
L 21.915582 144 
L 21.87739 144 
L 21.511337 144 
L 20.87507 144 
L 20.608632 144 
L 20.395857 144 
L 18.738667 144 
L 17.622671 144 
L 16.191838 144 
L 15.793302 144 
L 15.634295 144 
L 15.394722 144 
L 14.96895 144 
L 13.716427 144 
L 12.949346 144 
L 12.714233 144 
L 12.602398 144 
L 12.224591 144 
L 11.792259 144 
L 11.371436 144 
L 10.855902 144 
L 10.185588 144 
L 9.523668 144 
L 8.353433 144 
L 7.838584 144 
L 7.696715 144 
L 7.557627 144 
L 7.434488 144 
L 7.351565 144 
L 6.91076 144 
L 6.834112 144 
L 6.654536 144 
L 6.515045 144 
L 6.373999 144 
L 6.33458 144 
L 6.094516 144 
L 5.895319 144 
L 5.698223 144 
L 5.382201 144 
L 4.987475 144 
L 4.865744 144 
L 4.710258 144 
L 4.628782 144 
L 4.212843 144 
L 4.153715 144 
L 3.495098 144 
L 3.079489 144 
L 2.055987 144 
L 1.800375 144 
L 1.677236 144 
L 1.615536 144 
L 1.536698 144 
L 1.222351 144 
L 1.082873 144 
L 0.765332 144 
L 0.744768 144 
L 0.727248 144 
L 0.350018 144 
L 0.332499 144 
L 0.294307 144 
L 0.254888 144 
L 0.234323 144 
L 0 144 
z
" style="fill:#c18182;fill-opacity:0.3;stroke:#c18182;stroke-opacity:0.3;"/>
   </g>
   <g id="line2d_1">
    <path clip-path="url(#p3dcbef6a4e)" d="M 0 121.371429 
L 5.698223 121.371429 
L 6.373999 124.114286 
L 6.515045 124.8 
L 6.654536 124.8 
L 6.91076 126.171429 
L 7.838584 130.285714 
L 8.353433 132.342857 
L 9.523668 135.085714 
L 20.87507 135.085714 
L 21.915582 138.514286 
L 23.370716 139.885714 
L 23.766745 137.828571 
L 24.818544 137.828571 
L 25.176448 141.257143 
L 25.873571 141.942857 
L 27.615456 141.942857 
L 27.635166 144 
L 27.697768 143.314286 
L 27.78669 141.942857 
L 27.969856 144 
L 28.204882 141.942857 
L 32.010638 141.942857 
L 32.230764 141.257143 
L 32.873164 141.257143 
L 35.498096 140.571429 
L 37.114699 140.571429 
L 38.650916 139.885714 
L 40.264557 139.885714 
L 41.028905 139.2 
L 42.858473 139.2 
L 43.289512 136.457143 
L 44.318404 136.457143 
L 44.584588 137.142857 
L 44.956341 136.457143 
L 46.197342 135.771429 
L 47.096511 135.085714 
L 48.031802 135.085714 
L 48.762093 132.342857 
L 49.485623 131.657143 
L 50.114409 131.657143 
L 50.631377 130.971429 
L 51.874615 130.285714 
L 52.202841 130.285714 
L 52.687427 129.6 
L 53.344043 129.6 
L 53.791848 128.914286 
L 54.647021 128.914286 
L 54.852702 128.228571 
L 65.119988 128.228571 
L 65.400702 122.057143 
L 65.687081 124.8 
L 65.976256 124.8 
L 66.119851 125.485714 
L 66.256122 125.485714 
L 66.699698 122.057143 
L 67.239643 122.057143 
L 67.526768 124.114286 
L 68.496556 124.114286 
L 68.751437 123.428571 
L 69.872655 124.114286 
L 70.751641 122.742857 
L 71.008999 122.057143 
L 71.26807 128.228571 
L 77.518759 128.228571 
L 77.934668 125.485714 
L 79.121707 125.485714 
L 79.670562 126.171429 
L 81.541284 124.8 
L 85.178697 124.8 
L 85.707347 124.114286 
L 88.747894 124.114286 
L 88.958171 124.8 
L 89.446797 124.8 
L 89.518796 124.114286 
L 91.098855 124.114286 
L 91.268184 123.428571 
L 93.315771 123.428571 
L 93.687448 122.742857 
L 95.19373 122.742857 
L 96.110818 122.057143 
L 96.63023 122.057143 
L 97.616712 121.371429 
L 103.555885 121.371429 
L 104.287224 115.2 
L 105.357839 115.2 
L 105.694742 120.685714 
L 106.192483 120 
L 106.585887 120 
L 107.447271 119.314286 
L 108.005715 118.628571 
L 108.866272 117.942857 
L 109.313864 117.942857 
L 109.313864 117.942857 
L 109.967472 117.257143 
L 111.058505 115.885714 
L 111.617555 115.885714 
L 112.074658 115.2 
L 115.832941 115.2 
L 116.786984 115.885714 
L 128.170566 115.885714 
L 128.722506 116.571429 
L 141.210698 116.571429 
L 143.800554 115.885714 
L 146.824877 115.885714 
L 148.424989 115.2 
L 149.876925 115.2 
L 151.759603 114.514286 
L 176.923769 114.514286 
L 179.718045 113.828571 
L 181.171619 113.142857 
L 182.028062 112.457143 
L 186.203992 118.628571 
L 187.84479 121.371429 
L 190.524589 121.371429 
L 191.5858 120.685714 
L 194.798741 120.685714 
L 197.365173 120 
L 199.471983 119.314286 
L 202.507922 119.314286 
L 204.654703 118.628571 
L 207.233893 118.628571 
L 208.600304 117.942857 
L 210.88299 117.942857 
L 212.509122 117.257143 
L 214.098964 117.257143 
L 216.826552 116.571429 
L 219.241562 116.571429 
L 221.647883 115.885714 
L 225.204023 115.2 
L 227.259079 115.2 
L 230.966272 114.514286 
L 235.091714 114.514286 
L 235.370694 113.828571 
L 235.726718 113.828571 
L 237.163452 111.771429 
L 238.109642 111.085714 
L 238.525749 110.4 
L 239.532388 109.028571 
L 239.907808 109.028571 
L 240.975486 107.657143 
L 242.481665 106.285714 
L 243.525756 105.6 
L 249.395428 100.8 
L 250.024123 100.114286 
L 250.607815 100.114286 
L 252.151957 98.742857 
L 253.329588 97.371429 
L 254.834375 95.314286 
L 255.616886 94.628571 
L 256.453394 93.257143 
L 257.259648 91.2 
L 257.876932 90.514286 
L 258.236847 90.514286 
L 259.190964 91.885714 
L 259.49132 91.885714 
L 260.980786 93.942857 
L 268.521343 93.942857 
L 269.370906 93.257143 
L 269.924473 92.571429 
L 270.700322 91.2 
L 272.187208 89.828571 
L 277.503387 80.914286 
L 278.687373 78.171429 
L 280.354858 74.057143 
L 280.623229 74.057143 
L 281.770292 73.371429 
L 285.47334 72 
L 292.236808 67.885714 
L 293.117002 67.885714 
L 294.547379 66.514286 
L 304.050685 66.514286 
L 312.56257 67.2 
L 314.26534 66.514286 
L 315.430438 66.514286 
L 326.95559 67.885714 
L 328.260285 68.571429 
L 332.88895 69.257143 
L 335.439769 69.942857 
L 338.815619 69.942857 
L 341.077412 70.628571 
L 341.986036 70.628571 
L 345.029904 71.314286 
L 346.064658 71.314286 
L 348.654434 72 
L 351.323548 72 
L 352.180781 72.685714 
L 354.985653 72.685714 
L 355.812844 73.371429 
L 362.946167 73.371429 
L 363.909313 72.685714 
L 364.752954 72.685714 
L 365.701309 72 
L 366.637708 72 
L 367.538456 71.314286 
L 369.609989 70.628571 
L 370.444631 69.942857 
L 371.947045 69.942857 
L 372.630971 69.257143 
L 373.238445 69.257143 
L 374.158561 68.571429 
L 374.822804 68.571429 
L 375.693048 67.885714 
L 376.087212 67.885714 
L 383.14304 64.457143 
L 385.450586 63.085714 
L 386.9747 62.4 
L 389.812176 59.657143 
L 417.007798 59.657143 
L 425.984046 65.142857 
L 426.989558 66.514286 
L 440.410039 66.514286 
L 442.092502 65.142857 
L 444.086025 63.771429 
L 444.744805 63.085714 
L 445.350203 63.085714 
L 447.756825 59.657143 
L 448.236357 58.285714 
L 449.312496 56.228571 
L 449.752167 54.857143 
L 450.482523 53.485714 
L 451.074274 52.8 
L 451.353906 52.114286 
L 451.49068 52.114286 
L 452.720721 51.428571 
L 453.774857 51.428571 
L 454.508283 50.742857 
L 455.552892 50.057143 
L 455.934268 50.057143 
L 458.603501 48.685714 
L 459.077845 48.685714 
L 459.451499 48 
L 460.159516 48 
L 460.421875 47.314286 
L 461.040388 47.314286 
L 461.910397 46.628571 
L 462.53976 46.628571 
L 464.127457 45.942857 
L 470.135716 45.942857 
L 471.591137 39.771429 
L 473.541193 35.657143 
L 475.233794 32.914286 
L 476.574796 30.171429 
L 477.410794 28.8 
L 477.96627 28.114286 
L 478.527206 26.742857 
L 479.351456 25.371429 
L 481.411862 25.371429 
L 482.470367 27.428571 
L 482.972148 28.114286 
L 484.088125 30.857143 
L 484.805977 32.228571 
L 485.441395 32.914286 
L 486.070294 32.914286 
L 487.086286 33.6 
L 488.410898 34.285714 
L 489.4323 34.971429 
L 489.794688 34.971429 
L 490.713551 35.657143 
L 491.337585 35.657143 
L 491.896543 36.342857 
L 493.210795 37.028571 
L 494.191389 37.028571 
L 495.409796 37.714286 
L 496.298067 38.4 
L 496.829146 38.4 
L 497.272455 39.085714 
L 546.665061 39.085714 
L 554.120441 40.457143 
L 555.164118 41.142857 
L 556.068533 41.142857 
L 562.912061 42.514286 
L 565.399968 42.514286 
L 566.682231 43.2 
L 568.976282 43.2 
L 569.758717 43.885714 
L 570.210495 43.885714 
L 570.659156 44.571429 
L 574.793269 47.314286 
L 575.978537 48 
L 576.389296 48 
L 578.225713 50.742857 
L 580.242459 53.485714 
L 581.300735 56.228571 
L 582.846225 59.657143 
L 583.788082 62.4 
L 587.302466 69.942857 
L 587.673738 69.942857 
L 588.920416 72 
L 590.631143 74.057143 
L 591.248479 75.428571 
L 592.260177 76.114286 
L 592.534567 76.8 
L 594.35949 79.542857 
L 594.618376 79.542857 
L 595.182096 80.228571 
L 596.187136 82.285714 
L 598.282751 85.714286 
L 598.282751 85.714286 
L 600.378365 82.285714 
L 601.383406 80.228571 
L 601.947126 79.542857 
L 602.206012 79.542857 
L 604.305324 76.114286 
L 605.317023 75.428571 
L 605.934359 74.057143 
L 607.645085 72 
L 608.891763 69.942857 
L 609.263036 69.942857 
L 612.777419 62.4 
L 614.019075 58.971429 
L 615.264766 56.228571 
L 616.323042 53.485714 
L 618.339788 50.742857 
L 619.159429 49.371429 
L 620.176206 48 
L 620.586964 48 
L 622.901623 46.628571 
L 625.906345 44.571429 
L 626.355006 43.885714 
L 627.203372 43.885714 
L 631.539812 44.571429 
L 632.499048 45.257143 
L 637.472343 45.257143 
L 638.143033 45.942857 
L 640.539702 45.942857 
L 641.239792 46.628571 
L 641.714616 47.314286 
L 642.978637 48.685714 
L 644.539124 50.057143 
L 645.671163 50.742857 
L 645.875769 51.428571 
L 648.382 51.428571 
L 651.620496 52.114286 
L 653.025834 52.8 
L 655.004917 53.485714 
L 657.04788 56.914286 
L 659.027347 60.342857 
L 659.838226 62.4 
L 662.810226 67.885714 
L 665.114902 71.314286 
L 665.529606 71.314286 
L 666.083335 72 
L 666.824418 72.685714 
L 667.451958 72.685714 
L 668.907293 75.428571 
L 669.441405 76.114286 
L 670.325416 77.485714 
L 670.995455 78.857143 
L 671.865462 80.228571 
L 673.721494 80.228571 
L 674.71083 78.857143 
L 675.399036 78.857143 
L 677.006899 77.485714 
L 678.032039 76.114286 
L 681.151845 73.371429 
L 683.183184 69.942857 
L 686.027442 64.457143 
L 686.521591 63.771429 
L 686.692632 63.771429 
L 689.738025 58.971429 
L 690.284271 57.6 
L 690.9891 56.228571 
L 691.523229 55.542857 
L 694.818064 50.057143 
L 694.992902 50.057143 
L 695.204663 49.371429 
L 695.455535 46.628571 
L 695.720753 46.628571 
L 696.907279 45.942857 
L 697.500533 45.942857 
L 697.7326 45.257143 
L 697.897941 45.257143 
L 698.487264 44.571429 
L 699.898296 42.514286 
L 702.074236 39.085714 
L 702.516744 36.342857 
L 703.537177 34.285714 
L 705.098548 30.171429 
L 705.553912 29.485714 
L 706.288963 27.428571 
L 709.773111 19.2 
L 710.163926 17.828571 
L 710.714095 17.142857 
L 712.246723 12.342857 
L 715.658704 2.742857 
L 717.63609 0 
L 718.79947 0.685714 
L 720 2.742857 
L 720 2.742857 
" style="fill:none;stroke:#c18182;stroke-linecap:square;stroke-width:3;"/>
   </g>
  </g>
 </g>
 <defs>
  <clipPath id="p3dcbef6a4e">
   <rect height="144" width="720" x="0" y="0"/>
  </clipPath>
 </defs>
</svg>
