<?xml version="1.0" encoding="utf-8" standalone="no"?>
<!DOCTYPE svg PUBLIC "-//W3C//DTD SVG 1.1//EN"
  "http://www.w3.org/Graphics/SVG/1.1/DTD/svg11.dtd">
<svg xmlns:xlink="http://www.w3.org/1999/xlink" width="720pt" height="144pt" viewBox="0 0 720 144" xmlns="http://www.w3.org/2000/svg" version="1.1">
 <metadata>
  <rdf:RDF xmlns:dc="http://purl.org/dc/elements/1.1/" xmlns:cc="http://creativecommons.org/ns#" xmlns:rdf="http://www.w3.org/1999/02/22-rdf-syntax-ns#">
   <cc:Work>
    <dc:type rdf:resource="http://purl.org/dc/dcmitype/StillImage"/>
    <dc:date>2026-03-16T20:50:15.628439</dc:date>
    <dc:format>image/svg+xml</dc:format>
    <dc:creator>
     <cc:Agent>
      <dc:title>Matplotlib v3.10.8, https://matplotlib.org/</dc:title>
     </cc:Agent>
    </dc:creator>
   </cc:Work>
  </rdf:RDF>
 </metadata>
 <defs>
  <style type="text/css">*{stroke-linejoin: round; stroke-linecap: butt}</style>
 </defs>
 <g id="figure_1">
  <g id="patch_1">
   <path d="M 0 144 
L 720 144 
L 720 0 
L 0 0 
L 0 144 
z
" style="fill: none"/>
  </g>
  <g id="axes_1">
   <g id="FillBetweenPolyCollection_1">
    <path d="M 0 144 
L 0 116.307692 
L 0.451303 116.703297 
L 0.997506 117.494505 
L 1.846507 118.681319 
L 2.61138 119.472527 
L 2.97254 119.868132 
L 3.408038 120.659341 
L 5.261711 119.472527 
L 6.091941 119.076923 
L 7.815994 118.681319 
L 8.460323 118.681319 
L 8.826981 118.681319 
L 9.826357 119.868132 
L 10.343675 121.054945 
L 11.096282 122.637363 
L 11.971387 123.824176 
L 13.161172 125.010989 
L 14.152731 125.802198 
L 15.107539 127.384615 
L 15.94433 129.362637 
L 18.104175 130.549451 
L 18.293521 130.549451 
L 18.828264 130.549451 
L 19.481304 130.549451 
L 20.438781 130.549451 
L 21.164948 130.549451 
L 22.37458 129.362637 
L 23.302642 128.175824 
L 24.470604 126.989011 
L 24.875162 126.593407 
L 25.497217 126.989011 
L 27.233578 127.78022 
L 28.208061 128.175824 
L 29.15652 128.571429 
L 29.916223 128.967033 
L 30.869953 129.362637 
L 31.842509 129.758242 
L 32.64125 130.153846 
L 33.668319 130.549451 
L 34.781284 130.549451 
L 35.31943 130.549451 
L 35.858114 130.549451 
L 36.170544 130.945055 
L 36.758231 131.736264 
L 37.683575 132.527473 
L 38.814154 133.714286 
L 39.159363 134.10989 
L 39.407709 134.505495 
L 39.718982 134.505495 
L 40.333265 134.505495 
L 40.528922 134.505495 
L 41.063405 134.505495 
L 41.334881 134.505495 
L 41.712302 134.505495 
L 42.445589 134.505495 
L 43.269369 134.505495 
L 44.134514 134.10989 
L 45.247264 133.714286 
L 46.687166 132.923077 
L 47.553438 132.527473 
L 48.672915 131.736264 
L 49.502107 131.340659 
L 50.280003 130.945055 
L 51.013946 130.549451 
L 51.439459 130.549451 
L 52.115435 130.549451 
L 53.028863 130.549451 
L 53.518032 130.549451 
L 53.934091 130.549451 
L 54.555659 130.549451 
L 54.934937 130.549451 
L 55.606368 130.549451 
L 56.58698 130.549451 
L 56.950237 130.549451 
L 57.107991 130.549451 
L 57.526866 130.549451 
L 58.037601 130.549451 
L 58.455069 130.549451 
L 58.890346 130.549451 
L 59.885652 130.549451 
L 60.347365 130.549451 
L 60.609741 130.153846 
L 60.875685 129.362637 
L 61.406101 127.78022 
L 61.847871 126.197802 
L 62.620285 124.615385 
L 64.106973 121.846154 
L 64.84195 121.054945 
L 65.494404 119.868132 
L 66.093964 119.076923 
L 66.755408 117.89011 
L 67.486583 115.912088 
L 67.927027 114.725275 
L 68.782832 112.351648 
L 69.086386 111.56044 
L 69.580196 110.373626 
L 70.553244 109.186813 
L 72.950661 106.417582 
L 73.047603 106.417582 
L 73.361079 106.021978 
L 73.459922 106.021978 
L 73.459922 106.021978 
L 73.83651 106.021978 
L 74.572062 105.230769 
L 75.109802 104.835165 
L 75.473286 104.835165 
L 75.767997 104.43956 
L 75.845555 104.43956 
L 76.258546 104.043956 
L 78.012083 102.857143 
L 78.425061 102.461538 
L 78.639307 102.461538 
L 79.113432 102.065934 
L 79.811484 101.274725 
L 80.347574 100.879121 
L 80.614214 100.879121 
L 81.514977 100.087912 
L 82.010145 99.692308 
L 82.645573 98.901099 
L 83.532924 98.505495 
L 84.32733 98.10989 
L 85.071142 98.10989 
L 85.560005 97.714286 
L 86.469066 97.318681 
L 86.957201 96.923077 
L 87.380385 96.923077 
L 88.243574 96.527473 
L 89.516955 96.131868 
L 90.468531 95.736264 
L 90.979957 95.340659 
L 91.666371 94.945055 
L 92.474101 92.967033 
L 92.872476 91.78022 
L 93.333169 90.197802 
L 93.61248 89.406593 
L 94.123324 87.824176 
L 94.935042 85.450549 
L 95.553638 83.868132 
L 96.184932 82.285714 
L 96.860333 80.703297 
L 97.701698 79.120879 
L 98.286319 78.725275 
L 98.958564 77.934066 
L 99.224645 77.934066 
L 99.69221 77.538462 
L 100.522396 76.747253 
L 101.00999 76.747253 
L 101.345997 76.351648 
L 101.979725 75.956044 
L 102.775442 75.164835 
L 103.577423 73.978022 
L 103.940862 73.582418 
L 104.623284 72.395604 
L 105.337915 71.208791 
L 106.194495 69.626374 
L 107.542287 67.648352 
L 108.100845 66.857143 
L 108.62971 65.67033 
L 109.94832 63.296703 
L 110.825896 63.296703 
L 111.636289 63.296703 
L 112.398728 63.296703 
L 113.074016 63.296703 
L 113.388417 63.296703 
L 114.002904 63.296703 
L 114.64995 63.296703 
L 120.03463 63.692308 
L 120.231073 63.692308 
L 124.068882 64.879121 
L 125.447254 65.274725 
L 137.495741 68.43956 
L 139.970668 69.626374 
L 143.185177 70.813187 
L 144.766809 71.208791 
L 147.740839 71.208791 
L 148.981499 71.208791 
L 150.305327 71.208791 
L 152.141682 70.813187 
L 153.468608 70.417582 
L 153.698561 70.417582 
L 154.515649 70.417582 
L 156.439583 70.417582 
L 158.380588 70.813187 
L 159.741474 70.813187 
L 160.43238 70.813187 
L 162.097412 70.813187 
L 163.242408 70.813187 
L 164.827379 70.813187 
L 166.92993 71.208791 
L 170.8196 71.604396 
L 171.94148 72.791209 
L 172.774559 73.582418 
L 173.910836 75.164835 
L 174.788284 75.956044 
L 175.191525 76.351648 
L 176.014481 77.142857 
L 177.123208 77.934066 
L 177.600041 78.32967 
L 178.577179 79.516484 
L 179.409079 80.703297 
L 181.341257 83.076923 
L 182.5386 83.076923 
L 183.766824 83.076923 
L 184.114765 83.076923 
L 185.352978 83.076923 
L 186.149559 83.076923 
L 186.795373 83.076923 
L 189.970343 83.076923 
L 190.452711 83.076923 
L 190.887263 82.681319 
L 191.123885 83.076923 
L 191.487037 83.076923 
L 192.148076 83.076923 
L 192.380094 83.076923 
L 193.135615 83.076923 
L 193.530962 83.076923 
L 194.168675 83.076923 
L 194.356062 83.076923 
L 195.186774 83.076923 
L 195.875637 83.076923 
L 197.308158 82.681319 
L 198.394435 82.285714 
L 198.694461 82.285714 
L 199.152227 81.89011 
L 199.8883 81.89011 
L 200.577227 81.494505 
L 201.347178 81.098901 
L 202.337435 80.703297 
L 203.210729 80.703297 
L 204.002866 80.307692 
L 204.638558 79.912088 
L 205.412701 79.516484 
L 205.780358 79.516484 
L 206.995684 79.120879 
L 207.461148 78.725275 
L 208.119781 78.725275 
L 209.206215 78.32967 
L 210.355195 77.538462 
L 211.600776 77.142857 
L 212.667929 76.747253 
L 214.241582 76.351648 
L 215.495715 75.56044 
L 216.016834 75.56044 
L 216.611605 75.164835 
L 217.720753 74.373626 
L 218.314506 73.978022 
L 218.95588 73.582418 
L 219.476814 73.186813 
L 220.049997 72.791209 
L 220.666143 72.395604 
L 221.476379 71.604396 
L 222.893663 70.813187 
L 223.84311 70.021978 
L 224.777258 69.626374 
L 225.138799 69.230769 
L 225.927512 68.835165 
L 226.975763 68.043956 
L 228.063667 67.648352 
L 229.106727 66.857143 
L 229.943412 66.461538 
L 231.074615 66.065934 
L 231.891094 66.065934 
L 233.024915 65.274725 
L 233.841182 65.274725 
L 235.451262 64.483516 
L 237.684055 63.692308 
L 239.44165 62.901099 
L 240.366322 62.901099 
L 241.063072 62.505495 
L 241.999552 62.505495 
L 242.504931 62.505495 
L 243.304883 62.10989 
L 244.456501 61.714286 
L 245.015734 61.714286 
L 245.66338 61.714286 
L 246.047831 61.318681 
L 246.462384 61.318681 
L 247.068474 61.318681 
L 247.653352 60.923077 
L 248.351019 60.923077 
L 249.916578 60.527473 
L 250.756136 60.131868 
L 251.899971 60.131868 
L 253.025395 59.736264 
L 254.384416 59.340659 
L 254.956214 59.340659 
L 256.131258 58.549451 
L 257.004711 58.153846 
L 258.407225 57.758242 
L 259.919506 56.967033 
L 261.027553 56.571429 
L 262.160858 55.78022 
L 263.076304 55.384615 
L 263.773953 55.384615 
L 265.005494 54.989011 
L 265.804835 54.593407 
L 266.726324 54.197802 
L 267.147381 54.197802 
L 267.484494 54.197802 
L 268.49268 53.802198 
L 269.121178 53.406593 
L 269.590676 53.406593 
L 271.141314 52.615385 
L 271.8084 52.615385 
L 272.132509 52.615385 
L 272.909458 52.21978 
L 273.541192 51.824176 
L 274.896938 51.428571 
L 275.743648 51.428571 
L 277.361117 50.637363 
L 277.949695 50.637363 
L 278.626608 50.241758 
L 279.493431 49.846154 
L 280.565852 49.846154 
L 282.140141 49.054945 
L 283.464866 48.659341 
L 284.558316 48.263736 
L 286.467471 47.472527 
L 287.49793 47.076923 
L 288.236734 46.681319 
L 289.830818 45.494505 
L 291.308833 44.703297 
L 292.168552 44.307692 
L 293.282682 43.120879 
L 294.217148 41.538462 
L 295.870667 39.164835 
L 296.846134 38.373626 
L 298.165854 37.582418 
L 300.162346 36.395604 
L 301.906416 35.604396 
L 302.612754 35.604396 
L 303.302677 35.604396 
L 306.223994 35.604396 
L 307.254452 35.604396 
L 307.668983 35.208791 
L 309.202527 34.813187 
L 310.685448 34.417582 
L 312.046165 33.626374 
L 312.851151 33.230769 
L 314.213243 32.835165 
L 316.169068 32.043956 
L 317.114429 31.648352 
L 318.33648 31.252747 
L 319.48335 30.857143 
L 321.821658 29.67033 
L 323.30057 29.274725 
L 323.859858 28.879121 
L 324.526812 28.483516 
L 325.700622 28.087912 
L 327.847062 26.10989 
L 329.393171 24.527473 
L 329.699091 24.527473 
L 329.938841 24.131868 
L 330.604601 23.736264 
L 330.816216 23.736264 
L 331.635302 23.340659 
L 332.271057 22.945055 
L 333.492417 22.549451 
L 336.226167 21.758242 
L 338.284987 21.362637 
L 339.12235 20.967033 
L 339.739688 20.571429 
L 340.423773 20.571429 
L 340.819696 20.571429 
L 341.170396 20.175824 
L 341.48133 20.175824 
L 341.914223 20.175824 
L 342.541125 19.78022 
L 342.813945 19.78022 
L 342.992957 19.384615 
L 343.276561 19.384615 
L 343.914164 18.989011 
L 344.878718 18.197802 
L 346.328621 16.615385 
L 346.964248 16.21978 
L 347.770278 15.428571 
L 348.324208 15.032967 
L 348.854433 14.241758 
L 349.667161 13.450549 
L 350.286169 12.659341 
L 350.87961 11.868132 
L 351.343073 11.472527 
L 352.219381 10.681319 
L 353.19665 9.89011 
L 355.203784 7.912088 
L 356.034772 7.912088 
L 356.467507 7.912088 
L 357.338327 7.912088 
L 357.80775 7.912088 
L 358.731928 7.912088 
L 359.932687 7.912088 
L 361.678265 8.703297 
L 362.512926 9.098901 
L 363.712728 9.494505 
L 364.811957 10.285714 
L 365.385592 10.285714 
L 366.188353 10.681319 
L 367.168803 11.076923 
L 368.079265 11.868132 
L 369.39757 12.659341 
L 370.693642 13.450549 
L 371.868524 14.241758 
L 372.619099 14.637363 
L 373.192996 15.032967 
L 373.624153 15.032967 
L 374.342838 15.824176 
L 375.124411 15.824176 
L 376.091221 15.824176 
L 376.934416 15.824176 
L 377.421155 15.824176 
L 379.44108 15.824176 
L 380.870491 15.824176 
L 381.683218 15.824176 
L 383.863702 15.824176 
L 385.021393 15.824176 
L 386.618338 15.824176 
L 388.071702 15.824176 
L 389.34462 15.824176 
L 390.087999 15.824176 
L 391.131741 15.824176 
L 394.072244 15.824176 
L 395.54536 15.824176 
L 396.986648 15.824176 
L 398.629382 15.428571 
L 399.919495 15.032967 
L 400.900257 14.241758 
L 401.663962 13.846154 
L 402.930732 13.054945 
L 403.653717 12.659341 
L 404.403865 12.263736 
L 405.366052 11.868132 
L 406.965016 10.681319 
L 407.836529 9.89011 
L 410.88327 7.516484 
L 412.710193 5.934066 
L 414.011625 5.142857 
L 415.349295 3.956044 
L 418.211987 0.791209 
L 420.975075 0 
L 421.628043 0 
L 423.068904 0.791209 
L 424.524351 2.373626 
L 427.362796 5.142857 
L 430.728031 8.703297 
L 432.62183 10.285714 
L 434.203653 11.868132 
L 436.223832 13.054945 
L 438.383442 14.637363 
L 440.556241 16.21978 
L 444.303694 19.384615 
L 446.375531 21.362637 
L 447.455633 22.549451 
L 449.33208 24.527473 
L 449.996361 25.714286 
L 450.569056 26.505495 
L 454.417781 33.626374 
L 456.535344 37.978022 
L 457.236762 39.56044 
L 458.759059 42.725275 
L 460.439383 45.098901 
L 460.826059 45.89011 
L 463.5011 48.263736 
L 464.939163 49.054945 
L 466.059899 49.846154 
L 466.604491 50.241758 
L 467.752077 50.637363 
L 468.345095 51.032967 
L 470.470529 54.989011 
L 472.452135 57.362637 
L 474.294994 58.945055 
L 477.049321 60.131868 
L 478.434475 60.527473 
L 479.968474 61.318681 
L 480.983323 61.318681 
L 482.537691 62.10989 
L 483.793941 62.505495 
L 484.511426 62.505495 
L 485.499662 62.901099 
L 486.938661 64.483516 
L 487.6114 65.274725 
L 488.722918 67.252747 
L 490.277262 70.021978 
L 491.26178 72 
L 492.432457 73.978022 
L 493.559352 76.351648 
L 494.691694 78.32967 
L 496.24997 80.703297 
L 497.2051 81.89011 
L 498.462566 83.868132 
L 499.474006 86.241758 
L 501.293919 89.406593 
L 502.522067 91.384615 
L 503.60097 93.758242 
L 503.866962 94.153846 
L 506.155228 98.901099 
L 507.67785 100.087912 
L 509.387675 100.879121 
L 511.120543 102.065934 
L 511.662168 102.461538 
L 513.024571 104.043956 
L 513.419181 105.230769 
L 514.182533 107.208791 
L 515.167749 109.582418 
L 515.923388 111.164835 
L 516.788885 113.142857 
L 518.082498 115.516484 
L 518.823556 116.307692 
L 519.518177 117.494505 
L 520.192804 118.285714 
L 520.605489 118.681319 
L 521.592222 119.868132 
L 522.284002 120.263736 
L 523.11258 121.054945 
L 524.008495 122.241758 
L 524.386443 122.637363 
L 526.426883 124.615385 
L 527.580028 125.802198 
L 528.45998 126.989011 
L 529.165799 127.78022 
L 529.885519 128.967033 
L 531.492617 131.736264 
L 533.575545 136.483516 
L 537.496445 141.626374 
L 538.307956 142.813187 
L 539.376276 143.208791 
L 540.36503 143.604396 
L 540.600783 144 
L 540.924889 144 
L 541.166324 144 
L 541.476726 144 
L 541.983628 144 
L 542.515302 143.604396 
L 542.622437 143.604396 
L 542.729572 143.604396 
L 543.481852 143.604396 
L 544.254943 143.604396 
L 544.912518 143.208791 
L 545.388883 143.208791 
L 545.942552 143.208791 
L 546.475659 143.208791 
L 546.701692 143.208791 
L 548.589277 142.813187 
L 548.71295 142.813187 
L 548.989787 142.813187 
L 549.267393 142.813187 
L 549.818872 142.813187 
L 550.330802 142.417582 
L 550.779368 142.417582 
L 551.073154 142.417582 
L 552.384676 142.021978 
L 552.685574 142.021978 
L 553.276964 141.626374 
L 554.39989 141.230769 
L 555.959081 140.835165 
L 556.755259 140.43956 
L 558.183048 139.648352 
L 558.594399 139.648352 
L 558.92491 139.648352 
L 559.50895 139.252747 
L 560.022988 138.857143 
L 560.35979 138.857143 
L 560.670801 138.857143 
L 561.572655 138.461538 
L 562.228585 137.274725 
L 565.001167 133.318681 
L 565.758884 132.131868 
L 567.492804 129.758242 
L 569.403968 126.593407 
L 570.190739 125.802198 
L 570.904888 125.010989 
L 572.443079 123.824176 
L 573.234346 123.032967 
L 573.994987 122.637363 
L 574.960615 121.846154 
L 575.826291 121.054945 
L 577.851103 119.472527 
L 579.965898 117.494505 
L 580.81957 117.098901 
L 581.126649 117.098901 
L 582.354477 115.516484 
L 582.717929 115.120879 
L 583.31741 113.934066 
L 584.443334 111.956044 
L 585.528667 110.373626 
L 587.133539 109.582418 
L 588.460824 109.186813 
L 591.661677 107.604396 
L 592.691817 107.208791 
L 594.280399 106.417582 
L 595.456564 106.417582 
L 596.137932 106.021978 
L 597.107815 106.021978 
L 598.435794 105.626374 
L 600.047842 105.230769 
L 601.316927 104.835165 
L 602.330433 104.43956 
L 604.059856 104.043956 
L 605.631585 103.648352 
L 607.070826 103.252747 
L 608.399493 102.857143 
L 609.856527 102.857143 
L 611.077817 102.857143 
L 611.542858 102.857143 
L 613.063042 103.648352 
L 613.937664 103.648352 
L 616.309906 104.835165 
L 617.549931 105.230769 
L 619.19823 106.021978 
L 621.130018 106.813187 
L 623.382947 108 
L 626.087543 109.186813 
L 626.421522 109.582418 
L 629.083079 110.769231 
L 630.280177 110.769231 
L 632.14873 110.769231 
L 633.404982 110.769231 
L 634.022682 110.769231 
L 634.693768 110.769231 
L 636.020433 110.769231 
L 636.763178 110.769231 
L 639.343188 110.769231 
L 639.960766 110.769231 
L 641.051858 110.769231 
L 642.048567 110.769231 
L 642.475686 110.769231 
L 642.851103 110.769231 
L 643.627929 110.769231 
L 644.432942 110.769231 
L 646.047344 111.164835 
L 646.545824 111.56044 
L 647.082896 111.56044 
L 647.665671 111.956044 
L 649.297863 113.142857 
L 650.065844 113.538462 
L 650.900079 113.934066 
L 652.265778 114.725275 
L 653.625598 115.912088 
L 654.359002 117.098901 
L 655.059076 117.89011 
L 655.695025 118.681319 
L 656.354423 118.681319 
L 658.315902 118.681319 
L 658.840949 118.681319 
L 659.424926 120.263736 
L 660.195111 121.846154 
L 660.709187 123.428571 
L 661.337286 125.802198 
L 661.778964 126.593407 
L 662.10237 126.593407 
L 662.433236 126.593407 
L 662.534222 126.593407 
L 662.989051 126.593407 
L 663.191839 126.593407 
L 663.290477 126.593407 
L 663.426059 126.593407 
L 663.862624 126.593407 
L 663.980521 126.593407 
L 664.201168 126.593407 
L 664.539803 126.593407 
L 664.846804 126.593407 
L 665.098781 126.593407 
L 666.21242 126.593407 
L 666.492275 126.593407 
L 666.753833 126.593407 
L 667.496569 125.406593 
L 668.11366 123.824176 
L 668.528859 123.032967 
L 669.22646 122.241758 
L 670.106542 121.054945 
L 670.612854 120.659341 
L 671.398222 119.868132 
L 671.673039 119.472527 
L 672.105816 119.076923 
L 672.37866 119.076923 
L 672.897569 118.285714 
L 673.751132 117.098901 
L 674.315858 116.307692 
L 674.7811 115.912088 
L 675.156834 115.120879 
L 675.93202 114.32967 
L 676.963068 113.934066 
L 678.736921 112.747253 
L 680.414917 111.56044 
L 682.32971 110.373626 
L 685.444199 108 
L 687.202669 107.208791 
L 688.683468 106.417582 
L 690.366411 104.43956 
L 691.471368 103.252747 
L 693.617674 100.087912 
L 696.14836 96.527473 
L 697.622449 94.153846 
L 700.884205 89.802198 
L 702.205534 89.010989 
L 702.970033 88.21978 
L 703.519709 87.824176 
L 703.729729 87.428571 
L 703.899079 87.428571 
L 704.009209 87.428571 
L 704.205631 87.032967 
L 704.5858 86.637363 
L 705.186891 87.032967 
L 705.729571 86.637363 
L 707.027776 85.450549 
L 708.85523 83.868132 
L 710.042257 83.076923 
L 710.262127 83.076923 
L 710.968475 81.89011 
L 711.649209 80.703297 
L 712.590663 78.725275 
L 712.730303 78.725275 
L 712.9054 78.32967 
L 713.424072 77.142857 
L 714.85549 75.164835 
L 715.095628 75.164835 
L 715.132979 75.164835 
L 715.188637 75.164835 
L 715.561594 75.164835 
L 716.032932 75.164835 
L 716.640863 75.164835 
L 716.910447 75.164835 
L 717.937294 75.164835 
L 718.193742 75.164835 
L 718.317283 75.164835 
L 718.379184 75.164835 
L 718.45828 75.164835 
L 718.773655 75.164835 
L 718.913588 75.164835 
L 719.232167 75.164835 
L 719.252799 75.164835 
L 719.270375 75.164835 
L 719.648838 75.164835 
L 719.666415 75.164835 
L 719.704731 75.164835 
L 719.744279 75.164835 
L 719.764911 75.164835 
L 720 75.164835 
L 720 144 
L 720 144 
L 719.764911 144 
L 719.744279 144 
L 719.704731 144 
L 719.666415 144 
L 719.648838 144 
L 719.270375 144 
L 719.252799 144 
L 719.232167 144 
L 718.913588 144 
L 718.773655 144 
L 718.45828 144 
L 718.379184 144 
L 718.317283 144 
L 718.193742 144 
L 717.937294 144 
L 716.910447 144 
L 716.640863 144 
L 716.032932 144 
L 715.561594 144 
L 715.188637 144 
L 715.132979 144 
L 715.095628 144 
L 714.85549 144 
L 713.424072 144 
L 712.9054 144 
L 712.730303 144 
L 712.590663 144 
L 711.649209 144 
L 710.968475 144 
L 710.262127 144 
L 710.042257 144 
L 708.85523 144 
L 707.027776 144 
L 705.729571 144 
L 705.186891 144 
L 704.5858 144 
L 704.205631 144 
L 704.009209 144 
L 703.899079 144 
L 703.729729 144 
L 703.519709 144 
L 702.970033 144 
L 702.205534 144 
L 700.884205 144 
L 697.622449 144 
L 696.14836 144 
L 693.617674 144 
L 691.471368 144 
L 690.366411 144 
L 688.683468 144 
L 687.202669 144 
L 685.444199 144 
L 682.32971 144 
L 680.414917 144 
L 678.736921 144 
L 676.963068 144 
L 675.93202 144 
L 675.156834 144 
L 674.7811 144 
L 674.315858 144 
L 673.751132 144 
L 672.897569 144 
L 672.37866 144 
L 672.105816 144 
L 671.673039 144 
L 671.398222 144 
L 670.612854 144 
L 670.106542 144 
L 669.22646 144 
L 668.528859 144 
L 668.11366 144 
L 667.496569 144 
L 666.753833 144 
L 666.492275 144 
L 666.21242 144 
L 665.098781 144 
L 664.846804 144 
L 664.539803 144 
L 664.201168 144 
L 663.980521 144 
L 663.862624 144 
L 663.426059 144 
L 663.290477 144 
L 663.191839 144 
L 662.989051 144 
L 662.534222 144 
L 662.433236 144 
L 662.10237 144 
L 661.778964 144 
L 661.337286 144 
L 660.709187 144 
L 660.195111 144 
L 659.424926 144 
L 658.840949 144 
L 658.315902 144 
L 656.354423 144 
L 655.695025 144 
L 655.059076 144 
L 654.359002 144 
L 653.625598 144 
L 652.265778 144 
L 650.900079 144 
L 650.065844 144 
L 649.297863 144 
L 647.665671 144 
L 647.082896 144 
L 646.545824 144 
L 646.047344 144 
L 644.432942 144 
L 643.627929 144 
L 642.851103 144 
L 642.475686 144 
L 642.048567 144 
L 641.051858 144 
L 639.960766 144 
L 639.343188 144 
L 636.763178 144 
L 636.020433 144 
L 634.693768 144 
L 634.022682 144 
L 633.404982 144 
L 632.14873 144 
L 630.280177 144 
L 629.083079 144 
L 626.421522 144 
L 626.087543 144 
L 623.382947 144 
L 621.130018 144 
L 619.19823 144 
L 617.549931 144 
L 616.309906 144 
L 613.937664 144 
L 613.063042 144 
L 611.542858 144 
L 611.077817 144 
L 609.856527 144 
L 608.399493 144 
L 607.070826 144 
L 605.631585 144 
L 604.059856 144 
L 602.330433 144 
L 601.316927 144 
L 600.047842 144 
L 598.435794 144 
L 597.107815 144 
L 596.137932 144 
L 595.456564 144 
L 594.280399 144 
L 592.691817 144 
L 591.661677 144 
L 588.460824 144 
L 587.133539 144 
L 585.528667 144 
L 584.443334 144 
L 583.31741 144 
L 582.717929 144 
L 582.354477 144 
L 581.126649 144 
L 580.81957 144 
L 579.965898 144 
L 577.851103 144 
L 575.826291 144 
L 574.960615 144 
L 573.994987 144 
L 573.234346 144 
L 572.443079 144 
L 570.904888 144 
L 570.190739 144 
L 569.403968 144 
L 567.492804 144 
L 565.758884 144 
L 565.001167 144 
L 562.228585 144 
L 561.572655 144 
L 560.670801 144 
L 560.35979 144 
L 560.022988 144 
L 559.50895 144 
L 558.92491 144 
L 558.594399 144 
L 558.183048 144 
L 556.755259 144 
L 555.959081 144 
L 554.39989 144 
L 553.276964 144 
L 552.685574 144 
L 552.384676 144 
L 551.073154 144 
L 550.779368 144 
L 550.330802 144 
L 549.818872 144 
L 549.267393 144 
L 548.989787 144 
L 548.71295 144 
L 548.589277 144 
L 546.701692 144 
L 546.475659 144 
L 545.942552 144 
L 545.388883 144 
L 544.912518 144 
L 544.254943 144 
L 543.481852 144 
L 542.729572 144 
L 542.622437 144 
L 542.515302 144 
L 541.983628 144 
L 541.476726 144 
L 541.166324 144 
L 540.924889 144 
L 540.600783 144 
L 540.36503 144 
L 539.376276 144 
L 538.307956 144 
L 537.496445 144 
L 533.575545 144 
L 531.492617 144 
L 529.885519 144 
L 529.165799 144 
L 528.45998 144 
L 527.580028 144 
L 526.426883 144 
L 524.386443 144 
L 524.008495 144 
L 523.11258 144 
L 522.284002 144 
L 521.592222 144 
L 520.605489 144 
L 520.192804 144 
L 519.518177 144 
L 518.823556 144 
L 518.082498 144 
L 516.788885 144 
L 515.923388 144 
L 515.167749 144 
L 514.182533 144 
L 513.419181 144 
L 513.024571 144 
L 511.662168 144 
L 511.120543 144 
L 509.387675 144 
L 507.67785 144 
L 506.155228 144 
L 503.866962 144 
L 503.60097 144 
L 502.522067 144 
L 501.293919 144 
L 499.474006 144 
L 498.462566 144 
L 497.2051 144 
L 496.24997 144 
L 494.691694 144 
L 493.559352 144 
L 492.432457 144 
L 491.26178 144 
L 490.277262 144 
L 488.722918 144 
L 487.6114 144 
L 486.938661 144 
L 485.499662 144 
L 484.511426 144 
L 483.793941 144 
L 482.537691 144 
L 480.983323 144 
L 479.968474 144 
L 478.434475 144 
L 477.049321 144 
L 474.294994 144 
L 472.452135 144 
L 470.470529 144 
L 468.345095 144 
L 467.752077 144 
L 466.604491 144 
L 466.059899 144 
L 464.939163 144 
L 463.5011 144 
L 460.826059 144 
L 460.439383 144 
L 458.759059 144 
L 457.236762 144 
L 456.535344 144 
L 454.417781 144 
L 450.569056 144 
L 449.996361 144 
L 449.33208 144 
L 447.455633 144 
L 446.375531 144 
L 444.303694 144 
L 440.556241 144 
L 438.383442 144 
L 436.223832 144 
L 434.203653 144 
L 432.62183 144 
L 430.728031 144 
L 427.362796 144 
L 424.524351 144 
L 423.068904 144 
L 421.628043 144 
L 420.975075 144 
L 418.211987 144 
L 415.349295 144 
L 414.011625 144 
L 412.710193 144 
L 410.88327 144 
L 407.836529 144 
L 406.965016 144 
L 405.366052 144 
L 404.403865 144 
L 403.653717 144 
L 402.930732 144 
L 401.663962 144 
L 400.900257 144 
L 399.919495 144 
L 398.629382 144 
L 396.986648 144 
L 395.54536 144 
L 394.072244 144 
L 391.131741 144 
L 390.087999 144 
L 389.34462 144 
L 388.071702 144 
L 386.618338 144 
L 385.021393 144 
L 383.863702 144 
L 381.683218 144 
L 380.870491 144 
L 379.44108 144 
L 377.421155 144 
L 376.934416 144 
L 376.091221 144 
L 375.124411 144 
L 374.342838 144 
L 373.624153 144 
L 373.192996 144 
L 372.619099 144 
L 371.868524 144 
L 370.693642 144 
L 369.39757 144 
L 368.079265 144 
L 367.168803 144 
L 366.188353 144 
L 365.385592 144 
L 364.811957 144 
L 363.712728 144 
L 362.512926 144 
L 361.678265 144 
L 359.932687 144 
L 358.731928 144 
L 357.80775 144 
L 357.338327 144 
L 356.467507 144 
L 356.034772 144 
L 355.203784 144 
L 353.19665 144 
L 352.219381 144 
L 351.343073 144 
L 350.87961 144 
L 350.286169 144 
L 349.667161 144 
L 348.854433 144 
L 348.324208 144 
L 347.770278 144 
L 346.964248 144 
L 346.328621 144 
L 344.878718 144 
L 343.914164 144 
L 343.276561 144 
L 342.992957 144 
L 342.813945 144 
L 342.541125 144 
L 341.914223 144 
L 341.48133 144 
L 341.170396 144 
L 340.819696 144 
L 340.423773 144 
L 339.739688 144 
L 339.12235 144 
L 338.284987 144 
L 336.226167 144 
L 333.492417 144 
L 332.271057 144 
L 331.635302 144 
L 330.816216 144 
L 330.604601 144 
L 329.938841 144 
L 329.699091 144 
L 329.393171 144 
L 327.847062 144 
L 325.700622 144 
L 324.526812 144 
L 323.859858 144 
L 323.30057 144 
L 321.821658 144 
L 319.48335 144 
L 318.33648 144 
L 317.114429 144 
L 316.169068 144 
L 314.213243 144 
L 312.851151 144 
L 312.046165 144 
L 310.685448 144 
L 309.202527 144 
L 307.668983 144 
L 307.254452 144 
L 306.223994 144 
L 303.302677 144 
L 302.612754 144 
L 301.906416 144 
L 300.162346 144 
L 298.165854 144 
L 296.846134 144 
L 295.870667 144 
L 294.217148 144 
L 293.282682 144 
L 292.168552 144 
L 291.308833 144 
L 289.830818 144 
L 288.236734 144 
L 287.49793 144 
L 286.467471 144 
L 284.558316 144 
L 283.464866 144 
L 282.140141 144 
L 280.565852 144 
L 279.493431 144 
L 278.626608 144 
L 277.949695 144 
L 277.361117 144 
L 275.743648 144 
L 274.896938 144 
L 273.541192 144 
L 272.909458 144 
L 272.132509 144 
L 271.8084 144 
L 271.141314 144 
L 269.590676 144 
L 269.121178 144 
L 268.49268 144 
L 267.484494 144 
L 267.147381 144 
L 266.726324 144 
L 265.804835 144 
L 265.005494 144 
L 263.773953 144 
L 263.076304 144 
L 262.160858 144 
L 261.027553 144 
L 259.919506 144 
L 258.407225 144 
L 257.004711 144 
L 256.131258 144 
L 254.956214 144 
L 254.384416 144 
L 253.025395 144 
L 251.899971 144 
L 250.756136 144 
L 249.916578 144 
L 248.351019 144 
L 247.653352 144 
L 247.068474 144 
L 246.462384 144 
L 246.047831 144 
L 245.66338 144 
L 245.015734 144 
L 244.456501 144 
L 243.304883 144 
L 242.504931 144 
L 241.999552 144 
L 241.063072 144 
L 240.366322 144 
L 239.44165 144 
L 237.684055 144 
L 235.451262 144 
L 233.841182 144 
L 233.024915 144 
L 231.891094 144 
L 231.074615 144 
L 229.943412 144 
L 229.106727 144 
L 228.063667 144 
L 226.975763 144 
L 225.927512 144 
L 225.138799 144 
L 224.777258 144 
L 223.84311 144 
L 222.893663 144 
L 221.476379 144 
L 220.666143 144 
L 220.049997 144 
L 219.476814 144 
L 218.95588 144 
L 218.314506 144 
L 217.720753 144 
L 216.611605 144 
L 216.016834 144 
L 215.495715 144 
L 214.241582 144 
L 212.667929 144 
L 211.600776 144 
L 210.355195 144 
L 209.206215 144 
L 208.119781 144 
L 207.461148 144 
L 206.995684 144 
L 205.780358 144 
L 205.412701 144 
L 204.638558 144 
L 204.002866 144 
L 203.210729 144 
L 202.337435 144 
L 201.347178 144 
L 200.577227 144 
L 199.8883 144 
L 199.152227 144 
L 198.694461 144 
L 198.394435 144 
L 197.308158 144 
L 195.875637 144 
L 195.186774 144 
L 194.356062 144 
L 194.168675 144 
L 193.530962 144 
L 193.135615 144 
L 192.380094 144 
L 192.148076 144 
L 191.487037 144 
L 191.123885 144 
L 190.887263 144 
L 190.452711 144 
L 189.970343 144 
L 186.795373 144 
L 186.149559 144 
L 185.352978 144 
L 184.114765 144 
L 183.766824 144 
L 182.5386 144 
L 181.341257 144 
L 179.409079 144 
L 178.577179 144 
L 177.600041 144 
L 177.123208 144 
L 176.014481 144 
L 175.191525 144 
L 174.788284 144 
L 173.910836 144 
L 172.774559 144 
L 171.94148 144 
L 170.8196 144 
L 166.92993 144 
L 164.827379 144 
L 163.242408 144 
L 162.097412 144 
L 160.43238 144 
L 159.741474 144 
L 158.380588 144 
L 156.439583 144 
L 154.515649 144 
L 153.698561 144 
L 153.468608 144 
L 152.141682 144 
L 150.305327 144 
L 148.981499 144 
L 147.740839 144 
L 144.766809 144 
L 143.185177 144 
L 139.970668 144 
L 137.495741 144 
L 125.447254 144 
L 124.068882 144 
L 120.231073 144 
L 120.03463 144 
L 114.64995 144 
L 114.002904 144 
L 113.388417 144 
L 113.074016 144 
L 112.398728 144 
L 111.636289 144 
L 110.825896 144 
L 109.94832 144 
L 108.62971 144 
L 108.100845 144 
L 107.542287 144 
L 106.194495 144 
L 105.337915 144 
L 104.623284 144 
L 103.940862 144 
L 103.577423 144 
L 102.775442 144 
L 101.979725 144 
L 101.345997 144 
L 101.00999 144 
L 100.522396 144 
L 99.69221 144 
L 99.224645 144 
L 98.958564 144 
L 98.286319 144 
L 97.701698 144 
L 96.860333 144 
L 96.184932 144 
L 95.553638 144 
L 94.935042 144 
L 94.123324 144 
L 93.61248 144 
L 93.333169 144 
L 92.872476 144 
L 92.474101 144 
L 91.666371 144 
L 90.979957 144 
L 90.468531 144 
L 89.516955 144 
L 88.243574 144 
L 87.380385 144 
L 86.957201 144 
L 86.469066 144 
L 85.560005 144 
L 85.071142 144 
L 84.32733 144 
L 83.532924 144 
L 82.645573 144 
L 82.010145 144 
L 81.514977 144 
L 80.614214 144 
L 80.347574 144 
L 79.811484 144 
L 79.113432 144 
L 78.639307 144 
L 78.425061 144 
L 78.012083 144 
L 76.258546 144 
L 75.845555 144 
L 75.767997 144 
L 75.473286 144 
L 75.109802 144 
L 74.572062 144 
L 73.83651 144 
L 73.459922 144 
L 73.459922 144 
L 73.361079 144 
L 73.047603 144 
L 72.950661 144 
L 70.553244 144 
L 69.580196 144 
L 69.086386 144 
L 68.782832 144 
L 67.927027 144 
L 67.486583 144 
L 66.755408 144 
L 66.093964 144 
L 65.494404 144 
L 64.84195 144 
L 64.106973 144 
L 62.620285 144 
L 61.847871 144 
L 61.406101 144 
L 60.875685 144 
L 60.609741 144 
L 60.347365 144 
L 59.885652 144 
L 58.890346 144 
L 58.455069 144 
L 58.037601 144 
L 57.526866 144 
L 57.107991 144 
L 56.950237 144 
L 56.58698 144 
L 55.606368 144 
L 54.934937 144 
L 54.555659 144 
L 53.934091 144 
L 53.518032 144 
L 53.028863 144 
L 52.115435 144 
L 51.439459 144 
L 51.013946 144 
L 50.280003 144 
L 49.502107 144 
L 48.672915 144 
L 47.553438 144 
L 46.687166 144 
L 45.247264 144 
L 44.134514 144 
L 43.269369 144 
L 42.445589 144 
L 41.712302 144 
L 41.334881 144 
L 41.063405 144 
L 40.528922 144 
L 40.333265 144 
L 39.718982 144 
L 39.407709 144 
L 39.159363 144 
L 38.814154 144 
L 37.683575 144 
L 36.758231 144 
L 36.170544 144 
L 35.858114 144 
L 35.31943 144 
L 34.781284 144 
L 33.668319 144 
L 32.64125 144 
L 31.842509 144 
L 30.869953 144 
L 29.916223 144 
L 29.15652 144 
L 28.208061 144 
L 27.233578 144 
L 25.497217 144 
L 24.875162 144 
L 24.470604 144 
L 23.302642 144 
L 22.37458 144 
L 21.164948 144 
L 20.438781 144 
L 19.481304 144 
L 18.828264 144 
L 18.293521 144 
L 18.104175 144 
L 15.94433 144 
L 15.107539 144 
L 14.152731 144 
L 13.161172 144 
L 11.971387 144 
L 11.096282 144 
L 10.343675 144 
L 9.826357 144 
L 8.826981 144 
L 8.460323 144 
L 7.815994 144 
L 6.091941 144 
L 5.261711 144 
L 3.408038 144 
L 2.97254 144 
L 2.61138 144 
L 1.846507 144 
L 0.997506 144 
L 0.451303 144 
L 0 144 
z
" clip-path="url(#p04c22cace8)" style="fill: #c18182; fill-opacity: 0.3; stroke: #c18182; stroke-opacity: 0.3"/>
   </g>
   <g id="line2d_1">
    <path d="M 0 116.307692 
L 0.451303 116.703297 
L 1.846507 118.681319 
L 2.97254 119.868132 
L 3.408038 120.659341 
L 5.261711 119.472527 
L 6.091941 119.076923 
L 7.815994 118.681319 
L 8.826981 118.681319 
L 9.826357 119.868132 
L 11.096282 122.637363 
L 11.971387 123.824176 
L 13.161172 125.010989 
L 14.152731 125.802198 
L 15.107539 127.384615 
L 15.94433 129.362637 
L 18.293521 130.549451 
L 21.164948 130.549451 
L 22.37458 129.362637 
L 23.302642 128.175824 
L 24.875162 126.593407 
L 25.497217 126.989011 
L 30.869953 129.362637 
L 33.668319 130.549451 
L 35.858114 130.549451 
L 36.758231 131.736264 
L 37.683575 132.527473 
L 39.159363 134.10989 
L 39.407709 134.505495 
L 43.269369 134.505495 
L 47.553438 132.527473 
L 48.672915 131.736264 
L 51.013946 130.549451 
L 60.347365 130.549451 
L 60.609741 130.153846 
L 61.847871 126.197802 
L 62.620285 124.615385 
L 64.106973 121.846154 
L 64.84195 121.054945 
L 65.494404 119.868132 
L 66.093964 119.076923 
L 66.755408 117.89011 
L 69.580196 110.373626 
L 72.950661 106.417582 
L 73.047603 106.417582 
L 73.459922 106.021978 
L 73.459922 106.021978 
L 73.83651 106.021978 
L 74.572062 105.230769 
L 75.109802 104.835165 
L 75.473286 104.835165 
L 75.845555 104.43956 
L 76.258546 104.043956 
L 79.113432 102.065934 
L 79.811484 101.274725 
L 80.347574 100.879121 
L 80.614214 100.879121 
L 82.010145 99.692308 
L 82.645573 98.901099 
L 84.32733 98.10989 
L 85.071142 98.10989 
L 85.560005 97.714286 
L 86.469066 97.318681 
L 86.957201 96.923077 
L 87.380385 96.923077 
L 88.243574 96.527473 
L 90.468531 95.736264 
L 91.666371 94.945055 
L 92.872476 91.78022 
L 94.123324 87.824176 
L 95.553638 83.868132 
L 96.860333 80.703297 
L 97.701698 79.120879 
L 98.286319 78.725275 
L 98.958564 77.934066 
L 99.224645 77.934066 
L 100.522396 76.747253 
L 101.00999 76.747253 
L 101.345997 76.351648 
L 101.979725 75.956044 
L 102.775442 75.164835 
L 105.337915 71.208791 
L 106.194495 69.626374 
L 108.100845 66.857143 
L 108.62971 65.67033 
L 109.94832 63.296703 
L 114.64995 63.296703 
L 120.231073 63.692308 
L 125.447254 65.274725 
L 137.495741 68.43956 
L 139.970668 69.626374 
L 143.185177 70.813187 
L 144.766809 71.208791 
L 150.305327 71.208791 
L 153.698561 70.417582 
L 156.439583 70.417582 
L 158.380588 70.813187 
L 164.827379 70.813187 
L 166.92993 71.208791 
L 170.8196 71.604396 
L 172.774559 73.582418 
L 173.910836 75.164835 
L 177.123208 77.934066 
L 177.600041 78.32967 
L 178.577179 79.516484 
L 179.409079 80.703297 
L 181.341257 83.076923 
L 190.452711 83.076923 
L 190.887263 82.681319 
L 191.123885 83.076923 
L 195.875637 83.076923 
L 198.694461 82.285714 
L 199.152227 81.89011 
L 199.8883 81.89011 
L 201.347178 81.098901 
L 202.337435 80.703297 
L 203.210729 80.703297 
L 205.780358 79.516484 
L 206.995684 79.120879 
L 207.461148 78.725275 
L 208.119781 78.725275 
L 209.206215 78.32967 
L 210.355195 77.538462 
L 214.241582 76.351648 
L 215.495715 75.56044 
L 216.016834 75.56044 
L 220.666143 72.395604 
L 221.476379 71.604396 
L 222.893663 70.813187 
L 223.84311 70.021978 
L 224.777258 69.626374 
L 225.138799 69.230769 
L 225.927512 68.835165 
L 226.975763 68.043956 
L 228.063667 67.648352 
L 229.106727 66.857143 
L 229.943412 66.461538 
L 231.074615 66.065934 
L 231.891094 66.065934 
L 233.024915 65.274725 
L 233.841182 65.274725 
L 235.451262 64.483516 
L 237.684055 63.692308 
L 239.44165 62.901099 
L 240.366322 62.901099 
L 241.063072 62.505495 
L 242.504931 62.505495 
L 243.304883 62.10989 
L 244.456501 61.714286 
L 245.66338 61.714286 
L 246.047831 61.318681 
L 247.068474 61.318681 
L 247.653352 60.923077 
L 248.351019 60.923077 
L 249.916578 60.527473 
L 250.756136 60.131868 
L 251.899971 60.131868 
L 254.384416 59.340659 
L 254.956214 59.340659 
L 256.131258 58.549451 
L 257.004711 58.153846 
L 258.407225 57.758242 
L 259.919506 56.967033 
L 261.027553 56.571429 
L 262.160858 55.78022 
L 263.076304 55.384615 
L 263.773953 55.384615 
L 265.005494 54.989011 
L 266.726324 54.197802 
L 267.484494 54.197802 
L 268.49268 53.802198 
L 269.121178 53.406593 
L 269.590676 53.406593 
L 271.141314 52.615385 
L 272.132509 52.615385 
L 273.541192 51.824176 
L 274.896938 51.428571 
L 275.743648 51.428571 
L 277.361117 50.637363 
L 277.949695 50.637363 
L 279.493431 49.846154 
L 280.565852 49.846154 
L 282.140141 49.054945 
L 284.558316 48.263736 
L 288.236734 46.681319 
L 289.830818 45.494505 
L 292.168552 44.307692 
L 293.282682 43.120879 
L 294.217148 41.538462 
L 295.870667 39.164835 
L 296.846134 38.373626 
L 300.162346 36.395604 
L 301.906416 35.604396 
L 307.254452 35.604396 
L 307.668983 35.208791 
L 310.685448 34.417582 
L 312.851151 33.230769 
L 314.213243 32.835165 
L 318.33648 31.252747 
L 319.48335 30.857143 
L 321.821658 29.67033 
L 323.30057 29.274725 
L 324.526812 28.483516 
L 325.700622 28.087912 
L 327.847062 26.10989 
L 329.393171 24.527473 
L 329.699091 24.527473 
L 329.938841 24.131868 
L 330.816216 23.736264 
L 333.492417 22.549451 
L 336.226167 21.758242 
L 338.284987 21.362637 
L 339.739688 20.571429 
L 340.819696 20.571429 
L 341.170396 20.175824 
L 341.914223 20.175824 
L 342.541125 19.78022 
L 342.813945 19.78022 
L 342.992957 19.384615 
L 343.276561 19.384615 
L 343.914164 18.989011 
L 344.878718 18.197802 
L 346.328621 16.615385 
L 346.964248 16.21978 
L 349.667161 13.450549 
L 351.343073 11.472527 
L 355.203784 7.912088 
L 359.932687 7.912088 
L 362.512926 9.098901 
L 363.712728 9.494505 
L 364.811957 10.285714 
L 365.385592 10.285714 
L 367.168803 11.076923 
L 368.079265 11.868132 
L 373.192996 15.032967 
L 373.624153 15.032967 
L 374.342838 15.824176 
L 396.986648 15.824176 
L 399.919495 15.032967 
L 400.900257 14.241758 
L 401.663962 13.846154 
L 404.403865 12.263736 
L 405.366052 11.868132 
L 406.965016 10.681319 
L 407.836529 9.89011 
L 410.88327 7.516484 
L 412.710193 5.934066 
L 414.011625 5.142857 
L 415.349295 3.956044 
L 418.211987 0.791209 
L 420.975075 0 
L 421.628043 0 
L 423.068904 0.791209 
L 424.524351 2.373626 
L 427.362796 5.142857 
L 430.728031 8.703297 
L 432.62183 10.285714 
L 434.203653 11.868132 
L 436.223832 13.054945 
L 440.556241 16.21978 
L 444.303694 19.384615 
L 446.375531 21.362637 
L 449.33208 24.527473 
L 449.996361 25.714286 
L 450.569056 26.505495 
L 454.417781 33.626374 
L 458.759059 42.725275 
L 460.439383 45.098901 
L 460.826059 45.89011 
L 463.5011 48.263736 
L 464.939163 49.054945 
L 466.604491 50.241758 
L 467.752077 50.637363 
L 468.345095 51.032967 
L 470.470529 54.989011 
L 472.452135 57.362637 
L 474.294994 58.945055 
L 477.049321 60.131868 
L 478.434475 60.527473 
L 479.968474 61.318681 
L 480.983323 61.318681 
L 482.537691 62.10989 
L 483.793941 62.505495 
L 484.511426 62.505495 
L 485.499662 62.901099 
L 487.6114 65.274725 
L 490.277262 70.021978 
L 491.26178 72 
L 492.432457 73.978022 
L 493.559352 76.351648 
L 494.691694 78.32967 
L 496.24997 80.703297 
L 497.2051 81.89011 
L 498.462566 83.868132 
L 499.474006 86.241758 
L 502.522067 91.384615 
L 503.866962 94.153846 
L 506.155228 98.901099 
L 507.67785 100.087912 
L 509.387675 100.879121 
L 511.662168 102.461538 
L 513.024571 104.043956 
L 514.182533 107.208791 
L 515.923388 111.164835 
L 516.788885 113.142857 
L 518.082498 115.516484 
L 518.823556 116.307692 
L 519.518177 117.494505 
L 521.592222 119.868132 
L 522.284002 120.263736 
L 523.11258 121.054945 
L 524.386443 122.637363 
L 527.580028 125.802198 
L 529.885519 128.967033 
L 531.492617 131.736264 
L 533.575545 136.483516 
L 538.307956 142.813187 
L 540.36503 143.604396 
L 540.600783 144 
L 541.983628 144 
L 542.622437 143.604396 
L 544.254943 143.604396 
L 544.912518 143.208791 
L 546.701692 143.208791 
L 548.989787 142.813187 
L 549.818872 142.813187 
L 550.330802 142.417582 
L 551.073154 142.417582 
L 552.685574 142.021978 
L 553.276964 141.626374 
L 554.39989 141.230769 
L 555.959081 140.835165 
L 558.594399 139.648352 
L 558.92491 139.648352 
L 560.022988 138.857143 
L 560.670801 138.857143 
L 561.572655 138.461538 
L 562.228585 137.274725 
L 567.492804 129.758242 
L 569.403968 126.593407 
L 570.904888 125.010989 
L 572.443079 123.824176 
L 573.234346 123.032967 
L 573.994987 122.637363 
L 577.851103 119.472527 
L 579.965898 117.494505 
L 580.81957 117.098901 
L 581.126649 117.098901 
L 582.717929 115.120879 
L 583.31741 113.934066 
L 584.443334 111.956044 
L 585.528667 110.373626 
L 587.133539 109.582418 
L 588.460824 109.186813 
L 594.280399 106.417582 
L 595.456564 106.417582 
L 596.137932 106.021978 
L 597.107815 106.021978 
L 604.059856 104.043956 
L 608.399493 102.857143 
L 611.542858 102.857143 
L 613.063042 103.648352 
L 613.937664 103.648352 
L 616.309906 104.835165 
L 617.549931 105.230769 
L 619.19823 106.021978 
L 621.130018 106.813187 
L 623.382947 108 
L 626.087543 109.186813 
L 626.421522 109.582418 
L 629.083079 110.769231 
L 644.432942 110.769231 
L 646.047344 111.164835 
L 646.545824 111.56044 
L 647.082896 111.56044 
L 650.065844 113.538462 
L 650.900079 113.934066 
L 652.265778 114.725275 
L 653.625598 115.912088 
L 654.359002 117.098901 
L 655.695025 118.681319 
L 658.840949 118.681319 
L 659.424926 120.263736 
L 660.195111 121.846154 
L 660.709187 123.428571 
L 661.337286 125.802198 
L 661.778964 126.593407 
L 666.753833 126.593407 
L 667.496569 125.406593 
L 668.528859 123.032967 
L 669.22646 122.241758 
L 670.106542 121.054945 
L 670.612854 120.659341 
L 672.105816 119.076923 
L 672.37866 119.076923 
L 674.315858 116.307692 
L 674.7811 115.912088 
L 675.156834 115.120879 
L 675.93202 114.32967 
L 676.963068 113.934066 
L 682.32971 110.373626 
L 685.444199 108 
L 687.202669 107.208791 
L 688.683468 106.417582 
L 691.471368 103.252747 
L 697.622449 94.153846 
L 700.884205 89.802198 
L 702.205534 89.010989 
L 702.970033 88.21978 
L 703.519709 87.824176 
L 703.729729 87.428571 
L 704.009209 87.428571 
L 704.205631 87.032967 
L 704.5858 86.637363 
L 705.186891 87.032967 
L 705.729571 86.637363 
L 708.85523 83.868132 
L 710.042257 83.076923 
L 710.262127 83.076923 
L 711.649209 80.703297 
L 712.590663 78.725275 
L 712.730303 78.725275 
L 713.424072 77.142857 
L 714.85549 75.164835 
L 720 75.164835 
L 720 75.164835 
" clip-path="url(#p04c22cace8)" style="fill: none; stroke: #c18182; stroke-width: 3; stroke-linecap: square"/>
   </g>
  </g>
 </g>
 <defs>
  <clipPath id="p04c22cace8">
   <rect x="0" y="0" width="720" height="144"/>
  </clipPath>
 </defs>
</svg>
