<?xml version="1.0" encoding="utf-8" standalone="no"?>
<!DOCTYPE svg PUBLIC "-//W3C//DTD SVG 1.1//EN"
  "http://www.w3.org/Graphics/SVG/1.1/DTD/svg11.dtd">
<svg xmlns:xlink="http://www.w3.org/1999/xlink" width="720pt" height="144pt" viewBox="0 0 720 144" xmlns="http://www.w3.org/2000/svg" version="1.1">
 <metadata>
  <rdf:RDF xmlns:dc="http://purl.org/dc/elements/1.1/" xmlns:cc="http://creativecommons.org/ns#" xmlns:rdf="http://www.w3.org/1999/02/22-rdf-syntax-ns#">
   <cc:Work>
    <dc:type rdf:resource="http://purl.org/dc/dcmitype/StillImage"/>
    <dc:date>2026-03-16T20:50:15.728638</dc:date>
    <dc:format>image/svg+xml</dc:format>
    <dc:creator>
     <cc:Agent>
      <dc:title>Matplotlib v3.10.8, https://matplotlib.org/</dc:title>
     </cc:Agent>
    </dc:creator>
   </cc:Work>
  </rdf:RDF>
 </metadata>
 <defs>
  <style type="text/css">*{stroke-linejoin: round; stroke-linecap: butt}</style>
 </defs>
 <g id="figure_1">
  <g id="patch_1">
   <path d="M 0 144 
L 720 144 
L 720 0 
L 0 0 
L 0 144 
z
" style="fill: none"/>
  </g>
  <g id="axes_1">
   <g id="FillBetweenPolyCollection_1">
    <path d="M 0 144 
L 0 11.029787 
L 0.147723 11.33617 
L 0.278166 11.948936 
L 0.915644 12.255319 
L 0.978685 12.255319 
L 1.124197 12.561702 
L 1.238882 12.868085 
L 1.350262 12.561702 
L 1.887273 12.561702 
L 2.196727 12.561702 
L 2.415312 12.561702 
L 2.537406 12.561702 
L 3.508095 15.319149 
L 3.644299 15.625532 
L 3.735849 15.625532 
L 3.76742 15.625532 
L 3.804536 15.625532 
L 3.862078 15.625532 
L 3.917482 15.625532 
L 3.966775 15.625532 
L 4.03221 15.625532 
L 4.082092 15.625532 
L 4.3299 15.625532 
L 4.59816 15.319149 
L 4.753587 15.012766 
L 5.981957 14.093617 
L 6.283762 13.787234 
L 6.735322 13.480851 
L 7.249601 13.174468 
L 8.251467 12.255319 
L 8.710747 11.642553 
L 9.688428 10.723404 
L 10.897423 9.497872 
L 11.333739 8.27234 
L 11.692426 6.740426 
L 12.220402 6.740426 
L 12.946969 7.046809 
L 13.270142 7.046809 
L 13.540909 7.046809 
L 14.028339 7.046809 
L 14.396458 7.046809 
L 14.977374 7.046809 
L 15.431399 7.046809 
L 15.79049 7.046809 
L 16.192156 7.046809 
L 16.566424 7.046809 
L 16.750378 7.046809 
L 16.848416 7.659574 
L 16.9278 7.659574 
L 16.990841 7.965957 
L 17.027141 7.965957 
L 17.082546 7.965957 
L 17.139915 7.965957 
L 17.188674 7.965957 
L 17.240749 7.965957 
L 17.287445 7.965957 
L 17.352432 7.965957 
L 17.417419 7.965957 
L 17.482854 7.965957 
L 17.531613 7.965957 
L 17.602921 7.965957 
L 17.657703 7.965957 
L 17.724212 7.965957 
L 17.797958 7.965957 
L 17.85274 7.046809 
L 17.924387 7.046809 
L 18.004333 7.046809 
L 18.108366 7.046809 
L 18.180012 7.046809 
L 18.255756 7.046809 
L 18.359603 7.046809 
L 18.459222 7.046809 
L 18.581502 7.046809 
L 19.094636 7.046809 
L 20.118607 7.046809 
L 20.466372 7.353191 
L 20.723633 7.353191 
L 20.846598 7.353191 
L 20.930547 7.353191 
L 21.015346 7.353191 
L 21.112668 7.353191 
L 21.190985 7.353191 
L 21.274215 7.353191 
L 21.323508 7.353191 
L 21.372267 7.046809 
L 21.435308 7.046809 
L 21.482004 7.046809 
L 21.533004 6.740426 
L 21.582297 6.740426 
L 21.637702 6.740426 
L 21.687585 6.740426 
L 21.754094 6.434043 
L 21.797891 6.434043 
L 21.856794 6.434043 
L 21.928441 6.12766 
L 21.990279 6.12766 
L 22.056674 5.821277 
L 22.119821 5.821277 
L 22.14964 5.514894 
L 22.199028 5.514894 
L 22.249129 5.208511 
L 22.271852 5.208511 
L 22.395439 5.208511 
L 22.488664 5.208511 
L 22.990255 5.208511 
L 25.11882 3.370213 
L 27.371188 0.612766 
L 28.164692 0 
L 28.448476 0 
L 28.984175 0 
L 29.336702 0 
L 29.463562 0 
L 29.586985 0 
L 29.905805 0 
L 30.396614 0 
L 30.69334 0 
L 31.195931 0 
L 31.744921 0 
L 32.52047 0 
L 33.734581 0 
L 35.434337 0 
L 36.25862 0 
L 38.516897 2.144681 
L 39.848349 3.06383 
L 40.070339 3.06383 
L 40.800562 3.06383 
L 41.368146 3.06383 
L 41.590398 3.06383 
L 43.921367 3.06383 
L 45.246 2.757447 
L 45.640587 2.451064 
L 46.030089 1.838298 
L 46.108942 1.838298 
L 46.521116 1.225532 
L 47.453263 0 
L 50.518423 0 
L 52.043765 0 
L 54.1491 0 
L 55.334321 0 
L 56.487977 0.919149 
L 57.897689 2.451064 
L 58.591852 3.06383 
L 59.44892 3.676596 
L 60.324705 4.289362 
L 61.048502 4.902128 
L 61.230812 5.208511 
L 61.458595 5.821277 
L 62.142823 6.12766 
L 62.583502 6.740426 
L 63.124477 7.965957 
L 64.356125 7.353191 
L 64.673388 7.353191 
L 65.08938 7.046809 
L 65.890167 10.110638 
L 66.492016 10.723404 
L 67.067099 11.642553 
L 67.366278 11.948936 
L 67.614421 12.255319 
L 67.913132 12.868085 
L 68.422118 13.787234 
L 69.113303 15.319149 
L 69.511332 16.238298 
L 70.033415 17.46383 
L 70.49221 18.382979 
L 70.936803 18.382979 
L 71.239596 18.689362 
L 72.041025 18.995745 
L 72.232322 18.995745 
L 72.421704 18.995745 
L 72.685418 18.995745 
L 73.338059 19.302128 
L 73.463697 19.302128 
L 74.176762 19.608511 
L 74.307247 19.608511 
L 74.521986 19.608511 
L 74.823716 19.608511 
L 75.294502 19.914894 
L 75.577561 19.914894 
L 76.720013 22.67234 
L 78.393433 26.348936 
L 79.027332 27.880851 
L 79.368483 28.493617 
L 79.527735 28.8 
L 79.813055 29.412766 
L 80.038581 29.719149 
L 80.281403 30.331915 
L 80.370643 30.331915 
L 81.571771 34.314894 
L 82.046754 35.540426 
L 82.195517 36.153191 
L 82.367465 36.459574 
L 83.222692 39.217021 
L 84.574105 42.893617 
L 85.16211 42.893617 
L 85.36825 42.893617 
L 85.798947 42.893617 
L 86.03141 42.893617 
L 86.187568 42.893617 
L 86.371031 42.893617 
L 87.291998 44.119149 
L 89.030805 45.957447 
L 90.105238 45.344681 
L 90.562181 45.038298 
L 91.464589 44.119149 
L 91.973801 43.812766 
L 92.490913 43.2 
L 92.696855 43.2 
L 93.36468 42.893617 
L 93.825219 42.893617 
L 94.181644 42.893617 
L 94.461228 42.893617 
L 94.947918 42.893617 
L 96.051263 45.344681 
L 96.694206 48.102128 
L 96.909162 48.408511 
L 97.368236 49.634043 
L 97.581463 50.246809 
L 97.708323 50.859574 
L 97.833537 51.165957 
L 98.329117 52.085106 
L 98.465396 52.085106 
L 98.783237 52.085106 
L 98.97192 52.085106 
L 99.206829 52.085106 
L 100.111611 52.085106 
L 100.444999 52.085106 
L 101.327895 52.085106 
L 102.032211 52.085106 
L 102.641722 53.004255 
L 103.268293 54.53617 
L 103.789917 55.455319 
L 105.6583 59.744681 
L 105.907141 60.357447 
L 106.821282 62.808511 
L 107.583919 66.178723 
L 107.956153 67.710638 
L 108.641623 70.468085 
L 109.493691 71.693617 
L 110.039676 72.306383 
L 110.253719 72.612766 
L 111.364237 74.144681 
L 111.774018 75.370213 
L 112.098338 75.676596 
L 112.763836 76.595745 
L 113.206143 77.514894 
L 113.42712 78.12766 
L 114.417628 80.885106 
L 114.87726 82.110638 
L 115.774717 82.723404 
L 116.19052 85.480851 
L 116.607154 86.4 
L 116.966675 87.012766 
L 117.093296 87.012766 
L 117.204164 87.319149 
L 117.296613 87.319149 
L 117.964959 88.238298 
L 118.135834 88.544681 
L 118.295087 88.851064 
L 118.440602 89.157447 
L 119.652809 92.221277 
L 119.881194 92.834043 
L 120.151352 93.446809 
L 120.735323 94.67234 
L 121.097566 94.978723 
L 121.305445 94.978723 
L 121.484145 94.978723 
L 121.836703 94.978723 
L 122.073287 94.978723 
L 122.278233 94.978723 
L 122.427852 94.978723 
L 122.562556 94.978723 
L 122.643199 94.978723 
L 122.840444 94.978723 
L 124.371461 93.753191 
L 125.767372 91.608511 
L 126.045186 90.995745 
L 126.271723 90.689362 
L 126.538437 90.076596 
L 126.999207 89.157447 
L 127.408326 88.544681 
L 127.842079 87.931915 
L 128.483948 87.012766 
L 128.890902 86.706383 
L 129.004716 86.4 
L 129.499466 85.787234 
L 129.719172 85.480851 
L 130.1641 85.174468 
L 130.450138 84.868085 
L 130.699081 84.561702 
L 130.978993 84.255319 
L 131.165152 83.948936 
L 131.368766 83.642553 
L 131.739478 83.642553 
L 132.19038 83.33617 
L 132.636068 83.33617 
L 133.107247 83.029787 
L 134.772894 82.723404 
L 135.334115 82.723404 
L 135.714394 82.723404 
L 136.172466 82.723404 
L 138.365098 86.093617 
L 138.81844 86.4 
L 139.04907 86.706383 
L 139.285416 87.012766 
L 139.44314 87.012766 
L 140.013158 87.931915 
L 140.224532 87.931915 
L 140.395603 88.238298 
L 140.680078 88.544681 
L 141.141808 89.157447 
L 141.455407 90.076596 
L 141.708504 90.382979 
L 143.714592 94.978723 
L 145.757447 98.655319 
L 146.10424 98.961702 
L 146.677431 99.880851 
L 147.053338 100.493617 
L 147.669595 101.412766 
L 148.065588 102.025532 
L 148.366301 102.638298 
L 149.445775 104.170213 
L 149.74057 105.702128 
L 149.968957 106.008511 
L 150.302175 106.314894 
L 150.718669 106.621277 
L 151.049614 106.92766 
L 151.49669 107.234043 
L 152.032436 107.846809 
L 152.448465 108.153191 
L 152.858148 108.765957 
L 153.429037 109.378723 
L 154.011267 109.991489 
L 154.748312 110.297872 
L 155.258333 110.297872 
L 156.340078 110.297872 
L 157.011481 110.297872 
L 157.288243 110.297872 
L 158.014963 110.297872 
L 158.569465 110.297872 
L 159.042689 110.297872 
L 159.606794 110.297872 
L 160.129457 110.297872 
L 160.398319 109.685106 
L 160.60189 109.07234 
L 160.828373 108.459574 
L 161.108253 107.846809 
L 162.047574 107.234043 
L 162.493143 107.234043 
L 162.757384 107.234043 
L 162.92846 107.234043 
L 163.204756 107.234043 
L 163.57795 107.234043 
L 163.985979 107.234043 
L 164.438129 107.234043 
L 165.453456 107.540426 
L 165.653218 107.540426 
L 166.002616 107.846809 
L 166.390191 108.153191 
L 166.667784 108.459574 
L 166.880117 108.459574 
L 167.050228 108.459574 
L 167.353519 108.765957 
L 167.656671 109.07234 
L 168.103176 109.07234 
L 168.585919 109.378723 
L 168.918632 109.685106 
L 169.179159 109.685106 
L 169.497074 109.991489 
L 169.83229 110.297872 
L 170.398842 110.910638 
L 170.717572 111.217021 
L 170.987017 111.829787 
L 171.185402 112.13617 
L 171.364996 112.442553 
L 171.576946 112.748936 
L 171.914201 113.361702 
L 172.002223 113.361702 
L 172.250835 113.361702 
L 172.741327 113.361702 
L 172.90949 113.361702 
L 173.094397 113.361702 
L 173.499096 113.361702 
L 173.694064 113.361702 
L 173.837362 113.361702 
L 174.042314 113.361702 
L 174.648534 113.361702 
L 174.832503 113.361702 
L 175.180835 113.361702 
L 175.432997 113.361702 
L 175.701502 113.361702 
L 175.969754 113.361702 
L 176.196569 113.361702 
L 176.422842 113.361702 
L 176.671705 113.361702 
L 176.985143 113.361702 
L 177.331118 113.055319 
L 177.641223 112.748936 
L 178.075938 112.442553 
L 178.329872 112.13617 
L 178.598504 111.829787 
L 178.844812 111.829787 
L 179.066573 111.523404 
L 179.335122 111.217021 
L 179.744415 110.910638 
L 179.888075 110.604255 
L 180.087847 110.604255 
L 180.328833 110.297872 
L 180.665073 110.910638 
L 181.802546 112.13617 
L 182.353566 113.055319 
L 183.009055 114.280851 
L 184.265305 116.731915 
L 184.86323 117.651064 
L 185.364513 118.26383 
L 185.624058 118.876596 
L 185.87718 119.182979 
L 186.058811 119.489362 
L 186.347576 119.489362 
L 186.617992 119.489362 
L 187.034602 119.489362 
L 187.44709 119.489362 
L 187.781812 119.489362 
L 188.144136 119.489362 
L 188.786826 119.489362 
L 189.238173 119.489362 
L 189.602407 119.489362 
L 190.893644 119.489362 
L 191.528977 119.489362 
L 192.186544 119.489362 
L 192.731315 119.489362 
L 193.145954 119.489362 
L 193.49324 119.489362 
L 193.896118 119.489362 
L 194.43539 119.489362 
L 194.733382 119.489362 
L 194.958928 119.489362 
L 195.313704 119.489362 
L 195.716437 119.489362 
L 196.386715 119.489362 
L 196.892217 119.489362 
L 197.450188 119.489362 
L 197.93061 119.489362 
L 198.807465 119.489362 
L 199.370812 119.489362 
L 200.34194 119.489362 
L 200.991941 119.489362 
L 201.41698 119.489362 
L 201.874978 119.489362 
L 202.517671 119.489362 
L 203.148909 119.489362 
L 203.586816 119.489362 
L 204.255326 119.489362 
L 204.618958 119.489362 
L 204.910129 119.489362 
L 205.185085 119.489362 
L 205.973349 119.489362 
L 206.474952 119.489362 
L 206.967812 119.489362 
L 207.368671 119.489362 
L 207.368671 119.489362 
L 207.459598 119.489362 
L 207.527396 119.489362 
L 207.717176 119.795745 
L 207.981952 119.795745 
L 208.51481 120.408511 
L 208.842454 120.714894 
L 209.076312 121.021277 
L 209.429621 121.32766 
L 209.776221 121.634043 
L 210.686476 122.246809 
L 211.282015 122.553191 
L 212.002293 122.859574 
L 212.434018 122.859574 
L 212.965811 123.165957 
L 213.311518 123.165957 
L 213.81594 123.47234 
L 214.481736 123.47234 
L 214.984336 123.778723 
L 216.254276 124.085106 
L 216.913383 124.391489 
L 217.628033 124.697872 
L 218.445371 124.697872 
L 219.173251 125.004255 
L 219.684579 125.310638 
L 220.67822 125.617021 
L 221.002205 125.617021 
L 221.423751 125.923404 
L 221.892127 126.229787 
L 222.192113 126.229787 
L 222.701631 126.53617 
L 223.3541 126.842553 
L 224.102458 127.455319 
L 224.311045 127.455319 
L 224.953588 127.761702 
L 225.890432 128.374468 
L 226.425 128.680851 
L 227.360358 130.212766 
L 228.060492 131.438298 
L 228.598432 131.744681 
L 229.704353 131.744681 
L 229.917496 131.744681 
L 230.321501 131.744681 
L 230.500663 131.744681 
L 230.982698 131.744681 
L 231.825732 131.744681 
L 232.048103 131.744681 
L 233.028436 131.438298 
L 233.247527 130.825532 
L 233.912683 128.680851 
L 234.804512 128.680851 
L 235.754065 128.680851 
L 236.817208 128.680851 
L 237.732848 128.680851 
L 238.398945 128.680851 
L 238.53146 128.680851 
L 238.73308 128.680851 
L 239.684399 127.761702 
L 240.002329 127.148936 
L 240.764547 125.923404 
L 240.991365 125.617021 
L 241.21466 125.617021 
L 241.752097 125.617021 
L 242.028022 125.617021 
L 243.323032 125.617021 
L 243.59166 125.617021 
L 244.26137 124.697872 
L 245.313409 123.778723 
L 246.227604 122.553191 
L 247.295661 121.940426 
L 247.924962 121.32766 
L 248.98954 120.714894 
L 249.956607 120.102128 
L 250.557062 119.795745 
L 251.357174 119.489362 
L 251.78535 119.489362 
L 252.240286 119.489362 
L 252.607663 119.489362 
L 252.869859 116.425532 
L 253.096145 115.812766 
L 253.491251 114.587234 
L 253.698873 113.974468 
L 253.827752 114.280851 
L 254.371872 114.587234 
L 255.149044 115.2 
L 255.523157 115.506383 
L 255.882482 115.812766 
L 256.403102 116.119149 
L 256.650079 116.425532 
L 256.945398 116.731915 
L 257.268487 117.038298 
L 257.553405 117.038298 
L 257.891964 117.344681 
L 258.219069 117.651064 
L 258.412573 117.344681 
L 258.708406 116.425532 
L 259.128363 115.812766 
L 259.498181 115.506383 
L 259.963558 114.893617 
L 260.475226 114.280851 
L 260.911761 113.668085 
L 261.222696 113.361702 
L 261.402691 113.361702 
L 261.69447 113.361702 
L 262.331128 112.442553 
L 263.455933 110.910638 
L 264.971677 112.442553 
L 265.494342 113.055319 
L 268.055752 116.119149 
L 268.6128 116.731915 
L 269.053382 117.038298 
L 269.301398 117.344681 
L 270.033676 117.957447 
L 270.701202 118.570213 
L 271.874788 119.489362 
L 272.508688 119.795745 
L 273.008948 119.795745 
L 274.620336 120.408511 
L 275.356245 120.714894 
L 276.019569 121.021277 
L 276.548358 121.021277 
L 277.636388 121.32766 
L 278.230487 121.634043 
L 278.800186 121.940426 
L 279.394449 121.940426 
L 280.028522 122.246809 
L 280.754654 122.553191 
L 281.286276 122.859574 
L 282.001182 123.47234 
L 282.361882 123.778723 
L 283.164993 124.391489 
L 283.779874 124.697872 
L 284.445113 125.310638 
L 285.01185 125.923404 
L 285.638545 126.842553 
L 286.280883 127.761702 
L 286.674223 127.761702 
L 287.466683 127.761702 
L 288.012345 127.761702 
L 288.307206 127.761702 
L 288.68157 127.761702 
L 289.206611 127.455319 
L 289.637058 127.455319 
L 290.001291 127.455319 
L 290.391174 127.455319 
L 291.622064 127.455319 
L 292.178225 127.455319 
L 292.66725 127.148936 
L 293.167054 127.148936 
L 293.784053 127.148936 
L 294.109329 127.148936 
L 294.700547 127.148936 
L 295.504421 127.148936 
L 296.762161 126.842553 
L 297.113267 126.842553 
L 298.311973 127.148936 
L 299.685177 127.455319 
L 300.222188 127.455319 
L 300.600691 127.455319 
L 301.16831 127.761702 
L 301.786548 127.761702 
L 302.442692 128.068085 
L 303.905179 128.374468 
L 304.314864 128.680851 
L 305.044983 129.293617 
L 305.607002 129.6 
L 306.711376 130.519149 
L 307.989885 131.744681 
L 308.902586 132.051064 
L 309.568053 132.357447 
L 310.51195 132.66383 
L 311.096454 132.66383 
L 312.012361 132.970213 
L 312.407338 133.276596 
L 312.704794 133.276596 
L 313.6946 133.582979 
L 314.96339 133.889362 
L 315.337758 134.195745 
L 315.60624 133.276596 
L 316.079736 132.051064 
L 316.394295 131.744681 
L 318.380281 130.519149 
L 319.195508 130.212766 
L 319.461762 129.906383 
L 320.084217 129.6 
L 320.465154 129.293617 
L 321.570079 128.680851 
L 321.919631 126.842553 
L 322.219102 126.842553 
L 322.799027 126.53617 
L 323.293388 126.53617 
L 323.94191 126.229787 
L 324.291435 126.229787 
L 324.594033 126.229787 
L 325.54184 125.923404 
L 325.801536 125.617021 
L 326.276338 125.617021 
L 326.778539 125.310638 
L 326.968642 125.004255 
L 327.449158 125.004255 
L 328.202006 124.391489 
L 328.558377 124.085106 
L 328.741321 124.085106 
L 329.053014 123.778723 
L 329.211625 123.778723 
L 329.494684 123.778723 
L 329.718494 123.47234 
L 330.189173 123.165957 
L 330.382702 123.165957 
L 330.739073 122.859574 
L 331.131643 122.859574 
L 331.612159 122.553191 
L 332.545017 121.940426 
L 332.954828 121.940426 
L 333.668468 121.634043 
L 334.780376 121.021277 
L 335.965085 120.408511 
L 336.091165 120.408511 
L 337.555551 120.714894 
L 337.837654 120.714894 
L 337.965482 120.714894 
L 339.690734 123.778723 
L 340.316985 123.778723 
L 340.805221 123.778723 
L 342.40617 123.778723 
L 343.177039 123.778723 
L 343.566995 123.47234 
L 344.35876 122.553191 
L 344.703131 122.246809 
L 345.050498 121.940426 
L 345.429917 121.32766 
L 345.698065 121.634043 
L 346.975424 122.246809 
L 347.357313 122.246809 
L 347.743728 122.246809 
L 348.563641 121.940426 
L 350.650341 121.634043 
L 351.032248 121.634043 
L 351.646815 121.634043 
L 352.271076 121.940426 
L 352.808087 122.246809 
L 353.540612 122.246809 
L 354.568424 122.859574 
L 355.000654 123.165957 
L 355.943575 123.778723 
L 356.708351 124.391489 
L 357.798022 125.004255 
L 358.388357 125.310638 
L 359.391474 126.229787 
L 359.992305 126.842553 
L 360.846819 127.455319 
L 361.969837 128.680851 
L 363.003919 128.680851 
L 363.753605 128.680851 
L 364.671157 128.680851 
L 365.025882 128.680851 
L 367.024724 128.680851 
L 367.449663 128.680851 
L 368.332747 128.680851 
L 368.829394 128.680851 
L 370.416586 128.680851 
L 371.380671 129.293617 
L 371.954443 129.6 
L 373.437751 130.212766 
L 374.036562 130.519149 
L 374.709493 130.825532 
L 375.657597 131.438298 
L 376.544736 131.744681 
L 377.303555 132.357447 
L 377.985928 132.66383 
L 378.395894 132.970213 
L 379.244541 133.582979 
L 380.052802 134.195745 
L 380.60586 134.502128 
L 380.825444 134.808511 
L 381.315648 134.808511 
L 381.661851 134.808511 
L 382.820546 133.889362 
L 383.928882 132.970213 
L 384.415418 132.66383 
L 385.44903 131.744681 
L 386.165679 131.744681 
L 386.593933 131.744681 
L 387.426183 131.744681 
L 387.694238 131.438298 
L 387.845972 131.438298 
L 388.099511 131.131915 
L 388.313653 130.825532 
L 388.461636 130.825532 
L 388.684371 130.519149 
L 388.842164 130.519149 
L 389.156646 130.212766 
L 389.377019 129.906383 
L 389.824266 129.6 
L 390.258552 129.293617 
L 390.694406 128.987234 
L 391.153216 128.068085 
L 391.316419 127.455319 
L 391.721479 126.53617 
L 391.992291 125.617021 
L 392.506935 125.617021 
L 393.093978 125.617021 
L 393.339569 125.617021 
L 393.994003 125.617021 
L 394.842906 125.617021 
L 396.81838 125.617021 
L 397.723966 125.617021 
L 398.360748 125.617021 
L 399.555535 125.617021 
L 399.985201 125.617021 
L 401.622129 125.617021 
L 402.875651 125.617021 
L 403.96328 125.617021 
L 404.359647 125.617021 
L 404.916564 125.617021 
L 405.312279 125.617021 
L 405.651653 125.617021 
L 405.911629 125.617021 
L 406.230331 125.617021 
L 406.553816 125.923404 
L 406.851467 125.923404 
L 407.499088 126.53617 
L 408.346739 127.148936 
L 408.590497 127.455319 
L 408.816689 127.455319 
L 409.212137 127.761702 
L 409.508133 128.068085 
L 409.908968 128.374468 
L 410.00866 128.374468 
L 410.263762 128.680851 
L 410.494416 128.680851 
L 410.670389 128.987234 
L 410.925741 129.293617 
L 411.198158 129.906383 
L 411.598112 130.212766 
L 411.832068 130.519149 
L 412.196742 131.131915 
L 412.577219 131.744681 
L 413.079717 132.970213 
L 413.5505 134.195745 
L 414.201266 135.114894 
L 414.648722 135.72766 
L 415.42944 136.646809 
L 415.614479 136.953191 
L 416.228743 137.565957 
L 416.679102 138.178723 
L 416.933464 138.791489 
L 417.789328 140.629787 
L 418.768337 141.242553 
L 419.099847 141.548936 
L 419.326137 141.548936 
L 419.691218 141.855319 
L 420.285778 141.855319 
L 420.855408 142.161702 
L 421.442341 142.468085 
L 422.816952 143.080851 
L 424.524199 143.693617 
L 425.651408 144 
L 425.84119 144 
L 427.064496 144 
L 427.400781 144 
L 428.850128 142.774468 
L 429.576949 142.161702 
L 430.351738 141.242553 
L 430.683284 140.93617 
L 430.683284 140.93617 
L 431.173853 140.323404 
L 431.526509 140.017021 
L 431.597718 139.404255 
L 432.20406 139.710638 
L 434.183954 144 
L 436.531768 144 
L 436.790853 144 
L 436.92268 144 
L 436.936738 144 
L 437.040927 144 
L 437.537269 144 
L 441.226831 144 
L 441.89637 144 
L 442.163268 144 
L 442.506599 144 
L 442.70659 144 
L 442.979256 144 
L 443.235933 144 
L 444.116932 143.693617 
L 445.611397 143.387234 
L 446.143706 143.080851 
L 448.289038 142.468085 
L 448.383604 142.468085 
L 448.669022 142.161702 
L 449.249271 142.161702 
L 450.249379 141.855319 
L 452.33115 140.93617 
L 455.740475 140.93617 
L 457.269168 140.93617 
L 458.786369 140.93617 
L 460.432298 140.93617 
L 461.115924 140.93617 
L 461.527472 140.93617 
L 462.023292 140.93617 
L 462.319601 140.629787 
L 462.644229 140.017021 
L 462.756892 139.710638 
L 463.536124 138.178723 
L 463.666822 137.87234 
L 464.481066 134.808511 
L 465.428343 134.808511 
L 465.543589 134.808511 
L 465.746719 134.808511 
L 465.930797 134.808511 
L 466.153268 134.808511 
L 466.329869 134.808511 
L 466.51899 134.808511 
L 466.794222 134.808511 
L 467.006302 134.808511 
L 467.259076 134.808511 
L 467.575861 134.808511 
L 468.623997 133.889362 
L 469.209776 132.970213 
L 469.559101 132.970213 
L 470.317073 133.276596 
L 471.642656 133.582979 
L 472.084949 133.582979 
L 472.845557 133.889362 
L 473.217911 133.889362 
L 473.39158 133.889362 
L 473.898405 134.195745 
L 474.482376 134.195745 
L 475.176464 134.502128 
L 476.191891 134.502128 
L 477.284091 135.421277 
L 477.751457 136.340426 
L 478.534938 137.565957 
L 478.886543 137.87234 
L 479.903194 137.87234 
L 480.698266 137.259574 
L 481.462999 136.340426 
L 482.366462 135.421277 
L 483.378205 133.889362 
L 483.942532 132.970213 
L 484.282193 132.357447 
L 484.662889 131.744681 
L 485.113504 131.438298 
L 485.509356 131.131915 
L 485.941277 130.825532 
L 486.770588 130.519149 
L 487.073628 130.212766 
L 487.179414 130.212766 
L 488.047971 123.778723 
L 488.334444 124.085106 
L 489.515143 125.004255 
L 490.096038 125.310638 
L 490.664006 125.310638 
L 491.117441 124.391489 
L 491.597905 123.778723 
L 492.090903 122.859574 
L 492.760103 121.32766 
L 493.27836 119.795745 
L 493.677086 119.795745 
L 493.743669 120.102128 
L 493.901228 121.32766 
L 494.546636 118.26383 
L 495.803269 115.2 
L 497.237919 111.523404 
L 497.647323 110.604255 
L 499.370126 107.540426 
L 499.911295 106.621277 
L 500.101967 106.008511 
L 500.447838 105.395745 
L 500.68908 105.089362 
L 501.338884 105.702128 
L 501.919413 106.621277 
L 502.343986 106.92766 
L 503.911839 110.297872 
L 504.712024 110.297872 
L 506.858253 110.297872 
L 507.476732 110.297872 
L 508.025814 111.217021 
L 510.067154 113.974468 
L 510.671997 114.587234 
L 511.964514 115.2 
L 513.804137 116.425532 
L 514.713148 116.425532 
L 515.5065 116.425532 
L 517.229955 116.425532 
L 519.187784 116.425532 
L 521.056278 116.425532 
L 522.350827 116.425532 
L 523.000081 116.425532 
L 523.634469 116.425532 
L 524.207409 116.425532 
L 525.703845 113.361702 
L 525.883025 113.361702 
L 526.371351 114.893617 
L 526.980901 116.425532 
L 527.688293 117.651064 
L 528.203085 118.570213 
L 529.404034 119.489362 
L 529.961518 119.489362 
L 530.640245 119.489362 
L 532.088701 119.489362 
L 532.771869 119.489362 
L 533.938301 121.021277 
L 535.996465 124.391489 
L 538.769032 128.680851 
L 539.338625 127.761702 
L 541.773351 122.553191 
L 542.381224 122.553191 
L 543.095602 122.553191 
L 543.682782 122.553191 
L 544.205307 123.778723 
L 545.084159 125.617021 
L 545.566253 125.923404 
L 546.509926 126.53617 
L 548.86788 127.761702 
L 551.099785 128.680851 
L 551.841354 128.680851 
L 554.327989 128.680851 
L 555.143506 128.680851 
L 557.043712 128.987234 
L 557.767089 128.987234 
L 558.336103 129.293617 
L 559.979823 129.6 
L 560.676151 129.6 
L 561.267511 129.906383 
L 561.448492 129.906383 
L 561.831249 129.906383 
L 562.488953 129.906383 
L 563.469206 130.212766 
L 564.000587 130.212766 
L 564.614837 130.519149 
L 565.329484 130.519149 
L 566.061798 130.519149 
L 568.032878 131.131915 
L 568.616518 131.131915 
L 569.03511 131.131915 
L 569.465837 131.131915 
L 571.313149 131.744681 
L 572.011517 131.744681 
L 572.446834 131.744681 
L 572.862951 132.051064 
L 573.619381 132.357447 
L 573.922896 132.66383 
L 574.183823 132.66383 
L 574.499025 132.970213 
L 574.799846 132.970213 
L 575.853856 133.889362 
L 576.010913 133.889362 
L 576.159891 134.195745 
L 576.925698 134.808511 
L 577.034133 134.808511 
L 577.099485 134.808511 
L 577.198096 134.808511 
L 577.295124 135.114894 
L 577.548872 135.114894 
L 579.057121 135.421277 
L 579.342714 135.421277 
L 579.824224 135.421277 
L 580.121347 135.421277 
L 580.49792 135.421277 
L 580.864659 135.421277 
L 581.181184 135.72766 
L 581.470121 135.72766 
L 582.026374 135.72766 
L 582.118873 135.72766 
L 582.252172 135.421277 
L 582.475808 135.421277 
L 583.129522 135.114894 
L 583.596166 134.502128 
L 583.84495 133.889362 
L 585.613863 134.502128 
L 585.944751 134.808511 
L 586.135128 134.808511 
L 586.336554 135.114894 
L 586.438089 135.421277 
L 586.527429 135.421277 
L 586.59797 135.421277 
L 586.694997 135.72766 
L 586.808733 135.72766 
L 590.04387 139.404255 
L 594.290671 136.340426 
L 594.891093 135.421277 
L 595.325341 134.808511 
L 595.549527 134.808511 
L 595.734151 134.808511 
L 595.950244 134.808511 
L 596.18457 134.808511 
L 596.414003 134.808511 
L 596.73846 134.808511 
L 600.74467 134.808511 
L 601.84475 133.889362 
L 602.044799 133.889362 
L 602.278519 133.582979 
L 603.840911 132.66383 
L 604.153328 132.357447 
L 604.371521 132.357447 
L 604.894712 131.744681 
L 606.136881 129.6 
L 606.426497 128.987234 
L 606.651435 128.680851 
L 607.283218 128.068085 
L 607.707557 127.761702 
L 607.861726 127.455319 
L 608.068228 127.455319 
L 608.273988 127.148936 
L 608.906184 126.842553 
L 609.114524 126.53617 
L 610.116711 125.617021 
L 610.548585 125.617021 
L 610.717681 125.617021 
L 612.066923 124.391489 
L 612.224342 124.391489 
L 612.321068 124.085106 
L 612.491405 124.085106 
L 612.915107 123.778723 
L 613.079333 123.778723 
L 613.489568 123.165957 
L 614.286722 122.553191 
L 614.381689 122.553191 
L 614.495031 122.553191 
L 614.574415 122.246809 
L 614.653338 122.246809 
L 614.86854 121.634043 
L 615.038711 121.32766 
L 615.487512 120.408511 
L 615.980743 119.489362 
L 616.457353 118.876596 
L 616.681282 118.570213 
L 616.817473 118.570213 
L 616.896858 118.570213 
L 617.153141 118.26383 
L 617.722009 117.651064 
L 618.339447 116.731915 
L 618.997624 115.506383 
L 619.3965 113.974468 
L 619.935454 111.829787 
L 620.517162 109.07234 
L 621.021052 106.92766 
L 621.217369 106.314894 
L 621.383087 106.008511 
L 621.558432 105.395745 
L 621.857621 104.476596 
L 622.157333 103.251064 
L 622.443765 102.025532 
L 622.8043 100.8 
L 622.93302 100.493617 
L 623.230695 99.880851 
L 623.499555 99.574468 
L 623.827574 98.655319 
L 624.035203 98.348936 
L 624.313345 97.73617 
L 625.066374 95.591489 
L 625.333653 94.978723 
L 625.405002 94.67234 
L 625.677674 93.446809 
L 625.913777 92.52766 
L 626.136031 91.914894 
L 626.370354 91.302128 
L 626.492772 90.995745 
L 626.585874 90.995745 
L 626.98923 90.076596 
L 627.349391 89.46383 
L 627.625261 88.851064 
L 627.868981 88.238298 
L 628.03278 87.931915 
L 628.16463 87.625532 
L 628.400448 87.012766 
L 628.921305 85.787234 
L 629.255561 84.868085 
L 629.648131 83.948936 
L 629.842187 83.642553 
L 630.088613 83.029787 
L 630.625808 82.110638 
L 630.89235 81.497872 
L 631.063278 81.191489 
L 631.352059 80.885106 
L 631.738493 80.27234 
L 632.21442 79.659574 
L 632.393605 79.659574 
L 632.805009 79.659574 
L 633.183508 79.659574 
L 633.722805 79.659574 
L 634.081867 79.659574 
L 634.306063 79.659574 
L 634.851105 79.659574 
L 635.143293 79.659574 
L 635.556759 79.659574 
L 635.86863 79.046809 
L 636.230982 78.740426 
L 636.542401 78.434043 
L 636.748475 78.12766 
L 637.173647 77.514894 
L 637.559455 76.902128 
L 637.851644 76.595745 
L 638.080069 76.289362 
L 638.434875 75.676596 
L 638.976234 75.06383 
L 639.324719 74.451064 
L 639.692116 73.838298 
L 640.003137 73.531915 
L 640.330819 73.225532 
L 640.742165 72.919149 
L 641.381734 72.306383 
L 642.021562 71.693617 
L 642.575925 71.080851 
L 643.03477 70.774468 
L 643.161841 70.468085 
L 643.342826 70.468085 
L 643.419901 70.468085 
L 644.274889 70.468085 
L 645.999667 71.693617 
L 646.482942 72 
L 647.947723 72.919149 
L 648.764662 73.531915 
L 649.079318 73.838298 
L 650.474235 74.757447 
L 652.322566 75.982979 
L 653.96638 76.595745 
L 654.497279 76.595745 
L 656.001586 76.595745 
L 657.317135 75.982979 
L 659.432363 74.451064 
L 659.999602 74.144681 
L 660.740949 73.838298 
L 661.891475 73.531915 
L 662.005481 73.531915 
L 663.907521 73.531915 
L 665.379782 73.531915 
L 666.004749 73.531915 
L 666.884035 73.531915 
L 668.200155 73.531915 
L 669.736305 73.531915 
L 670.964889 73.531915 
L 673.384626 73.531915 
L 674.792365 73.531915 
L 676.511082 73.531915 
L 676.881951 73.531915 
L 677.87252 73.531915 
L 678.153566 73.531915 
L 678.538908 73.531915 
L 678.956715 73.531915 
L 680.093224 73.531915 
L 681.20653 73.531915 
L 681.433006 73.531915 
L 683.29251 70.774468 
L 684.612628 68.629787 
L 686.327652 66.178723 
L 687.935791 64.340426 
L 688.679673 64.034043 
L 689.846522 63.421277 
L 690.748267 62.808511 
L 692.292519 62.195745 
L 694.690071 60.970213 
L 695.292248 60.357447 
L 695.754748 60.051064 
L 696.647755 59.438298 
L 698.410715 58.212766 
L 698.757374 57.6 
L 699.393784 57.293617 
L 699.687663 56.987234 
L 700.460399 56.068085 
L 701.613886 55.761702 
L 701.840541 55.455319 
L 702.032326 55.761702 
L 703.879348 56.987234 
L 704.82175 57.6 
L 705.595394 57.906383 
L 707.925639 58.212766 
L 710.081049 58.212766 
L 710.761836 58.212766 
L 711.456292 58.212766 
L 713.424919 58.212766 
L 714.865438 58.212766 
L 715.954973 58.212766 
L 717.104606 58.212766 
L 719.198838 58.212766 
L 719.873136 58.212766 
L 720 58.212766 
L 720 144 
L 720 144 
L 719.873136 144 
L 719.198838 144 
L 717.104606 144 
L 715.954973 144 
L 714.865438 144 
L 713.424919 144 
L 711.456292 144 
L 710.761836 144 
L 710.081049 144 
L 707.925639 144 
L 705.595394 144 
L 704.82175 144 
L 703.879348 144 
L 702.032326 144 
L 701.840541 144 
L 701.613886 144 
L 700.460399 144 
L 699.687663 144 
L 699.393784 144 
L 698.757374 144 
L 698.410715 144 
L 696.647755 144 
L 695.754748 144 
L 695.292248 144 
L 694.690071 144 
L 692.292519 144 
L 690.748267 144 
L 689.846522 144 
L 688.679673 144 
L 687.935791 144 
L 686.327652 144 
L 684.612628 144 
L 683.29251 144 
L 681.433006 144 
L 681.20653 144 
L 680.093224 144 
L 678.956715 144 
L 678.538908 144 
L 678.153566 144 
L 677.87252 144 
L 676.881951 144 
L 676.511082 144 
L 674.792365 144 
L 673.384626 144 
L 670.964889 144 
L 669.736305 144 
L 668.200155 144 
L 666.884035 144 
L 666.004749 144 
L 665.379782 144 
L 663.907521 144 
L 662.005481 144 
L 661.891475 144 
L 660.740949 144 
L 659.999602 144 
L 659.432363 144 
L 657.317135 144 
L 656.001586 144 
L 654.497279 144 
L 653.96638 144 
L 652.322566 144 
L 650.474235 144 
L 649.079318 144 
L 648.764662 144 
L 647.947723 144 
L 646.482942 144 
L 645.999667 144 
L 644.274889 144 
L 643.419901 144 
L 643.342826 144 
L 643.161841 144 
L 643.03477 144 
L 642.575925 144 
L 642.021562 144 
L 641.381734 144 
L 640.742165 144 
L 640.330819 144 
L 640.003137 144 
L 639.692116 144 
L 639.324719 144 
L 638.976234 144 
L 638.434875 144 
L 638.080069 144 
L 637.851644 144 
L 637.559455 144 
L 637.173647 144 
L 636.748475 144 
L 636.542401 144 
L 636.230982 144 
L 635.86863 144 
L 635.556759 144 
L 635.143293 144 
L 634.851105 144 
L 634.306063 144 
L 634.081867 144 
L 633.722805 144 
L 633.183508 144 
L 632.805009 144 
L 632.393605 144 
L 632.21442 144 
L 631.738493 144 
L 631.352059 144 
L 631.063278 144 
L 630.89235 144 
L 630.625808 144 
L 630.088613 144 
L 629.842187 144 
L 629.648131 144 
L 629.255561 144 
L 628.921305 144 
L 628.400448 144 
L 628.16463 144 
L 628.03278 144 
L 627.868981 144 
L 627.625261 144 
L 627.349391 144 
L 626.98923 144 
L 626.585874 144 
L 626.492772 144 
L 626.370354 144 
L 626.136031 144 
L 625.913777 144 
L 625.677674 144 
L 625.405002 144 
L 625.333653 144 
L 625.066374 144 
L 624.313345 144 
L 624.035203 144 
L 623.827574 144 
L 623.499555 144 
L 623.230695 144 
L 622.93302 144 
L 622.8043 144 
L 622.443765 144 
L 622.157333 144 
L 621.857621 144 
L 621.558432 144 
L 621.383087 144 
L 621.217369 144 
L 621.021052 144 
L 620.517162 144 
L 619.935454 144 
L 619.3965 144 
L 618.997624 144 
L 618.339447 144 
L 617.722009 144 
L 617.153141 144 
L 616.896858 144 
L 616.817473 144 
L 616.681282 144 
L 616.457353 144 
L 615.980743 144 
L 615.487512 144 
L 615.038711 144 
L 614.86854 144 
L 614.653338 144 
L 614.574415 144 
L 614.495031 144 
L 614.381689 144 
L 614.286722 144 
L 613.489568 144 
L 613.079333 144 
L 612.915107 144 
L 612.491405 144 
L 612.321068 144 
L 612.224342 144 
L 612.066923 144 
L 610.717681 144 
L 610.548585 144 
L 610.116711 144 
L 609.114524 144 
L 608.906184 144 
L 608.273988 144 
L 608.068228 144 
L 607.861726 144 
L 607.707557 144 
L 607.283218 144 
L 606.651435 144 
L 606.426497 144 
L 606.136881 144 
L 604.894712 144 
L 604.371521 144 
L 604.153328 144 
L 603.840911 144 
L 602.278519 144 
L 602.044799 144 
L 601.84475 144 
L 600.74467 144 
L 596.73846 144 
L 596.414003 144 
L 596.18457 144 
L 595.950244 144 
L 595.734151 144 
L 595.549527 144 
L 595.325341 144 
L 594.891093 144 
L 594.290671 144 
L 590.04387 144 
L 586.808733 144 
L 586.694997 144 
L 586.59797 144 
L 586.527429 144 
L 586.438089 144 
L 586.336554 144 
L 586.135128 144 
L 585.944751 144 
L 585.613863 144 
L 583.84495 144 
L 583.596166 144 
L 583.129522 144 
L 582.475808 144 
L 582.252172 144 
L 582.118873 144 
L 582.026374 144 
L 581.470121 144 
L 581.181184 144 
L 580.864659 144 
L 580.49792 144 
L 580.121347 144 
L 579.824224 144 
L 579.342714 144 
L 579.057121 144 
L 577.548872 144 
L 577.295124 144 
L 577.198096 144 
L 577.099485 144 
L 577.034133 144 
L 576.925698 144 
L 576.159891 144 
L 576.010913 144 
L 575.853856 144 
L 574.799846 144 
L 574.499025 144 
L 574.183823 144 
L 573.922896 144 
L 573.619381 144 
L 572.862951 144 
L 572.446834 144 
L 572.011517 144 
L 571.313149 144 
L 569.465837 144 
L 569.03511 144 
L 568.616518 144 
L 568.032878 144 
L 566.061798 144 
L 565.329484 144 
L 564.614837 144 
L 564.000587 144 
L 563.469206 144 
L 562.488953 144 
L 561.831249 144 
L 561.448492 144 
L 561.267511 144 
L 560.676151 144 
L 559.979823 144 
L 558.336103 144 
L 557.767089 144 
L 557.043712 144 
L 555.143506 144 
L 554.327989 144 
L 551.841354 144 
L 551.099785 144 
L 548.86788 144 
L 546.509926 144 
L 545.566253 144 
L 545.084159 144 
L 544.205307 144 
L 543.682782 144 
L 543.095602 144 
L 542.381224 144 
L 541.773351 144 
L 539.338625 144 
L 538.769032 144 
L 535.996465 144 
L 533.938301 144 
L 532.771869 144 
L 532.088701 144 
L 530.640245 144 
L 529.961518 144 
L 529.404034 144 
L 528.203085 144 
L 527.688293 144 
L 526.980901 144 
L 526.371351 144 
L 525.883025 144 
L 525.703845 144 
L 524.207409 144 
L 523.634469 144 
L 523.000081 144 
L 522.350827 144 
L 521.056278 144 
L 519.187784 144 
L 517.229955 144 
L 515.5065 144 
L 514.713148 144 
L 513.804137 144 
L 511.964514 144 
L 510.671997 144 
L 510.067154 144 
L 508.025814 144 
L 507.476732 144 
L 506.858253 144 
L 504.712024 144 
L 503.911839 144 
L 502.343986 144 
L 501.919413 144 
L 501.338884 144 
L 500.68908 144 
L 500.447838 144 
L 500.101967 144 
L 499.911295 144 
L 499.370126 144 
L 497.647323 144 
L 497.237919 144 
L 495.803269 144 
L 494.546636 144 
L 493.901228 144 
L 493.743669 144 
L 493.677086 144 
L 493.27836 144 
L 492.760103 144 
L 492.090903 144 
L 491.597905 144 
L 491.117441 144 
L 490.664006 144 
L 490.096038 144 
L 489.515143 144 
L 488.334444 144 
L 488.047971 144 
L 487.179414 144 
L 487.073628 144 
L 486.770588 144 
L 485.941277 144 
L 485.509356 144 
L 485.113504 144 
L 484.662889 144 
L 484.282193 144 
L 483.942532 144 
L 483.378205 144 
L 482.366462 144 
L 481.462999 144 
L 480.698266 144 
L 479.903194 144 
L 478.886543 144 
L 478.534938 144 
L 477.751457 144 
L 477.284091 144 
L 476.191891 144 
L 475.176464 144 
L 474.482376 144 
L 473.898405 144 
L 473.39158 144 
L 473.217911 144 
L 472.845557 144 
L 472.084949 144 
L 471.642656 144 
L 470.317073 144 
L 469.559101 144 
L 469.209776 144 
L 468.623997 144 
L 467.575861 144 
L 467.259076 144 
L 467.006302 144 
L 466.794222 144 
L 466.51899 144 
L 466.329869 144 
L 466.153268 144 
L 465.930797 144 
L 465.746719 144 
L 465.543589 144 
L 465.428343 144 
L 464.481066 144 
L 463.666822 144 
L 463.536124 144 
L 462.756892 144 
L 462.644229 144 
L 462.319601 144 
L 462.023292 144 
L 461.527472 144 
L 461.115924 144 
L 460.432298 144 
L 458.786369 144 
L 457.269168 144 
L 455.740475 144 
L 452.33115 144 
L 450.249379 144 
L 449.249271 144 
L 448.669022 144 
L 448.383604 144 
L 448.289038 144 
L 446.143706 144 
L 445.611397 144 
L 444.116932 144 
L 443.235933 144 
L 442.979256 144 
L 442.70659 144 
L 442.506599 144 
L 442.163268 144 
L 441.89637 144 
L 441.226831 144 
L 437.537269 144 
L 437.040927 144 
L 436.936738 144 
L 436.92268 144 
L 436.790853 144 
L 436.531768 144 
L 434.183954 144 
L 432.20406 144 
L 431.597718 144 
L 431.526509 144 
L 431.173853 144 
L 430.683284 144 
L 430.683284 144 
L 430.351738 144 
L 429.576949 144 
L 428.850128 144 
L 427.400781 144 
L 427.064496 144 
L 425.84119 144 
L 425.651408 144 
L 424.524199 144 
L 422.816952 144 
L 421.442341 144 
L 420.855408 144 
L 420.285778 144 
L 419.691218 144 
L 419.326137 144 
L 419.099847 144 
L 418.768337 144 
L 417.789328 144 
L 416.933464 144 
L 416.679102 144 
L 416.228743 144 
L 415.614479 144 
L 415.42944 144 
L 414.648722 144 
L 414.201266 144 
L 413.5505 144 
L 413.079717 144 
L 412.577219 144 
L 412.196742 144 
L 411.832068 144 
L 411.598112 144 
L 411.198158 144 
L 410.925741 144 
L 410.670389 144 
L 410.494416 144 
L 410.263762 144 
L 410.00866 144 
L 409.908968 144 
L 409.508133 144 
L 409.212137 144 
L 408.816689 144 
L 408.590497 144 
L 408.346739 144 
L 407.499088 144 
L 406.851467 144 
L 406.553816 144 
L 406.230331 144 
L 405.911629 144 
L 405.651653 144 
L 405.312279 144 
L 404.916564 144 
L 404.359647 144 
L 403.96328 144 
L 402.875651 144 
L 401.622129 144 
L 399.985201 144 
L 399.555535 144 
L 398.360748 144 
L 397.723966 144 
L 396.81838 144 
L 394.842906 144 
L 393.994003 144 
L 393.339569 144 
L 393.093978 144 
L 392.506935 144 
L 391.992291 144 
L 391.721479 144 
L 391.316419 144 
L 391.153216 144 
L 390.694406 144 
L 390.258552 144 
L 389.824266 144 
L 389.377019 144 
L 389.156646 144 
L 388.842164 144 
L 388.684371 144 
L 388.461636 144 
L 388.313653 144 
L 388.099511 144 
L 387.845972 144 
L 387.694238 144 
L 387.426183 144 
L 386.593933 144 
L 386.165679 144 
L 385.44903 144 
L 384.415418 144 
L 383.928882 144 
L 382.820546 144 
L 381.661851 144 
L 381.315648 144 
L 380.825444 144 
L 380.60586 144 
L 380.052802 144 
L 379.244541 144 
L 378.395894 144 
L 377.985928 144 
L 377.303555 144 
L 376.544736 144 
L 375.657597 144 
L 374.709493 144 
L 374.036562 144 
L 373.437751 144 
L 371.954443 144 
L 371.380671 144 
L 370.416586 144 
L 368.829394 144 
L 368.332747 144 
L 367.449663 144 
L 367.024724 144 
L 365.025882 144 
L 364.671157 144 
L 363.753605 144 
L 363.003919 144 
L 361.969837 144 
L 360.846819 144 
L 359.992305 144 
L 359.391474 144 
L 358.388357 144 
L 357.798022 144 
L 356.708351 144 
L 355.943575 144 
L 355.000654 144 
L 354.568424 144 
L 353.540612 144 
L 352.808087 144 
L 352.271076 144 
L 351.646815 144 
L 351.032248 144 
L 350.650341 144 
L 348.563641 144 
L 347.743728 144 
L 347.357313 144 
L 346.975424 144 
L 345.698065 144 
L 345.429917 144 
L 345.050498 144 
L 344.703131 144 
L 344.35876 144 
L 343.566995 144 
L 343.177039 144 
L 342.40617 144 
L 340.805221 144 
L 340.316985 144 
L 339.690734 144 
L 337.965482 144 
L 337.837654 144 
L 337.555551 144 
L 336.091165 144 
L 335.965085 144 
L 334.780376 144 
L 333.668468 144 
L 332.954828 144 
L 332.545017 144 
L 331.612159 144 
L 331.131643 144 
L 330.739073 144 
L 330.382702 144 
L 330.189173 144 
L 329.718494 144 
L 329.494684 144 
L 329.211625 144 
L 329.053014 144 
L 328.741321 144 
L 328.558377 144 
L 328.202006 144 
L 327.449158 144 
L 326.968642 144 
L 326.778539 144 
L 326.276338 144 
L 325.801536 144 
L 325.54184 144 
L 324.594033 144 
L 324.291435 144 
L 323.94191 144 
L 323.293388 144 
L 322.799027 144 
L 322.219102 144 
L 321.919631 144 
L 321.570079 144 
L 320.465154 144 
L 320.084217 144 
L 319.461762 144 
L 319.195508 144 
L 318.380281 144 
L 316.394295 144 
L 316.079736 144 
L 315.60624 144 
L 315.337758 144 
L 314.96339 144 
L 313.6946 144 
L 312.704794 144 
L 312.407338 144 
L 312.012361 144 
L 311.096454 144 
L 310.51195 144 
L 309.568053 144 
L 308.902586 144 
L 307.989885 144 
L 306.711376 144 
L 305.607002 144 
L 305.044983 144 
L 304.314864 144 
L 303.905179 144 
L 302.442692 144 
L 301.786548 144 
L 301.16831 144 
L 300.600691 144 
L 300.222188 144 
L 299.685177 144 
L 298.311973 144 
L 297.113267 144 
L 296.762161 144 
L 295.504421 144 
L 294.700547 144 
L 294.109329 144 
L 293.784053 144 
L 293.167054 144 
L 292.66725 144 
L 292.178225 144 
L 291.622064 144 
L 290.391174 144 
L 290.001291 144 
L 289.637058 144 
L 289.206611 144 
L 288.68157 144 
L 288.307206 144 
L 288.012345 144 
L 287.466683 144 
L 286.674223 144 
L 286.280883 144 
L 285.638545 144 
L 285.01185 144 
L 284.445113 144 
L 283.779874 144 
L 283.164993 144 
L 282.361882 144 
L 282.001182 144 
L 281.286276 144 
L 280.754654 144 
L 280.028522 144 
L 279.394449 144 
L 278.800186 144 
L 278.230487 144 
L 277.636388 144 
L 276.548358 144 
L 276.019569 144 
L 275.356245 144 
L 274.620336 144 
L 273.008948 144 
L 272.508688 144 
L 271.874788 144 
L 270.701202 144 
L 270.033676 144 
L 269.301398 144 
L 269.053382 144 
L 268.6128 144 
L 268.055752 144 
L 265.494342 144 
L 264.971677 144 
L 263.455933 144 
L 262.331128 144 
L 261.69447 144 
L 261.402691 144 
L 261.222696 144 
L 260.911761 144 
L 260.475226 144 
L 259.963558 144 
L 259.498181 144 
L 259.128363 144 
L 258.708406 144 
L 258.412573 144 
L 258.219069 144 
L 257.891964 144 
L 257.553405 144 
L 257.268487 144 
L 256.945398 144 
L 256.650079 144 
L 256.403102 144 
L 255.882482 144 
L 255.523157 144 
L 255.149044 144 
L 254.371872 144 
L 253.827752 144 
L 253.698873 144 
L 253.491251 144 
L 253.096145 144 
L 252.869859 144 
L 252.607663 144 
L 252.240286 144 
L 251.78535 144 
L 251.357174 144 
L 250.557062 144 
L 249.956607 144 
L 248.98954 144 
L 247.924962 144 
L 247.295661 144 
L 246.227604 144 
L 245.313409 144 
L 244.26137 144 
L 243.59166 144 
L 243.323032 144 
L 242.028022 144 
L 241.752097 144 
L 241.21466 144 
L 240.991365 144 
L 240.764547 144 
L 240.002329 144 
L 239.684399 144 
L 238.73308 144 
L 238.53146 144 
L 238.398945 144 
L 237.732848 144 
L 236.817208 144 
L 235.754065 144 
L 234.804512 144 
L 233.912683 144 
L 233.247527 144 
L 233.028436 144 
L 232.048103 144 
L 231.825732 144 
L 230.982698 144 
L 230.500663 144 
L 230.321501 144 
L 229.917496 144 
L 229.704353 144 
L 228.598432 144 
L 228.060492 144 
L 227.360358 144 
L 226.425 144 
L 225.890432 144 
L 224.953588 144 
L 224.311045 144 
L 224.102458 144 
L 223.3541 144 
L 222.701631 144 
L 222.192113 144 
L 221.892127 144 
L 221.423751 144 
L 221.002205 144 
L 220.67822 144 
L 219.684579 144 
L 219.173251 144 
L 218.445371 144 
L 217.628033 144 
L 216.913383 144 
L 216.254276 144 
L 214.984336 144 
L 214.481736 144 
L 213.81594 144 
L 213.311518 144 
L 212.965811 144 
L 212.434018 144 
L 212.002293 144 
L 211.282015 144 
L 210.686476 144 
L 209.776221 144 
L 209.429621 144 
L 209.076312 144 
L 208.842454 144 
L 208.51481 144 
L 207.981952 144 
L 207.717176 144 
L 207.527396 144 
L 207.459598 144 
L 207.368671 144 
L 207.368671 144 
L 206.967812 144 
L 206.474952 144 
L 205.973349 144 
L 205.185085 144 
L 204.910129 144 
L 204.618958 144 
L 204.255326 144 
L 203.586816 144 
L 203.148909 144 
L 202.517671 144 
L 201.874978 144 
L 201.41698 144 
L 200.991941 144 
L 200.34194 144 
L 199.370812 144 
L 198.807465 144 
L 197.93061 144 
L 197.450188 144 
L 196.892217 144 
L 196.386715 144 
L 195.716437 144 
L 195.313704 144 
L 194.958928 144 
L 194.733382 144 
L 194.43539 144 
L 193.896118 144 
L 193.49324 144 
L 193.145954 144 
L 192.731315 144 
L 192.186544 144 
L 191.528977 144 
L 190.893644 144 
L 189.602407 144 
L 189.238173 144 
L 188.786826 144 
L 188.144136 144 
L 187.781812 144 
L 187.44709 144 
L 187.034602 144 
L 186.617992 144 
L 186.347576 144 
L 186.058811 144 
L 185.87718 144 
L 185.624058 144 
L 185.364513 144 
L 184.86323 144 
L 184.265305 144 
L 183.009055 144 
L 182.353566 144 
L 181.802546 144 
L 180.665073 144 
L 180.328833 144 
L 180.087847 144 
L 179.888075 144 
L 179.744415 144 
L 179.335122 144 
L 179.066573 144 
L 178.844812 144 
L 178.598504 144 
L 178.329872 144 
L 178.075938 144 
L 177.641223 144 
L 177.331118 144 
L 176.985143 144 
L 176.671705 144 
L 176.422842 144 
L 176.196569 144 
L 175.969754 144 
L 175.701502 144 
L 175.432997 144 
L 175.180835 144 
L 174.832503 144 
L 174.648534 144 
L 174.042314 144 
L 173.837362 144 
L 173.694064 144 
L 173.499096 144 
L 173.094397 144 
L 172.90949 144 
L 172.741327 144 
L 172.250835 144 
L 172.002223 144 
L 171.914201 144 
L 171.576946 144 
L 171.364996 144 
L 171.185402 144 
L 170.987017 144 
L 170.717572 144 
L 170.398842 144 
L 169.83229 144 
L 169.497074 144 
L 169.179159 144 
L 168.918632 144 
L 168.585919 144 
L 168.103176 144 
L 167.656671 144 
L 167.353519 144 
L 167.050228 144 
L 166.880117 144 
L 166.667784 144 
L 166.390191 144 
L 166.002616 144 
L 165.653218 144 
L 165.453456 144 
L 164.438129 144 
L 163.985979 144 
L 163.57795 144 
L 163.204756 144 
L 162.92846 144 
L 162.757384 144 
L 162.493143 144 
L 162.047574 144 
L 161.108253 144 
L 160.828373 144 
L 160.60189 144 
L 160.398319 144 
L 160.129457 144 
L 159.606794 144 
L 159.042689 144 
L 158.569465 144 
L 158.014963 144 
L 157.288243 144 
L 157.011481 144 
L 156.340078 144 
L 155.258333 144 
L 154.748312 144 
L 154.011267 144 
L 153.429037 144 
L 152.858148 144 
L 152.448465 144 
L 152.032436 144 
L 151.49669 144 
L 151.049614 144 
L 150.718669 144 
L 150.302175 144 
L 149.968957 144 
L 149.74057 144 
L 149.445775 144 
L 148.366301 144 
L 148.065588 144 
L 147.669595 144 
L 147.053338 144 
L 146.677431 144 
L 146.10424 144 
L 145.757447 144 
L 143.714592 144 
L 141.708504 144 
L 141.455407 144 
L 141.141808 144 
L 140.680078 144 
L 140.395603 144 
L 140.224532 144 
L 140.013158 144 
L 139.44314 144 
L 139.285416 144 
L 139.04907 144 
L 138.81844 144 
L 138.365098 144 
L 136.172466 144 
L 135.714394 144 
L 135.334115 144 
L 134.772894 144 
L 133.107247 144 
L 132.636068 144 
L 132.19038 144 
L 131.739478 144 
L 131.368766 144 
L 131.165152 144 
L 130.978993 144 
L 130.699081 144 
L 130.450138 144 
L 130.1641 144 
L 129.719172 144 
L 129.499466 144 
L 129.004716 144 
L 128.890902 144 
L 128.483948 144 
L 127.842079 144 
L 127.408326 144 
L 126.999207 144 
L 126.538437 144 
L 126.271723 144 
L 126.045186 144 
L 125.767372 144 
L 124.371461 144 
L 122.840444 144 
L 122.643199 144 
L 122.562556 144 
L 122.427852 144 
L 122.278233 144 
L 122.073287 144 
L 121.836703 144 
L 121.484145 144 
L 121.305445 144 
L 121.097566 144 
L 120.735323 144 
L 120.151352 144 
L 119.881194 144 
L 119.652809 144 
L 118.440602 144 
L 118.295087 144 
L 118.135834 144 
L 117.964959 144 
L 117.296613 144 
L 117.204164 144 
L 117.093296 144 
L 116.966675 144 
L 116.607154 144 
L 116.19052 144 
L 115.774717 144 
L 114.87726 144 
L 114.417628 144 
L 113.42712 144 
L 113.206143 144 
L 112.763836 144 
L 112.098338 144 
L 111.774018 144 
L 111.364237 144 
L 110.253719 144 
L 110.039676 144 
L 109.493691 144 
L 108.641623 144 
L 107.956153 144 
L 107.583919 144 
L 106.821282 144 
L 105.907141 144 
L 105.6583 144 
L 103.789917 144 
L 103.268293 144 
L 102.641722 144 
L 102.032211 144 
L 101.327895 144 
L 100.444999 144 
L 100.111611 144 
L 99.206829 144 
L 98.97192 144 
L 98.783237 144 
L 98.465396 144 
L 98.329117 144 
L 97.833537 144 
L 97.708323 144 
L 97.581463 144 
L 97.368236 144 
L 96.909162 144 
L 96.694206 144 
L 96.051263 144 
L 94.947918 144 
L 94.461228 144 
L 94.181644 144 
L 93.825219 144 
L 93.36468 144 
L 92.696855 144 
L 92.490913 144 
L 91.973801 144 
L 91.464589 144 
L 90.562181 144 
L 90.105238 144 
L 89.030805 144 
L 87.291998 144 
L 86.371031 144 
L 86.187568 144 
L 86.03141 144 
L 85.798947 144 
L 85.36825 144 
L 85.16211 144 
L 84.574105 144 
L 83.222692 144 
L 82.367465 144 
L 82.195517 144 
L 82.046754 144 
L 81.571771 144 
L 80.370643 144 
L 80.281403 144 
L 80.038581 144 
L 79.813055 144 
L 79.527735 144 
L 79.368483 144 
L 79.027332 144 
L 78.393433 144 
L 76.720013 144 
L 75.577561 144 
L 75.294502 144 
L 74.823716 144 
L 74.521986 144 
L 74.307247 144 
L 74.176762 144 
L 73.463697 144 
L 73.338059 144 
L 72.685418 144 
L 72.421704 144 
L 72.232322 144 
L 72.041025 144 
L 71.239596 144 
L 70.936803 144 
L 70.49221 144 
L 70.033415 144 
L 69.511332 144 
L 69.113303 144 
L 68.422118 144 
L 67.913132 144 
L 67.614421 144 
L 67.366278 144 
L 67.067099 144 
L 66.492016 144 
L 65.890167 144 
L 65.08938 144 
L 64.673388 144 
L 64.356125 144 
L 63.124477 144 
L 62.583502 144 
L 62.142823 144 
L 61.458595 144 
L 61.230812 144 
L 61.048502 144 
L 60.324705 144 
L 59.44892 144 
L 58.591852 144 
L 57.897689 144 
L 56.487977 144 
L 55.334321 144 
L 54.1491 144 
L 52.043765 144 
L 50.518423 144 
L 47.453263 144 
L 46.521116 144 
L 46.108942 144 
L 46.030089 144 
L 45.640587 144 
L 45.246 144 
L 43.921367 144 
L 41.590398 144 
L 41.368146 144 
L 40.800562 144 
L 40.070339 144 
L 39.848349 144 
L 38.516897 144 
L 36.25862 144 
L 35.434337 144 
L 33.734581 144 
L 32.52047 144 
L 31.744921 144 
L 31.195931 144 
L 30.69334 144 
L 30.396614 144 
L 29.905805 144 
L 29.586985 144 
L 29.463562 144 
L 29.336702 144 
L 28.984175 144 
L 28.448476 144 
L 28.164692 144 
L 27.371188 144 
L 25.11882 144 
L 22.990255 144 
L 22.488664 144 
L 22.395439 144 
L 22.271852 144 
L 22.249129 144 
L 22.199028 144 
L 22.14964 144 
L 22.119821 144 
L 22.056674 144 
L 21.990279 144 
L 21.928441 144 
L 21.856794 144 
L 21.797891 144 
L 21.754094 144 
L 21.687585 144 
L 21.637702 144 
L 21.582297 144 
L 21.533004 144 
L 21.482004 144 
L 21.435308 144 
L 21.372267 144 
L 21.323508 144 
L 21.274215 144 
L 21.190985 144 
L 21.112668 144 
L 21.015346 144 
L 20.930547 144 
L 20.846598 144 
L 20.723633 144 
L 20.466372 144 
L 20.118607 144 
L 19.094636 144 
L 18.581502 144 
L 18.459222 144 
L 18.359603 144 
L 18.255756 144 
L 18.180012 144 
L 18.108366 144 
L 18.004333 144 
L 17.924387 144 
L 17.85274 144 
L 17.797958 144 
L 17.724212 144 
L 17.657703 144 
L 17.602921 144 
L 17.531613 144 
L 17.482854 144 
L 17.417419 144 
L 17.352432 144 
L 17.287445 144 
L 17.240749 144 
L 17.188674 144 
L 17.139915 144 
L 17.082546 144 
L 17.027141 144 
L 16.990841 144 
L 16.9278 144 
L 16.848416 144 
L 16.750378 144 
L 16.566424 144 
L 16.192156 144 
L 15.79049 144 
L 15.431399 144 
L 14.977374 144 
L 14.396458 144 
L 14.028339 144 
L 13.540909 144 
L 13.270142 144 
L 12.946969 144 
L 12.220402 144 
L 11.692426 144 
L 11.333739 144 
L 10.897423 144 
L 9.688428 144 
L 8.710747 144 
L 8.251467 144 
L 7.249601 144 
L 6.735322 144 
L 6.283762 144 
L 5.981957 144 
L 4.753587 144 
L 4.59816 144 
L 4.3299 144 
L 4.082092 144 
L 4.03221 144 
L 3.966775 144 
L 3.917482 144 
L 3.862078 144 
L 3.804536 144 
L 3.76742 144 
L 3.735849 144 
L 3.644299 144 
L 3.508095 144 
L 2.537406 144 
L 2.415312 144 
L 2.196727 144 
L 1.887273 144 
L 1.350262 144 
L 1.238882 144 
L 1.124197 144 
L 0.978685 144 
L 0.915644 144 
L 0.278166 144 
L 0.147723 144 
L 0 144 
z
" clip-path="url(#p734f3f4607)" style="fill: #c18182; fill-opacity: 0.3; stroke: #c18182; stroke-opacity: 0.3"/>
   </g>
   <g id="line2d_1">
    <path d="M 0 11.029787 
L 0.147723 11.33617 
L 0.278166 11.948936 
L 0.978685 12.255319 
L 1.238882 12.868085 
L 1.350262 12.561702 
L 2.537406 12.561702 
L 3.644299 15.625532 
L 4.3299 15.625532 
L 4.753587 15.012766 
L 7.249601 13.174468 
L 8.251467 12.255319 
L 8.710747 11.642553 
L 10.897423 9.497872 
L 11.333739 8.27234 
L 11.692426 6.740426 
L 12.220402 6.740426 
L 12.946969 7.046809 
L 16.750378 7.046809 
L 16.990841 7.965957 
L 17.797958 7.965957 
L 17.924387 7.046809 
L 20.118607 7.046809 
L 20.466372 7.353191 
L 21.323508 7.353191 
L 21.533004 6.740426 
L 21.687585 6.740426 
L 21.928441 6.12766 
L 21.990279 6.12766 
L 22.271852 5.208511 
L 22.990255 5.208511 
L 25.11882 3.370213 
L 27.371188 0.612766 
L 28.164692 0 
L 36.25862 0 
L 38.516897 2.144681 
L 39.848349 3.06383 
L 43.921367 3.06383 
L 45.246 2.757447 
L 45.640587 2.451064 
L 46.521116 1.225532 
L 47.453263 0 
L 55.334321 0 
L 56.487977 0.919149 
L 58.591852 3.06383 
L 61.048502 4.902128 
L 61.230812 5.208511 
L 61.458595 5.821277 
L 62.142823 6.12766 
L 62.583502 6.740426 
L 63.124477 7.965957 
L 64.356125 7.353191 
L 64.673388 7.353191 
L 65.08938 7.046809 
L 65.890167 10.110638 
L 66.492016 10.723404 
L 67.366278 11.948936 
L 67.614421 12.255319 
L 70.49221 18.382979 
L 70.936803 18.382979 
L 71.239596 18.689362 
L 72.232322 18.995745 
L 72.685418 18.995745 
L 74.176762 19.608511 
L 74.823716 19.608511 
L 75.294502 19.914894 
L 75.577561 19.914894 
L 76.720013 22.67234 
L 80.281403 30.331915 
L 80.370643 30.331915 
L 82.195517 36.153191 
L 82.367465 36.459574 
L 83.222692 39.217021 
L 84.574105 42.893617 
L 86.371031 42.893617 
L 87.291998 44.119149 
L 89.030805 45.957447 
L 90.562181 45.038298 
L 91.464589 44.119149 
L 91.973801 43.812766 
L 92.490913 43.2 
L 92.696855 43.2 
L 93.36468 42.893617 
L 94.947918 42.893617 
L 96.051263 45.344681 
L 96.694206 48.102128 
L 96.909162 48.408511 
L 97.581463 50.246809 
L 97.833537 51.165957 
L 98.329117 52.085106 
L 102.032211 52.085106 
L 102.641722 53.004255 
L 103.268293 54.53617 
L 103.789917 55.455319 
L 105.907141 60.357447 
L 106.821282 62.808511 
L 108.641623 70.468085 
L 110.253719 72.612766 
L 111.364237 74.144681 
L 111.774018 75.370213 
L 112.098338 75.676596 
L 112.763836 76.595745 
L 113.42712 78.12766 
L 114.87726 82.110638 
L 115.774717 82.723404 
L 116.19052 85.480851 
L 116.966675 87.012766 
L 117.093296 87.012766 
L 117.296613 87.319149 
L 118.295087 88.851064 
L 118.440602 89.157447 
L 120.735323 94.67234 
L 121.097566 94.978723 
L 122.840444 94.978723 
L 124.371461 93.753191 
L 126.271723 90.689362 
L 126.999207 89.157447 
L 128.483948 87.012766 
L 128.890902 86.706383 
L 129.004716 86.4 
L 129.719172 85.480851 
L 130.450138 84.868085 
L 131.368766 83.642553 
L 131.739478 83.642553 
L 132.19038 83.33617 
L 132.636068 83.33617 
L 133.107247 83.029787 
L 135.334115 82.723404 
L 136.172466 82.723404 
L 138.365098 86.093617 
L 138.81844 86.4 
L 139.285416 87.012766 
L 139.44314 87.012766 
L 140.013158 87.931915 
L 140.224532 87.931915 
L 140.680078 88.544681 
L 141.141808 89.157447 
L 141.455407 90.076596 
L 141.708504 90.382979 
L 143.714592 94.978723 
L 145.757447 98.655319 
L 146.10424 98.961702 
L 149.445775 104.170213 
L 149.74057 105.702128 
L 150.302175 106.314894 
L 151.49669 107.234043 
L 152.032436 107.846809 
L 152.448465 108.153191 
L 152.858148 108.765957 
L 154.011267 109.991489 
L 154.748312 110.297872 
L 160.129457 110.297872 
L 161.108253 107.846809 
L 162.047574 107.234043 
L 164.438129 107.234043 
L 165.653218 107.540426 
L 166.667784 108.459574 
L 167.050228 108.459574 
L 167.656671 109.07234 
L 168.103176 109.07234 
L 169.83229 110.297872 
L 170.717572 111.217021 
L 171.364996 112.442553 
L 172.002223 113.361702 
L 176.985143 113.361702 
L 179.744415 110.910638 
L 179.888075 110.604255 
L 180.087847 110.604255 
L 180.328833 110.297872 
L 180.665073 110.910638 
L 181.802546 112.13617 
L 183.009055 114.280851 
L 184.265305 116.731915 
L 186.058811 119.489362 
L 207.527396 119.489362 
L 207.717176 119.795745 
L 207.981952 119.795745 
L 209.429621 121.32766 
L 209.776221 121.634043 
L 211.282015 122.553191 
L 212.002293 122.859574 
L 212.434018 122.859574 
L 212.965811 123.165957 
L 213.311518 123.165957 
L 213.81594 123.47234 
L 214.481736 123.47234 
L 214.984336 123.778723 
L 216.254276 124.085106 
L 217.628033 124.697872 
L 218.445371 124.697872 
L 220.67822 125.617021 
L 221.002205 125.617021 
L 221.892127 126.229787 
L 222.192113 126.229787 
L 226.425 128.680851 
L 228.060492 131.438298 
L 228.598432 131.744681 
L 232.048103 131.744681 
L 233.028436 131.438298 
L 233.912683 128.680851 
L 238.73308 128.680851 
L 239.684399 127.761702 
L 240.002329 127.148936 
L 240.991365 125.617021 
L 243.59166 125.617021 
L 244.26137 124.697872 
L 245.313409 123.778723 
L 246.227604 122.553191 
L 247.295661 121.940426 
L 247.924962 121.32766 
L 250.557062 119.795745 
L 251.357174 119.489362 
L 252.607663 119.489362 
L 252.869859 116.425532 
L 253.698873 113.974468 
L 253.827752 114.280851 
L 254.371872 114.587234 
L 256.945398 116.731915 
L 257.268487 117.038298 
L 257.553405 117.038298 
L 258.219069 117.651064 
L 258.412573 117.344681 
L 258.708406 116.425532 
L 259.128363 115.812766 
L 259.498181 115.506383 
L 261.222696 113.361702 
L 261.69447 113.361702 
L 263.455933 110.910638 
L 265.494342 113.055319 
L 268.6128 116.731915 
L 269.301398 117.344681 
L 271.874788 119.489362 
L 272.508688 119.795745 
L 273.008948 119.795745 
L 276.019569 121.021277 
L 276.548358 121.021277 
L 277.636388 121.32766 
L 278.800186 121.940426 
L 279.394449 121.940426 
L 281.286276 122.859574 
L 283.164993 124.391489 
L 283.779874 124.697872 
L 285.01185 125.923404 
L 286.280883 127.761702 
L 288.68157 127.761702 
L 289.206611 127.455319 
L 292.178225 127.455319 
L 292.66725 127.148936 
L 295.504421 127.148936 
L 297.113267 126.842553 
L 299.685177 127.455319 
L 300.600691 127.455319 
L 301.16831 127.761702 
L 301.786548 127.761702 
L 302.442692 128.068085 
L 303.905179 128.374468 
L 306.711376 130.519149 
L 307.989885 131.744681 
L 310.51195 132.66383 
L 311.096454 132.66383 
L 312.012361 132.970213 
L 312.407338 133.276596 
L 312.704794 133.276596 
L 315.337758 134.195745 
L 316.079736 132.051064 
L 316.394295 131.744681 
L 318.380281 130.519149 
L 319.195508 130.212766 
L 319.461762 129.906383 
L 320.465154 129.293617 
L 321.570079 128.680851 
L 321.919631 126.842553 
L 322.219102 126.842553 
L 322.799027 126.53617 
L 323.293388 126.53617 
L 323.94191 126.229787 
L 324.594033 126.229787 
L 325.54184 125.923404 
L 325.801536 125.617021 
L 326.276338 125.617021 
L 326.778539 125.310638 
L 326.968642 125.004255 
L 327.449158 125.004255 
L 329.053014 123.778723 
L 329.494684 123.778723 
L 329.718494 123.47234 
L 330.739073 122.859574 
L 331.131643 122.859574 
L 332.545017 121.940426 
L 332.954828 121.940426 
L 333.668468 121.634043 
L 336.091165 120.408511 
L 337.965482 120.714894 
L 339.690734 123.778723 
L 343.177039 123.778723 
L 343.566995 123.47234 
L 344.703131 122.246809 
L 345.050498 121.940426 
L 345.429917 121.32766 
L 345.698065 121.634043 
L 346.975424 122.246809 
L 347.743728 122.246809 
L 348.563641 121.940426 
L 351.032248 121.634043 
L 351.646815 121.634043 
L 352.808087 122.246809 
L 353.540612 122.246809 
L 355.943575 123.778723 
L 356.708351 124.391489 
L 358.388357 125.310638 
L 361.969837 128.680851 
L 370.416586 128.680851 
L 371.954443 129.6 
L 374.709493 130.825532 
L 375.657597 131.438298 
L 376.544736 131.744681 
L 377.303555 132.357447 
L 377.985928 132.66383 
L 380.825444 134.808511 
L 381.661851 134.808511 
L 385.44903 131.744681 
L 387.426183 131.744681 
L 387.694238 131.438298 
L 387.845972 131.438298 
L 388.684371 130.519149 
L 388.842164 130.519149 
L 390.258552 129.293617 
L 390.694406 128.987234 
L 391.153216 128.068085 
L 391.316419 127.455319 
L 391.721479 126.53617 
L 391.992291 125.617021 
L 406.230331 125.617021 
L 406.553816 125.923404 
L 406.851467 125.923404 
L 407.499088 126.53617 
L 410.00866 128.374468 
L 410.263762 128.680851 
L 410.494416 128.680851 
L 411.198158 129.906383 
L 411.832068 130.519149 
L 412.577219 131.744681 
L 413.5505 134.195745 
L 414.648722 135.72766 
L 416.679102 138.178723 
L 417.789328 140.629787 
L 419.691218 141.855319 
L 420.285778 141.855319 
L 421.442341 142.468085 
L 422.816952 143.080851 
L 425.651408 144 
L 427.400781 144 
L 429.576949 142.161702 
L 431.526509 140.017021 
L 431.597718 139.404255 
L 432.20406 139.710638 
L 434.183954 144 
L 443.235933 144 
L 444.116932 143.693617 
L 445.611397 143.387234 
L 446.143706 143.080851 
L 448.383604 142.468085 
L 448.669022 142.161702 
L 449.249271 142.161702 
L 450.249379 141.855319 
L 452.33115 140.93617 
L 462.023292 140.93617 
L 462.319601 140.629787 
L 463.666822 137.87234 
L 464.481066 134.808511 
L 467.575861 134.808511 
L 468.623997 133.889362 
L 469.209776 132.970213 
L 469.559101 132.970213 
L 470.317073 133.276596 
L 475.176464 134.502128 
L 476.191891 134.502128 
L 477.284091 135.421277 
L 477.751457 136.340426 
L 478.534938 137.565957 
L 478.886543 137.87234 
L 479.903194 137.87234 
L 480.698266 137.259574 
L 483.378205 133.889362 
L 484.662889 131.744681 
L 485.941277 130.825532 
L 486.770588 130.519149 
L 487.179414 130.212766 
L 488.047971 123.778723 
L 488.334444 124.085106 
L 489.515143 125.004255 
L 490.096038 125.310638 
L 490.664006 125.310638 
L 491.117441 124.391489 
L 491.597905 123.778723 
L 492.090903 122.859574 
L 492.760103 121.32766 
L 493.27836 119.795745 
L 493.677086 119.795745 
L 493.901228 121.32766 
L 494.546636 118.26383 
L 497.647323 110.604255 
L 499.911295 106.621277 
L 500.101967 106.008511 
L 500.68908 105.089362 
L 501.338884 105.702128 
L 501.919413 106.621277 
L 502.343986 106.92766 
L 503.911839 110.297872 
L 507.476732 110.297872 
L 508.025814 111.217021 
L 510.067154 113.974468 
L 510.671997 114.587234 
L 511.964514 115.2 
L 513.804137 116.425532 
L 524.207409 116.425532 
L 525.703845 113.361702 
L 525.883025 113.361702 
L 526.371351 114.893617 
L 526.980901 116.425532 
L 528.203085 118.570213 
L 529.404034 119.489362 
L 532.771869 119.489362 
L 533.938301 121.021277 
L 535.996465 124.391489 
L 538.769032 128.680851 
L 539.338625 127.761702 
L 541.773351 122.553191 
L 543.682782 122.553191 
L 545.084159 125.617021 
L 546.509926 126.53617 
L 548.86788 127.761702 
L 551.099785 128.680851 
L 555.143506 128.680851 
L 557.043712 128.987234 
L 557.767089 128.987234 
L 558.336103 129.293617 
L 559.979823 129.6 
L 560.676151 129.6 
L 561.448492 129.906383 
L 562.488953 129.906383 
L 563.469206 130.212766 
L 564.000587 130.212766 
L 564.614837 130.519149 
L 566.061798 130.519149 
L 568.032878 131.131915 
L 569.465837 131.131915 
L 571.313149 131.744681 
L 572.446834 131.744681 
L 572.862951 132.051064 
L 573.619381 132.357447 
L 573.922896 132.66383 
L 574.183823 132.66383 
L 574.499025 132.970213 
L 574.799846 132.970213 
L 577.034133 134.808511 
L 577.198096 134.808511 
L 577.295124 135.114894 
L 577.548872 135.114894 
L 579.342714 135.421277 
L 580.864659 135.421277 
L 581.181184 135.72766 
L 582.118873 135.72766 
L 582.252172 135.421277 
L 582.475808 135.421277 
L 583.129522 135.114894 
L 583.596166 134.502128 
L 583.84495 133.889362 
L 585.613863 134.502128 
L 585.944751 134.808511 
L 586.135128 134.808511 
L 586.808733 135.72766 
L 590.04387 139.404255 
L 594.290671 136.340426 
L 595.325341 134.808511 
L 600.74467 134.808511 
L 601.84475 133.889362 
L 602.044799 133.889362 
L 602.278519 133.582979 
L 604.371521 132.357447 
L 604.894712 131.744681 
L 606.651435 128.680851 
L 608.273988 127.148936 
L 608.906184 126.842553 
L 609.114524 126.53617 
L 610.116711 125.617021 
L 610.717681 125.617021 
L 612.491405 124.085106 
L 613.079333 123.778723 
L 613.489568 123.165957 
L 614.381689 122.553191 
L 614.495031 122.553191 
L 614.653338 122.246809 
L 615.038711 121.32766 
L 615.980743 119.489362 
L 616.817473 118.570213 
L 616.896858 118.570213 
L 618.339447 116.731915 
L 618.997624 115.506383 
L 619.935454 111.829787 
L 621.021052 106.92766 
L 622.157333 103.251064 
L 622.8043 100.8 
L 623.230695 99.880851 
L 623.499555 99.574468 
L 624.035203 98.348936 
L 624.313345 97.73617 
L 625.405002 94.67234 
L 625.913777 92.52766 
L 626.585874 90.995745 
L 630.088613 83.029787 
L 631.738493 80.27234 
L 632.21442 79.659574 
L 635.556759 79.659574 
L 635.86863 79.046809 
L 636.542401 78.434043 
L 638.434875 75.676596 
L 638.976234 75.06383 
L 639.692116 73.838298 
L 642.575925 71.080851 
L 643.03477 70.774468 
L 643.161841 70.468085 
L 644.274889 70.468085 
L 646.482942 72 
L 648.764662 73.531915 
L 649.079318 73.838298 
L 652.322566 75.982979 
L 653.96638 76.595745 
L 656.001586 76.595745 
L 657.317135 75.982979 
L 659.999602 74.144681 
L 660.740949 73.838298 
L 662.005481 73.531915 
L 681.433006 73.531915 
L 686.327652 66.178723 
L 687.935791 64.340426 
L 688.679673 64.034043 
L 689.846522 63.421277 
L 690.748267 62.808511 
L 692.292519 62.195745 
L 694.690071 60.970213 
L 695.292248 60.357447 
L 698.410715 58.212766 
L 698.757374 57.6 
L 699.393784 57.293617 
L 700.460399 56.068085 
L 701.613886 55.761702 
L 701.840541 55.455319 
L 702.032326 55.761702 
L 704.82175 57.6 
L 705.595394 57.906383 
L 707.925639 58.212766 
L 720 58.212766 
L 720 58.212766 
" clip-path="url(#p734f3f4607)" style="fill: none; stroke: #c18182; stroke-width: 3; stroke-linecap: square"/>
   </g>
  </g>
 </g>
 <defs>
  <clipPath id="p734f3f4607">
   <rect x="0" y="0" width="720" height="144"/>
  </clipPath>
 </defs>
</svg>
