<?xml version="1.0" encoding="utf-8" standalone="no"?>
<!DOCTYPE svg PUBLIC "-//W3C//DTD SVG 1.1//EN"
  "http://www.w3.org/Graphics/SVG/1.1/DTD/svg11.dtd">
<svg xmlns:xlink="http://www.w3.org/1999/xlink" width="720pt" height="144pt" viewBox="0 0 720 144" xmlns="http://www.w3.org/2000/svg" version="1.1">
 <metadata>
  <rdf:RDF xmlns:dc="http://purl.org/dc/elements/1.1/" xmlns:cc="http://creativecommons.org/ns#" xmlns:rdf="http://www.w3.org/1999/02/22-rdf-syntax-ns#">
   <cc:Work>
    <dc:type rdf:resource="http://purl.org/dc/dcmitype/StillImage"/>
    <dc:date>2026-03-07T12:53:31.907598</dc:date>
    <dc:format>image/svg+xml</dc:format>
    <dc:creator>
     <cc:Agent>
      <dc:title>Matplotlib v3.10.8, https://matplotlib.org/</dc:title>
     </cc:Agent>
    </dc:creator>
   </cc:Work>
  </rdf:RDF>
 </metadata>
 <defs>
  <style type="text/css">*{stroke-linejoin: round; stroke-linecap: butt}</style>
 </defs>
 <g id="figure_1">
  <g id="patch_1">
   <path d="M 0 144 
L 720 144 
L 720 0 
L 0 0 
L 0 144 
z
" style="fill: none"/>
  </g>
  <g id="axes_1">
   <g id="FillBetweenPolyCollection_1">
    <path d="M 0 144 
L 0 137.542601 
L 2.706474 137.542601 
L 2.812622 137.542601 
L 2.868663 137.542601 
L 2.921142 137.542601 
L 2.994666 137.542601 
L 3.044328 137.542601 
L 3.096715 137.542601 
L 3.169211 137.542601 
L 4.144155 137.542601 
L 5.990571 137.542601 
L 6.480287 137.542601 
L 7.175734 137.542601 
L 7.516012 137.542601 
L 9.641388 137.542601 
L 12.246342 137.542601 
L 12.663667 137.542601 
L 13.761777 137.542601 
L 14.165576 137.542601 
L 15.378775 137.542601 
L 18.85465 137.542601 
L 19.298185 137.542601 
L 20.672709 137.542601 
L 21.220572 137.542601 
L 22.319112 137.542601 
L 23.412271 137.542601 
L 25.394629 137.542601 
L 25.981437 137.542601 
L 26.774293 137.542601 
L 29.207096 137.542601 
L 29.792021 137.542601 
L 30.183466 137.542601 
L 32.621761 137.542601 
L 32.749537 137.542601 
L 32.892589 137.542601 
L 33.105132 137.542601 
L 33.228459 137.542601 
L 34.998718 137.542601 
L 36.473377 137.542601 
L 37.940185 137.542601 
L 39.012353 137.542601 
L 40.498477 137.542601 
L 41.445076 137.542601 
L 41.925262 137.542601 
L 42.434555 137.542601 
L 43.47704 137.542601 
L 44.36995 137.542601 
L 45.232329 137.542601 
L 46.060647 137.542601 
L 46.534358 137.542601 
L 47.950216 137.542601 
L 48.589154 137.542601 
L 49.051409 137.542601 
L 49.604323 137.542601 
L 51.035334 137.542601 
L 51.718005 137.542601 
L 52.162934 137.542601 
L 52.646275 137.219731 
L 53.144361 136.573991 
L 54.063684 135.605381 
L 54.352004 135.282511 
L 55.218142 134.636771 
L 55.537143 134.313901 
L 56.920691 134.313901 
L 57.592132 134.313901 
L 58.2016 134.313901 
L 58.500662 134.313901 
L 58.680395 134.313901 
L 59.187567 134.313901 
L 59.360187 134.313901 
L 59.550084 134.313901 
L 60.273121 134.313901 
L 61.537007 134.313901 
L 62.058777 134.313901 
L 62.664776 134.313901 
L 64.003415 136.251121 
L 64.942319 137.542601 
L 65.456903 137.542601 
L 66.215234 137.542601 
L 66.488096 137.542601 
L 66.629327 137.542601 
L 67.106189 137.542601 
L 67.37714 137.542601 
L 67.730531 137.542601 
L 68.085211 137.542601 
L 68.403206 137.542601 
L 68.774878 137.542601 
L 69.984942 137.542601 
L 70.492531 137.542601 
L 71.610954 137.542601 
L 72.471145 137.542601 
L 72.901801 137.542601 
L 73.690949 137.542601 
L 74.80719 137.542601 
L 75.091133 137.542601 
L 75.501561 137.542601 
L 75.951624 137.542601 
L 76.762579 137.542601 
L 77.497363 137.542601 
L 77.819199 137.542601 
L 78.194476 137.542601 
L 79.154579 137.542601 
L 79.540046 137.542601 
L 79.839597 137.542601 
L 80.127918 137.542601 
L 80.446029 137.542601 
L 81.241293 137.542601 
L 82.297943 137.542601 
L 84.140146 137.542601 
L 84.176882 137.542601 
L 85.065447 137.542601 
L 85.590597 137.542601 
L 86.065946 137.542601 
L 86.547438 137.542601 
L 86.804052 137.542601 
L 87.767317 137.542601 
L 88.670124 137.542601 
L 89.277779 137.542601 
L 90.45931 137.542601 
L 91.367253 137.542601 
L 91.772481 137.542601 
L 92.388659 137.542601 
L 92.804894 137.542601 
L 93.159132 137.542601 
L 94.241215 137.542601 
L 94.675416 137.542601 
L 95.378867 137.542601 
L 97.153093 137.542601 
L 98.777726 137.542601 
L 99.061552 137.542601 
L 99.267971 137.542601 
L 99.680882 137.542601 
L 99.882187 137.542601 
L 100.147374 137.542601 
L 100.381318 137.542601 
L 100.612906 137.542601 
L 100.888932 137.542601 
L 102.40868 137.542601 
L 102.935184 137.542601 
L 105.519477 137.542601 
L 106.438007 137.542601 
L 107.006113 137.542601 
L 109.516863 137.542601 
L 111.356721 137.542601 
L 112.643384 137.542601 
L 112.801607 137.542601 
L 113.069254 137.542601 
L 113.318996 137.542601 
L 113.511092 137.542601 
L 113.653889 137.542601 
L 113.908761 137.542601 
L 114.491505 137.542601 
L 116.938551 137.542601 
L 118.351026 137.542601 
L 119.780797 137.542601 
L 120.108168 137.542601 
L 120.534961 137.542601 
L 122.155209 137.542601 
L 123.136261 136.896861 
L 124.171944 135.928251 
L 125.604726 134.636771 
L 126.81506 133.668161 
L 128.327849 132.699552 
L 129.2329 131.730942 
L 131.741078 129.470852 
L 133.264719 127.533632 
L 134.352487 125.919283 
L 135.448039 124.304933 
L 137.057419 122.367713 
L 138.754493 120.107623 
L 139.522827 119.461883 
L 140.619318 118.170404 
L 142.297936 116.556054 
L 143.510786 115.587444 
L 144.47001 114.295964 
L 145.441604 112.681614 
L 146.281833 111.713004 
L 147.536223 110.744395 
L 148.129575 110.421525 
L 148.865873 109.775785 
L 150.970042 108.161435 
L 153.211617 102.995516 
L 154.461929 102.026906 
L 155.065807 102.026906 
L 155.704996 102.026906 
L 156.181072 102.349776 
L 156.965697 102.672646 
L 157.667735 102.995516 
L 158.290442 103.318386 
L 158.630184 103.318386 
L 159.302964 103.641256 
L 159.685491 103.964126 
L 161.217056 104.609865 
L 162.200384 104.932735 
L 162.651898 105.255605 
L 163.479354 106.869955 
L 164.06801 108.161435 
L 164.465434 108.807175 
L 165.04081 109.452915 
L 165.644198 109.775785 
L 166.169741 110.421525 
L 166.988312 111.067265 
L 167.683334 112.035874 
L 168.660719 113.327354 
L 170.099749 115.587444 
L 171.5684 118.493274 
L 172.688067 120.753363 
L 173.04607 121.399103 
L 173.782151 122.367713 
L 174.282328 123.336323 
L 174.858998 124.304933 
L 175.296475 124.627803 
L 175.808571 125.273543 
L 176.239985 125.596413 
L 176.711241 125.919283 
L 177.358944 126.242152 
L 178.301028 127.210762 
L 178.631896 127.533632 
L 178.897887 127.533632 
L 179.335361 127.856502 
L 179.750885 128.179372 
L 180.177498 128.502242 
L 180.655921 129.147982 
L 181.090697 129.470852 
L 181.43924 129.793722 
L 182.191363 130.439462 
L 182.611847 130.762332 
L 183.370493 132.053812 
L 184.193474 133.991031 
L 184.573012 134.636771 
L 184.82551 134.636771 
L 185.092726 134.959641 
L 185.859318 135.605381 
L 187.391077 136.896861 
L 187.571882 136.896861 
L 188.029265 137.219731 
L 189.404681 139.479821 
L 189.831547 140.125561 
L 190.02825 140.44843 
L 190.533453 140.7713 
L 191.079998 140.7713 
L 191.392438 140.7713 
L 192.074127 140.7713 
L 192.301365 140.7713 
L 192.927677 140.7713 
L 193.33532 140.7713 
L 193.762119 140.7713 
L 194.511816 140.7713 
L 195.138532 140.7713 
L 195.30457 140.7713 
L 196.203663 140.7713 
L 196.35485 140.7713 
L 196.549025 140.7713 
L 197.256872 140.7713 
L 199.039956 140.7713 
L 199.377246 140.7713 
L 200.189829 140.7713 
L 202.758248 140.7713 
L 203.177272 140.7713 
L 203.760129 140.7713 
L 204.194334 140.7713 
L 204.753655 140.7713 
L 205.087803 140.7713 
L 205.756208 140.7713 
L 206.385599 140.7713 
L 206.645357 140.7713 
L 207.621428 140.7713 
L 207.818462 140.7713 
L 208.301859 140.7713 
L 208.618674 140.7713 
L 208.881669 140.7713 
L 209.145548 140.7713 
L 209.597062 140.7713 
L 210.46312 140.7713 
L 210.865223 140.7713 
L 211.262559 140.7713 
L 211.837231 140.7713 
L 212.209837 140.7713 
L 212.443448 140.7713 
L 213.128762 140.7713 
L 214.643912 140.7713 
L 215.583147 140.7713 
L 215.9173 140.7713 
L 216.506012 140.7713 
L 216.918659 140.7713 
L 217.237429 140.7713 
L 217.453234 140.7713 
L 217.629041 140.7713 
L 217.966959 140.7713 
L 218.472701 140.7713 
L 218.68598 140.7713 
L 218.960303 140.7713 
L 219.121675 140.7713 
L 219.894836 140.7713 
L 222.051786 140.7713 
L 222.505341 140.7713 
L 223.905835 140.7713 
L 224.909288 140.7713 
L 225.993697 140.7713 
L 228.27874 140.7713 
L 229.647954 140.7713 
L 230.180655 140.7713 
L 230.472762 140.7713 
L 230.882934 140.7713 
L 231.19096 140.7713 
L 231.459329 140.7713 
L 231.918868 140.7713 
L 232.226273 140.7713 
L 232.893877 140.7713 
L 234.20254 140.7713 
L 235.068455 140.7713 
L 235.968482 140.7713 
L 236.682716 140.7713 
L 237.108505 140.7713 
L 238.316666 140.7713 
L 239.008969 140.7713 
L 239.415991 140.7713 
L 240.350364 140.7713 
L 240.994196 140.7713 
L 241.598128 140.7713 
L 242.285187 140.7713 
L 243.267209 140.7713 
L 243.71 140.7713 
L 244.054998 140.7713 
L 244.609286 140.7713 
L 245.029067 140.7713 
L 245.826888 140.7713 
L 246.329726 140.7713 
L 247.908658 140.7713 
L 248.565316 140.7713 
L 249.969352 140.7713 
L 251.773022 140.7713 
L 252.304504 140.7713 
L 252.608148 140.7713 
L 252.892919 140.7713 
L 253.233074 140.7713 
L 253.421985 140.7713 
L 253.547521 140.7713 
L 254.334124 140.7713 
L 254.542625 140.7713 
L 255.568428 140.7713 
L 255.856755 140.7713 
L 256.147757 140.7713 
L 256.864894 140.7713 
L 257.267747 140.7713 
L 257.556074 140.7713 
L 257.852976 140.7713 
L 258.259018 140.7713 
L 258.554015 140.7713 
L 259.093674 140.7713 
L 260.249318 140.7713 
L 260.486069 140.7713 
L 260.67434 140.7713 
L 261.250865 140.7713 
L 262.278226 140.7713 
L 262.659019 140.7713 
L 263.006873 140.7713 
L 263.553335 140.7713 
L 263.903716 140.7713 
L 264.308361 140.7713 
L 264.771261 140.7713 
L 265.188735 140.7713 
L 265.689921 140.7713 
L 266.459716 140.125561 
L 267.478709 139.479821 
L 268.37471 138.834081 
L 270.656427 137.542601 
L 271.332866 137.542601 
L 271.403714 137.542601 
L 271.868648 137.542601 
L 272.216503 137.542601 
L 272.484152 137.542601 
L 272.910947 137.542601 
L 273.458948 137.542601 
L 274.117071 138.188341 
L 274.479585 138.511211 
L 275.019182 138.834081 
L 275.331087 139.156951 
L 275.944928 139.479821 
L 276.97726 140.125561 
L 278.094168 140.7713 
L 278.77209 140.7713 
L 279.572426 140.7713 
L 280.850967 140.7713 
L 281.811539 140.7713 
L 282.331862 140.7713 
L 283.690511 140.7713 
L 284.881044 140.7713 
L 285.747392 140.7713 
L 286.402471 140.7713 
L 287.841195 140.7713 
L 288.564484 140.7713 
L 289.836951 140.7713 
L 290.601984 140.7713 
L 291.354112 140.7713 
L 291.696658 140.7713 
L 292.087896 141.09417 
L 292.586716 141.41704 
L 292.858464 141.73991 
L 293.19868 142.06278 
L 293.56626 142.38565 
L 293.989386 142.70852 
L 294.861154 143.35426 
L 295.393995 144 
L 295.643556 144 
L 297.944823 142.70852 
L 298.059983 142.70852 
L 298.672535 143.03139 
L 299.634374 143.35426 
L 300.683284 144 
L 300.99967 144 
L 302.076475 143.67713 
L 303.179611 143.35426 
L 303.570455 143.03139 
L 304.741626 142.70852 
L 305.557511 142.38565 
L 307.031977 142.06278 
L 309.112629 141.41704 
L 310.322187 141.09417 
L 310.554965 140.7713 
L 311.672885 140.7713 
L 312.052597 139.156951 
L 313.472439 138.834081 
L 313.656101 138.834081 
L 314.031209 138.834081 
L 314.656034 138.511211 
L 315.131824 138.511211 
L 315.600258 138.188341 
L 316.520719 138.188341 
L 317.301871 137.865471 
L 318.038012 137.542601 
L 318.966314 137.219731 
L 319.744829 136.896861 
L 320.282935 136.573991 
L 320.975086 136.251121 
L 321.7496 135.928251 
L 322.843159 135.282511 
L 323.126986 134.959641 
L 323.657265 134.959641 
L 323.922288 134.636771 
L 325.144612 133.991031 
L 325.484962 133.991031 
L 325.753955 133.668161 
L 326.164541 133.668161 
L 326.573326 133.345291 
L 327.201404 133.022422 
L 328.161439 132.376682 
L 328.488029 132.376682 
L 328.739255 132.053812 
L 329.36284 131.730942 
L 329.58241 131.730942 
L 330.247067 131.408072 
L 330.814874 131.085202 
L 331.723706 129.793722 
L 332.588169 128.179372 
L 333.262226 126.565022 
L 333.47139 126.565022 
L 333.692231 125.919283 
L 333.920518 125.596413 
L 334.226162 124.950673 
L 334.559657 123.982063 
L 334.936218 122.690583 
L 335.632759 121.076233 
L 335.84784 120.753363 
L 336.087992 120.430493 
L 336.369418 120.107623 
L 337.241682 119.139013 
L 337.421365 119.139013 
L 337.614591 118.816143 
L 337.861902 118.493274 
L 338.076117 118.170404 
L 338.69646 117.201794 
L 339.241943 115.910314 
L 340.369497 113.327354 
L 340.549871 113.004484 
L 340.797838 112.358744 
L 341.163138 111.713004 
L 341.440081 111.067265 
L 341.914146 110.421525 
L 342.628038 109.452915 
L 342.996597 109.130045 
L 343.716976 107.838565 
L 343.875482 107.515695 
L 344.004072 107.515695 
L 344.124061 107.192825 
L 344.494467 106.547085 
L 344.759009 105.901345 
L 344.939647 105.578475 
L 345.539418 104.609865 
L 346.240774 103.318386 
L 346.994038 102.349776 
L 347.803387 101.381166 
L 348.158371 101.058296 
L 348.361477 101.058296 
L 348.973546 100.412556 
L 349.550065 100.089686 
L 350.081797 99.443946 
L 350.412166 99.121076 
L 350.752172 98.798206 
L 351.031195 98.152466 
L 351.293287 96.215247 
L 351.545098 94.278027 
L 351.952292 94.278027 
L 352.284137 94.278027 
L 352.442646 94.278027 
L 352.754507 94.600897 
L 353.616206 94.923767 
L 354.422451 95.569507 
L 355.608006 93.955157 
L 355.862511 93.632287 
L 355.965455 93.632287 
L 356.249292 92.986547 
L 356.454004 92.663677 
L 356.616804 92.663677 
L 356.869118 92.017937 
L 357.151871 91.372197 
L 357.559962 90.080717 
L 357.97539 89.112108 
L 358.292843 88.466368 
L 358.534389 87.820628 
L 358.872411 87.174888 
L 359.196659 86.529148 
L 359.45787 86.206278 
L 359.660352 85.883408 
L 359.808375 85.560538 
L 359.972468 85.560538 
L 360.21978 85.237668 
L 360.57446 84.914798 
L 360.888398 84.591928 
L 361.354454 84.269058 
L 361.630519 83.946188 
L 361.982135 83.623318 
L 362.281337 83.300448 
L 362.550027 82.977578 
L 362.72715 82.977578 
L 362.852494 82.977578 
L 363.063914 82.654709 
L 363.355191 82.008969 
L 363.6581 81.686099 
L 363.895085 81.040359 
L 364.161792 80.717489 
L 364.377627 80.394619 
L 364.62129 80.071749 
L 364.874561 79.426009 
L 365.086382 79.103139 
L 365.271124 79.103139 
L 365.55497 78.780269 
L 365.60811 78.457399 
L 365.873806 78.134529 
L 366.376269 77.488789 
L 366.87977 76.843049 
L 367.471823 76.197309 
L 367.897539 75.55157 
L 368.186014 74.90583 
L 368.549428 74.26009 
L 368.914117 73.29148 
L 369.298721 72.96861 
L 369.475851 72.64574 
L 369.830053 72.64574 
L 370.122182 72.32287 
L 370.361006 72.32287 
L 370.542993 72 
L 371.365755 70.06278 
L 372.218617 68.7713 
L 372.715965 68.125561 
L 372.931098 67.802691 
L 373.466969 67.156951 
L 374.069182 66.511211 
L 374.713145 66.188341 
L 375.205961 65.865471 
L 375.600106 65.865471 
L 375.859592 65.865471 
L 376.428216 65.542601 
L 376.542145 65.542601 
L 376.848158 64.573991 
L 377.012319 64.573991 
L 377.411722 64.251121 
L 377.87539 63.605381 
L 378.11422 63.605381 
L 378.393488 63.282511 
L 378.719549 62.959641 
L 379.001596 62.636771 
L 379.315664 61.991031 
L 379.576886 61.668161 
L 380.02683 61.345291 
L 380.596811 60.699552 
L 381.303641 59.408072 
L 381.942297 58.116592 
L 382.236043 57.470852 
L 382.464758 56.825112 
L 382.591865 56.825112 
L 382.726154 56.825112 
L 382.868722 56.825112 
L 383.070037 56.825112 
L 383.299546 56.825112 
L 383.549117 56.825112 
L 383.764208 56.825112 
L 383.865469 56.825112 
L 383.865469 56.825112 
L 383.96673 56.825112 
L 384.18182 56.825112 
L 384.431392 56.825112 
L 384.660901 56.825112 
L 384.862216 56.825112 
L 385.004783 56.825112 
L 385.139073 56.825112 
L 385.26618 56.825112 
L 385.494895 57.470852 
L 385.788641 58.116592 
L 386.427297 59.408072 
L 387.134127 60.699552 
L 387.704108 61.345291 
L 388.154052 61.668161 
L 388.415274 61.991031 
L 388.729342 62.636771 
L 389.011389 62.959641 
L 389.33745 63.282511 
L 389.616718 63.605381 
L 389.855547 63.605381 
L 390.319216 64.251121 
L 390.718619 64.573991 
L 390.88278 64.573991 
L 390.99523 64.573991 
L 392.108173 64.896861 
L 393.03392 65.219731 
L 393.813067 65.219731 
L 394.29781 65.219731 
L 394.606078 65.542601 
L 395.022591 65.542601 
L 395.691218 65.542601 
L 396.565731 65.865471 
L 397.309425 66.188341 
L 398.213051 66.188341 
L 399.203642 66.511211 
L 399.720016 66.834081 
L 400.338031 67.479821 
L 400.889661 68.125561 
L 401.615857 68.7713 
L 402.129799 69.41704 
L 402.734266 69.09417 
L 403.550691 68.7713 
L 403.923134 68.7713 
L 404.201835 68.7713 
L 404.753972 69.09417 
L 405.229243 69.09417 
L 405.618091 69.09417 
L 406.279868 69.41704 
L 406.811231 69.41704 
L 406.934558 69.41704 
L 407.557859 69.09417 
L 408.124513 68.125561 
L 408.39476 67.802691 
L 408.607329 67.479821 
L 408.963334 66.834081 
L 409.059327 66.511211 
L 409.204919 66.511211 
L 409.459946 66.188341 
L 410.178041 66.511211 
L 410.296577 66.511211 
L 410.880559 66.511211 
L 411.474377 66.188341 
L 411.492745 66.188341 
L 412.060513 65.865471 
L 413.547992 65.542601 
L 413.767078 65.542601 
L 413.905189 65.542601 
L 414.398776 65.219731 
L 414.456085 65.219731 
L 415.176414 65.219731 
L 415.210525 65.219731 
L 415.873681 65.542601 
L 416.091797 65.542601 
L 416.451005 65.542601 
L 416.524536 65.542601 
L 416.670129 65.542601 
L 417.129051 65.219731 
L 417.287477 65.219731 
L 417.421768 64.896861 
L 417.660293 64.896861 
L 417.836804 64.573991 
L 418.173141 64.251121 
L 418.374458 63.928251 
L 418.480902 63.928251 
L 418.790868 63.928251 
L 419.608705 63.605381 
L 420.761315 61.991031 
L 420.816418 62.959641 
L 421.102171 62.959641 
L 421.852051 62.959641 
L 422.301445 63.282511 
L 422.639391 63.282511 
L 422.845426 63.282511 
L 423.195344 63.282511 
L 423.462228 63.282511 
L 423.718324 63.282511 
L 423.829102 63.282511 
L 424.004956 63.282511 
L 424.218082 63.282511 
L 424.643167 63.282511 
L 424.916999 63.282511 
L 425.375102 63.282511 
L 425.900675 63.282511 
L 426.3106 63.282511 
L 426.683538 63.282511 
L 426.940171 63.282511 
L 427.305968 63.282511 
L 427.580653 63.282511 
L 427.739736 63.282511 
L 427.905688 63.605381 
L 428.396619 63.928251 
L 428.771938 63.928251 
L 429.416042 64.573991 
L 429.487048 64.573991 
L 429.818685 64.573991 
L 430.732395 65.219731 
L 431.487175 65.542601 
L 431.718085 65.542601 
L 431.981221 65.865471 
L 432.38574 65.865471 
L 432.599166 66.188341 
L 432.774973 66.188341 
L 433.384956 66.511211 
L 433.934513 67.156951 
L 434.131894 67.156951 
L 434.578384 67.479821 
L 434.933065 67.802691 
L 435.232723 68.125561 
L 435.710907 68.44843 
L 437.247401 70.06278 
L 437.778346 70.70852 
L 438.060896 70.70852 
L 438.263804 70.70852 
L 438.42464 70.70852 
L 438.749811 70.70852 
L 439.107451 71.03139 
L 439.538159 71.03139 
L 439.741724 71.03139 
L 440.116203 71.03139 
L 440.718102 71.35426 
L 441.644359 71.35426 
L 441.912008 71.67713 
L 442.204126 72 
L 442.585669 72.32287 
L 443.671827 73.29148 
L 444.180586 73.29148 
L 444.619674 73.61435 
L 445.102216 73.93722 
L 445.582215 73.93722 
L 445.955242 74.26009 
L 446.266666 74.26009 
L 446.792988 74.58296 
L 447.219711 74.90583 
L 447.837609 74.90583 
L 448.219889 75.2287 
L 448.670407 75.2287 
L 448.877112 75.55157 
L 448.966327 75.55157 
L 449.077107 75.55157 
L 449.140431 75.55157 
L 449.381394 75.55157 
L 449.598781 75.874439 
L 449.723446 75.874439 
L 449.874694 75.874439 
L 449.978544 75.874439 
L 450.067115 75.874439 
L 450.259669 76.197309 
L 450.546041 76.197309 
L 450.758602 76.197309 
L 450.9734 76.197309 
L 451.198002 76.197309 
L 451.419374 76.197309 
L 451.659371 75.874439 
L 451.894674 75.55157 
L 452.173494 75.2287 
L 452.555775 74.90583 
L 452.948482 74.26009 
L 453.36583 73.61435 
L 453.713187 73.29148 
L 454.005306 72.96861 
L 454.320361 72.96861 
L 454.652921 72.64574 
L 454.829175 72.64574 
L 454.990721 72.64574 
L 455.190295 72.64574 
L 455.334177 72.32287 
L 455.487177 72.32287 
L 455.611528 72.32287 
L 455.900509 72.32287 
L 456.267485 72 
L 456.528909 72 
L 456.768536 72 
L 457.03415 71.67713 
L 457.335909 71.67713 
L 457.585187 71.67713 
L 457.764152 71.35426 
L 457.961914 71.35426 
L 458.139058 71.35426 
L 458.307107 71.35426 
L 458.435982 71.35426 
L 458.630157 71.03139 
L 458.931916 71.03139 
L 459.181391 71.03139 
L 459.339824 70.70852 
L 459.552445 70.70852 
L 459.703783 70.70852 
L 459.901529 70.70852 
L 460.189505 70.38565 
L 460.52724 70.38565 
L 460.721415 70.38565 
L 461.09309 70.06278 
L 461.395368 70.06278 
L 461.538167 70.06278 
L 461.769614 70.06278 
L 461.945421 69.73991 
L 462.098187 69.73991 
L 462.266237 69.73991 
L 462.407509 69.73991 
L 462.636625 69.41704 
L 462.851783 69.41704 
L 463.065593 69.09417 
L 463.229439 69.09417 
L 463.325435 69.09417 
L 463.433018 69.09417 
L 463.539153 68.7713 
L 463.690492 68.7713 
L 463.981555 68.7713 
L 464.188035 68.44843 
L 464.433137 68.44843 
L 464.630006 68.125561 
L 464.816188 68.125561 
L 464.995152 68.125561 
L 465.369631 67.802691 
L 465.691553 67.802691 
L 466.190327 67.479821 
L 466.673124 67.156951 
L 466.830563 67.156951 
L 467.203502 67.156951 
L 467.720749 67.156951 
L 468.303487 67.156951 
L 468.446543 67.156951 
L 468.53493 67.156951 
L 468.738782 67.156951 
L 468.928758 67.156951 
L 469.158278 67.156951 
L 469.422834 67.156951 
L 469.571719 67.156951 
L 469.753636 67.156951 
L 469.806116 67.156951 
L 469.95797 67.156951 
L 470.12405 67.156951 
L 470.23923 67.156951 
L 470.280016 67.156951 
L 470.356895 67.156951 
L 470.447854 67.156951 
L 470.571181 67.156951 
L 470.694508 67.156951 
L 470.819102 67.156951 
L 470.917543 67.156951 
L 471.049434 67.156951 
L 471.486468 67.156951 
L 471.716881 67.156951 
L 471.775397 67.156951 
L 471.843621 67.156951 
L 472.019482 67.156951 
L 472.202591 67.156951 
L 472.32748 67.156951 
L 472.382584 66.834081 
L 472.473179 66.834081 
L 472.613139 66.834081 
L 472.884145 66.834081 
L 473.314861 66.511211 
L 473.556991 66.511211 
L 473.886101 66.188341 
L 474.391156 65.542601 
L 474.731208 64.896861 
L 474.843878 64.896861 
L 475.192771 64.251121 
L 475.950961 63.282511 
L 476.429794 62.959641 
L 476.95509 62.313901 
L 477.304926 61.991031 
L 477.656616 61.668161 
L 477.982788 61.345291 
L 478.460239 61.022422 
L 478.816988 60.699552 
L 479.073021 60.376682 
L 479.356635 60.376682 
L 479.60275 60.053812 
L 479.728144 59.730942 
L 479.982227 59.408072 
L 480.26097 59.085202 
L 480.638527 58.439462 
L 480.98137 57.793722 
L 481.116459 57.470852 
L 481.329084 57.147982 
L 481.596465 56.825112 
L 481.900298 56.179372 
L 482.22222 55.210762 
L 482.697877 54.242152 
L 483.191827 53.273543 
L 483.736193 52.304933 
L 484.171829 51.659193 
L 484.536508 51.336323 
L 484.874042 50.690583 
L 485.241269 50.044843 
L 485.503668 49.721973 
L 485.868346 49.399103 
L 486.301542 48.753363 
L 486.648903 48.430493 
L 486.895494 48.107623 
L 487.360365 47.461883 
L 487.785579 47.139013 
L 488.254373 46.493274 
L 488.811027 46.170404 
L 489.262567 45.847534 
L 489.630597 45.524664 
L 489.974558 45.201794 
L 490.332681 44.878924 
L 490.469977 44.556054 
L 490.548643 44.556054 
L 490.716149 44.556054 
L 490.861966 44.233184 
L 490.987367 44.233184 
L 491.401069 43.910314 
L 491.691418 43.587444 
L 491.966517 43.264574 
L 492.186181 43.264574 
L 492.757603 42.618834 
L 493.526026 41.973094 
L 494.048163 41.650224 
L 494.379978 41.327354 
L 495.121686 40.681614 
L 495.687394 40.035874 
L 496.004071 39.390135 
L 496.547056 38.744395 
L 497.062875 38.098655 
L 497.839852 37.130045 
L 498.552098 35.515695 
L 499.225229 33.901345 
L 499.575345 33.578475 
L 499.915142 32.932735 
L 500.264993 32.609865 
L 500.711471 31.964126 
L 501.14645 31.318386 
L 501.490115 30.995516 
L 501.80211 31.318386 
L 502.04874 31.318386 
L 502.279762 31.318386 
L 502.483616 31.318386 
L 502.735936 31.641256 
L 502.983093 31.641256 
L 503.248116 31.641256 
L 503.640213 31.964126 
L 503.731172 31.964126 
L 503.906979 31.964126 
L 504.088523 31.964126 
L 504.278084 31.964126 
L 504.612331 32.286996 
L 504.959253 31.641256 
L 505.070681 31.318386 
L 505.398142 30.672646 
L 505.663165 30.349776 
L 505.910494 29.704036 
L 506.099384 29.381166 
L 506.229317 29.381166 
L 506.346098 29.058296 
L 506.525842 28.735426 
L 506.809232 28.089686 
L 507.113065 27.766816 
L 507.359696 27.443946 
L 507.639141 27.443946 
L 507.965405 27.121076 
L 508.164198 27.121076 
L 508.318 26.798206 
L 508.44579 26.798206 
L 508.557218 26.798206 
L 508.650336 26.798206 
L 508.871938 26.475336 
L 509.089078 26.475336 
L 509.271838 26.475336 
L 509.423128 26.152466 
L 509.625639 26.152466 
L 509.808595 25.829596 
L 510.005978 25.829596 
L 510.385268 25.506726 
L 510.721507 25.506726 
L 511.091489 25.183857 
L 511.35698 24.860987 
L 511.616143 24.860987 
L 511.865331 24.538117 
L 512.078612 24.538117 
L 512.32852 24.215247 
L 512.609286 24.215247 
L 512.845805 23.892377 
L 513.108568 23.892377 
L 513.3552 23.569507 
L 513.609623 23.569507 
L 513.852178 23.246637 
L 514.053803 23.246637 
L 514.23485 22.923767 
L 514.402369 22.923767 
L 514.564874 22.923767 
L 514.716737 22.600897 
L 514.86808 22.600897 
L 514.991407 22.600897 
L 515.133975 22.600897 
L 515.365017 22.278027 
L 515.571729 22.278027 
L 515.708443 21.955157 
L 515.902618 21.955157 
L 516.103941 21.955157 
L 516.354955 21.632287 
L 516.673779 21.309417 
L 517.078808 20.986547 
L 517.262727 20.986547 
L 517.463174 20.663677 
L 517.671694 20.663677 
L 518.450462 20.017937 
L 519.330788 19.049327 
L 519.555474 19.049327 
L 519.759929 18.726457 
L 520.111652 18.403587 
L 520.499795 18.080717 
L 520.604675 18.080717 
L 520.84752 18.080717 
L 521.483106 18.403587 
L 521.855689 18.726457 
L 522.282826 19.049327 
L 522.88207 19.372197 
L 523.198773 19.372197 
L 523.459838 19.372197 
L 523.762048 19.695067 
L 524.026038 19.695067 
L 524.190255 20.017937 
L 524.33834 20.017937 
L 524.555692 20.017937 
L 524.928229 20.017937 
L 525.22053 20.340807 
L 528.116519 20.986547 
L 530.166585 21.955157 
L 530.793846 22.278027 
L 531.159555 22.600897 
L 531.533558 22.923767 
L 532.593262 23.246637 
L 533.872288 23.892377 
L 534.237532 24.215247 
L 534.568573 24.215247 
L 534.677944 24.215247 
L 534.879268 24.538117 
L 535.339684 24.538117 
L 536.153313 25.183857 
L 536.473264 25.183857 
L 537.123673 25.506726 
L 538.992234 26.475336 
L 539.469264 26.798206 
L 540.074181 27.121076 
L 540.361281 27.121076 
L 540.550846 27.443946 
L 541.312532 27.766816 
L 544.643134 30.995516 
L 544.882178 30.995516 
L 545.518953 30.995516 
L 545.862527 30.995516 
L 546.131611 30.995516 
L 546.487763 30.995516 
L 546.989114 30.995516 
L 547.543547 30.995516 
L 547.89242 30.995516 
L 548.13345 30.995516 
L 548.745846 30.995516 
L 549.212126 30.995516 
L 550.193769 31.318386 
L 550.733394 31.641256 
L 551.224943 31.641256 
L 552.092976 31.964126 
L 552.777141 32.286996 
L 553.487036 32.609865 
L 554.155601 32.932735 
L 554.741481 32.932735 
L 555.432072 33.255605 
L 556.334982 33.578475 
L 556.535074 33.578475 
L 556.937725 33.901345 
L 557.151006 33.901345 
L 558.417979 35.192825 
L 559.444284 37.130045 
L 559.885395 37.452915 
L 560.295587 38.098655 
L 560.825846 39.390135 
L 561.667772 43.264574 
L 562.257736 43.264574 
L 562.637516 43.587444 
L 563.520985 43.587444 
L 563.991602 43.910314 
L 564.354702 43.910314 
L 565.044677 44.878924 
L 565.378941 45.524664 
L 565.717817 45.847534 
L 566.050827 46.170404 
L 566.459961 46.816143 
L 567.595709 48.430493 
L 567.898995 49.076233 
L 568.21548 49.399103 
L 568.469904 49.721973 
L 568.826127 50.367713 
L 569.204193 50.690583 
L 569.510078 50.690583 
L 570.354994 51.013453 
L 571.607987 51.659193 
L 572.40012 51.982063 
L 572.961471 52.304933 
L 573.476167 52.304933 
L 574.116978 52.627803 
L 574.787766 52.950673 
L 575.423765 53.273543 
L 575.850808 53.273543 
L 576.177819 53.596413 
L 576.547681 53.919283 
L 577.932265 54.887892 
L 578.199911 55.210762 
L 578.468524 55.533632 
L 578.874748 55.856502 
L 579.468645 56.179372 
L 580.006013 56.502242 
L 581.420837 58.116592 
L 581.646841 58.439462 
L 581.862005 58.439462 
L 582.063332 58.762332 
L 582.348177 59.085202 
L 582.691926 59.408072 
L 583.16754 59.730942 
L 584.485812 60.053812 
L 584.820039 60.053812 
L 585.352708 60.053812 
L 585.695983 60.053812 
L 586.509551 60.053812 
L 587.311123 60.053812 
L 587.859816 60.053812 
L 588.052257 60.053812 
L 588.536146 60.053812 
L 589.010438 60.053812 
L 589.351784 60.053812 
L 589.546767 60.053812 
L 589.687961 60.053812 
L 590.204397 60.053812 
L 590.495751 60.053812 
L 590.716214 60.053812 
L 591.360353 60.053812 
L 592.181429 58.762332 
L 592.403003 58.116592 
L 592.733218 57.147982 
L 593.839615 54.242152 
L 594.09385 53.596413 
L 594.459495 52.627803 
L 595.113939 51.336323 
L 595.532769 50.367713 
L 595.990206 49.076233 
L 596.559664 47.784753 
L 597.03723 47.139013 
L 597.274637 47.139013 
L 597.440742 47.139013 
L 597.694443 47.139013 
L 597.997007 47.139013 
L 598.340142 47.139013 
L 598.851368 46.816143 
L 599.508369 45.847534 
L 600.076258 44.878924 
L 600.608965 43.910314 
L 601.058054 43.587444 
L 601.724574 43.264574 
L 602.102987 42.941704 
L 602.423719 42.618834 
L 602.932589 42.295964 
L 603.150658 41.973094 
L 603.493934 41.650224 
L 604.522816 41.004484 
L 604.887505 40.681614 
L 605.186639 40.035874 
L 605.576658 39.390135 
L 605.972197 38.421525 
L 606.341422 37.775785 
L 606.590543 37.452915 
L 606.955835 37.452915 
L 608.013084 36.807175 
L 608.732632 36.484305 
L 609.135653 36.484305 
L 609.574375 36.161435 
L 609.85273 36.161435 
L 610.574273 35.838565 
L 610.91627 35.838565 
L 611.366871 35.515695 
L 611.855723 35.515695 
L 612.086454 35.192825 
L 612.195186 35.192825 
L 612.60048 35.192825 
L 612.974552 34.869955 
L 613.347254 34.869955 
L 614.128594 34.547085 
L 614.810845 34.224215 
L 615.254236 34.224215 
L 615.560647 33.901345 
L 615.835512 33.901345 
L 616.138139 33.901345 
L 616.953124 33.578475 
L 617.698709 33.255605 
L 618.437149 33.255605 
L 619.14212 32.932735 
L 619.532148 32.932735 
L 619.894807 32.609865 
L 620.55727 32.609865 
L 622.596479 31.964126 
L 622.753279 31.964126 
L 622.932589 31.964126 
L 623.078189 31.641256 
L 623.498759 31.641256 
L 624.266282 31.318386 
L 624.910429 31.318386 
L 625.989693 30.672646 
L 626.310425 30.349776 
L 626.559344 30.349776 
L 626.797028 30.026906 
L 627.586513 29.381166 
L 628.016171 29.058296 
L 628.799831 28.412556 
L 629.117944 28.089686 
L 629.684725 27.766816 
L 631.587523 27.766816 
L 632.332014 27.766816 
L 632.568434 27.766816 
L 633.239311 27.766816 
L 633.607245 27.766816 
L 633.985956 27.766816 
L 634.603367 27.766816 
L 635.092641 27.766816 
L 635.444702 27.766816 
L 635.878253 27.766816 
L 636.348252 28.412556 
L 636.523231 29.058296 
L 636.729956 29.381166 
L 637.054472 30.349776 
L 637.278655 30.672646 
L 638.207818 34.224215 
L 638.561028 34.547085 
L 638.88732 35.192825 
L 639.300177 35.515695 
L 639.548238 36.161435 
L 639.907767 36.484305 
L 641.382715 39.067265 
L 643.127015 41.973094 
L 644.498392 44.233184 
L 645.449544 45.524664 
L 646.636597 47.139013 
L 647.026111 47.784753 
L 647.291021 48.107623 
L 647.56095 48.753363 
L 648.463816 50.044843 
L 648.661567 50.367713 
L 648.916019 50.690583 
L 649.218182 51.013453 
L 649.324318 51.013453 
L 649.477188 51.336323 
L 649.701255 51.336323 
L 650.160795 51.659193 
L 650.657995 51.982063 
L 651.216919 52.627803 
L 651.836887 52.950673 
L 652.148332 53.273543 
L 652.394471 53.273543 
L 652.61163 53.596413 
L 652.997047 53.919283 
L 653.400451 54.565022 
L 653.853736 54.887892 
L 654.172619 55.210762 
L 654.323973 55.533632 
L 654.573252 55.856502 
L 655.830259 57.793722 
L 656.560129 59.408072 
L 657.306185 60.699552 
L 657.901087 61.668161 
L 658.127 61.991031 
L 658.540768 62.313901 
L 658.827402 62.959641 
L 659.124469 63.282511 
L 659.441965 63.605381 
L 659.78172 63.928251 
L 660.490524 64.573991 
L 660.61512 64.573991 
L 661.535509 65.542601 
L 662.264298 66.188341 
L 663.02263 66.834081 
L 663.681439 66.834081 
L 664.003368 67.156951 
L 664.271117 67.156951 
L 664.585143 67.479821 
L 665.137395 67.802691 
L 665.428554 67.802691 
L 666.052287 68.125561 
L 666.855222 68.44843 
L 667.476953 68.7713 
L 668.855028 69.41704 
L 669.266079 69.73991 
L 669.466578 69.73991 
L 670.819947 69.73991 
L 671.333953 69.73991 
L 671.687183 69.73991 
L 672.028817 69.73991 
L 673.042936 69.73991 
L 673.497004 69.41704 
L 673.885758 69.09417 
L 674.265058 69.09417 
L 674.592134 68.7713 
L 675.130916 68.7713 
L 675.416777 68.44843 
L 675.716437 68.44843 
L 676.644377 67.802691 
L 677.321946 67.479821 
L 678.038111 67.156951 
L 678.963694 66.834081 
L 679.424298 66.511211 
L 680.078765 64.896861 
L 680.623145 66.188341 
L 681.384202 65.865471 
L 681.512004 65.865471 
L 681.714575 66.188341 
L 682.514994 66.834081 
L 683.622457 67.156951 
L 684.075967 67.156951 
L 684.77407 67.479821 
L 685.245691 67.802691 
L 685.615629 67.802691 
L 686.403816 68.125561 
L 687.129491 68.44843 
L 687.542694 68.44843 
L 687.935441 68.7713 
L 688.195564 67.156951 
L 688.81486 63.928251 
L 689.640249 63.282511 
L 690.498116 63.282511 
L 690.577348 63.282511 
L 690.929635 63.282511 
L 691.905347 58.439462 
L 692.577466 57.147982 
L 693.539413 55.210762 
L 694.615115 53.273543 
L 695.588915 51.336323 
L 696.648094 49.399103 
L 697.263632 48.107623 
L 697.836238 47.139013 
L 698.843418 44.233184 
L 699.565762 42.618834 
L 700.00471 41.650224 
L 700.283559 41.004484 
L 701.272363 38.421525 
L 702.706607 33.901345 
L 703.245701 32.609865 
L 703.758474 31.641256 
L 704.149448 30.672646 
L 704.458845 30.026906 
L 704.72148 29.381166 
L 704.992124 29.058296 
L 705.538354 27.766816 
L 705.965648 27.121076 
L 706.485939 25.829596 
L 707.973908 21.955157 
L 709.215976 19.695067 
L 709.880329 18.403587 
L 710.335469 17.757848 
L 711.003076 16.466368 
L 711.351761 15.820628 
L 712.313065 13.883408 
L 714.17688 9.040359 
L 714.835624 7.748879 
L 715.294009 7.103139 
L 715.851081 6.134529 
L 716.347998 5.488789 
L 716.711262 4.843049 
L 717.646515 2.58296 
L 718.228807 1.61435 
L 718.550201 1.29148 
L 718.852023 1.29148 
L 719.069574 0.96861 
L 719.396667 0.64574 
L 720 0 
L 720 144 
L 720 144 
L 719.396667 144 
L 719.069574 144 
L 718.852023 144 
L 718.550201 144 
L 718.228807 144 
L 717.646515 144 
L 716.711262 144 
L 716.347998 144 
L 715.851081 144 
L 715.294009 144 
L 714.835624 144 
L 714.17688 144 
L 712.313065 144 
L 711.351761 144 
L 711.003076 144 
L 710.335469 144 
L 709.880329 144 
L 709.215976 144 
L 707.973908 144 
L 706.485939 144 
L 705.965648 144 
L 705.538354 144 
L 704.992124 144 
L 704.72148 144 
L 704.458845 144 
L 704.149448 144 
L 703.758474 144 
L 703.245701 144 
L 702.706607 144 
L 701.272363 144 
L 700.283559 144 
L 700.00471 144 
L 699.565762 144 
L 698.843418 144 
L 697.836238 144 
L 697.263632 144 
L 696.648094 144 
L 695.588915 144 
L 694.615115 144 
L 693.539413 144 
L 692.577466 144 
L 691.905347 144 
L 690.929635 144 
L 690.577348 144 
L 690.498116 144 
L 689.640249 144 
L 688.81486 144 
L 688.195564 144 
L 687.935441 144 
L 687.542694 144 
L 687.129491 144 
L 686.403816 144 
L 685.615629 144 
L 685.245691 144 
L 684.77407 144 
L 684.075967 144 
L 683.622457 144 
L 682.514994 144 
L 681.714575 144 
L 681.512004 144 
L 681.384202 144 
L 680.623145 144 
L 680.078765 144 
L 679.424298 144 
L 678.963694 144 
L 678.038111 144 
L 677.321946 144 
L 676.644377 144 
L 675.716437 144 
L 675.416777 144 
L 675.130916 144 
L 674.592134 144 
L 674.265058 144 
L 673.885758 144 
L 673.497004 144 
L 673.042936 144 
L 672.028817 144 
L 671.687183 144 
L 671.333953 144 
L 670.819947 144 
L 669.466578 144 
L 669.266079 144 
L 668.855028 144 
L 667.476953 144 
L 666.855222 144 
L 666.052287 144 
L 665.428554 144 
L 665.137395 144 
L 664.585143 144 
L 664.271117 144 
L 664.003368 144 
L 663.681439 144 
L 663.02263 144 
L 662.264298 144 
L 661.535509 144 
L 660.61512 144 
L 660.490524 144 
L 659.78172 144 
L 659.441965 144 
L 659.124469 144 
L 658.827402 144 
L 658.540768 144 
L 658.127 144 
L 657.901087 144 
L 657.306185 144 
L 656.560129 144 
L 655.830259 144 
L 654.573252 144 
L 654.323973 144 
L 654.172619 144 
L 653.853736 144 
L 653.400451 144 
L 652.997047 144 
L 652.61163 144 
L 652.394471 144 
L 652.148332 144 
L 651.836887 144 
L 651.216919 144 
L 650.657995 144 
L 650.160795 144 
L 649.701255 144 
L 649.477188 144 
L 649.324318 144 
L 649.218182 144 
L 648.916019 144 
L 648.661567 144 
L 648.463816 144 
L 647.56095 144 
L 647.291021 144 
L 647.026111 144 
L 646.636597 144 
L 645.449544 144 
L 644.498392 144 
L 643.127015 144 
L 641.382715 144 
L 639.907767 144 
L 639.548238 144 
L 639.300177 144 
L 638.88732 144 
L 638.561028 144 
L 638.207818 144 
L 637.278655 144 
L 637.054472 144 
L 636.729956 144 
L 636.523231 144 
L 636.348252 144 
L 635.878253 144 
L 635.444702 144 
L 635.092641 144 
L 634.603367 144 
L 633.985956 144 
L 633.607245 144 
L 633.239311 144 
L 632.568434 144 
L 632.332014 144 
L 631.587523 144 
L 629.684725 144 
L 629.117944 144 
L 628.799831 144 
L 628.016171 144 
L 627.586513 144 
L 626.797028 144 
L 626.559344 144 
L 626.310425 144 
L 625.989693 144 
L 624.910429 144 
L 624.266282 144 
L 623.498759 144 
L 623.078189 144 
L 622.932589 144 
L 622.753279 144 
L 622.596479 144 
L 620.55727 144 
L 619.894807 144 
L 619.532148 144 
L 619.14212 144 
L 618.437149 144 
L 617.698709 144 
L 616.953124 144 
L 616.138139 144 
L 615.835512 144 
L 615.560647 144 
L 615.254236 144 
L 614.810845 144 
L 614.128594 144 
L 613.347254 144 
L 612.974552 144 
L 612.60048 144 
L 612.195186 144 
L 612.086454 144 
L 611.855723 144 
L 611.366871 144 
L 610.91627 144 
L 610.574273 144 
L 609.85273 144 
L 609.574375 144 
L 609.135653 144 
L 608.732632 144 
L 608.013084 144 
L 606.955835 144 
L 606.590543 144 
L 606.341422 144 
L 605.972197 144 
L 605.576658 144 
L 605.186639 144 
L 604.887505 144 
L 604.522816 144 
L 603.493934 144 
L 603.150658 144 
L 602.932589 144 
L 602.423719 144 
L 602.102987 144 
L 601.724574 144 
L 601.058054 144 
L 600.608965 144 
L 600.076258 144 
L 599.508369 144 
L 598.851368 144 
L 598.340142 144 
L 597.997007 144 
L 597.694443 144 
L 597.440742 144 
L 597.274637 144 
L 597.03723 144 
L 596.559664 144 
L 595.990206 144 
L 595.532769 144 
L 595.113939 144 
L 594.459495 144 
L 594.09385 144 
L 593.839615 144 
L 592.733218 144 
L 592.403003 144 
L 592.181429 144 
L 591.360353 144 
L 590.716214 144 
L 590.495751 144 
L 590.204397 144 
L 589.687961 144 
L 589.546767 144 
L 589.351784 144 
L 589.010438 144 
L 588.536146 144 
L 588.052257 144 
L 587.859816 144 
L 587.311123 144 
L 586.509551 144 
L 585.695983 144 
L 585.352708 144 
L 584.820039 144 
L 584.485812 144 
L 583.16754 144 
L 582.691926 144 
L 582.348177 144 
L 582.063332 144 
L 581.862005 144 
L 581.646841 144 
L 581.420837 144 
L 580.006013 144 
L 579.468645 144 
L 578.874748 144 
L 578.468524 144 
L 578.199911 144 
L 577.932265 144 
L 576.547681 144 
L 576.177819 144 
L 575.850808 144 
L 575.423765 144 
L 574.787766 144 
L 574.116978 144 
L 573.476167 144 
L 572.961471 144 
L 572.40012 144 
L 571.607987 144 
L 570.354994 144 
L 569.510078 144 
L 569.204193 144 
L 568.826127 144 
L 568.469904 144 
L 568.21548 144 
L 567.898995 144 
L 567.595709 144 
L 566.459961 144 
L 566.050827 144 
L 565.717817 144 
L 565.378941 144 
L 565.044677 144 
L 564.354702 144 
L 563.991602 144 
L 563.520985 144 
L 562.637516 144 
L 562.257736 144 
L 561.667772 144 
L 560.825846 144 
L 560.295587 144 
L 559.885395 144 
L 559.444284 144 
L 558.417979 144 
L 557.151006 144 
L 556.937725 144 
L 556.535074 144 
L 556.334982 144 
L 555.432072 144 
L 554.741481 144 
L 554.155601 144 
L 553.487036 144 
L 552.777141 144 
L 552.092976 144 
L 551.224943 144 
L 550.733394 144 
L 550.193769 144 
L 549.212126 144 
L 548.745846 144 
L 548.13345 144 
L 547.89242 144 
L 547.543547 144 
L 546.989114 144 
L 546.487763 144 
L 546.131611 144 
L 545.862527 144 
L 545.518953 144 
L 544.882178 144 
L 544.643134 144 
L 541.312532 144 
L 540.550846 144 
L 540.361281 144 
L 540.074181 144 
L 539.469264 144 
L 538.992234 144 
L 537.123673 144 
L 536.473264 144 
L 536.153313 144 
L 535.339684 144 
L 534.879268 144 
L 534.677944 144 
L 534.568573 144 
L 534.237532 144 
L 533.872288 144 
L 532.593262 144 
L 531.533558 144 
L 531.159555 144 
L 530.793846 144 
L 530.166585 144 
L 528.116519 144 
L 525.22053 144 
L 524.928229 144 
L 524.555692 144 
L 524.33834 144 
L 524.190255 144 
L 524.026038 144 
L 523.762048 144 
L 523.459838 144 
L 523.198773 144 
L 522.88207 144 
L 522.282826 144 
L 521.855689 144 
L 521.483106 144 
L 520.84752 144 
L 520.604675 144 
L 520.499795 144 
L 520.111652 144 
L 519.759929 144 
L 519.555474 144 
L 519.330788 144 
L 518.450462 144 
L 517.671694 144 
L 517.463174 144 
L 517.262727 144 
L 517.078808 144 
L 516.673779 144 
L 516.354955 144 
L 516.103941 144 
L 515.902618 144 
L 515.708443 144 
L 515.571729 144 
L 515.365017 144 
L 515.133975 144 
L 514.991407 144 
L 514.86808 144 
L 514.716737 144 
L 514.564874 144 
L 514.402369 144 
L 514.23485 144 
L 514.053803 144 
L 513.852178 144 
L 513.609623 144 
L 513.3552 144 
L 513.108568 144 
L 512.845805 144 
L 512.609286 144 
L 512.32852 144 
L 512.078612 144 
L 511.865331 144 
L 511.616143 144 
L 511.35698 144 
L 511.091489 144 
L 510.721507 144 
L 510.385268 144 
L 510.005978 144 
L 509.808595 144 
L 509.625639 144 
L 509.423128 144 
L 509.271838 144 
L 509.089078 144 
L 508.871938 144 
L 508.650336 144 
L 508.557218 144 
L 508.44579 144 
L 508.318 144 
L 508.164198 144 
L 507.965405 144 
L 507.639141 144 
L 507.359696 144 
L 507.113065 144 
L 506.809232 144 
L 506.525842 144 
L 506.346098 144 
L 506.229317 144 
L 506.099384 144 
L 505.910494 144 
L 505.663165 144 
L 505.398142 144 
L 505.070681 144 
L 504.959253 144 
L 504.612331 144 
L 504.278084 144 
L 504.088523 144 
L 503.906979 144 
L 503.731172 144 
L 503.640213 144 
L 503.248116 144 
L 502.983093 144 
L 502.735936 144 
L 502.483616 144 
L 502.279762 144 
L 502.04874 144 
L 501.80211 144 
L 501.490115 144 
L 501.14645 144 
L 500.711471 144 
L 500.264993 144 
L 499.915142 144 
L 499.575345 144 
L 499.225229 144 
L 498.552098 144 
L 497.839852 144 
L 497.062875 144 
L 496.547056 144 
L 496.004071 144 
L 495.687394 144 
L 495.121686 144 
L 494.379978 144 
L 494.048163 144 
L 493.526026 144 
L 492.757603 144 
L 492.186181 144 
L 491.966517 144 
L 491.691418 144 
L 491.401069 144 
L 490.987367 144 
L 490.861966 144 
L 490.716149 144 
L 490.548643 144 
L 490.469977 144 
L 490.332681 144 
L 489.974558 144 
L 489.630597 144 
L 489.262567 144 
L 488.811027 144 
L 488.254373 144 
L 487.785579 144 
L 487.360365 144 
L 486.895494 144 
L 486.648903 144 
L 486.301542 144 
L 485.868346 144 
L 485.503668 144 
L 485.241269 144 
L 484.874042 144 
L 484.536508 144 
L 484.171829 144 
L 483.736193 144 
L 483.191827 144 
L 482.697877 144 
L 482.22222 144 
L 481.900298 144 
L 481.596465 144 
L 481.329084 144 
L 481.116459 144 
L 480.98137 144 
L 480.638527 144 
L 480.26097 144 
L 479.982227 144 
L 479.728144 144 
L 479.60275 144 
L 479.356635 144 
L 479.073021 144 
L 478.816988 144 
L 478.460239 144 
L 477.982788 144 
L 477.656616 144 
L 477.304926 144 
L 476.95509 144 
L 476.429794 144 
L 475.950961 144 
L 475.192771 144 
L 474.843878 144 
L 474.731208 144 
L 474.391156 144 
L 473.886101 144 
L 473.556991 144 
L 473.314861 144 
L 472.884145 144 
L 472.613139 144 
L 472.473179 144 
L 472.382584 144 
L 472.32748 144 
L 472.202591 144 
L 472.019482 144 
L 471.843621 144 
L 471.775397 144 
L 471.716881 144 
L 471.486468 144 
L 471.049434 144 
L 470.917543 144 
L 470.819102 144 
L 470.694508 144 
L 470.571181 144 
L 470.447854 144 
L 470.356895 144 
L 470.280016 144 
L 470.23923 144 
L 470.12405 144 
L 469.95797 144 
L 469.806116 144 
L 469.753636 144 
L 469.571719 144 
L 469.422834 144 
L 469.158278 144 
L 468.928758 144 
L 468.738782 144 
L 468.53493 144 
L 468.446543 144 
L 468.303487 144 
L 467.720749 144 
L 467.203502 144 
L 466.830563 144 
L 466.673124 144 
L 466.190327 144 
L 465.691553 144 
L 465.369631 144 
L 464.995152 144 
L 464.816188 144 
L 464.630006 144 
L 464.433137 144 
L 464.188035 144 
L 463.981555 144 
L 463.690492 144 
L 463.539153 144 
L 463.433018 144 
L 463.325435 144 
L 463.229439 144 
L 463.065593 144 
L 462.851783 144 
L 462.636625 144 
L 462.407509 144 
L 462.266237 144 
L 462.098187 144 
L 461.945421 144 
L 461.769614 144 
L 461.538167 144 
L 461.395368 144 
L 461.09309 144 
L 460.721415 144 
L 460.52724 144 
L 460.189505 144 
L 459.901529 144 
L 459.703783 144 
L 459.552445 144 
L 459.339824 144 
L 459.181391 144 
L 458.931916 144 
L 458.630157 144 
L 458.435982 144 
L 458.307107 144 
L 458.139058 144 
L 457.961914 144 
L 457.764152 144 
L 457.585187 144 
L 457.335909 144 
L 457.03415 144 
L 456.768536 144 
L 456.528909 144 
L 456.267485 144 
L 455.900509 144 
L 455.611528 144 
L 455.487177 144 
L 455.334177 144 
L 455.190295 144 
L 454.990721 144 
L 454.829175 144 
L 454.652921 144 
L 454.320361 144 
L 454.005306 144 
L 453.713187 144 
L 453.36583 144 
L 452.948482 144 
L 452.555775 144 
L 452.173494 144 
L 451.894674 144 
L 451.659371 144 
L 451.419374 144 
L 451.198002 144 
L 450.9734 144 
L 450.758602 144 
L 450.546041 144 
L 450.259669 144 
L 450.067115 144 
L 449.978544 144 
L 449.874694 144 
L 449.723446 144 
L 449.598781 144 
L 449.381394 144 
L 449.140431 144 
L 449.077107 144 
L 448.966327 144 
L 448.877112 144 
L 448.670407 144 
L 448.219889 144 
L 447.837609 144 
L 447.219711 144 
L 446.792988 144 
L 446.266666 144 
L 445.955242 144 
L 445.582215 144 
L 445.102216 144 
L 444.619674 144 
L 444.180586 144 
L 443.671827 144 
L 442.585669 144 
L 442.204126 144 
L 441.912008 144 
L 441.644359 144 
L 440.718102 144 
L 440.116203 144 
L 439.741724 144 
L 439.538159 144 
L 439.107451 144 
L 438.749811 144 
L 438.42464 144 
L 438.263804 144 
L 438.060896 144 
L 437.778346 144 
L 437.247401 144 
L 435.710907 144 
L 435.232723 144 
L 434.933065 144 
L 434.578384 144 
L 434.131894 144 
L 433.934513 144 
L 433.384956 144 
L 432.774973 144 
L 432.599166 144 
L 432.38574 144 
L 431.981221 144 
L 431.718085 144 
L 431.487175 144 
L 430.732395 144 
L 429.818685 144 
L 429.487048 144 
L 429.416042 144 
L 428.771938 144 
L 428.396619 144 
L 427.905688 144 
L 427.739736 144 
L 427.580653 144 
L 427.305968 144 
L 426.940171 144 
L 426.683538 144 
L 426.3106 144 
L 425.900675 144 
L 425.375102 144 
L 424.916999 144 
L 424.643167 144 
L 424.218082 144 
L 424.004956 144 
L 423.829102 144 
L 423.718324 144 
L 423.462228 144 
L 423.195344 144 
L 422.845426 144 
L 422.639391 144 
L 422.301445 144 
L 421.852051 144 
L 421.102171 144 
L 420.816418 144 
L 420.761315 144 
L 419.608705 144 
L 418.790868 144 
L 418.480902 144 
L 418.374458 144 
L 418.173141 144 
L 417.836804 144 
L 417.660293 144 
L 417.421768 144 
L 417.287477 144 
L 417.129051 144 
L 416.670129 144 
L 416.524536 144 
L 416.451005 144 
L 416.091797 144 
L 415.873681 144 
L 415.210525 144 
L 415.176414 144 
L 414.456085 144 
L 414.398776 144 
L 413.905189 144 
L 413.767078 144 
L 413.547992 144 
L 412.060513 144 
L 411.492745 144 
L 411.474377 144 
L 410.880559 144 
L 410.296577 144 
L 410.178041 144 
L 409.459946 144 
L 409.204919 144 
L 409.059327 144 
L 408.963334 144 
L 408.607329 144 
L 408.39476 144 
L 408.124513 144 
L 407.557859 144 
L 406.934558 144 
L 406.811231 144 
L 406.279868 144 
L 405.618091 144 
L 405.229243 144 
L 404.753972 144 
L 404.201835 144 
L 403.923134 144 
L 403.550691 144 
L 402.734266 144 
L 402.129799 144 
L 401.615857 144 
L 400.889661 144 
L 400.338031 144 
L 399.720016 144 
L 399.203642 144 
L 398.213051 144 
L 397.309425 144 
L 396.565731 144 
L 395.691218 144 
L 395.022591 144 
L 394.606078 144 
L 394.29781 144 
L 393.813067 144 
L 393.03392 144 
L 392.108173 144 
L 390.99523 144 
L 390.88278 144 
L 390.718619 144 
L 390.319216 144 
L 389.855547 144 
L 389.616718 144 
L 389.33745 144 
L 389.011389 144 
L 388.729342 144 
L 388.415274 144 
L 388.154052 144 
L 387.704108 144 
L 387.134127 144 
L 386.427297 144 
L 385.788641 144 
L 385.494895 144 
L 385.26618 144 
L 385.139073 144 
L 385.004783 144 
L 384.862216 144 
L 384.660901 144 
L 384.431392 144 
L 384.18182 144 
L 383.96673 144 
L 383.865469 144 
L 383.865469 144 
L 383.764208 144 
L 383.549117 144 
L 383.299546 144 
L 383.070037 144 
L 382.868722 144 
L 382.726154 144 
L 382.591865 144 
L 382.464758 144 
L 382.236043 144 
L 381.942297 144 
L 381.303641 144 
L 380.596811 144 
L 380.02683 144 
L 379.576886 144 
L 379.315664 144 
L 379.001596 144 
L 378.719549 144 
L 378.393488 144 
L 378.11422 144 
L 377.87539 144 
L 377.411722 144 
L 377.012319 144 
L 376.848158 144 
L 376.542145 144 
L 376.428216 144 
L 375.859592 144 
L 375.600106 144 
L 375.205961 144 
L 374.713145 144 
L 374.069182 144 
L 373.466969 144 
L 372.931098 144 
L 372.715965 144 
L 372.218617 144 
L 371.365755 144 
L 370.542993 144 
L 370.361006 144 
L 370.122182 144 
L 369.830053 144 
L 369.475851 144 
L 369.298721 144 
L 368.914117 144 
L 368.549428 144 
L 368.186014 144 
L 367.897539 144 
L 367.471823 144 
L 366.87977 144 
L 366.376269 144 
L 365.873806 144 
L 365.60811 144 
L 365.55497 144 
L 365.271124 144 
L 365.086382 144 
L 364.874561 144 
L 364.62129 144 
L 364.377627 144 
L 364.161792 144 
L 363.895085 144 
L 363.6581 144 
L 363.355191 144 
L 363.063914 144 
L 362.852494 144 
L 362.72715 144 
L 362.550027 144 
L 362.281337 144 
L 361.982135 144 
L 361.630519 144 
L 361.354454 144 
L 360.888398 144 
L 360.57446 144 
L 360.21978 144 
L 359.972468 144 
L 359.808375 144 
L 359.660352 144 
L 359.45787 144 
L 359.196659 144 
L 358.872411 144 
L 358.534389 144 
L 358.292843 144 
L 357.97539 144 
L 357.559962 144 
L 357.151871 144 
L 356.869118 144 
L 356.616804 144 
L 356.454004 144 
L 356.249292 144 
L 355.965455 144 
L 355.862511 144 
L 355.608006 144 
L 354.422451 144 
L 353.616206 144 
L 352.754507 144 
L 352.442646 144 
L 352.284137 144 
L 351.952292 144 
L 351.545098 144 
L 351.293287 144 
L 351.031195 144 
L 350.752172 144 
L 350.412166 144 
L 350.081797 144 
L 349.550065 144 
L 348.973546 144 
L 348.361477 144 
L 348.158371 144 
L 347.803387 144 
L 346.994038 144 
L 346.240774 144 
L 345.539418 144 
L 344.939647 144 
L 344.759009 144 
L 344.494467 144 
L 344.124061 144 
L 344.004072 144 
L 343.875482 144 
L 343.716976 144 
L 342.996597 144 
L 342.628038 144 
L 341.914146 144 
L 341.440081 144 
L 341.163138 144 
L 340.797838 144 
L 340.549871 144 
L 340.369497 144 
L 339.241943 144 
L 338.69646 144 
L 338.076117 144 
L 337.861902 144 
L 337.614591 144 
L 337.421365 144 
L 337.241682 144 
L 336.369418 144 
L 336.087992 144 
L 335.84784 144 
L 335.632759 144 
L 334.936218 144 
L 334.559657 144 
L 334.226162 144 
L 333.920518 144 
L 333.692231 144 
L 333.47139 144 
L 333.262226 144 
L 332.588169 144 
L 331.723706 144 
L 330.814874 144 
L 330.247067 144 
L 329.58241 144 
L 329.36284 144 
L 328.739255 144 
L 328.488029 144 
L 328.161439 144 
L 327.201404 144 
L 326.573326 144 
L 326.164541 144 
L 325.753955 144 
L 325.484962 144 
L 325.144612 144 
L 323.922288 144 
L 323.657265 144 
L 323.126986 144 
L 322.843159 144 
L 321.7496 144 
L 320.975086 144 
L 320.282935 144 
L 319.744829 144 
L 318.966314 144 
L 318.038012 144 
L 317.301871 144 
L 316.520719 144 
L 315.600258 144 
L 315.131824 144 
L 314.656034 144 
L 314.031209 144 
L 313.656101 144 
L 313.472439 144 
L 312.052597 144 
L 311.672885 144 
L 310.554965 144 
L 310.322187 144 
L 309.112629 144 
L 307.031977 144 
L 305.557511 144 
L 304.741626 144 
L 303.570455 144 
L 303.179611 144 
L 302.076475 144 
L 300.99967 144 
L 300.683284 144 
L 299.634374 144 
L 298.672535 144 
L 298.059983 144 
L 297.944823 144 
L 295.643556 144 
L 295.393995 144 
L 294.861154 144 
L 293.989386 144 
L 293.56626 144 
L 293.19868 144 
L 292.858464 144 
L 292.586716 144 
L 292.087896 144 
L 291.696658 144 
L 291.354112 144 
L 290.601984 144 
L 289.836951 144 
L 288.564484 144 
L 287.841195 144 
L 286.402471 144 
L 285.747392 144 
L 284.881044 144 
L 283.690511 144 
L 282.331862 144 
L 281.811539 144 
L 280.850967 144 
L 279.572426 144 
L 278.77209 144 
L 278.094168 144 
L 276.97726 144 
L 275.944928 144 
L 275.331087 144 
L 275.019182 144 
L 274.479585 144 
L 274.117071 144 
L 273.458948 144 
L 272.910947 144 
L 272.484152 144 
L 272.216503 144 
L 271.868648 144 
L 271.403714 144 
L 271.332866 144 
L 270.656427 144 
L 268.37471 144 
L 267.478709 144 
L 266.459716 144 
L 265.689921 144 
L 265.188735 144 
L 264.771261 144 
L 264.308361 144 
L 263.903716 144 
L 263.553335 144 
L 263.006873 144 
L 262.659019 144 
L 262.278226 144 
L 261.250865 144 
L 260.67434 144 
L 260.486069 144 
L 260.249318 144 
L 259.093674 144 
L 258.554015 144 
L 258.259018 144 
L 257.852976 144 
L 257.556074 144 
L 257.267747 144 
L 256.864894 144 
L 256.147757 144 
L 255.856755 144 
L 255.568428 144 
L 254.542625 144 
L 254.334124 144 
L 253.547521 144 
L 253.421985 144 
L 253.233074 144 
L 252.892919 144 
L 252.608148 144 
L 252.304504 144 
L 251.773022 144 
L 249.969352 144 
L 248.565316 144 
L 247.908658 144 
L 246.329726 144 
L 245.826888 144 
L 245.029067 144 
L 244.609286 144 
L 244.054998 144 
L 243.71 144 
L 243.267209 144 
L 242.285187 144 
L 241.598128 144 
L 240.994196 144 
L 240.350364 144 
L 239.415991 144 
L 239.008969 144 
L 238.316666 144 
L 237.108505 144 
L 236.682716 144 
L 235.968482 144 
L 235.068455 144 
L 234.20254 144 
L 232.893877 144 
L 232.226273 144 
L 231.918868 144 
L 231.459329 144 
L 231.19096 144 
L 230.882934 144 
L 230.472762 144 
L 230.180655 144 
L 229.647954 144 
L 228.27874 144 
L 225.993697 144 
L 224.909288 144 
L 223.905835 144 
L 222.505341 144 
L 222.051786 144 
L 219.894836 144 
L 219.121675 144 
L 218.960303 144 
L 218.68598 144 
L 218.472701 144 
L 217.966959 144 
L 217.629041 144 
L 217.453234 144 
L 217.237429 144 
L 216.918659 144 
L 216.506012 144 
L 215.9173 144 
L 215.583147 144 
L 214.643912 144 
L 213.128762 144 
L 212.443448 144 
L 212.209837 144 
L 211.837231 144 
L 211.262559 144 
L 210.865223 144 
L 210.46312 144 
L 209.597062 144 
L 209.145548 144 
L 208.881669 144 
L 208.618674 144 
L 208.301859 144 
L 207.818462 144 
L 207.621428 144 
L 206.645357 144 
L 206.385599 144 
L 205.756208 144 
L 205.087803 144 
L 204.753655 144 
L 204.194334 144 
L 203.760129 144 
L 203.177272 144 
L 202.758248 144 
L 200.189829 144 
L 199.377246 144 
L 199.039956 144 
L 197.256872 144 
L 196.549025 144 
L 196.35485 144 
L 196.203663 144 
L 195.30457 144 
L 195.138532 144 
L 194.511816 144 
L 193.762119 144 
L 193.33532 144 
L 192.927677 144 
L 192.301365 144 
L 192.074127 144 
L 191.392438 144 
L 191.079998 144 
L 190.533453 144 
L 190.02825 144 
L 189.831547 144 
L 189.404681 144 
L 188.029265 144 
L 187.571882 144 
L 187.391077 144 
L 185.859318 144 
L 185.092726 144 
L 184.82551 144 
L 184.573012 144 
L 184.193474 144 
L 183.370493 144 
L 182.611847 144 
L 182.191363 144 
L 181.43924 144 
L 181.090697 144 
L 180.655921 144 
L 180.177498 144 
L 179.750885 144 
L 179.335361 144 
L 178.897887 144 
L 178.631896 144 
L 178.301028 144 
L 177.358944 144 
L 176.711241 144 
L 176.239985 144 
L 175.808571 144 
L 175.296475 144 
L 174.858998 144 
L 174.282328 144 
L 173.782151 144 
L 173.04607 144 
L 172.688067 144 
L 171.5684 144 
L 170.099749 144 
L 168.660719 144 
L 167.683334 144 
L 166.988312 144 
L 166.169741 144 
L 165.644198 144 
L 165.04081 144 
L 164.465434 144 
L 164.06801 144 
L 163.479354 144 
L 162.651898 144 
L 162.200384 144 
L 161.217056 144 
L 159.685491 144 
L 159.302964 144 
L 158.630184 144 
L 158.290442 144 
L 157.667735 144 
L 156.965697 144 
L 156.181072 144 
L 155.704996 144 
L 155.065807 144 
L 154.461929 144 
L 153.211617 144 
L 150.970042 144 
L 148.865873 144 
L 148.129575 144 
L 147.536223 144 
L 146.281833 144 
L 145.441604 144 
L 144.47001 144 
L 143.510786 144 
L 142.297936 144 
L 140.619318 144 
L 139.522827 144 
L 138.754493 144 
L 137.057419 144 
L 135.448039 144 
L 134.352487 144 
L 133.264719 144 
L 131.741078 144 
L 129.2329 144 
L 128.327849 144 
L 126.81506 144 
L 125.604726 144 
L 124.171944 144 
L 123.136261 144 
L 122.155209 144 
L 120.534961 144 
L 120.108168 144 
L 119.780797 144 
L 118.351026 144 
L 116.938551 144 
L 114.491505 144 
L 113.908761 144 
L 113.653889 144 
L 113.511092 144 
L 113.318996 144 
L 113.069254 144 
L 112.801607 144 
L 112.643384 144 
L 111.356721 144 
L 109.516863 144 
L 107.006113 144 
L 106.438007 144 
L 105.519477 144 
L 102.935184 144 
L 102.40868 144 
L 100.888932 144 
L 100.612906 144 
L 100.381318 144 
L 100.147374 144 
L 99.882187 144 
L 99.680882 144 
L 99.267971 144 
L 99.061552 144 
L 98.777726 144 
L 97.153093 144 
L 95.378867 144 
L 94.675416 144 
L 94.241215 144 
L 93.159132 144 
L 92.804894 144 
L 92.388659 144 
L 91.772481 144 
L 91.367253 144 
L 90.45931 144 
L 89.277779 144 
L 88.670124 144 
L 87.767317 144 
L 86.804052 144 
L 86.547438 144 
L 86.065946 144 
L 85.590597 144 
L 85.065447 144 
L 84.176882 144 
L 84.140146 144 
L 82.297943 144 
L 81.241293 144 
L 80.446029 144 
L 80.127918 144 
L 79.839597 144 
L 79.540046 144 
L 79.154579 144 
L 78.194476 144 
L 77.819199 144 
L 77.497363 144 
L 76.762579 144 
L 75.951624 144 
L 75.501561 144 
L 75.091133 144 
L 74.80719 144 
L 73.690949 144 
L 72.901801 144 
L 72.471145 144 
L 71.610954 144 
L 70.492531 144 
L 69.984942 144 
L 68.774878 144 
L 68.403206 144 
L 68.085211 144 
L 67.730531 144 
L 67.37714 144 
L 67.106189 144 
L 66.629327 144 
L 66.488096 144 
L 66.215234 144 
L 65.456903 144 
L 64.942319 144 
L 64.003415 144 
L 62.664776 144 
L 62.058777 144 
L 61.537007 144 
L 60.273121 144 
L 59.550084 144 
L 59.360187 144 
L 59.187567 144 
L 58.680395 144 
L 58.500662 144 
L 58.2016 144 
L 57.592132 144 
L 56.920691 144 
L 55.537143 144 
L 55.218142 144 
L 54.352004 144 
L 54.063684 144 
L 53.144361 144 
L 52.646275 144 
L 52.162934 144 
L 51.718005 144 
L 51.035334 144 
L 49.604323 144 
L 49.051409 144 
L 48.589154 144 
L 47.950216 144 
L 46.534358 144 
L 46.060647 144 
L 45.232329 144 
L 44.36995 144 
L 43.47704 144 
L 42.434555 144 
L 41.925262 144 
L 41.445076 144 
L 40.498477 144 
L 39.012353 144 
L 37.940185 144 
L 36.473377 144 
L 34.998718 144 
L 33.228459 144 
L 33.105132 144 
L 32.892589 144 
L 32.749537 144 
L 32.621761 144 
L 30.183466 144 
L 29.792021 144 
L 29.207096 144 
L 26.774293 144 
L 25.981437 144 
L 25.394629 144 
L 23.412271 144 
L 22.319112 144 
L 21.220572 144 
L 20.672709 144 
L 19.298185 144 
L 18.85465 144 
L 15.378775 144 
L 14.165576 144 
L 13.761777 144 
L 12.663667 144 
L 12.246342 144 
L 9.641388 144 
L 7.516012 144 
L 7.175734 144 
L 6.480287 144 
L 5.990571 144 
L 4.144155 144 
L 3.169211 144 
L 3.096715 144 
L 3.044328 144 
L 2.994666 144 
L 2.921142 144 
L 2.868663 144 
L 2.812622 144 
L 2.706474 144 
L 0 144 
z
" clip-path="url(#pdd3d1c18e1)" style="fill: #c18182; fill-opacity: 0.3; stroke: #c18182; stroke-opacity: 0.3"/>
   </g>
   <g id="line2d_1">
    <path d="M 0 137.542601 
L 52.162934 137.542601 
L 52.646275 137.219731 
L 53.144361 136.573991 
L 54.352004 135.282511 
L 55.537143 134.313901 
L 62.664776 134.313901 
L 64.942319 137.542601 
L 122.155209 137.542601 
L 123.136261 136.896861 
L 125.604726 134.636771 
L 126.81506 133.668161 
L 128.327849 132.699552 
L 129.2329 131.730942 
L 131.741078 129.470852 
L 133.264719 127.533632 
L 135.448039 124.304933 
L 137.057419 122.367713 
L 138.754493 120.107623 
L 139.522827 119.461883 
L 140.619318 118.170404 
L 142.297936 116.556054 
L 143.510786 115.587444 
L 144.47001 114.295964 
L 145.441604 112.681614 
L 146.281833 111.713004 
L 150.970042 108.161435 
L 153.211617 102.995516 
L 154.461929 102.026906 
L 155.704996 102.026906 
L 156.181072 102.349776 
L 159.302964 103.641256 
L 159.685491 103.964126 
L 162.651898 105.255605 
L 164.465434 108.807175 
L 165.04081 109.452915 
L 165.644198 109.775785 
L 166.169741 110.421525 
L 166.988312 111.067265 
L 170.099749 115.587444 
L 173.04607 121.399103 
L 173.782151 122.367713 
L 174.858998 124.304933 
L 175.296475 124.627803 
L 175.808571 125.273543 
L 176.711241 125.919283 
L 177.358944 126.242152 
L 178.631896 127.533632 
L 178.897887 127.533632 
L 180.177498 128.502242 
L 180.655921 129.147982 
L 181.43924 129.793722 
L 182.611847 130.762332 
L 183.370493 132.053812 
L 184.573012 134.636771 
L 184.82551 134.636771 
L 185.092726 134.959641 
L 187.391077 136.896861 
L 187.571882 136.896861 
L 188.029265 137.219731 
L 190.02825 140.44843 
L 190.533453 140.7713 
L 265.689921 140.7713 
L 266.459716 140.125561 
L 270.656427 137.542601 
L 273.458948 137.542601 
L 274.479585 138.511211 
L 275.019182 138.834081 
L 275.331087 139.156951 
L 276.97726 140.125561 
L 278.094168 140.7713 
L 291.696658 140.7713 
L 294.861154 143.35426 
L 295.393995 144 
L 295.643556 144 
L 298.059983 142.70852 
L 298.672535 143.03139 
L 299.634374 143.35426 
L 300.683284 144 
L 300.99967 144 
L 303.179611 143.35426 
L 303.570455 143.03139 
L 310.322187 141.09417 
L 310.554965 140.7713 
L 311.672885 140.7713 
L 312.052597 139.156951 
L 313.656101 138.834081 
L 314.031209 138.834081 
L 314.656034 138.511211 
L 315.131824 138.511211 
L 315.600258 138.188341 
L 316.520719 138.188341 
L 321.7496 135.928251 
L 322.843159 135.282511 
L 323.126986 134.959641 
L 323.657265 134.959641 
L 323.922288 134.636771 
L 325.144612 133.991031 
L 325.484962 133.991031 
L 325.753955 133.668161 
L 326.164541 133.668161 
L 326.573326 133.345291 
L 327.201404 133.022422 
L 328.161439 132.376682 
L 328.488029 132.376682 
L 328.739255 132.053812 
L 329.58241 131.730942 
L 330.814874 131.085202 
L 331.723706 129.793722 
L 332.588169 128.179372 
L 333.262226 126.565022 
L 333.47139 126.565022 
L 333.692231 125.919283 
L 333.920518 125.596413 
L 334.226162 124.950673 
L 335.632759 121.076233 
L 336.369418 120.107623 
L 337.241682 119.139013 
L 337.421365 119.139013 
L 339.241943 115.910314 
L 341.440081 111.067265 
L 343.716976 107.838565 
L 343.875482 107.515695 
L 344.004072 107.515695 
L 344.124061 107.192825 
L 346.994038 102.349776 
L 348.158371 101.058296 
L 348.361477 101.058296 
L 348.973546 100.412556 
L 349.550065 100.089686 
L 351.031195 98.152466 
L 351.545098 94.278027 
L 352.442646 94.278027 
L 352.754507 94.600897 
L 353.616206 94.923767 
L 354.422451 95.569507 
L 356.616804 92.663677 
L 358.872411 87.174888 
L 359.45787 86.206278 
L 359.972468 85.560538 
L 360.57446 84.914798 
L 362.550027 82.977578 
L 362.852494 82.977578 
L 363.6581 81.686099 
L 363.895085 81.040359 
L 364.62129 80.071749 
L 365.086382 79.103139 
L 365.271124 79.103139 
L 365.55497 78.780269 
L 365.60811 78.457399 
L 367.897539 75.55157 
L 368.914117 73.29148 
L 369.298721 72.96861 
L 369.475851 72.64574 
L 369.830053 72.64574 
L 370.122182 72.32287 
L 370.361006 72.32287 
L 370.542993 72 
L 371.365755 70.06278 
L 372.931098 67.802691 
L 374.069182 66.511211 
L 375.600106 65.865471 
L 375.859592 65.865471 
L 376.542145 65.542601 
L 376.848158 64.573991 
L 377.012319 64.573991 
L 377.411722 64.251121 
L 377.87539 63.605381 
L 378.11422 63.605381 
L 379.001596 62.636771 
L 379.576886 61.668161 
L 380.02683 61.345291 
L 380.596811 60.699552 
L 381.942297 58.116592 
L 382.591865 56.825112 
L 385.26618 56.825112 
L 385.788641 58.116592 
L 387.134127 60.699552 
L 387.704108 61.345291 
L 388.415274 61.991031 
L 388.729342 62.636771 
L 389.616718 63.605381 
L 389.855547 63.605381 
L 390.319216 64.251121 
L 390.88278 64.573991 
L 390.99523 64.573991 
L 393.03392 65.219731 
L 394.29781 65.219731 
L 394.606078 65.542601 
L 395.691218 65.542601 
L 397.309425 66.188341 
L 398.213051 66.188341 
L 399.203642 66.511211 
L 399.720016 66.834081 
L 402.129799 69.41704 
L 403.550691 68.7713 
L 404.201835 68.7713 
L 404.753972 69.09417 
L 405.618091 69.09417 
L 406.279868 69.41704 
L 406.934558 69.41704 
L 407.557859 69.09417 
L 409.059327 66.511211 
L 409.204919 66.511211 
L 409.459946 66.188341 
L 410.296577 66.511211 
L 410.880559 66.511211 
L 412.060513 65.865471 
L 413.905189 65.542601 
L 414.456085 65.219731 
L 415.210525 65.219731 
L 416.091797 65.542601 
L 416.670129 65.542601 
L 417.660293 64.896861 
L 417.836804 64.573991 
L 418.480902 63.928251 
L 418.790868 63.928251 
L 419.608705 63.605381 
L 420.761315 61.991031 
L 420.816418 62.959641 
L 421.852051 62.959641 
L 422.301445 63.282511 
L 427.739736 63.282511 
L 427.905688 63.605381 
L 428.396619 63.928251 
L 428.771938 63.928251 
L 429.487048 64.573991 
L 429.818685 64.573991 
L 430.732395 65.219731 
L 432.38574 65.865471 
L 432.599166 66.188341 
L 432.774973 66.188341 
L 433.384956 66.511211 
L 433.934513 67.156951 
L 434.131894 67.156951 
L 434.933065 67.802691 
L 435.232723 68.125561 
L 435.710907 68.44843 
L 437.778346 70.70852 
L 438.749811 70.70852 
L 439.107451 71.03139 
L 440.116203 71.03139 
L 440.718102 71.35426 
L 441.644359 71.35426 
L 442.585669 72.32287 
L 443.671827 73.29148 
L 444.180586 73.29148 
L 445.102216 73.93722 
L 445.582215 73.93722 
L 445.955242 74.26009 
L 446.266666 74.26009 
L 447.219711 74.90583 
L 447.837609 74.90583 
L 448.219889 75.2287 
L 448.670407 75.2287 
L 448.966327 75.55157 
L 449.381394 75.55157 
L 449.723446 75.874439 
L 450.067115 75.874439 
L 450.259669 76.197309 
L 451.419374 76.197309 
L 452.173494 75.2287 
L 452.555775 74.90583 
L 453.36583 73.61435 
L 454.005306 72.96861 
L 454.320361 72.96861 
L 454.652921 72.64574 
L 455.190295 72.64574 
L 455.334177 72.32287 
L 455.900509 72.32287 
L 456.267485 72 
L 456.768536 72 
L 457.03415 71.67713 
L 457.585187 71.67713 
L 457.764152 71.35426 
L 458.435982 71.35426 
L 458.630157 71.03139 
L 459.181391 71.03139 
L 459.339824 70.70852 
L 459.901529 70.70852 
L 460.189505 70.38565 
L 460.721415 70.38565 
L 461.09309 70.06278 
L 461.769614 70.06278 
L 461.945421 69.73991 
L 462.407509 69.73991 
L 462.636625 69.41704 
L 462.851783 69.41704 
L 463.065593 69.09417 
L 463.433018 69.09417 
L 463.539153 68.7713 
L 463.981555 68.7713 
L 464.188035 68.44843 
L 464.433137 68.44843 
L 464.630006 68.125561 
L 464.995152 68.125561 
L 465.369631 67.802691 
L 465.691553 67.802691 
L 466.830563 67.156951 
L 472.32748 67.156951 
L 472.473179 66.834081 
L 472.884145 66.834081 
L 473.314861 66.511211 
L 473.556991 66.511211 
L 474.391156 65.542601 
L 475.192771 64.251121 
L 475.950961 63.282511 
L 476.429794 62.959641 
L 477.304926 61.991031 
L 479.073021 60.376682 
L 479.356635 60.376682 
L 480.26097 59.085202 
L 481.900298 56.179372 
L 482.22222 55.210762 
L 483.736193 52.304933 
L 484.171829 51.659193 
L 484.536508 51.336323 
L 485.503668 49.721973 
L 485.868346 49.399103 
L 486.648903 48.430493 
L 487.360365 47.461883 
L 487.785579 47.139013 
L 488.254373 46.493274 
L 489.262567 45.847534 
L 490.332681 44.878924 
L 490.548643 44.556054 
L 490.716149 44.556054 
L 490.861966 44.233184 
L 490.987367 44.233184 
L 491.691418 43.587444 
L 491.966517 43.264574 
L 492.186181 43.264574 
L 492.757603 42.618834 
L 495.687394 40.035874 
L 496.004071 39.390135 
L 497.839852 37.130045 
L 499.225229 33.901345 
L 499.575345 33.578475 
L 499.915142 32.932735 
L 500.264993 32.609865 
L 501.490115 30.995516 
L 501.80211 31.318386 
L 502.483616 31.318386 
L 502.735936 31.641256 
L 503.248116 31.641256 
L 503.731172 31.964126 
L 504.278084 31.964126 
L 504.612331 32.286996 
L 507.113065 27.766816 
L 507.359696 27.443946 
L 507.639141 27.443946 
L 507.965405 27.121076 
L 508.164198 27.121076 
L 508.318 26.798206 
L 508.650336 26.798206 
L 508.871938 26.475336 
L 509.271838 26.475336 
L 509.423128 26.152466 
L 509.625639 26.152466 
L 509.808595 25.829596 
L 510.005978 25.829596 
L 510.385268 25.506726 
L 510.721507 25.506726 
L 511.865331 24.538117 
L 512.078612 24.538117 
L 512.32852 24.215247 
L 512.609286 24.215247 
L 512.845805 23.892377 
L 513.108568 23.892377 
L 513.3552 23.569507 
L 513.609623 23.569507 
L 513.852178 23.246637 
L 514.053803 23.246637 
L 514.23485 22.923767 
L 514.564874 22.923767 
L 514.716737 22.600897 
L 515.133975 22.600897 
L 515.365017 22.278027 
L 515.571729 22.278027 
L 515.708443 21.955157 
L 516.103941 21.955157 
L 516.673779 21.309417 
L 517.078808 20.986547 
L 517.262727 20.986547 
L 517.463174 20.663677 
L 517.671694 20.663677 
L 518.450462 20.017937 
L 519.330788 19.049327 
L 519.555474 19.049327 
L 519.759929 18.726457 
L 520.604675 18.080717 
L 520.84752 18.080717 
L 521.483106 18.403587 
L 522.282826 19.049327 
L 522.88207 19.372197 
L 523.459838 19.372197 
L 523.762048 19.695067 
L 524.026038 19.695067 
L 524.190255 20.017937 
L 524.928229 20.017937 
L 525.22053 20.340807 
L 528.116519 20.986547 
L 530.793846 22.278027 
L 531.533558 22.923767 
L 532.593262 23.246637 
L 533.872288 23.892377 
L 534.237532 24.215247 
L 534.677944 24.215247 
L 534.879268 24.538117 
L 535.339684 24.538117 
L 536.153313 25.183857 
L 536.473264 25.183857 
L 538.992234 26.475336 
L 540.074181 27.121076 
L 540.361281 27.121076 
L 540.550846 27.443946 
L 541.312532 27.766816 
L 544.643134 30.995516 
L 549.212126 30.995516 
L 550.193769 31.318386 
L 550.733394 31.641256 
L 551.224943 31.641256 
L 552.777141 32.286996 
L 554.155601 32.932735 
L 554.741481 32.932735 
L 556.334982 33.578475 
L 556.535074 33.578475 
L 556.937725 33.901345 
L 557.151006 33.901345 
L 558.417979 35.192825 
L 559.444284 37.130045 
L 559.885395 37.452915 
L 560.295587 38.098655 
L 560.825846 39.390135 
L 561.667772 43.264574 
L 562.257736 43.264574 
L 562.637516 43.587444 
L 563.520985 43.587444 
L 563.991602 43.910314 
L 564.354702 43.910314 
L 569.204193 50.690583 
L 569.510078 50.690583 
L 570.354994 51.013453 
L 572.961471 52.304933 
L 573.476167 52.304933 
L 575.423765 53.273543 
L 575.850808 53.273543 
L 576.547681 53.919283 
L 577.932265 54.887892 
L 578.874748 55.856502 
L 580.006013 56.502242 
L 581.646841 58.439462 
L 581.862005 58.439462 
L 582.348177 59.085202 
L 583.16754 59.730942 
L 584.820039 60.053812 
L 591.360353 60.053812 
L 592.181429 58.762332 
L 593.839615 54.242152 
L 594.459495 52.627803 
L 595.532769 50.367713 
L 596.559664 47.784753 
L 597.03723 47.139013 
L 598.340142 47.139013 
L 598.851368 46.816143 
L 600.076258 44.878924 
L 600.608965 43.910314 
L 601.058054 43.587444 
L 601.724574 43.264574 
L 604.887505 40.681614 
L 606.341422 37.775785 
L 606.590543 37.452915 
L 606.955835 37.452915 
L 608.732632 36.484305 
L 609.135653 36.484305 
L 609.574375 36.161435 
L 609.85273 36.161435 
L 610.574273 35.838565 
L 610.91627 35.838565 
L 611.366871 35.515695 
L 611.855723 35.515695 
L 612.195186 35.192825 
L 612.60048 35.192825 
L 612.974552 34.869955 
L 613.347254 34.869955 
L 614.810845 34.224215 
L 615.254236 34.224215 
L 615.560647 33.901345 
L 616.138139 33.901345 
L 617.698709 33.255605 
L 618.437149 33.255605 
L 619.14212 32.932735 
L 619.532148 32.932735 
L 619.894807 32.609865 
L 620.55727 32.609865 
L 622.932589 31.964126 
L 623.078189 31.641256 
L 623.498759 31.641256 
L 624.266282 31.318386 
L 624.910429 31.318386 
L 625.989693 30.672646 
L 626.310425 30.349776 
L 626.559344 30.349776 
L 626.797028 30.026906 
L 629.684725 27.766816 
L 635.878253 27.766816 
L 636.348252 28.412556 
L 636.523231 29.058296 
L 636.729956 29.381166 
L 637.278655 30.672646 
L 638.207818 34.224215 
L 638.561028 34.547085 
L 638.88732 35.192825 
L 639.300177 35.515695 
L 639.548238 36.161435 
L 639.907767 36.484305 
L 643.127015 41.973094 
L 644.498392 44.233184 
L 647.291021 48.107623 
L 647.56095 48.753363 
L 649.218182 51.013453 
L 649.324318 51.013453 
L 649.477188 51.336323 
L 649.701255 51.336323 
L 650.657995 51.982063 
L 651.216919 52.627803 
L 651.836887 52.950673 
L 652.148332 53.273543 
L 652.394471 53.273543 
L 652.61163 53.596413 
L 652.997047 53.919283 
L 653.400451 54.565022 
L 654.172619 55.210762 
L 654.573252 55.856502 
L 655.830259 57.793722 
L 656.560129 59.408072 
L 658.127 61.991031 
L 658.540768 62.313901 
L 658.827402 62.959641 
L 659.78172 63.928251 
L 663.02263 66.834081 
L 663.681439 66.834081 
L 664.003368 67.156951 
L 664.271117 67.156951 
L 664.585143 67.479821 
L 665.137395 67.802691 
L 665.428554 67.802691 
L 667.476953 68.7713 
L 668.855028 69.41704 
L 669.266079 69.73991 
L 673.042936 69.73991 
L 673.885758 69.09417 
L 674.265058 69.09417 
L 674.592134 68.7713 
L 675.130916 68.7713 
L 675.416777 68.44843 
L 675.716437 68.44843 
L 676.644377 67.802691 
L 678.038111 67.156951 
L 678.963694 66.834081 
L 679.424298 66.511211 
L 680.078765 64.896861 
L 680.623145 66.188341 
L 681.512004 65.865471 
L 681.714575 66.188341 
L 682.514994 66.834081 
L 683.622457 67.156951 
L 684.075967 67.156951 
L 687.129491 68.44843 
L 687.542694 68.44843 
L 687.935441 68.7713 
L 688.81486 63.928251 
L 689.640249 63.282511 
L 690.929635 63.282511 
L 691.905347 58.439462 
L 697.836238 47.139013 
L 698.843418 44.233184 
L 700.283559 41.004484 
L 701.272363 38.421525 
L 702.706607 33.901345 
L 704.149448 30.672646 
L 706.485939 25.829596 
L 707.973908 21.955157 
L 712.313065 13.883408 
L 714.17688 9.040359 
L 714.835624 7.748879 
L 716.347998 5.488789 
L 716.711262 4.843049 
L 717.646515 2.58296 
L 718.550201 1.29148 
L 718.852023 1.29148 
L 719.396667 0.64574 
L 720 0 
L 720 0 
" clip-path="url(#pdd3d1c18e1)" style="fill: none; stroke: #c18182; stroke-width: 3; stroke-linecap: square"/>
   </g>
  </g>
 </g>
 <defs>
  <clipPath id="pdd3d1c18e1">
   <rect x="0" y="0" width="720" height="144"/>
  </clipPath>
 </defs>
</svg>
